<svg xmlns="http://www.w3.org/2000/svg" width="133.53" height="113.04" viewBox="0 0 133.53 113.04"><title>gefionspringvandet</title><g id="Layer_10" data-name="Layer 10"><path d="M10.69,107.63S-10.3,136,72.63,134c0,0,89.47,3.77,64.83-24.39Z" transform="translate(-8.27 -21.19)" fill="#5283c0" stroke="#2a1000" stroke-miterlimit="10" stroke-width="0.1"/></g><g id="Layer_2" data-name="Layer 2"><path d="M15.43,100.85s-6.56,6.63-5.57,11.68H137.41s1-9.55-6.23-11.68Z" transform="translate(-8.27 -21.19)" fill="#d2c4c4" stroke="#2a1000" stroke-miterlimit="10" stroke-width="0.25"/><path d="M20.71,89.86s-5.95,6.24-5.05,11H131.32s.89-9-5.65-11Z" transform="translate(-8.27 -21.19)" fill="#d2c4c4" stroke="#2a1000" stroke-miterlimit="10" stroke-width="0.25"/><polyline points="117.45 68.45 117.45 54.57 12.54 54.42 12.54 68.67" fill="#cbc1c1" stroke="#2a1000" stroke-miterlimit="10" stroke-width="0.25"/></g><g id="Layer_3" data-name="Layer 3"><ellipse cx="88.09" cy="111.41" rx="2.95" ry="4.12" transform="translate(-37.53 10.22) rotate(-17.38)" fill="#5b5b5b" stroke="#2a1000" stroke-miterlimit="10" stroke-width="0.25"/><ellipse cx="58.99" cy="114.27" rx="2.95" ry="4.12" transform="translate(-39.71 1.66) rotate(-17.38)" fill="#5b5b5b" stroke="#2a1000" stroke-miterlimit="10" stroke-width="0.25"/><ellipse cx="93.63" cy="121.49" rx="4.12" ry="2.95" transform="translate(-55.48 161.05) rotate(-75.71)" fill="#5b5b5b" stroke="#2a1000" stroke-miterlimit="10" stroke-width="0.25"/><ellipse cx="122.65" cy="117.07" rx="2.95" ry="4.12" transform="translate(-37.64 20.8) rotate(-17.38)" fill="#5b5b5b" stroke="#2a1000" stroke-miterlimit="10" stroke-width="0.25"/><ellipse cx="44.55" cy="118.21" rx="2.95" ry="4.12" transform="translate(-41.55 -2.48) rotate(-17.38)" fill="#5b5b5b" stroke="#2a1000" stroke-miterlimit="10" stroke-width="0.25"/><circle cx="16.27" cy="92.16" r="3.73" fill="#686868" stroke="#2a1000" stroke-miterlimit="10" stroke-width="0.25"/><circle cx="85.74" cy="94.03" r="3.73" fill="#686868" stroke="#2a1000" stroke-miterlimit="10" stroke-width="0.25"/><ellipse cx="128" cy="112.52" rx="3.76" ry="6.55" transform="translate(-10.15 201.68) rotate(-81.67)" fill="#757575" stroke="#2a1000" stroke-miterlimit="10" stroke-width="0.25"/><ellipse cx="37.51" cy="122.39" rx="3.76" ry="6.55" transform="translate(-97.29 120.59) rotate(-81.67)" fill="#757575" stroke="#2a1000" stroke-miterlimit="10" stroke-width="0.25"/><ellipse cx="114.82" cy="121.49" rx="3.76" ry="6.55" transform="translate(-49.22 160.94) rotate(-67.89)" fill="#757575" stroke="#2a1000" stroke-miterlimit="10" stroke-width="0.25"/><ellipse cx="87.87" cy="115.94" rx="3.03" ry="4.51" transform="translate(-47.85 164.9) rotate(-81.67)" fill="#757575" stroke="#2a1000" stroke-miterlimit="10" stroke-width="0.25"/><ellipse cx="17.43" cy="120.51" rx="3.03" ry="4.51" transform="translate(-112.61 99.12) rotate(-81.67)" fill="#757575" stroke="#2a1000" stroke-miterlimit="10" stroke-width="0.25"/><circle cx="79.79" cy="114.48" r="4.57" transform="translate(-51.63 158.91) rotate(-83.18)" fill="#727272" stroke="#2a1000" stroke-miterlimit="10" stroke-width="0.25"/><circle cx="101.19" cy="121.41" r="4.57" transform="translate(-39.65 186.28) rotate(-83.18)" fill="#727272" stroke="#2a1000" stroke-miterlimit="10" stroke-width="0.25"/><circle cx="108.59" cy="115.98" r="4.57" transform="translate(-27.74 188.84) rotate(-83.18)" fill="#727272" stroke="#2a1000" stroke-miterlimit="10" stroke-width="0.25"/><ellipse cx="99.8" cy="114.27" rx="4.73" ry="6.39" transform="translate(-42.57 22.14) rotate(-20.99)" fill="#888" stroke="#2a1000" stroke-miterlimit="10" stroke-width="0.25"/><ellipse cx="37.51" cy="114.27" rx="7.73" ry="5.49" transform="translate(-78.08 38.8) rotate(-45)" fill="#686868" stroke="#2a1000" stroke-miterlimit="10" stroke-width="0.25"/><circle cx="42.93" cy="92.16" r="5.72" fill="#595959" stroke="#2a1000" stroke-miterlimit="10" stroke-width="0.25"/><circle cx="62.27" cy="92.16" r="6.33" fill="#5b5b5b" stroke="#2a1000" stroke-miterlimit="10" stroke-width="0.25"/><ellipse cx="15.57" cy="113.35" rx="4.57" ry="6.33" transform="translate(-91.27 34.08) rotate(-51.67)" fill="#514f4f" stroke="#2a1000" stroke-miterlimit="10" stroke-width="0.25"/><ellipse cx="85.5" cy="122.39" rx="4.57" ry="6.33" transform="translate(-71.8 92.37) rotate(-51.67)" fill="#514f4f" stroke="#2a1000" stroke-miterlimit="10" stroke-width="0.25"/><ellipse cx="26.33" cy="118.21" rx="6.33" ry="4.57" transform="translate(-84.14 32.06) rotate(-45)" fill="#514f4f" stroke="#2a1000" stroke-miterlimit="10" stroke-width="0.25"/><ellipse cx="134.84" cy="117.07" rx="6.33" ry="4.57" transform="translate(-51.56 108.45) rotate(-45)" fill="#514f4f" stroke="#2a1000" stroke-miterlimit="10" stroke-width="0.25"/><ellipse cx="126.55" cy="121.28" rx="4.83" ry="4.57" transform="translate(-56.96 103.82) rotate(-45)" fill="#514f4f" stroke="#2a1000" stroke-miterlimit="10" stroke-width="0.25"/><ellipse cx="64.21" cy="118.21" rx="6.33" ry="4.57" transform="translate(-73.05 58.84) rotate(-45)" fill="#514f4f" stroke="#2a1000" stroke-miterlimit="10" stroke-width="0.25"/><circle cx="107.53" cy="91.33" r="5.69" fill="#707070" stroke="#2a1000" stroke-miterlimit="10" stroke-width="0.25"/><circle cx="65.83" cy="100.99" r="5.69" fill="#707070" stroke="#2a1000" stroke-miterlimit="10" stroke-width="0.25"/><circle cx="46.54" cy="100.3" r="5.69" fill="#707070" stroke="#2a1000" stroke-miterlimit="10" stroke-width="0.25"/><ellipse cx="65.13" cy="54.41" rx="52.58" ry="3.33" fill="#cbc1c1" stroke="#2a1000" stroke-miterlimit="10" stroke-width="0.25"/><path d="M34.8,75.6s33.94-14.36,73.79,0" transform="translate(-8.27 -21.19)" fill="#cbc1c1" stroke="#2a1000" stroke-miterlimit="10" stroke-width="0.25"/></g><g id="Layer_4" data-name="Layer 4"><path d="M50.74,49.74s-8-4-10.27,13.54c0,0-4.76,2.23,0,7s6.4,1.19,6.4,1.19,2.83-3.27.3-6.1,4.61-3.42,4.61-3.42a20.09,20.09,0,0,0-1.64,10.81s-2.68,4.82.3,5,1.34-4.91,1.34-4.91,1.89-10.57,4.13-11.16a18.19,18.19,0,0,0,2.94,4,4,4,0,0,0,2.31,1.24c2.53.15-1.79,2.68-1.79,2.68s-1.79,1.64-.45,2.23a1.73,1.73,0,0,0,2.08-.3s.32-.67.09-1,3.92-2,3.92-2,10.15-5.92-.89-13.35S50.74,49.74,50.74,49.74Z" transform="translate(-8.27 -21.19)" fill="#e1e1e1" stroke="#2a1000" stroke-miterlimit="10" stroke-width="0.1"/><path d="M56.32,69.47s-1.24,2.18,1,1.87a2.22,2.22,0,0,0,1.87-2.64l1.17-2-1.52-1s-1.13,3.55-1.83,3.7Z" transform="translate(-8.27 -21.19)" fill="#e1e1e1" stroke="#2a1000" stroke-miterlimit="10" stroke-width="0.1"/><path d="M38.93,75.25s-2.11,1.32-.57,2.48,2.15-2.48,2.15-2.48l1.91-3.35L41.21,71Z" transform="translate(-8.27 -21.19)" fill="#e1e1e1" stroke="#2a1000" stroke-miterlimit="10" stroke-width="0.1"/><polyline points="43.51 40.75 42.92 42.2 39.49 45.02 38.38 43.27 39.49 41.72" fill="#e1e1e1" stroke="#2a1000" stroke-miterlimit="10" stroke-width="0.1"/><path d="M39.79,64.74s-3.58.5-4.82-.43-.21.81-.21.81,1,2.3,5,2.16" transform="translate(-8.27 -21.19)" fill="#e1e1e1" stroke="#2a1000" stroke-miterlimit="10" stroke-width="0.1"/><path d="M46,66.21s.62,2.8,2.63,3.65-1.94.71-1.94.71-1.94-.34-2.52-3.27" transform="translate(-8.27 -21.19)" fill="#e1e1e1" stroke="#2a1000" stroke-miterlimit="10" stroke-width="0.1"/></g><g id="Layer_5" data-name="Layer 5"><path d="M72.77,59.19S57.63,37.94,52.43,41.79s-.68,13.48-.68,13.48,4.9,10.32,11.52,12.8a8.55,8.55,0,0,0,10.24-3.24Z" transform="translate(-8.27 -21.19)" fill="#e1e1e1" stroke="#2a1000" stroke-miterlimit="10" stroke-width="0.1"/><path d="M52.51,55.34s-4,1.43-4.29,3.24c0,0-1.73,3.16-3.92,3.77s2.41,2.79,2.41,2.79,2.11-1.28,1.73-3,3.24-2.34,3.24-2.34,2.26-.08,2.64-1.36" transform="translate(-8.27 -21.19)" fill="#e1e1e1" stroke="#2a1000" stroke-miterlimit="10" stroke-width="0.1"/><path d="M62.75,58.24s3.45,3.09,3.57,6.3,2.61,2.26,2.61,2.26a2.45,2.45,0,0,0,0-3.68,13,13,0,0,1-3.8-6.66" transform="translate(-8.27 -21.19)" fill="none" stroke="#2a1000" stroke-miterlimit="10" stroke-width="0.1"/><path d="M54.32,52.34s6.5,6.77,8.85,4.12-2.56-8.83-2.56-8.83" transform="translate(-8.27 -21.19)" fill="none" stroke="#2a1000" stroke-miterlimit="10" stroke-width="0.1"/><path d="M58.2,46.42s2.51-1.94,4.55,0-.63.84-.63.84a3.54,3.54,0,0,0-3.06.37" transform="translate(-8.27 -21.19)" fill="#e1e1e1" stroke="#2a1000" stroke-miterlimit="10" stroke-width="0.1"/><path d="M52.76,51.13a3.82,3.82,0,0,0-1.47,4.21c.68,2.9,1.26-.86,1.26-.86a2.37,2.37,0,0,1,1.31-1.88" transform="translate(-8.27 -21.19)" fill="none" stroke="#2a1000" stroke-miterlimit="10" stroke-width="0.1"/><path d="M51.34,53.54A3.19,3.19,0,0,0,51.69,56s1.27-.3.3-2.7Z" transform="translate(-8.27 -21.19)" fill="#e1e1e1"/><path d="M46.28,46.84" transform="translate(-8.27 -21.19)" fill="#e1e1e1"/></g><g id="Layer_6" data-name="Layer 6"><path d="M81,49.34S63.69,55,73.72,74.46c0,0-1.76,5.94,7.33,5.49,0,0,6.65-4.63,1-8.58s4.88-5.16,4.88-5.16S94.88,46.3,81,49.34Z" transform="translate(-8.27 -21.19)" fill="#e1e1e1" stroke="#2a1000" stroke-miterlimit="10" stroke-width="0.1"/><path d="M81.43,66.44s3.68,6.83,3.14,9.66c0,0-1.61,1.84.77,2.3s2-2.22,1.23-2.53S84.34,65.6,84.73,65.29" transform="translate(-8.27 -21.19)" fill="#e1e1e1" stroke="#2a1000" stroke-miterlimit="10" stroke-width="0.1"/><path d="M71.35,66.21S70.75,75,69.43,76.43a1.59,1.59,0,0,0-1.23,2.47s2.88,1.75,2.73-1.31L73.22,72" transform="translate(-8.27 -21.19)" fill="#e1e1e1" stroke="#2a1000" stroke-miterlimit="10" stroke-width="0.1"/><path d="M80.57,72.8s2.71-1.29,4.36.89-.93.39-.93.39a3.24,3.24,0,0,0-3.24.23" transform="translate(-8.27 -21.19)" fill="#e1e1e1" stroke="#2a1000" stroke-miterlimit="10" stroke-width="0.1"/><path d="M75.58,74.78A3.74,3.74,0,0,0,72.67,79c.46,3.54,1.44-1,1.44-1a2.44,2.44,0,0,1,2.17-1.37" transform="translate(-8.27 -21.19)" fill="#e1e1e1" stroke="#2a1000" stroke-miterlimit="10" stroke-width="0.1"/></g><g id="Layer_7" data-name="Layer 7"><path d="M93.6,50.93s-8.19.25-8.69,8.28S93,71.58,93,71.58s.59,6.69,5.35,5.43,3.43-7.52,3.43-7.52S104.64,48.84,93.6,50.93Z" transform="translate(-8.27 -21.19)" fill="#e1e1e1" stroke="#2a1000" stroke-miterlimit="10" stroke-width="0.1"/><path d="M90.46,69s1.76,4.15.77,6.34A1,1,0,0,0,91,77.17s2,1,1.58-1.36.93-6.2.93-6.2" transform="translate(-8.27 -21.19)" fill="#e1e1e1" stroke="#2a1000" stroke-miterlimit="10" stroke-width="0.1"/><path d="M100.11,69.47s5.07-1.48,6.34,2.39c0,0,.54,1-1.27,0a9.78,9.78,0,0,0-4.77-.69" transform="translate(-8.27 -21.19)" fill="#e1e1e1" stroke="#2a1000" stroke-miterlimit="10" stroke-width="0.1"/><path d="M94.91,70.52A3.32,3.32,0,0,0,91.69,74s.06,1.25.48.31S93.56,72,95,72.1" transform="translate(-8.27 -21.19)" fill="#e1e1e1" stroke="#2a1000" stroke-miterlimit="10" stroke-width="0.1"/></g><g id="Layer_9" data-name="Layer 9"><path d="M77.52,27.33s-5.22,2.27-.68,5.33c0,0,3.13-.55,4-2,0,0,7.29-.39,9.09-1.1,0,0,4.35,1.33,3.58-.78s-3.66-.71-3.66-.71S77.77,28.06,77.52,27.33Z" transform="translate(-8.27 -21.19)" fill="#b6b6b6" stroke="#2a1000" stroke-miterlimit="10" stroke-width="0.1"/><path d="M77.52,27.33s-2.57-4.81,1.3-5.89,3.44,2.47,3.44,2.47,7.62-.43,6.76,2-6.93,2-6.93,2" transform="translate(-8.27 -21.19)" fill="#c3c3c3" stroke="#2a1000" stroke-miterlimit="10" stroke-width="0.1"/><path d="M75.3,31.16S69,36.36,71.62,37a6.21,6.21,0,0,0,3.92,0s2.4-2.12,2.46-2.78-5,9.17-3.21,19.1c0,0,4.76-5.42,10.78-4,0,0,1.18-15.55-1-18.85" transform="translate(-8.27 -21.19)" fill="#c3c3c3" stroke="#2a1000" stroke-miterlimit="10" stroke-width="0.1"/></g><g id="Layer_8" data-name="Layer 8"><path d="M68.62,53.79l4.9-7.19-.9-7.3.9-1.93.92,5.37h8.09l2.35-4.08,1.52.11L82.54,49.1A21.11,21.11,0,0,0,79,50.26c-.93.53,2.44-5.62,2.44-5.62l-6.55-.13,1.93,7.11L75,53.08l-.6-4-4.67,6.2Z" transform="translate(-8.27 -21.19)" fill="#b4b4b4" stroke="#2a1000" stroke-miterlimit="10" stroke-width="0.1"/></g></svg>
