<svg xmlns="http://www.w3.org/2000/svg" xmlns:xlink="http://www.w3.org/1999/xlink" width="150" height="150" viewBox="0 0 150 150">
  <defs>
    <symbol id="Grass_7" data-name="Grass 7" viewBox="0 0 108.82 75.4">
      <g>
        <path d="M22.53,12.37s6.53,1,6.86,6.21C30.36,17.27,30.36,10.74,22.53,12.37Z" fill="#389a59"/>
        <path d="M34.06,18s6.29,2.42,8.23,5.32C38.9,22.56,35.52,20.38,34.06,18Z" fill="#005100"/>
        <path d="M72.72,53.78s-4.27-4-7-1.85C67.6,53.08,70.58,54.85,72.72,53.78Z" fill="#003d10"/>
        <path d="M19.53,6.28s-.85,4.67-3.59,6.83C16.4,9.67,17.23,7.91,19.53,6.28Z" fill="#005100"/>
        <path d="M14.13,43.4S8.9,42.23,6.5,38.58C10.29,39.27,12.31,40.35,14.13,43.4Z" fill="#005100"/>
        <path d="M11.65,58.45s3.65-4.57,1.3-7.16C11.95,53.28,10.42,56.39,11.65,58.45Z" fill="#003d10"/>
        <path d="M37.54,48.78s1.38,6.6,0,9.79C36.3,55.34,36.29,51.31,37.54,48.78Z" fill="#005100"/>
        <path d="M8.37,47.61S4.95,53.26,0,51.55C.83,53,6.86,55.48,8.37,47.61Z" fill="#a7cc6f"/>
        <path d="M48.07,68.52s-6.6-.23-7.52-5.38C39.72,64.55,40.47,71,48.07,68.52Z" fill="#a7cc6f"/>
        <path d="M25.36,36.85S21.94,42.5,17,40.79C17.82,42.19,23.85,44.71,25.36,36.85Z" fill="#a7cc6f"/>
        <path d="M88,21.68s-2.5,5.93-1.57,10.77C88.22,30.06,88.88,25.65,88,21.68Z" fill="#a7cc6f"/>
        <path d="M20,67.07s1.39-5.68-1.82-7C18.12,62.26,18,65.72,20,67.07Z" fill="#a3c360"/>
        <path d="M63.14,52.95s-3.42,5.65-8.37,3.94C55.6,58.29,61.63,60.81,63.14,52.95Z" fill="#a7cc6f"/>
        <path d="M62.82,67.21s-1.5,7.73-5.38,8.19C57.21,71.55,60.39,68.65,62.82,67.21Z" fill="#a7cc6f"/>
        <path d="M35.14,5.58s-2.42,5.32.48,7.26C36.1,10.66,36.83,7.27,35.14,5.58Z" fill="#a3c360"/>
        <path d="M92.44,49.62s1.39-5.68-1.82-7C90.55,44.8,90.46,48.27,92.44,49.62Z" fill="#a3c360"/>
        <path d="M81.28,53.77S79.78,61.5,75.9,62C75.67,58.12,78.85,55.21,81.28,53.77Z" fill="#a7cc6f"/>
        <path d="M100.19,49.71s4,5.08,8.63,6.63C107.62,53.6,104.09,50.87,100.19,49.71Z" fill="#a7cc6f"/>
        <path d="M78.66,34.47s4,5.08,8.63,6.63C86.09,38.36,82.56,35.63,78.66,34.47Z" fill="#a7cc6f"/>
        <path d="M67.72,38.88s-6.6-.23-7.52-5.38C59.38,34.91,60.12,41.4,67.72,38.88Z" fill="#389a59"/>
        <path d="M31,43.77a11.3,11.3,0,0,0-1,7.87C31.77,49.25,31.89,47.74,31,43.77Z" fill="#389a59"/>
        <path d="M15.91,46.17s1.71,5.59,5.17,5.12C20,49.34,18.3,46.32,15.91,46.17Z" fill="#389a59"/>
        <path d="M69,16.86s-3.17,5.94-6.29,7.51C63.87,21.1,66.44,18,69,16.86Z" fill="#2b682b"/>
        <path d="M53,10s1.31,6.61-.12,9.79C51.7,16.56,51.74,12.53,53,10Z" fill="#2b682b"/>
        <path d="M48.56,6.59s-5.27,4.2-8.75,4.4C42.15,8.44,45.74,6.62,48.56,6.59Z" fill="#2b682b"/>
        <path d="M58,13.29,59.67,16l3.08,2A6.15,6.15,0,0,0,58,13.29Z" fill="#287449"/>
        <path d="M53.05,0l1.45,3.63,2.66,2.9S57.17,1,53.05,0Z" fill="#287449"/>
        <path d="M84.1,42.31s-1.56,4.74-4.68,6.31C80.56,45.35,81.52,43.46,84.1,42.31Z" fill="#2b682b"/>
        <path d="M59.52,64.69s-6.22,2.21-9-2.25C50.3,64,53.37,69.81,59.52,64.69Z" fill="#c1d5a1"/>
        <path d="M23.58,27.42s-3.17,5.94-6.29,7.51C18.42,31.65,21,28.56,23.58,27.42Z" fill="#2b682b"/>
        <path d="M35.94,61.34S32.53,67,27.58,65.28C28.4,66.68,34.43,69.2,35.94,61.34Z" fill="#287449"/>
        <path d="M81.84,67.83s-6.22,2.21-9-2.25C72.62,67.2,75.69,73,81.84,67.83Z" fill="#287449"/>
        <path d="M66.38,60.28A12,12,0,0,1,68.08,67C65.91,64.25,66,63.07,66.38,60.28Z" fill="#2b682b"/>
        <path d="M55.17,34.58S52,40.53,48.88,42.09C50,38.82,52.59,35.72,55.17,34.58Z" fill="#2b682b"/>
        <path d="M92.69,54.32s-3.17,5.95-6.29,7.51C87.54,58.56,90.11,55.46,92.69,54.32Z" fill="#2b682b"/>
        <path d="M49.63,55l-3.15,2.31-2.15,3.3S49.72,59.19,49.63,55Z" fill="#287449"/>
        <path d="M9.94,22.58s-3.42,5.65-8.37,3.94C2.4,27.92,8.43,30.44,9.94,22.58Z" fill="#287449"/>
        <path d="M50,45.84l1.45,3.63,2.66,2.9S54.08,46.81,50,45.84Z" fill="#287449"/>
        <path d="M53.44,30.1s-4.85-.86-7.67-2.91C49.19,26.69,51.23,28.33,53.44,30.1Z" fill="#2b682b"/>
        <path d="M72.41,2.12s6.29,2.42,8.22,5.32C77.24,6.71,73.86,4.54,72.41,2.12Z" fill="#c1d5a1"/>
        <path d="M57.67,30.16s1.16-6.54-2-8C55.51,24.34,55.75,28.72,57.67,30.16Z" fill="#c1d5a1"/>
        <path d="M61.7,5.08l1.45,3.63,2.66,2.9S65.81,6,61.7,5.08Z" fill="#c1d5a1"/>
        <path d="M28.51,31s2.22-6.22,7.41-5.53C34.83,24.25,28.43,23,28.51,31Z" fill="#c1d5a1"/>
        <path d="M41.26,45.6s6.29,2.42,8.22,5.32C46.1,50.19,42.71,48,41.26,45.6Z" fill="#c1d5a1"/>
        <path d="M40.39,30l1.45,3.63,2.66,2.9S44.5,31,40.39,30Z" fill="#c1d5a1"/>
        <path d="M68.53,23.47s.85,6.55-4.08,8.3C66,32.35,72.25,30.56,68.53,23.47Z" fill="#c1d5a1"/>
        <path d="M57.66,48.16s9.26-1.36,9.84-4.8C65.32,43.81,58.51,45.92,57.66,48.16Z" fill="#c1d5a1"/>
        <path d="M23.72,54s6.29,2.42,8.23,5.32C28.56,58.6,25.17,56.42,23.72,54Z" fill="#c1d5a1"/>
        <path d="M15.62,22.73s-.6,6.71-2.86,9.37C12.53,28.64,13.69,24.79,15.62,22.73Z" fill="#c1d5a1"/>
        <path d="M36.66,32.6s-6.9,1.51-6.83,5C31.9,36.75,36.24,35,36.66,32.6Z" fill="#2b682b"/>
        <path d="M78.19,29.49,75.1,31.88,73,35.24S78.39,33.71,78.19,29.49Z" fill="#c1d5a1"/>
        <path d="M74.87,39.47s.3,6.73-1.58,9.67C72.6,45.75,73.24,41.77,74.87,39.47Z" fill="#389a59"/>
        <path d="M96.88,29.4s-1.49,7.73-5.38,8.19C91.28,33.74,94.45,30.84,96.88,29.4Z" fill="#389a59"/>
        <path d="M84.21,13.58s6.53,1,6.86,6.2C92,18.48,92,12,84.21,13.58Z" fill="#389a59"/>
        <path d="M20.34,18.69S24.59,20,26.53,22.9C23.14,22.18,21.79,21.11,20.34,18.69Z" fill="#389a59"/>
        <path d="M42,14,43.5,17.6l2.66,2.9S46.16,14.94,42,14Z" fill="#389a59"/>
        <path d="M108.61,28.56s-6.52,1-8.41-3.85C99.66,26.25,101.63,32.47,108.61,28.56Z" fill="#003d10"/>
        <path d="M43.19,37.68s-3.42,5.65-8.37,3.94C35.65,43,41.68,45.55,43.19,37.68Z" fill="#389a59"/>
        <path d="M79.56,25.87a22.62,22.62,0,0,1-4.79-7.07C78.34,20.22,78.39,22.51,79.56,25.87Z" fill="#005100"/>
        <path d="M78,12.83s-4.28-4-7-1.85C72.85,12.13,75.83,13.89,78,12.83Z" fill="#003d10"/>
      </g>
    </symbol>
  </defs>
  <title>holmen</title>
  <g id="Layer_9" data-name="Layer 9">
    <polygon points="-0.1 103.22 -0.1 152.5 151.75 152.5 151.75 107.49 -0.1 103.22" fill="#3766bc"/>
    <path d="M58.69,107.11a.16.16,0,0,1,.16-.13.19.19,0,0,1,.17.1s.06.3-.13.4-.14.67-.14.67h.33" fill="none" stroke="#fff" stroke-miterlimit="10" stroke-width="0.1"/>
  </g>
  <g id="Layer_15" data-name="Layer 15">
    <line x1="-0.06" y1="105.94" x2="10.59" y2="106.02"/>
  </g>
  <g id="Layer_12" data-name="Layer 12">
    <path d="M0,107.31v3.15s12.26-.13,12.71-.51-1-2.63-1-2.63Z" fill="#3f362f"/>
    <polygon points="150 110.43 150 108.73 63.56 108.29 63.56 109.36 150 110.43" fill="#3f362f"/>
  </g>
  <g id="Layer_2" data-name="Layer 2">
    <rect x="14.1" y="100" width="79.11" height="8.75" fill="#bfa58e"/>
    <polygon points="89.64 92.39 93.21 96.71 93.21 100 14.1 100 14.1 98.58 21.05 92.39 89.64 92.39" fill="#b25550"/>
    <rect x="57.33" y="101.15" width="1.4" height="1.64" fill="#fff"/>
    <rect x="47.25" y="96.87" width="1.4" height="1.8" fill="#fff"/>
    <rect x="24.31" y="96.87" width="1.4" height="1.8" fill="#fff"/>
    <rect x="21.68" y="96.91" width="1.4" height="1.8" fill="#fff"/>
    <rect x="21.68" y="101.68" width="1.4" height="1.8" fill="#fff"/>
    <rect x="19.09" y="96.87" width="1.4" height="1.8" fill="#fff"/>
    <rect x="19.09" y="101.68" width="1.4" height="1.8" fill="#fff"/>
    <rect x="39.36" y="96.87" width="1.4" height="1.8" fill="#fff"/>
    <rect x="53.65" y="100.99" width="1.4" height="1.8" fill="#fff"/>
    <rect x="53.65" y="96.87" width="1.4" height="1.8" fill="#fff"/>
  </g>
  <g id="Layer_3" data-name="Layer 3">
    <rect x="73.69" y="100.91" width="19.57" height="7.84" fill="#c4af8d"/>
    <polygon points="78.69 97.57 73.09 101.15 93.85 101.15 87.73 97.57 78.69 97.57" fill="#9e4020"/>
  </g>
  <g id="Layer_4" data-name="Layer 4">
    <polygon points="90.26 105.2 90.26 108.95 150 109.77 150 105.2 90.26 105.2" fill="#e5cf73"/>
    <polygon points="93.41 98.11 90.26 102.46 90.26 105.2 150 105.2 148.45 98.11 93.41 98.11" fill="#474745"/>
  </g>
  <g id="Layer_5" data-name="Layer 5">
    <path d="M101.08,89.28v20.49h4.75v-2.95s2-1.63,3.47,0v2.95h5.05l2.19-.54.3-19.4-2.49-.54Z" fill="#c1b999"/>
    <path d="M100.5,89.28h13.84l2.72.6.27-.43a1.57,1.57,0,0,1-1.51-1.26,2.44,2.44,0,0,0-1.61-1.64s-1.21.08-2.77-1.53h-5.78a3,3,0,0,1-2,1.26A2,2,0,0,0,102,88S102,88.81,100.5,89.28Z" fill="#acc6bd"/>
  </g>
  <g id="Layer_6" data-name="Layer 6">
    <polygon points="111.43 88.52 106.91 69.77 104.75 69.77 104.24 88.52 104.85 88.52 105.26 70.54 106.5 70.54 107.72 75.78 110.71 88.52 111.43 88.52" fill="#2b2624"/>
    <polygon points="103.8 75.69 103.72 76.51 108.29 76.41 108.1 75.69 103.8 75.69" fill="#2b2624"/>
    <polygon points="103.8 81.09 103.8 81.39 103.52 81.39 103.52 81.79 109.23 81.71 109.23 81.09 103.8 81.09" fill="#2b2624"/>
    <polygon points="105.54 70.3 107.52 88.52 108.09 88.52 106 70.17 105.54 70.3" fill="#2b2624"/>
    <polygon points="107.42 73.26 104.56 82.54 104.56 83.79 107.59 74.17 107.42 73.26" fill="#2b2624"/>
    <polygon points="104.74 76.78 109.1 80.58 109.1 79.69 104.84 76.24 104.74 76.78" fill="#2b2624"/>
    <rect x="104.74" y="77.03" width="3.55" height="0.39" fill="#2b2624"/>
    <polygon points="104.1 70.44 104.1 70.83 107.59 70.83 107.59 70.55 104.1 70.44" fill="#2b2624"/>
    <polygon points="104.24 69.92 104.24 70.29 107.59 70.36 107.59 70.01 104.24 69.92" fill="#2b2624"/>
    <polygon points="108.48 77.22 105.27 86.08 105.74 86.08 108.65 77.81 108.48 77.22" fill="#2b2624"/>
    <polygon points="104.24 81.65 107.98 83.42 107.98 84.78 108.5 84.78 108.5 84 108.75 84.01 108.75 84.78 109.36 84.78 109.36 84.05 109.92 84.01 109.84 83.21 104.13 81.34 104.24 81.65" fill="#2b2624"/>
    <path d="M108.65,75.79l-3.8-5.65h1.9l3.4,6s-.69-.13-.56.56,2.22,8.12,2.22,8.12h-.64l-.46-1.9-.23,0,.37,1.86h-.48Z" fill="#2b2624"/>
    <polygon points="108.09 83.06 108.65 74.97 109.1 74.97 109.1 83.26 108.09 83.06" fill="#2b2624"/>
    <polygon points="104.75 69.77 104.75 68.89 105.3 68.89 105.3 69.77 105.45 69.77 105.45 68.89 105.91 68.89 105.91 69.77 106.08 69.77 106.08 68.89 106.7 68.89 106.7 69.77 104.75 69.77" fill="#6d6764"/>
  </g>
  <g id="Layer_13" data-name="Layer 13">
    <polygon points="0 102.93 10.36 103.23 11.05 107.31 0 107.31 0 102.93" fill="#fff"/>
  </g>
  <g id="Layer_16" data-name="Layer 16">
    <line x1="-0.06" y1="105.94" x2="10.59" y2="106.02" fill="#020202" stroke="#000" stroke-miterlimit="10" stroke-width="0.1"/>
    <line x1="-0.07" y1="106.83" x2="10.84" y2="106.87" fill="#020202" stroke="#000" stroke-miterlimit="10" stroke-width="0.1"/>
  </g>
  <g id="Layer_7" data-name="Layer 7">
    <path d="M8.23,100.07a45.29,45.29,0,0,1,2.9,8,5.73,5.73,0,0,1,.12,2.13s38.7.54,52.39-.75c0,0,.84-2.95.5-3.53,0,0-27.85.08-45.71-4.11C18.44,101.8,10.78,99.51,8.23,100.07Z" fill="#999"/>
    <path d="M24.31,103v-2.57l1.86.25c6.28.83,26.67,3.43,32.67,2.82v2.37S46.42,106.6,24.31,103Z" fill="#666"/>
    <path d="M26.17,100.66l.4-6.59,1.5-.52h3.2l3.59-4.38V80.48h1.36l.33,7.25s2.29.46,3,3.59a34.07,34.07,0,0,1,.78,6.08V99.3h1.22l.54-2.16,1.7-.07.26-6.51a1.3,1.3,0,0,1-.33-2.38s-1.11-2.61.91-3,1,2.87,1,2.87a1.4,1.4,0,0,1-.07,2.51l-.07,6.57,1.83.07v3.2h.72v-1.7h.78V97.6h1.5V93.75s.85-2.68,1.63,0v3.92h2.68v3.66h2.48v.91h1.63v1.24S40.36,103.21,26.17,100.66Z" fill="#bcbcbc"/>
  </g>
  <g id="Layer_8" data-name="Layer 8">
    <use width="108.82" height="75.4" transform="translate(0.05 96.88) scale(0.03)" xlink:href="#Grass_7"/>
    <use width="108.82" height="75.4" transform="translate(2.01 91.46) scale(0.03)" xlink:href="#Grass_7"/>
    <use width="108.82" height="75.4" transform="translate(4.84 89.81) scale(0.03)" xlink:href="#Grass_7"/>
    <use width="108.82" height="75.4" transform="translate(11.26 92.36) scale(0.03)" xlink:href="#Grass_7"/>
    <use width="108.82" height="75.4" transform="translate(5.73 92.39) scale(0.03)" xlink:href="#Grass_7"/>
    <use width="108.82" height="75.4" transform="translate(-0.15 89.84) scale(0.03)" xlink:href="#Grass_7"/>
    <use width="108.82" height="75.4" transform="translate(2.97 89.65) scale(0.03)" xlink:href="#Grass_7"/>
    <use width="108.82" height="75.4" transform="translate(5.77 89.2) scale(0.03)" xlink:href="#Grass_7"/>
    <use width="108.82" height="75.4" transform="translate(7.53 89.29) scale(0.03)" xlink:href="#Grass_7"/>
    <use width="108.82" height="75.4" transform="translate(9.5 90.13) scale(0.03)" xlink:href="#Grass_7"/>
    <use width="108.82" height="75.4" transform="translate(11.13 91.25) scale(0.03)" xlink:href="#Grass_7"/>
    <use width="108.82" height="75.4" transform="translate(12.43 92.19) scale(0.03)" xlink:href="#Grass_7"/>
    <use width="108.82" height="75.4" transform="translate(8.38 92) scale(0.03)" xlink:href="#Grass_7"/>
    <use width="108.82" height="75.4" transform="translate(6.67 91.16) scale(0.03)" xlink:href="#Grass_7"/>
    <use width="108.82" height="75.4" transform="translate(4.45 91.38) scale(0.03)" xlink:href="#Grass_7"/>
    <use width="108.82" height="75.4" transform="translate(-0.54 91.41) scale(0.03)" xlink:href="#Grass_7"/>
    <use width="108.82" height="75.4" transform="translate(-0.42 93.19) scale(0.03)" xlink:href="#Grass_7"/>
    <use width="108.82" height="75.4" transform="translate(-0.51 95.01) scale(0.03)" xlink:href="#Grass_7"/>
    <use width="108.82" height="75.4" transform="translate(2.17 93.99) scale(0.03)" xlink:href="#Grass_7"/>
    <use width="108.82" height="75.4" transform="translate(1.92 93.27) scale(0.03)" xlink:href="#Grass_7"/>
    <use width="108.82" height="75.4" transform="translate(4.56 93.38) scale(0.03)" xlink:href="#Grass_7"/>
    <use width="108.82" height="75.4" transform="translate(7.34 93.93) scale(0.03)" xlink:href="#Grass_7"/>
    <use width="108.82" height="75.4" transform="translate(10.05 93.59) scale(0.03)" xlink:href="#Grass_7"/>
    <use width="108.82" height="75.4" transform="translate(12.03 94.41) scale(0.03)" xlink:href="#Grass_7"/>
    <use width="108.82" height="75.4" transform="translate(12.26 95.87) scale(0.03)" xlink:href="#Grass_7"/>
    <use width="108.82" height="75.4" transform="translate(11.35 97.27) scale(0.03)" xlink:href="#Grass_7"/>
    <use width="108.82" height="75.4" transform="translate(9.52 97.74) scale(0.03)" xlink:href="#Grass_7"/>
    <use width="108.82" height="75.4" transform="translate(7.35 97.73) scale(0.03)" xlink:href="#Grass_7"/>
    <use width="108.82" height="75.4" transform="translate(9.61 97.02) scale(0.03)" xlink:href="#Grass_7"/>
    <use width="108.82" height="75.4" transform="translate(9.68 95.28) scale(0.03)" xlink:href="#Grass_7"/>
    <use width="108.82" height="75.4" transform="translate(4.58 95.67) scale(0.03)" xlink:href="#Grass_7"/>
    <use width="108.82" height="75.4" transform="translate(2.08 95.99) scale(0.03)" xlink:href="#Grass_7"/>
    <use width="108.82" height="75.4" transform="translate(6.87 95.93) scale(0.03)" xlink:href="#Grass_7"/>
    <use width="108.82" height="75.4" transform="translate(4.25 97.41) scale(0.03)" xlink:href="#Grass_7"/>
    <use width="108.82" height="75.4" transform="translate(1.84 97.49) scale(0.03)" xlink:href="#Grass_7"/>
    <use width="108.82" height="75.4" transform="translate(-0.26 98.13) scale(0.03)" xlink:href="#Grass_7"/>
    <use width="108.82" height="75.4" transform="translate(-0.15 99.98) scale(0.03)" xlink:href="#Grass_7"/>
    <use width="108.82" height="75.4" transform="translate(3.72 99.14) scale(0.03)" xlink:href="#Grass_7"/>
    <use width="108.82" height="75.4" transform="translate(5.73 99.43) scale(0.03)" xlink:href="#Grass_7"/>
    <use width="108.82" height="75.4" transform="translate(6.7 101.07) scale(0.03)" xlink:href="#Grass_7"/>
    <use width="108.82" height="75.4" transform="translate(4.7 101.61) scale(0.03)" xlink:href="#Grass_7"/>
    <use width="108.82" height="75.4" transform="translate(2.92 101.57) scale(0.03)" xlink:href="#Grass_7"/>
    <use width="108.82" height="75.4" transform="translate(0.47 101.7) scale(0.03)" xlink:href="#Grass_7"/>
    <use width="108.82" height="75.4" transform="translate(-0.83 101.72) scale(0.03)" xlink:href="#Grass_7"/>
    <use width="108.82" height="75.4" transform="translate(1.83 99.71) scale(0.03)" xlink:href="#Grass_7"/>
    <use width="108.82" height="75.4" transform="translate(4.24 94.63) scale(0.03)" xlink:href="#Grass_7"/>
    <use width="108.82" height="75.4" transform="translate(3.02 94.88) scale(0.03)" xlink:href="#Grass_7"/>
    <use width="108.82" height="75.4" transform="translate(-0.18 95.78) scale(0.03)" xlink:href="#Grass_7"/>
    <use width="108.82" height="75.4" transform="translate(-0.44 98.79) scale(0.03)" xlink:href="#Grass_7"/>
    <use width="108.82" height="75.4" transform="translate(-0.46 99.74) scale(0.03)" xlink:href="#Grass_7"/>
    <use width="108.82" height="75.4" transform="translate(7.81 94.05) scale(0.03)" xlink:href="#Grass_7"/>
    <use width="108.82" height="75.4" transform="translate(2.75 91.45) scale(0.03)" xlink:href="#Grass_7"/>
    <use width="108.82" height="75.4" transform="matrix(0, 0.03, -0.03, 0, 11.44, 92.36)" xlink:href="#Grass_7"/>
    <use width="108.82" height="75.4" transform="matrix(0, 0.03, -0.03, 0, 6.8, 89.9)" xlink:href="#Grass_7"/>
    <use width="108.82" height="75.4" transform="matrix(0, 0.03, -0.03, 0, 8.81, 89.74)" xlink:href="#Grass_7"/>
    <use width="108.82" height="75.4" transform="matrix(0, 0.03, -0.03, 0, 10.82, 89.61)" xlink:href="#Grass_7"/>
    <use width="108.82" height="75.4" transform="matrix(0, 0.03, -0.03, 0, 2.49, 90.24)" xlink:href="#Grass_7"/>
    <use width="108.82" height="75.4" transform="matrix(0, 0.03, -0.03, 0, 12.41, 89.93)" xlink:href="#Grass_7"/>
    <use width="108.82" height="75.4" transform="matrix(0, 0.03, -0.03, 0, 14.12, 91.13)" xlink:href="#Grass_7"/>
    <use width="108.82" height="75.4" transform="matrix(0, 0.03, -0.03, 0, 4.9, 90.03)" xlink:href="#Grass_7"/>
    <use width="108.82" height="75.4" transform="matrix(0, 0.03, -0.03, 0, 4.21, 89.87)" xlink:href="#Grass_7"/>
    <use width="108.82" height="75.4" transform="matrix(0, 0.02, -0.03, 0, 15.14, 92.68)" xlink:href="#Grass_7"/>
    <use width="108.82" height="75.4" transform="matrix(0, 0.02, -0.03, 0, 11.99, 93.3)" xlink:href="#Grass_7"/>
    <use width="108.82" height="75.4" transform="matrix(0, 0.02, -0.03, 0, 9.52, 94.05)" xlink:href="#Grass_7"/>
    <use width="108.82" height="75.4" transform="matrix(0, 0.02, -0.03, 0, 8.64, 93.2)" xlink:href="#Grass_7"/>
    <use width="108.82" height="75.4" transform="matrix(0, 0.02, -0.03, 0, 6.18, 92.82)" xlink:href="#Grass_7"/>
    <use width="108.82" height="75.4" transform="matrix(0, 0.02, -0.03, 0, 3.54, 92.89)" xlink:href="#Grass_7"/>
    <use width="108.82" height="75.4" transform="matrix(0, 0.02, -0.03, 0, 1.93, 92.91)" xlink:href="#Grass_7"/>
    <use width="108.82" height="75.4" transform="matrix(0, 0.02, -0.03, 0, 1.98, 91.37)" xlink:href="#Grass_7"/>
    <use width="108.82" height="75.4" transform="matrix(0, 0.02, -0.03, 0, 2, 94.84)" xlink:href="#Grass_7"/>
    <use width="108.82" height="75.4" transform="matrix(0, 0.02, -0.03, 0, 2.04, 96.28)" xlink:href="#Grass_7"/>
    <use width="108.82" height="75.4" transform="matrix(0, 0.02, -0.03, 0, 7.18, 95.77)" xlink:href="#Grass_7"/>
    <use width="108.82" height="75.4" transform="matrix(0, 0.02, -0.03, 0, 9.22, 92.85)" xlink:href="#Grass_7"/>
    <use width="108.82" height="75.4" transform="matrix(0, 0.02, -0.03, 0, 10.08, 92.29)" xlink:href="#Grass_7"/>
    <use width="108.82" height="75.4" transform="matrix(0, 0.02, -0.03, 0, 10.53, 98.03)" xlink:href="#Grass_7"/>
    <use width="108.82" height="75.4" transform="matrix(0, 0.02, -0.03, 0, 6.63, 93.06)" xlink:href="#Grass_7"/>
    <use width="108.82" height="75.4" transform="matrix(0, 0.02, -0.03, 0, 3.8, 94.63)" xlink:href="#Grass_7"/>
    <use width="108.82" height="75.4" transform="matrix(0, 0.02, -0.03, 0, 1.94, 92.24)" xlink:href="#Grass_7"/>
    <use width="108.82" height="75.4" transform="matrix(0, 0.02, -0.03, 0, 4.33, 95.07)" xlink:href="#Grass_7"/>
    <use width="108.82" height="75.4" transform="matrix(0, 0.02, -0.03, 0, 7.51, 90.03)" xlink:href="#Grass_7"/>
    <use width="108.82" height="75.4" transform="matrix(0, 0.02, -0.03, 0, 5.15, 95.89)" xlink:href="#Grass_7"/>
    <use width="108.82" height="75.4" transform="matrix(0, 0.02, -0.03, 0, 8.79, 95.08)" xlink:href="#Grass_7"/>
    <use width="108.82" height="75.4" transform="matrix(0, 0.02, -0.03, 0, 6.74, 97.3)" xlink:href="#Grass_7"/>
    <use width="108.82" height="75.4" transform="matrix(0, 0.02, -0.03, 0, 3.28, 97.7)" xlink:href="#Grass_7"/>
    <use width="108.82" height="75.4" transform="matrix(0, 0.02, -0.03, 0, 2.53, 97.74)" xlink:href="#Grass_7"/>
    <use width="108.82" height="75.4" transform="matrix(0, 0.02, -0.03, 0, 4.67, 97.87)" xlink:href="#Grass_7"/>
    <use width="108.82" height="75.4" transform="matrix(0, 0.02, -0.03, 0, 6.02, 97.7)" xlink:href="#Grass_7"/>
    <use width="108.82" height="75.4" transform="matrix(0, 0.02, -0.03, 0, 8.29, 97.71)" xlink:href="#Grass_7"/>
    <use width="108.82" height="75.4" transform="matrix(0, 0.02, -0.03, 0, 9.03, 97.19)" xlink:href="#Grass_7"/>
    <use width="108.82" height="75.4" transform="matrix(0, 0.02, -0.03, 0, 12.09, 92.11)" xlink:href="#Grass_7"/>
    <use width="108.82" height="75.4" transform="matrix(0, 0.02, -0.03, 0, 13.25, 94.22)" xlink:href="#Grass_7"/>
    <use width="108.82" height="75.4" transform="matrix(0, 0.02, -0.03, 0, 15.17, 93.13)" xlink:href="#Grass_7"/>
    <use width="108.82" height="75.4" transform="matrix(0, 0.02, -0.03, 0, 15.66, 94.51)" xlink:href="#Grass_7"/>
    <use width="108.82" height="75.4" transform="matrix(0, 0.02, -0.03, 0, 15.67, 92.29)" xlink:href="#Grass_7"/>
    <use width="108.82" height="75.4" transform="matrix(0, 0.02, -0.03, 0, 14.68, 98.63)" xlink:href="#Grass_7"/>
    <use width="108.82" height="75.4" transform="matrix(0, 0.02, -0.03, 0, 14.81, 91.25)" xlink:href="#Grass_7"/>
    <use width="108.82" height="75.4" transform="matrix(0, 0.02, -0.03, 0, 13.29, 92.34)" xlink:href="#Grass_7"/>
    <use width="108.82" height="75.4" transform="matrix(0, 0.02, -0.03, 0, 10.39, 98.21)" xlink:href="#Grass_7"/>
    <use width="108.82" height="75.4" transform="matrix(0, 0.02, -0.03, 0, 12.58, 98.16)" xlink:href="#Grass_7"/>
    <use width="108.82" height="75.4" transform="matrix(0, 0.02, -0.03, 0, 12.42, 93.61)" xlink:href="#Grass_7"/>
    <use width="108.82" height="75.4" transform="matrix(0, 0.02, -0.03, 0, 10.46, 89.41)" xlink:href="#Grass_7"/>
    <use width="108.82" height="75.4" transform="matrix(0, 0.02, -0.03, 0, 9.45, 89.27)" xlink:href="#Grass_7"/>
    <use width="108.82" height="75.4" transform="matrix(0, 0.02, -0.03, 0, 7.34, 89.09)" xlink:href="#Grass_7"/>
    <use width="108.82" height="75.4" transform="matrix(0, 0.02, -0.03, 0, 5.76, 89.1)" xlink:href="#Grass_7"/>
    <use width="108.82" height="75.4" transform="matrix(0, 0.02, -0.03, 0, 3.71, 89.32)" xlink:href="#Grass_7"/>
    <use width="108.82" height="75.4" transform="matrix(0, 0.02, -0.03, 0, 2.36, 89.86)" xlink:href="#Grass_7"/>
    <use width="108.82" height="75.4" transform="matrix(0, 0.02, -0.03, 0, 5.43, 89.12)" xlink:href="#Grass_7"/>
    <use width="108.82" height="75.4" transform="matrix(0, 0.02, -0.03, 0, 7.24, 89.08)" xlink:href="#Grass_7"/>
    <use width="108.82" height="75.4" transform="matrix(0, 0.02, -0.03, 0, 9.12, 89.05)" xlink:href="#Grass_7"/>
    <use width="108.82" height="75.4" transform="matrix(0, 0.02, -0.03, 0, 12.53, 95.15)" xlink:href="#Grass_7"/>
    <use width="108.82" height="75.4" transform="matrix(0, 0.02, -0.03, 0, 12.53, 96.37)" xlink:href="#Grass_7"/>
    <use width="108.82" height="75.4" transform="matrix(0, 0.02, -0.03, 0, 10.56, 96.27)" xlink:href="#Grass_7"/>
    <use width="108.82" height="75.4" transform="matrix(0, 0.02, -0.03, 0, 10.55, 95.18)" xlink:href="#Grass_7"/>
    <use width="108.82" height="75.4" transform="matrix(0, 0.02, -0.03, 0, 11.46, 95.17)" xlink:href="#Grass_7"/>
    <use width="108.82" height="75.4" transform="matrix(0, 0.02, -0.03, 0, 14.49, 95.13)" xlink:href="#Grass_7"/>
    <use width="108.82" height="75.4" transform="matrix(0, 0.02, -0.03, 0, 14.52, 95.97)" xlink:href="#Grass_7"/>
    <use width="108.82" height="75.4" transform="matrix(0, 0.02, -0.03, 0, 10.76, 91.49)" xlink:href="#Grass_7"/>
    <use width="108.82" height="75.4" transform="matrix(0, 0.02, -0.03, 0, 15.92, 95.37)" xlink:href="#Grass_7"/>
    <use width="108.82" height="75.4" transform="matrix(0, 0.02, -0.03, 0, 14.3, 98.68)" xlink:href="#Grass_7"/>
    <use width="108.82" height="75.4" transform="matrix(0, 0.02, -0.03, 0, 16.01, 95.04)" xlink:href="#Grass_7"/>
    <use width="108.82" height="75.4" transform="matrix(0, 0.02, -0.03, 0, 15.89, 95.96)" xlink:href="#Grass_7"/>
    <use width="108.82" height="75.4" transform="matrix(0, 0.02, -0.03, 0, 14.87, 97.35)" xlink:href="#Grass_7"/>
    <use width="108.82" height="75.4" transform="matrix(0, 0.02, -0.03, 0, 13.17, 98.28)" xlink:href="#Grass_7"/>
    <use width="108.82" height="75.4" transform="matrix(0, 0.02, -0.03, 0, 12.4, 98.2)" xlink:href="#Grass_7"/>
    <use width="108.82" height="75.4" transform="matrix(0, 0.02, -0.03, 0, 11.87, 98.17)" xlink:href="#Grass_7"/>
    <use width="108.82" height="75.4" transform="matrix(0, 0.02, -0.03, 0, 11.01, 97.23)" xlink:href="#Grass_7"/>
    <use width="108.82" height="75.4" transform="matrix(0, 0.02, -0.03, 0, 11.01, 95.93)" xlink:href="#Grass_7"/>
    <use width="108.82" height="75.4" transform="matrix(0, 0.02, -0.03, 0, 10.92, 94.13)" xlink:href="#Grass_7"/>
    <use width="108.82" height="75.4" transform="matrix(0, 0.02, -0.03, 0, 8.81, 91.07)" xlink:href="#Grass_7"/>
    <use width="108.82" height="75.4" transform="matrix(0, 0.02, -0.03, 0, 7.76, 91.27)" xlink:href="#Grass_7"/>
    <use width="108.82" height="75.4" transform="matrix(0, 0.02, -0.03, 0, 6.98, 91.51)" xlink:href="#Grass_7"/>
    <use width="108.82" height="75.4" transform="matrix(0, 0.02, -0.03, 0, 6.17, 90.93)" xlink:href="#Grass_7"/>
    <use width="108.82" height="75.4" transform="matrix(0, 0.02, -0.03, 0, 3.71, 90.78)" xlink:href="#Grass_7"/>
    <use width="108.82" height="75.4" transform="matrix(0, 0.02, -0.03, 0, 4.75, 92.7)" xlink:href="#Grass_7"/>
    <use width="108.82" height="75.4" transform="matrix(0, 0.02, -0.03, 0, 3.88, 92.94)" xlink:href="#Grass_7"/>
    <use width="108.82" height="75.4" transform="matrix(0, 0.02, -0.03, 0, 3.81, 91.48)" xlink:href="#Grass_7"/>
    <use width="108.82" height="75.4" transform="matrix(0, 0.02, -0.03, 0, 5.38, 93.28)" xlink:href="#Grass_7"/>
    <use width="108.82" height="75.4" transform="matrix(0, 0.02, -0.03, 0, 5.17, 93.94)" xlink:href="#Grass_7"/>
    <use width="108.82" height="75.4" transform="matrix(0, 0.02, -0.03, 0, 2.98, 93.72)" xlink:href="#Grass_7"/>
    <use width="108.82" height="75.4" transform="matrix(0, 0.02, -0.03, 0, 3.09, 92.67)" xlink:href="#Grass_7"/>
    <use width="108.82" height="75.4" transform="matrix(0, 0.02, -0.03, 0, 2.72, 93.72)" xlink:href="#Grass_7"/>
    <use width="108.82" height="75.4" transform="matrix(0, 0.02, -0.03, 0, 2.98, 92.1)" xlink:href="#Grass_7"/>
    <use width="108.82" height="75.4" transform="matrix(0, 0.02, -0.03, 0, 3.05, 90.69)" xlink:href="#Grass_7"/>
    <use width="108.82" height="75.4" transform="matrix(0, 0.02, -0.03, 0, 14.62, 97.76)" xlink:href="#Grass_7"/>
    <use width="108.82" height="75.4" transform="matrix(0, 0.02, -0.03, 0, 2.68, 96.53)" xlink:href="#Grass_7"/>
    <use width="108.82" height="75.4" transform="matrix(0, 0.02, -0.03, 0, 4.56, 96.43)" xlink:href="#Grass_7"/>
    <use width="108.82" height="75.4" transform="matrix(0, 0.02, -0.03, 0, 5.62, 96.35)" xlink:href="#Grass_7"/>
    <use width="108.82" height="75.4" transform="matrix(0, 0.02, -0.03, 0, 6.48, 94.61)" xlink:href="#Grass_7"/>
    <use width="108.82" height="75.4" transform="matrix(0, 0.02, -0.03, 0, 7.51, 94.15)" xlink:href="#Grass_7"/>
    <use width="108.82" height="75.4" transform="matrix(0, 0.02, -0.03, 0, 8.19, 94.15)" xlink:href="#Grass_7"/>
    <use width="108.82" height="75.4" transform="matrix(0, 0.02, -0.03, 0, 8.71, 95.95)" xlink:href="#Grass_7"/>
    <use width="108.82" height="75.4" transform="matrix(0, 0.02, -0.03, 0, 9.27, 95.16)" xlink:href="#Grass_7"/>
    <use width="108.82" height="75.4" transform="matrix(0, 0.02, -0.03, 0, 9.71, 97.07)" xlink:href="#Grass_7"/>
    <use width="108.82" height="75.4" transform="matrix(0, 0.02, -0.03, 0, 11.27, 92.21)" xlink:href="#Grass_7"/>
    <use width="108.82" height="75.4" transform="matrix(0, 0.02, -0.03, 0, 8.45, 97.51)" xlink:href="#Grass_7"/>
    <use width="108.82" height="75.4" transform="matrix(0, 0.02, -0.03, 0, 7.58, 96.56)" xlink:href="#Grass_7"/>
    <use width="108.82" height="75.4" transform="matrix(0, 0.02, -0.03, 0, 6.83, 99.28)" xlink:href="#Grass_7"/>
    <use width="108.82" height="75.4" transform="matrix(0, 0.02, -0.03, 0, 5.46, 99.35)" xlink:href="#Grass_7"/>
    <use width="108.82" height="75.4" transform="matrix(0, 0.02, -0.03, 0, 4.3, 99.17)" xlink:href="#Grass_7"/>
    <use width="108.82" height="75.4" transform="matrix(0, 0.02, -0.03, 0, 3.8, 99.2)" xlink:href="#Grass_7"/>
    <use width="108.82" height="75.4" transform="matrix(0, 0.02, -0.03, 0, 2.97, 99.2)" xlink:href="#Grass_7"/>
    <use width="108.82" height="75.4" transform="matrix(0, 0.02, -0.03, 0, 3.01, 100.71)" xlink:href="#Grass_7"/>
    <use width="108.82" height="75.4" transform="matrix(0, 0.02, -0.03, 0, 3.77, 100.68)" xlink:href="#Grass_7"/>
    <use width="108.82" height="75.4" transform="matrix(0, 0.02, -0.03, 0, 5.88, 99.62)" xlink:href="#Grass_7"/>
    <use width="108.82" height="75.4" transform="matrix(0, 0.02, -0.03, 0, 7.09, 99.01)" xlink:href="#Grass_7"/>
    <use width="108.82" height="75.4" transform="matrix(0, 0.02, -0.03, 0, 5.58, 98.85)" xlink:href="#Grass_7"/>
    <use width="108.82" height="75.4" transform="matrix(0, 0.02, -0.03, 0, 8.78, 99.04)" xlink:href="#Grass_7"/>
    <use width="108.82" height="75.4" transform="matrix(0, 0.02, -0.03, 0, 10.87, 98.43)" xlink:href="#Grass_7"/>
    <use width="108.82" height="75.4" transform="matrix(0, 0.02, -0.03, 0, 9.39, 99.01)" xlink:href="#Grass_7"/>
    <use width="108.82" height="75.4" transform="matrix(0, 0.02, -0.03, 0, 8.04, 100.39)" xlink:href="#Grass_7"/>
    <use width="108.82" height="75.4" transform="matrix(0, 0.02, -0.03, 0, 6.99, 100.52)" xlink:href="#Grass_7"/>
    <use width="108.82" height="75.4" transform="matrix(0, 0.02, -0.03, 0, 6.04, 100.63)" xlink:href="#Grass_7"/>
    <use width="108.82" height="75.4" transform="matrix(0, 0.02, -0.03, 0, 5.33, 100.62)" xlink:href="#Grass_7"/>
    <use width="108.82" height="75.4" transform="matrix(0, 0.02, -0.03, 0, 4.23, 100.73)" xlink:href="#Grass_7"/>
    <use width="108.82" height="75.4" transform="matrix(0, 0.02, -0.03, 0, 2.87, 100.45)" xlink:href="#Grass_7"/>
    <use width="108.82" height="75.4" transform="matrix(0, 0.02, -0.03, 0, 2.5, 100.52)" xlink:href="#Grass_7"/>
    <use width="108.82" height="75.4" transform="matrix(0, 0.02, -0.03, 0, 1.95, 101.6)" xlink:href="#Grass_7"/>
    <use width="108.82" height="75.4" transform="matrix(0, 0.02, -0.03, 0, 1.45, 98.2)" xlink:href="#Grass_7"/>
    <use width="108.82" height="75.4" transform="matrix(0, 0.02, -0.03, 0, 1.52, 97.26)" xlink:href="#Grass_7"/>
    <use width="108.82" height="75.4" transform="matrix(0, 0.02, -0.03, 0, 1.44, 96.45)" xlink:href="#Grass_7"/>
    <use width="108.82" height="75.4" transform="matrix(0, 0.02, -0.03, 0, 1.5, 95.44)" xlink:href="#Grass_7"/>
    <use width="108.82" height="75.4" transform="matrix(0, 0.02, -0.03, 0, 1.54, 94.54)" xlink:href="#Grass_7"/>
    <use width="108.82" height="75.4" transform="matrix(0, 0.02, -0.03, 0, 1.46, 93.81)" xlink:href="#Grass_7"/>
    <use width="108.82" height="75.4" transform="matrix(0, 0.02, -0.03, 0, 1.47, 93.47)" xlink:href="#Grass_7"/>
    <use width="108.82" height="75.4" transform="matrix(0, 0.02, -0.03, 0, 1.39, 98.67)" xlink:href="#Grass_7"/>
    <use width="108.82" height="75.4" transform="matrix(0, 0.02, -0.03, 0, 1.36, 99.2)" xlink:href="#Grass_7"/>
    <use width="108.82" height="75.4" transform="matrix(0, 0.02, -0.03, 0, 1.62, 99.36)" xlink:href="#Grass_7"/>
    <use width="108.82" height="75.4" transform="matrix(0, 0.02, -0.03, 0, 1.73, 100.26)" xlink:href="#Grass_7"/>
    <use width="108.82" height="75.4" transform="matrix(0, 0.02, -0.03, 0, 1.74, 101.18)" xlink:href="#Grass_7"/>
    <use width="108.82" height="75.4" transform="matrix(0, 0.02, -0.03, 0, 1.97, 101.2)" xlink:href="#Grass_7"/>
    <use width="108.82" height="75.4" transform="matrix(0, 0.02, -0.03, 0, 2.73, 101.6)" xlink:href="#Grass_7"/>
    <use width="108.82" height="75.4" transform="matrix(0, 0.02, -0.03, 0, 3.27, 101.8)" xlink:href="#Grass_7"/>
    <use width="108.82" height="75.4" transform="matrix(0, 0.02, -0.03, 0, 4.3, 101.96)" xlink:href="#Grass_7"/>
    <use width="108.82" height="75.4" transform="matrix(0, 0.02, -0.03, 0, 5.59, 101.86)" xlink:href="#Grass_7"/>
    <use width="108.82" height="75.4" transform="matrix(0, 0.02, -0.03, 0, 6.5, 101.69)" xlink:href="#Grass_7"/>
    <use width="108.82" height="75.4" transform="matrix(0, 0.02, -0.03, 0, 7.54, 101.02)" xlink:href="#Grass_7"/>
    <use width="108.82" height="75.4" transform="matrix(0, 0.02, -0.03, 0, 9.1, 100.78)" xlink:href="#Grass_7"/>
    <use width="108.82" height="75.4" transform="matrix(0, 0.02, -0.03, 0, 9.54, 101.34)" xlink:href="#Grass_7"/>
    <use width="108.82" height="75.4" transform="matrix(0, 0.02, -0.03, 0, 9.63, 100.39)" xlink:href="#Grass_7"/>
    <use width="108.82" height="75.4" transform="matrix(0, 0.02, -0.03, 0, 9.46, 101.48)" xlink:href="#Grass_7"/>
    <use width="108.82" height="75.4" transform="matrix(0, 0.02, -0.03, 0, 9.81, 102.12)" xlink:href="#Grass_7"/>
    <use width="108.82" height="75.4" transform="matrix(0, 0.02, -0.03, 0, 10.61, 102.32)" xlink:href="#Grass_7"/>
    <use width="108.82" height="75.4" transform="matrix(0, 0.02, -0.03, 0, 8.71, 102.44)" xlink:href="#Grass_7"/>
    <use width="108.82" height="75.4" transform="matrix(0, 0.02, -0.03, 0, 7.85, 102.54)" xlink:href="#Grass_7"/>
    <use width="108.82" height="75.4" transform="matrix(0, 0.02, -0.03, 0, 6.25, 102.91)" xlink:href="#Grass_7"/>
    <use width="108.82" height="75.4" transform="matrix(0, 0.02, -0.03, 0, 4.85, 102.8)" xlink:href="#Grass_7"/>
    <use width="108.82" height="75.4" transform="matrix(0, 0.02, -0.03, 0, 4.01, 102.24)" xlink:href="#Grass_7"/>
    <use width="108.82" height="75.4" transform="matrix(0, 0.02, -0.03, 0, 1.81, 102.65)" xlink:href="#Grass_7"/>
    <use width="108.82" height="75.4" transform="matrix(0, 0.02, -0.03, 0, 4.65, 99.87)" xlink:href="#Grass_7"/>
    <use width="108.82" height="75.4" transform="matrix(0, 0.02, -0.03, 0, 6.16, 95.48)" xlink:href="#Grass_7"/>
    <use width="108.82" height="75.4" transform="matrix(0, 0.02, -0.03, 0, 12.04, 90.33)" xlink:href="#Grass_7"/>
    <use width="108.82" height="75.4" transform="matrix(0, 0.02, -0.03, 0, 11.29, 91.77)" xlink:href="#Grass_7"/>
    <use width="108.82" height="75.4" transform="matrix(0, 0.02, -0.03, 0, 11.3, 91.76)" xlink:href="#Grass_7"/>
    <use width="108.82" height="75.4" transform="matrix(0, 0.02, -0.03, 0, 9.88, 97.92)" xlink:href="#Grass_7"/>
    <use width="108.82" height="75.4" transform="matrix(0, 0.02, -0.03, 0, 9.82, 91.18)" xlink:href="#Grass_7"/>
    <use width="108.82" height="75.4" transform="matrix(0, 0.02, -0.03, 0, 10.42, 89.43)" xlink:href="#Grass_7"/>
    <use width="108.82" height="75.4" transform="matrix(0, 0.02, -0.03, 0, 13.08, 90.58)" xlink:href="#Grass_7"/>
    <use width="108.82" height="75.4" transform="matrix(0, 0.02, -0.03, 0, 7.59, 95.05)" xlink:href="#Grass_7"/>
    <use width="108.82" height="75.4" transform="matrix(0, 0.02, -0.03, 0, 14.18, 98.63)" xlink:href="#Grass_7"/>
    <use width="108.82" height="75.4" transform="matrix(0, 0.02, -0.03, 0, 13.81, 99.13)" xlink:href="#Grass_7"/>
    <use width="108.82" height="75.4" transform="translate(0 96.77) scale(0.03)" xlink:href="#Grass_7"/>
    <use width="108.82" height="75.4" transform="translate(1.95 91.34) scale(0.03)" xlink:href="#Grass_7"/>
    <use width="108.82" height="75.4" transform="translate(4.78 89.7) scale(0.03)" xlink:href="#Grass_7"/>
    <use width="108.82" height="75.4" transform="translate(11.21 92.25) scale(0.03)" xlink:href="#Grass_7"/>
    <use width="108.82" height="75.4" transform="translate(5.67 92.28) scale(0.03)" xlink:href="#Grass_7"/>
    <use width="108.82" height="75.4" transform="translate(-0.21 89.72) scale(0.03)" xlink:href="#Grass_7"/>
    <use width="108.82" height="75.4" transform="translate(2.92 89.54) scale(0.03)" xlink:href="#Grass_7"/>
    <use width="108.82" height="75.4" transform="translate(5.71 89.08) scale(0.03)" xlink:href="#Grass_7"/>
    <use width="108.82" height="75.4" transform="translate(7.47 89.18) scale(0.03)" xlink:href="#Grass_7"/>
    <use width="108.82" height="75.4" transform="translate(9.44 90.01) scale(0.03)" xlink:href="#Grass_7"/>
    <use width="108.82" height="75.4" transform="translate(11.08 91.13) scale(0.03)" xlink:href="#Grass_7"/>
    <use width="108.82" height="75.4" transform="translate(12.38 92.07) scale(0.03)" xlink:href="#Grass_7"/>
    <use width="108.82" height="75.4" transform="translate(8.32 91.88) scale(0.03)" xlink:href="#Grass_7"/>
    <use width="108.82" height="75.4" transform="translate(6.61 91.04) scale(0.03)" xlink:href="#Grass_7"/>
    <use width="108.82" height="75.4" transform="translate(4.39 91.26) scale(0.03)" xlink:href="#Grass_7"/>
    <use width="108.82" height="75.4" transform="translate(-0.6 91.29) scale(0.03)" xlink:href="#Grass_7"/>
    <use width="108.82" height="75.4" transform="translate(-0.47 93.08) scale(0.03)" xlink:href="#Grass_7"/>
    <use width="108.82" height="75.4" transform="translate(-0.56 94.89) scale(0.03)" xlink:href="#Grass_7"/>
    <use width="108.82" height="75.4" transform="translate(2.12 93.88) scale(0.03)" xlink:href="#Grass_7"/>
    <use width="108.82" height="75.4" transform="translate(1.86 93.16) scale(0.03)" xlink:href="#Grass_7"/>
    <use width="108.82" height="75.4" transform="translate(4.5 93.27) scale(0.03)" xlink:href="#Grass_7"/>
    <use width="108.82" height="75.4" transform="translate(7.28 93.81) scale(0.03)" xlink:href="#Grass_7"/>
    <use width="108.82" height="75.4" transform="translate(9.99 93.48) scale(0.03)" xlink:href="#Grass_7"/>
    <use width="108.82" height="75.4" transform="translate(11.98 94.3) scale(0.03)" xlink:href="#Grass_7"/>
    <use width="108.82" height="75.4" transform="translate(12.21 95.76) scale(0.03)" xlink:href="#Grass_7"/>
    <use width="108.82" height="75.4" transform="translate(11.3 97.16) scale(0.03)" xlink:href="#Grass_7"/>
    <use width="108.82" height="75.4" transform="translate(9.46 97.62) scale(0.03)" xlink:href="#Grass_7"/>
    <use width="108.82" height="75.4" transform="translate(7.29 97.62) scale(0.03)" xlink:href="#Grass_7"/>
    <use width="108.82" height="75.4" transform="translate(9.55 96.91) scale(0.03)" xlink:href="#Grass_7"/>
    <use width="108.82" height="75.4" transform="translate(9.62 95.16) scale(0.03)" xlink:href="#Grass_7"/>
    <use width="108.82" height="75.4" transform="translate(4.52 95.55) scale(0.03)" xlink:href="#Grass_7"/>
    <use width="108.82" height="75.4" transform="translate(2.03 95.87) scale(0.03)" xlink:href="#Grass_7"/>
    <use width="108.82" height="75.4" transform="translate(6.81 95.81) scale(0.03)" xlink:href="#Grass_7"/>
    <use width="108.82" height="75.4" transform="translate(4.19 97.3) scale(0.03)" xlink:href="#Grass_7"/>
    <use width="108.82" height="75.4" transform="translate(1.78 97.38) scale(0.03)" xlink:href="#Grass_7"/>
    <use width="108.82" height="75.4" transform="translate(-0.31 98.01) scale(0.03)" xlink:href="#Grass_7"/>
    <use width="108.82" height="75.4" transform="translate(-0.21 99.87) scale(0.03)" xlink:href="#Grass_7"/>
    <use width="108.82" height="75.4" transform="translate(3.67 99.03) scale(0.03)" xlink:href="#Grass_7"/>
    <use width="108.82" height="75.4" transform="translate(5.67 99.32) scale(0.03)" xlink:href="#Grass_7"/>
    <use width="108.82" height="75.4" transform="translate(6.65 100.96) scale(0.03)" xlink:href="#Grass_7"/>
    <use width="108.82" height="75.4" transform="translate(4.65 101.49) scale(0.03)" xlink:href="#Grass_7"/>
    <use width="108.82" height="75.4" transform="translate(2.87 101.46) scale(0.03)" xlink:href="#Grass_7"/>
    <use width="108.82" height="75.4" transform="translate(0.42 101.58) scale(0.03)" xlink:href="#Grass_7"/>
    <use width="108.82" height="75.4" transform="translate(-0.88 101.6) scale(0.03)" xlink:href="#Grass_7"/>
    <use width="108.82" height="75.4" transform="translate(1.77 99.59) scale(0.03)" xlink:href="#Grass_7"/>
    <use width="108.82" height="75.4" transform="translate(4.18 94.51) scale(0.03)" xlink:href="#Grass_7"/>
    <use width="108.82" height="75.4" transform="translate(2.97 94.76) scale(0.03)" xlink:href="#Grass_7"/>
    <use width="108.82" height="75.4" transform="translate(-0.23 95.67) scale(0.03)" xlink:href="#Grass_7"/>
    <use width="108.82" height="75.4" transform="translate(-0.49 98.67) scale(0.03)" xlink:href="#Grass_7"/>
    <use width="108.82" height="75.4" transform="translate(-0.51 99.63) scale(0.03)" xlink:href="#Grass_7"/>
    <use width="108.82" height="75.4" transform="translate(7.76 93.94) scale(0.03)" xlink:href="#Grass_7"/>
    <use width="108.82" height="75.4" transform="translate(2.7 91.34) scale(0.03)" xlink:href="#Grass_7"/>
    <use width="108.82" height="75.4" transform="matrix(0, 0.03, -0.03, 0, 11.39, 92.24)" xlink:href="#Grass_7"/>
    <use width="108.82" height="75.4" transform="matrix(0, 0.03, -0.03, 0, 6.75, 89.78)" xlink:href="#Grass_7"/>
    <use width="108.82" height="75.4" transform="matrix(0, 0.03, -0.03, 0, 8.76, 89.63)" xlink:href="#Grass_7"/>
    <use width="108.82" height="75.4" transform="matrix(0, 0.03, -0.03, 0, 10.76, 89.49)" xlink:href="#Grass_7"/>
    <use width="108.82" height="75.4" transform="matrix(0, 0.03, -0.03, 0, 2.43, 90.13)" xlink:href="#Grass_7"/>
    <use width="108.82" height="75.4" transform="matrix(0, 0.03, -0.03, 0, 12.35, 89.82)" xlink:href="#Grass_7"/>
    <use width="108.82" height="75.4" transform="matrix(0, 0.03, -0.03, 0, 14.07, 91.01)" xlink:href="#Grass_7"/>
    <use width="108.82" height="75.4" transform="matrix(0, 0.03, -0.03, 0, 4.85, 89.92)" xlink:href="#Grass_7"/>
    <use width="108.82" height="75.4" transform="matrix(0, 0.03, -0.03, 0, 4.15, 89.75)" xlink:href="#Grass_7"/>
    <use width="108.82" height="75.4" transform="matrix(0, 0.02, -0.03, 0, 15.08, 92.56)" xlink:href="#Grass_7"/>
    <use width="108.82" height="75.4" transform="matrix(0, 0.02, -0.03, 0, 11.93, 93.19)" xlink:href="#Grass_7"/>
    <use width="108.82" height="75.4" transform="matrix(0, 0.02, -0.03, 0, 9.47, 93.93)" xlink:href="#Grass_7"/>
    <use width="108.82" height="75.4" transform="matrix(0, 0.02, -0.03, 0, 8.58, 93.09)" xlink:href="#Grass_7"/>
    <use width="108.82" height="75.4" transform="matrix(0, 0.02, -0.03, 0, 6.12, 92.7)" xlink:href="#Grass_7"/>
    <use width="108.82" height="75.4" transform="matrix(0, 0.02, -0.03, 0, 3.49, 92.78)" xlink:href="#Grass_7"/>
    <use width="108.82" height="75.4" transform="matrix(0, 0.02, -0.03, 0, 1.87, 92.8)" xlink:href="#Grass_7"/>
    <use width="108.82" height="75.4" transform="matrix(0, 0.02, -0.03, 0, 1.92, 91.26)" xlink:href="#Grass_7"/>
    <use width="108.82" height="75.4" transform="matrix(0, 0.02, -0.03, 0, 1.94, 94.72)" xlink:href="#Grass_7"/>
    <use width="108.82" height="75.4" transform="matrix(0, 0.02, -0.03, 0, 1.98, 96.17)" xlink:href="#Grass_7"/>
    <use width="108.82" height="75.4" transform="matrix(0, 0.02, -0.03, 0, 7.12, 95.65)" xlink:href="#Grass_7"/>
    <use width="108.82" height="75.4" transform="matrix(0, 0.02, -0.03, 0, 9.17, 92.74)" xlink:href="#Grass_7"/>
    <use width="108.82" height="75.4" transform="matrix(0, 0.02, -0.03, 0, 10.02, 92.17)" xlink:href="#Grass_7"/>
    <use width="108.82" height="75.4" transform="matrix(0, 0.02, -0.03, 0, 10.47, 97.91)" xlink:href="#Grass_7"/>
    <use width="108.82" height="75.4" transform="matrix(0, 0.02, -0.03, 0, 6.58, 92.95)" xlink:href="#Grass_7"/>
    <use width="108.82" height="75.4" transform="matrix(0, 0.02, -0.03, 0, 3.75, 94.51)" xlink:href="#Grass_7"/>
    <use width="108.82" height="75.4" transform="matrix(0, 0.02, -0.03, 0, 1.88, 92.12)" xlink:href="#Grass_7"/>
    <use width="108.82" height="75.4" transform="matrix(0, 0.02, -0.03, 0, 4.28, 94.95)" xlink:href="#Grass_7"/>
    <use width="108.82" height="75.4" transform="matrix(0, 0.02, -0.03, 0, 7.46, 89.92)" xlink:href="#Grass_7"/>
    <use width="108.82" height="75.4" transform="matrix(0, 0.02, -0.03, 0, 5.09, 95.77)" xlink:href="#Grass_7"/>
    <use width="108.82" height="75.4" transform="matrix(0, 0.02, -0.03, 0, 8.74, 94.96)" xlink:href="#Grass_7"/>
    <use width="108.82" height="75.4" transform="matrix(0, 0.02, -0.03, 0, 6.68, 97.18)" xlink:href="#Grass_7"/>
    <use width="108.82" height="75.4" transform="matrix(0, 0.02, -0.03, 0, 3.22, 97.58)" xlink:href="#Grass_7"/>
    <use width="108.82" height="75.4" transform="matrix(0, 0.02, -0.03, 0, 2.47, 97.62)" xlink:href="#Grass_7"/>
    <use width="108.82" height="75.4" transform="matrix(0, 0.02, -0.03, 0, 4.62, 97.75)" xlink:href="#Grass_7"/>
    <use width="108.82" height="75.4" transform="matrix(0, 0.02, -0.03, 0, 5.97, 97.58)" xlink:href="#Grass_7"/>
    <use width="108.82" height="75.4" transform="matrix(0, 0.02, -0.03, 0, 8.24, 97.59)" xlink:href="#Grass_7"/>
    <use width="108.82" height="75.4" transform="matrix(0, 0.02, -0.03, 0, 8.97, 97.08)" xlink:href="#Grass_7"/>
    <use width="108.82" height="75.4" transform="matrix(0, 0.02, -0.03, 0, 12.03, 92)" xlink:href="#Grass_7"/>
    <use width="108.82" height="75.4" transform="matrix(0, 0.02, -0.03, 0, 13.19, 94.1)" xlink:href="#Grass_7"/>
    <use width="108.82" height="75.4" transform="matrix(0, 0.02, -0.03, 0, 15.11, 93.01)" xlink:href="#Grass_7"/>
    <use width="108.82" height="75.4" transform="matrix(0, 0.02, -0.03, 0, 15.6, 94.4)" xlink:href="#Grass_7"/>
    <use width="108.82" height="75.4" transform="matrix(0, 0.02, -0.03, 0, 15.61, 92.18)" xlink:href="#Grass_7"/>
    <use width="108.82" height="75.4" transform="matrix(0, 0.02, -0.03, 0, 14.63, 98.52)" xlink:href="#Grass_7"/>
    <use width="108.82" height="75.4" transform="matrix(0, 0.02, -0.03, 0, 14.76, 91.13)" xlink:href="#Grass_7"/>
    <use width="108.82" height="75.4" transform="matrix(0, 0.02, -0.03, 0, 13.24, 92.23)" xlink:href="#Grass_7"/>
    <use width="108.82" height="75.4" transform="matrix(0, 0.02, -0.03, 0, 10.33, 98.1)" xlink:href="#Grass_7"/>
    <use width="108.82" height="75.4" transform="matrix(0, 0.02, -0.03, 0, 12.52, 98.04)" xlink:href="#Grass_7"/>
    <use width="108.82" height="75.4" transform="matrix(0, 0.02, -0.03, 0, 12.36, 93.5)" xlink:href="#Grass_7"/>
    <use width="108.82" height="75.4" transform="matrix(0, 0.02, -0.03, 0, 10.4, 89.29)" xlink:href="#Grass_7"/>
    <use width="108.82" height="75.4" transform="matrix(0, 0.02, -0.03, 0, 9.4, 89.15)" xlink:href="#Grass_7"/>
    <use width="108.82" height="75.4" transform="matrix(0, 0.02, -0.03, 0, 7.28, 88.98)" xlink:href="#Grass_7"/>
    <use width="108.82" height="75.4" transform="matrix(0, 0.02, -0.03, 0, 5.7, 88.98)" xlink:href="#Grass_7"/>
    <use width="108.82" height="75.4" transform="matrix(0, 0.02, -0.03, 0, 3.66, 89.2)" xlink:href="#Grass_7"/>
    <use width="108.82" height="75.4" transform="matrix(0, 0.02, -0.03, 0, 2.3, 89.75)" xlink:href="#Grass_7"/>
    <use width="108.82" height="75.4" transform="matrix(0, 0.02, -0.03, 0, 5.38, 89.01)" xlink:href="#Grass_7"/>
    <use width="108.82" height="75.4" transform="matrix(0, 0.02, -0.03, 0, 7.18, 88.96)" xlink:href="#Grass_7"/>
    <use width="108.82" height="75.4" transform="matrix(0, 0.02, -0.03, 0, 9.06, 88.94)" xlink:href="#Grass_7"/>
    <use width="108.82" height="75.4" transform="matrix(0, 0.02, -0.03, 0, 12.47, 95.04)" xlink:href="#Grass_7"/>
    <use width="108.82" height="75.4" transform="matrix(0, 0.02, -0.03, 0, 12.48, 96.25)" xlink:href="#Grass_7"/>
    <use width="108.82" height="75.4" transform="matrix(0, 0.02, -0.03, 0, 10.51, 96.15)" xlink:href="#Grass_7"/>
    <use width="108.82" height="75.4" transform="matrix(0, 0.02, -0.03, 0, 10.49, 95.06)" xlink:href="#Grass_7"/>
    <use width="108.82" height="75.4" transform="matrix(0, 0.02, -0.03, 0, 11.41, 95.05)" xlink:href="#Grass_7"/>
    <use width="108.82" height="75.4" transform="matrix(0, 0.02, -0.03, 0, 14.43, 95.01)" xlink:href="#Grass_7"/>
    <use width="108.82" height="75.4" transform="matrix(0, 0.02, -0.03, 0, 14.47, 95.86)" xlink:href="#Grass_7"/>
    <use width="108.82" height="75.4" transform="matrix(0, 0.02, -0.03, 0, 10.7, 91.37)" xlink:href="#Grass_7"/>
    <use width="108.82" height="75.4" transform="matrix(0, 0.02, -0.03, 0, 15.87, 95.25)" xlink:href="#Grass_7"/>
    <use width="108.82" height="75.4" transform="matrix(0, 0.02, -0.03, 0, 14.25, 98.57)" xlink:href="#Grass_7"/>
    <use width="108.82" height="75.4" transform="matrix(0, 0.02, -0.03, 0, 15.96, 94.93)" xlink:href="#Grass_7"/>
    <use width="108.82" height="75.4" transform="matrix(0, 0.02, -0.03, 0, 15.83, 95.85)" xlink:href="#Grass_7"/>
    <use width="108.82" height="75.4" transform="matrix(0, 0.02, -0.03, 0, 14.81, 97.23)" xlink:href="#Grass_7"/>
    <use width="108.82" height="75.4" transform="matrix(0, 0.02, -0.03, 0, 13.11, 98.16)" xlink:href="#Grass_7"/>
    <use width="108.82" height="75.4" transform="matrix(0, 0.02, -0.03, 0, 12.34, 98.08)" xlink:href="#Grass_7"/>
    <use width="108.82" height="75.4" transform="matrix(0, 0.02, -0.03, 0, 11.82, 98.06)" xlink:href="#Grass_7"/>
    <use width="108.82" height="75.4" transform="matrix(0, 0.02, -0.03, 0, 10.95, 97.11)" xlink:href="#Grass_7"/>
    <use width="108.82" height="75.4" transform="matrix(0, 0.02, -0.03, 0, 10.95, 95.82)" xlink:href="#Grass_7"/>
    <use width="108.82" height="75.4" transform="matrix(0, 0.02, -0.03, 0, 10.86, 94.02)" xlink:href="#Grass_7"/>
    <use width="108.82" height="75.4" transform="matrix(0, 0.02, -0.03, 0, 8.75, 90.95)" xlink:href="#Grass_7"/>
    <use width="108.82" height="75.4" transform="matrix(0, 0.02, -0.03, 0, 7.71, 91.15)" xlink:href="#Grass_7"/>
    <use width="108.82" height="75.4" transform="matrix(0, 0.02, -0.03, 0, 6.92, 91.4)" xlink:href="#Grass_7"/>
    <use width="108.82" height="75.4" transform="matrix(0, 0.02, -0.03, 0, 6.12, 90.81)" xlink:href="#Grass_7"/>
    <use width="108.82" height="75.4" transform="matrix(0, 0.02, -0.03, 0, 3.65, 90.67)" xlink:href="#Grass_7"/>
    <use width="108.82" height="75.4" transform="matrix(0, 0.02, -0.03, 0, 4.69, 92.58)" xlink:href="#Grass_7"/>
    <use width="108.82" height="75.4" transform="matrix(0, 0.02, -0.03, 0, 3.83, 92.82)" xlink:href="#Grass_7"/>
    <use width="108.82" height="75.4" transform="matrix(0, 0.02, -0.03, 0, 3.75, 91.37)" xlink:href="#Grass_7"/>
    <use width="108.82" height="75.4" transform="matrix(0, 0.02, -0.03, 0, 5.33, 93.16)" xlink:href="#Grass_7"/>
    <use width="108.82" height="75.4" transform="matrix(0, 0.02, -0.03, 0, 5.12, 93.82)" xlink:href="#Grass_7"/>
    <use width="108.82" height="75.4" transform="matrix(0, 0.02, -0.03, 0, 2.92, 93.6)" xlink:href="#Grass_7"/>
    <use width="108.82" height="75.4" transform="matrix(0, 0.02, -0.03, 0, 3.04, 92.55)" xlink:href="#Grass_7"/>
    <use width="108.82" height="75.4" transform="matrix(0, 0.02, -0.03, 0, 2.67, 93.6)" xlink:href="#Grass_7"/>
    <use width="108.82" height="75.4" transform="matrix(0, 0.02, -0.03, 0, 2.93, 91.98)" xlink:href="#Grass_7"/>
    <use width="108.82" height="75.4" transform="matrix(0, 0.02, -0.03, 0, 3, 90.57)" xlink:href="#Grass_7"/>
    <use width="108.82" height="75.4" transform="matrix(0, 0.02, -0.03, 0, 14.57, 97.64)" xlink:href="#Grass_7"/>
    <use width="108.82" height="75.4" transform="matrix(0, 0.02, -0.03, 0, 2.62, 96.41)" xlink:href="#Grass_7"/>
    <use width="108.82" height="75.4" transform="matrix(0, 0.02, -0.03, 0, 4.5, 96.32)" xlink:href="#Grass_7"/>
    <use width="108.82" height="75.4" transform="matrix(0, 0.02, -0.03, 0, 5.57, 96.23)" xlink:href="#Grass_7"/>
    <use width="108.82" height="75.4" transform="matrix(0, 0.02, -0.03, 0, 6.43, 94.5)" xlink:href="#Grass_7"/>
    <use width="108.82" height="75.4" transform="matrix(0, 0.02, -0.03, 0, 7.46, 94.04)" xlink:href="#Grass_7"/>
    <use width="108.82" height="75.4" transform="matrix(0, 0.02, -0.03, 0, 8.14, 94.04)" xlink:href="#Grass_7"/>
    <use width="108.82" height="75.4" transform="matrix(0, 0.02, -0.03, 0, 8.66, 95.83)" xlink:href="#Grass_7"/>
    <use width="108.82" height="75.4" transform="matrix(0, 0.02, -0.03, 0, 9.21, 95.04)" xlink:href="#Grass_7"/>
    <use width="108.82" height="75.4" transform="matrix(0, 0.02, -0.03, 0, 9.65, 96.95)" xlink:href="#Grass_7"/>
    <use width="108.82" height="75.4" transform="matrix(0, 0.02, -0.03, 0, 11.21, 92.09)" xlink:href="#Grass_7"/>
    <use width="108.82" height="75.4" transform="matrix(0, 0.02, -0.03, 0, 8.39, 97.4)" xlink:href="#Grass_7"/>
    <use width="108.82" height="75.4" transform="matrix(0, 0.02, -0.03, 0, 7.52, 96.44)" xlink:href="#Grass_7"/>
    <use width="108.82" height="75.4" transform="matrix(0, 0.02, -0.03, 0, 6.77, 99.17)" xlink:href="#Grass_7"/>
    <use width="108.82" height="75.4" transform="matrix(0, 0.02, -0.03, 0, 5.41, 99.23)" xlink:href="#Grass_7"/>
    <use width="108.82" height="75.4" transform="matrix(0, 0.02, -0.03, 0, 4.25, 99.06)" xlink:href="#Grass_7"/>
    <use width="108.82" height="75.4" transform="matrix(0, 0.02, -0.03, 0, 3.74, 99.08)" xlink:href="#Grass_7"/>
    <use width="108.82" height="75.4" transform="matrix(0, 0.02, -0.03, 0, 2.92, 99.09)" xlink:href="#Grass_7"/>
    <use width="108.82" height="75.4" transform="matrix(0, 0.02, -0.03, 0, 2.95, 100.59)" xlink:href="#Grass_7"/>
    <use width="108.82" height="75.4" transform="matrix(0, 0.02, -0.03, 0, 3.72, 100.57)" xlink:href="#Grass_7"/>
    <use width="108.82" height="75.4" transform="matrix(0, 0.02, -0.03, 0, 5.83, 99.51)" xlink:href="#Grass_7"/>
    <use width="108.82" height="75.4" transform="matrix(0, 0.02, -0.03, 0, 7.04, 98.89)" xlink:href="#Grass_7"/>
    <use width="108.82" height="75.4" transform="matrix(0, 0.02, -0.03, 0, 5.52, 98.74)" xlink:href="#Grass_7"/>
    <use width="108.82" height="75.4" transform="matrix(0, 0.02, -0.03, 0, 8.73, 98.93)" xlink:href="#Grass_7"/>
    <use width="108.82" height="75.4" transform="matrix(0, 0.02, -0.03, 0, 10.82, 98.31)" xlink:href="#Grass_7"/>
    <use width="108.82" height="75.4" transform="matrix(0, 0.02, -0.03, 0, 9.33, 98.89)" xlink:href="#Grass_7"/>
    <use width="108.82" height="75.4" transform="matrix(0, 0.02, -0.03, 0, 7.98, 100.28)" xlink:href="#Grass_7"/>
    <use width="108.82" height="75.4" transform="matrix(0, 0.02, -0.03, 0, 6.93, 100.41)" xlink:href="#Grass_7"/>
    <use width="108.82" height="75.4" transform="matrix(0, 0.02, -0.03, 0, 5.98, 100.52)" xlink:href="#Grass_7"/>
    <use width="108.82" height="75.4" transform="matrix(0, 0.02, -0.03, 0, 5.28, 100.5)" xlink:href="#Grass_7"/>
    <use width="108.82" height="75.4" transform="matrix(0, 0.02, -0.03, 0, 4.18, 100.61)" xlink:href="#Grass_7"/>
    <use width="108.82" height="75.4" transform="matrix(0, 0.02, -0.03, 0, 2.81, 100.34)" xlink:href="#Grass_7"/>
    <use width="108.82" height="75.4" transform="matrix(0, 0.02, -0.03, 0, 2.45, 100.4)" xlink:href="#Grass_7"/>
    <use width="108.82" height="75.4" transform="matrix(0, 0.02, -0.03, 0, 1.89, 101.48)" xlink:href="#Grass_7"/>
    <use width="108.82" height="75.4" transform="matrix(0, 0.02, -0.03, 0, 1.39, 98.09)" xlink:href="#Grass_7"/>
    <use width="108.82" height="75.4" transform="matrix(0, 0.02, -0.03, 0, 1.46, 97.14)" xlink:href="#Grass_7"/>
    <use width="108.82" height="75.4" transform="matrix(0, 0.02, -0.03, 0, 1.38, 96.34)" xlink:href="#Grass_7"/>
    <use width="108.82" height="75.4" transform="matrix(0, 0.02, -0.03, 0, 1.45, 95.33)" xlink:href="#Grass_7"/>
    <use width="108.82" height="75.4" transform="matrix(0, 0.02, -0.03, 0, 1.48, 94.42)" xlink:href="#Grass_7"/>
    <use width="108.82" height="75.4" transform="matrix(0, 0.02, -0.03, 0, 1.41, 93.69)" xlink:href="#Grass_7"/>
    <use width="108.82" height="75.4" transform="matrix(0, 0.02, -0.03, 0, 1.42, 93.35)" xlink:href="#Grass_7"/>
    <use width="108.82" height="75.4" transform="matrix(0, 0.02, -0.03, 0, 1.34, 98.55)" xlink:href="#Grass_7"/>
    <use width="108.82" height="75.4" transform="matrix(0, 0.02, -0.03, 0, 1.31, 99.09)" xlink:href="#Grass_7"/>
    <use width="108.82" height="75.4" transform="matrix(0, 0.02, -0.03, 0, 1.57, 99.24)" xlink:href="#Grass_7"/>
    <use width="108.82" height="75.4" transform="matrix(0, 0.02, -0.03, 0, 1.68, 100.14)" xlink:href="#Grass_7"/>
    <use width="108.82" height="75.4" transform="matrix(0, 0.02, -0.03, 0, 1.69, 101.06)" xlink:href="#Grass_7"/>
    <use width="108.82" height="75.4" transform="matrix(0, 0.02, -0.03, 0, 1.91, 101.09)" xlink:href="#Grass_7"/>
    <use width="108.82" height="75.4" transform="matrix(0, 0.02, -0.03, 0, 2.68, 101.49)" xlink:href="#Grass_7"/>
    <use width="108.82" height="75.4" transform="matrix(0, 0.02, -0.03, 0, 3.22, 101.69)" xlink:href="#Grass_7"/>
    <use width="108.82" height="75.4" transform="matrix(0, 0.02, -0.03, 0, 4.24, 101.85)" xlink:href="#Grass_7"/>
    <use width="108.82" height="75.4" transform="matrix(0, 0.02, -0.03, 0, 5.53, 101.74)" xlink:href="#Grass_7"/>
    <use width="108.82" height="75.4" transform="matrix(0, 0.02, -0.03, 0, 6.44, 101.57)" xlink:href="#Grass_7"/>
    <use width="108.82" height="75.4" transform="matrix(0, 0.02, -0.03, 0, 7.49, 100.9)" xlink:href="#Grass_7"/>
    <use width="108.82" height="75.4" transform="matrix(0, 0.02, -0.03, 0, 9.04, 100.66)" xlink:href="#Grass_7"/>
    <use width="108.82" height="75.4" transform="matrix(0, 0.02, -0.03, 0, 9.48, 101.23)" xlink:href="#Grass_7"/>
    <use width="108.82" height="75.4" transform="matrix(0, 0.02, -0.03, 0, 9.57, 100.27)" xlink:href="#Grass_7"/>
    <use width="108.82" height="75.4" transform="matrix(0, 0.02, -0.03, 0, 9.41, 101.36)" xlink:href="#Grass_7"/>
    <use width="108.82" height="75.4" transform="matrix(0, 0.02, -0.03, 0, 9.75, 102)" xlink:href="#Grass_7"/>
    <use width="108.82" height="75.4" transform="matrix(0, 0.02, -0.03, 0, 10.55, 102.21)" xlink:href="#Grass_7"/>
    <use width="108.82" height="75.4" transform="matrix(0, 0.02, -0.03, 0, 8.65, 102.33)" xlink:href="#Grass_7"/>
    <use width="108.82" height="75.4" transform="matrix(0, 0.02, -0.03, 0, 7.79, 102.43)" xlink:href="#Grass_7"/>
    <use width="108.82" height="75.4" transform="matrix(0, 0.02, -0.03, 0, 6.19, 102.79)" xlink:href="#Grass_7"/>
    <use width="108.82" height="75.4" transform="matrix(0, 0.02, -0.03, 0, 4.79, 102.69)" xlink:href="#Grass_7"/>
    <use width="108.82" height="75.4" transform="matrix(0, 0.02, -0.03, 0, 3.95, 102.13)" xlink:href="#Grass_7"/>
    <use width="108.82" height="75.4" transform="matrix(0, 0.02, -0.03, 0, 1.76, 102.54)" xlink:href="#Grass_7"/>
    <use width="108.82" height="75.4" transform="matrix(0, 0.02, -0.03, 0, 4.59, 99.76)" xlink:href="#Grass_7"/>
    <use width="108.82" height="75.4" transform="matrix(0, 0.02, -0.03, 0, 6.11, 95.36)" xlink:href="#Grass_7"/>
    <use width="108.82" height="75.4" transform="matrix(0, 0.02, -0.03, 0, 11.99, 90.21)" xlink:href="#Grass_7"/>
    <use width="108.82" height="75.4" transform="matrix(0, 0.02, -0.03, 0, 11.23, 91.66)" xlink:href="#Grass_7"/>
    <use width="108.82" height="75.4" transform="matrix(0, 0.02, -0.03, 0, 11.25, 91.64)" xlink:href="#Grass_7"/>
    <use width="108.82" height="75.4" transform="matrix(0, 0.02, -0.03, 0, 9.82, 97.8)" xlink:href="#Grass_7"/>
    <use width="108.82" height="75.4" transform="matrix(0, 0.02, -0.03, 0, 9.76, 91.06)" xlink:href="#Grass_7"/>
    <use width="108.82" height="75.4" transform="matrix(0, 0.02, -0.03, 0, 10.37, 89.32)" xlink:href="#Grass_7"/>
    <use width="108.82" height="75.4" transform="matrix(0, 0.02, -0.03, 0, 13.03, 90.46)" xlink:href="#Grass_7"/>
    <use width="108.82" height="75.4" transform="matrix(0, 0.02, -0.03, 0, 7.53, 94.94)" xlink:href="#Grass_7"/>
    <use width="108.82" height="75.4" transform="matrix(0, 0.02, -0.03, 0, 14.13, 98.51)" xlink:href="#Grass_7"/>
    <use width="108.82" height="75.4" transform="matrix(0, 0.02, -0.03, 0, 13.75, 99.01)" xlink:href="#Grass_7"/>
  </g>
  <g id="Layer_10" data-name="Layer 10">
    <path d="M10.87,108a7.93,7.93,0,0,1,.43,2.83s51.65-.72,52.34-1l.3-1S11.42,108.33,10.87,108Z" fill="#494949"/>
    <polygon points="-0.01 109.27 2.7 109.33 2.7 115.19 -0.07 115.19 -0.01 109.27" fill="#4f4438"/>
    <polygon points="39.36 109.28 39.36 114.62 43.89 114.62 43.78 109.28 39.36 109.28" fill="#4f4438"/>
    <polygon points="2.81 111.59 4.11 111.69 3.97 114.78 2.81 114.78 2.81 111.59" fill="#ede95a"/>
    <rect x="22.64" y="112.72" width="1.28" height="3.24" fill="#ede95a"/>
    <polygon points="42.27 112.42 42.35 115.68 43.65 115.68 43.65 112.31 42.27 112.42" fill="#ede95a"/>
    <polygon points="82.07 112.47 81.9 115.87 83.31 115.98 83.52 112.6 82.07 112.47" fill="#ede95a"/>
    <polygon points="104.89 113.47 104.89 116.9 106.43 116.9 106.5 113.47 104.89 113.47" fill="#ede95a"/>
    <rect x="128.67" y="112.96" width="1.7" height="3.62" fill="#ede95a"/>
    <polygon points="62.02 108.88 61.85 116.26 63.41 116.37 63.67 108.78 62.02 108.88"/>
    <polygon points="2.81 112.11 4.09 112.23 4.07 112.66 2.81 112.55 2.81 112.11"/>
    <polygon points="2.81 112.91 4.05 113.04 4.03 113.44 2.81 113.3 2.81 112.91"/>
    <polygon points="2.81 113.62 4.02 113.75 4 114.13 2.81 114.03 2.81 113.62"/>
    <rect x="22.64" y="113.22" width="1.28" height="0.46"/>
    <rect x="22.64" y="114.09" width="1.28" height="0.5"/>
    <rect x="22.64" y="115" width="1.28" height="0.46"/>
    <polygon points="42.28 113.03 43.65 112.94 43.65 113.47 42.28 113.52 42.28 113.03"/>
    <polygon points="43.65 113.92 43.65 114.38 42.32 114.45 42.31 114 43.65 113.92"/>
    <polygon points="42.33 114.89 43.65 114.83 43.65 115.26 42.35 115.33 42.33 114.89"/>
    <polygon points="82.05 112.97 83.49 113.08 83.46 113.59 82.02 113.45 82.05 112.97"/>
    <polygon points="82 113.88 83.43 114.01 83.4 114.52 81.97 114.4 82 113.88"/>
    <polygon points="81.95 114.92 83.37 115.02 83.33 115.58 81.92 115.44 81.95 114.92"/>
    <polygon points="106.49 113.91 106.48 114.49 104.89 114.53 104.89 113.91 106.49 113.91"/>
    <polygon points="106.47 114.93 106.46 115.46 104.89 115.46 104.89 114.93 106.47 114.93"/>
    <polygon points="106.45 115.94 106.44 116.47 104.89 116.47 104.89 115.94 106.45 115.94"/>
    <rect x="128.67" y="113.44" width="1.7" height="0.59"/>
    <rect x="128.67" y="114.51" width="1.7" height="0.62"/>
    <rect x="128.67" y="115.55" width="1.7" height="0.6"/>
  </g>
  <g id="Layer_11" data-name="Layer 11">
    <path d="M4.11,111.82s14.65,1,18.53,1.09"/>
    <path d="M23.92,113s14.68.27,18.56.16"/>
    <path d="M43.89,112.57s14.63-1.24,18.48-1.74"/>
    <path d="M43.65,114s14.63-1.24,18.48-1.74"/>
    <path d="M63.63,110.91s14.59,1.65,18.46,1.91"/>
    <path d="M83.53,112.77s16.89.95,21.36,1"/>
    <path d="M106.48,113.76s17.59-.33,22.24-.59"/>
    <path d="M130.4,113.17s17.55-1.34,22.17-1.86"/>
    <path d="M130.27,114.83s17.55-1.34,22.17-1.86"/>
    <path d="M130.4,116.37S148,115,152.57,114.51"/>
    <path d="M106.48,115.33s17.59-.33,22.24-.59"/>
    <path d="M106.48,116.88s17.59-.33,22.24-.59"/>
    <path d="M83.48,114.32s16.89.95,21.36,1"/>
    <path d="M83.37,115.7s16.89.95,21.36,1"/>
    <path d="M63.63,112.32S78.23,114,82.1,114.23"/>
    <path d="M63.44,113.88S78,115.53,81.9,115.79"/>
    <path d="M43.65,115.26s14.63-1.24,18.48-1.74"/>
    <path d="M23.92,114.24s14.68.27,18.56.16"/>
    <path d="M23.77,115.46s14.68.27,18.56.16"/>
    <path d="M4,113.13s14.65,1,18.53,1.09"/>
    <path d="M4.11,114.69s14.65,1,18.53,1.09"/>
    <path d="M105.87,109.77l0-3s1.85-1.75,3.45,0v3h-3.42" fill="#3a3937"/>
  </g>
  <g id="Layer_14" data-name="Layer 14">
    <rect x="0.4" y="104.31" width="0.39" height="0.92" fill="#252628"/>
    <rect x="2.07" y="104.31" width="0.35" height="0.92" fill="#252628"/>
    <rect x="2.77" y="104.31" width="0.31" height="0.92" fill="#252628"/>
    <rect x="3.93" y="104.31" width="0.28" height="0.92" fill="#252628"/>
    <rect x="4.52" y="104.31" width="0.35" height="0.92" fill="#252628"/>
    <rect x="6.72" y="104.46" width="0.29" height="0.77" fill="#252628"/>
    <rect x="7.34" y="104.46" width="0.28" height="0.77" fill="#252628"/>
    <rect x="7.89" y="104.46" width="0.22" height="0.77" fill="#252628"/>
    <rect x="8.46" y="104.46" width="0.28" height="0.77" fill="#252628"/>
    <rect x="8.98" y="104.46" width="0.28" height="0.77" fill="#252628"/>
    <path d="M83.07,108.8v-2.43a.75.75,0,0,1,1.38,0v2.43Z" fill="#252628"/>
    <polygon points="57.19 90.21 57.19 92.46 58.75 92.46 58.75 90.21 58.25 89.44 57.66 89.44 57.19 90.21" fill="#252628"/>
    <polygon points="64.73 94.3 64.73 91.64 64.42 91.64 64.95 90.95 65.39 90.95 65.92 91.59 65.67 91.62 65.62 94.3 64.73 94.3" fill="#252628"/>
    <polygon points="78.62 91.79 78.62 94.61 79.55 94.61 79.55 91.79 79.79 91.79 79.32 91.14 78.9 91.14 78.39 91.79 78.62 91.79" fill="#252628"/>
    <polygon points="83.68 91.75 83.68 93.68 84.53 93.68 84.53 91.75 84.72 91.75 84.2 91.14 83.89 91.14 83.43 91.77 83.68 91.75" fill="#252628"/>
    <polygon points="88.55 91.01 88.55 94.19 91.53 94.19 91.53 90.88 90.98 90.88 90.92 90.42 88.55 90.42 88.55 91.01" fill="#30241a"/>
    <rect x="106.96" y="92.44" width="1.44" height="1.47" fill="#fff"/>
    <rect x="106.96" y="96.33" width="1.44" height="1.82" fill="#fff"/>
    <rect x="106.96" y="100.6" width="1.44" height="1.91" fill="#fff"/>
    <rect x="65.67" y="96.87" width="1.4" height="1.8" fill="#fff"/>
    <rect x="61.56" y="96.87" width="1.4" height="1.8" fill="#fff"/>
    <rect x="61.44" y="101.19" width="1.4" height="1.53" fill="#fff"/>
    <rect x="61.44" y="104.28" width="1.4" height="1.63" fill="#fff"/>
    <rect x="57.33" y="96.87" width="1.4" height="1.8" fill="#fff"/>
    <rect x="68.35" y="96.87" width="1.43" height="1.8" fill="#fff"/>
    <rect x="71.15" y="96.87" width="1.34" height="1.8" fill="#fff"/>
    <rect x="73.8" y="96.87" width="1.2" height="1.8" fill="#fff"/>
    <rect x="65.67" y="101.19" width="1.27" height="1.53" fill="#fff"/>
    <rect x="68.35" y="101.19" width="1.23" height="1.53" fill="#fff"/>
    <rect x="71.15" y="101.19" width="1.34" height="1.53" fill="#fff"/>
    <rect x="65.67" y="104.28" width="1.27" height="1.85" fill="#fff"/>
    <rect x="68.35" y="104.28" width="1.23" height="1.85" fill="#fff"/>
    <rect x="71.15" y="104.28" width="1.34" height="1.85" fill="#fff"/>
    <rect x="75.23" y="101.57" width="1.08" height="0.63" fill="#fff"/>
    <rect x="75.28" y="107.17" width="1.08" height="0.63" fill="#fff"/>
    <rect x="78.59" y="101.57" width="1.11" height="0.63" fill="#fff"/>
    <rect x="75.23" y="104.25" width="1.08" height="1.2" fill="#fff"/>
    <rect x="78.59" y="104.55" width="1.11" height="0.59" fill="#fff"/>
    <rect x="78.59" y="107.05" width="1.11" height="0.59" fill="#fff"/>
    <rect x="80.94" y="101.57" width="1.04" height="0.63" fill="#fff"/>
    <rect x="80.94" y="104.55" width="1.04" height="0.59" fill="#fff"/>
    <rect x="80.86" y="107.05" width="1.04" height="0.59" fill="#fff"/>
    <rect x="83.24" y="101.57" width="1.08" height="0.63" fill="#fff"/>
    <rect x="85.54" y="101.57" width="1.15" height="0.63" fill="#fff"/>
    <rect x="87.84" y="101.57" width="1.2" height="0.63" fill="#fff"/>
    <rect x="85.54" y="104.53" width="1.15" height="0.59" fill="#fff"/>
    <rect x="85.54" y="107.05" width="1.15" height="0.59" fill="#fff"/>
    <rect x="87.84" y="104.53" width="1.2" height="0.59" fill="#fff"/>
    <rect x="87.84" y="107.05" width="1.2" height="0.59" fill="#fff"/>
    <rect x="91.92" y="106.14" width="1.51" height="1.61" fill="#fff"/>
    <rect x="94.57" y="106.14" width="1.44" height="1.61" fill="#fff"/>
    <rect x="97.18" y="106.14" width="1.48" height="1.61" fill="#fff"/>
    <rect x="118.36" y="106.14" width="1.48" height="1.61" fill="#fff"/>
    <rect x="120.96" y="106.14" width="1.67" height="1.61" fill="#fff"/>
    <rect x="123.56" y="106.14" width="1.58" height="1.61" fill="#fff"/>
    <rect x="126.3" y="106.14" width="1.62" height="1.61" fill="#fff"/>
    <rect x="129.03" y="106.14" width="1.48" height="1.61" fill="#fff"/>
    <rect x="131.63" y="106.14" width="1.72" height="1.61" fill="#fff"/>
    <rect x="134.46" y="106.14" width="1.62" height="1.61" fill="#fff"/>
    <rect x="137.11" y="106.14" width="1.58" height="1.61" fill="#fff"/>
    <rect x="139.75" y="106.14" width="1.67" height="1.61" fill="#fff"/>
    <rect x="142.58" y="106.14" width="1.53" height="1.61" fill="#fff"/>
    <rect x="145.37" y="106.14" width="1.62" height="1.61" fill="#fff"/>
    <polyline points="31.32 104.85 30.78 104.77 30.41 106.83" fill="none" stroke="#fff" stroke-miterlimit="10" stroke-width="0.1"/>
    <line x1="30.6" y1="105.8" x2="31.09" y2="105.88" fill="none" stroke="#fff" stroke-miterlimit="10" stroke-width="0.1"/>
    <path d="M31.66,105.16a.32.32,0,0,1,.39-.24c.3.09.23.32.23.32s0,.55-.37.5c0,0,.36,0,.19.72s-.61.48-.61.48-.16,0-.07-.44" fill="none" stroke="#fff" stroke-miterlimit="10" stroke-width="0.1"/>
    <path d="M33.16,105.12l-.5-.08-.09.85.35,0s.21,0,.13.69-.31.54-.31.54-.36.08-.29-.58" fill="none" stroke="#fff" stroke-miterlimit="10" stroke-width="0.1"/>
    <path d="M33.46,105.36a.28.28,0,0,1,.32-.19.33.33,0,0,1,.27.22s0,.54-.33.67-.42,1.14-.42,1.14l.58.09" fill="none" stroke="#fff" stroke-miterlimit="10" stroke-width="0.1"/>
    <polyline points="57.44 107 57.13 107 57.1 108.19" fill="none" stroke="#fff" stroke-miterlimit="10" stroke-width="0.1"/>
    <line x1="57.11" y1="107.59" x2="57.4" y2="107.6" fill="none" stroke="#fff" stroke-miterlimit="10" stroke-width="0.1"/>
    <path d="M57.66,107.14s0-.19.2-.17.16.16.16.16.05.31-.17.31c0,0,.2-.05.17.39s-.3.32-.3.32-.09,0-.08-.24" fill="none" stroke="#fff" stroke-miterlimit="10" stroke-width="0.1"/>
    <path d="M58.5,107h-.29l0,.49h.2s.12,0,.13.38-.13.33-.13.33-.2.08-.21-.3" fill="none" stroke="#fff" stroke-miterlimit="10" stroke-width="0.1"/>
  </g>
</svg>
