<svg xmlns="http://www.w3.org/2000/svg" width="150" height="150" viewBox="0 0 150 150">
  <title>kastellet</title>
  <g id="Layer_3" data-name="Layer 3">
    <path d="M47.82,39.8,15.75,47.29S4,49.07,11.44,58.7s9.63,11.06,9.63,11.06,5.35,3.57-2.5,15.69S5.74,117.79,5.74,117.79s-8.15,13.31,10,9S63.16,114,63.16,114s13.2-6.15,48.15,13.69c0,0,18.9,16.27,22.47-13.69,0,0,9.27-14,1.78-28,0,0-20.19-15.47,2.92-19.75l3.85-15.34S145.9,43,128.43,39.8c0,0-30-.71-35-4.64S79.21,24.82,79.21,24.82s-10-5.71-20.69,4.64C58.52,29.46,52.14,38.79,47.82,39.8Z" fill="#4f8da9"/>
  </g>
  <g id="Layer_2" data-name="Layer 2">
    <path d="M19.08,50.26s-6.17-.43-1.7,4.68A99,99,0,0,1,26.31,67.7h7.23l2.34,14-7.44,3.61-8.51,23.82s-2.76,6.8,4.25,5.32,34-8.29,34-8.29l3.61-6.38,22.33.21,2.55,6L118.8,117s8.08,3.61,6.17-4.89S118.8,84,118.8,84l-7.44-3.35,3-17.86,6.38-.43,10-14.46s3.83-3.19-2.76-3.4-23.39-3.19-23.39-3.19L100.94,43l-13.4-3.61-.85-4.25L73.78,27.51s-2.61-2.76-6.65,0-8.29,8.72-8.29,8.72l1.7,4-13.4,6.38L41.4,44.31Z" fill="#7dac6d"/>
  </g>
  <g id="Layer_4" data-name="Layer 4">
    <path d="M22.73,53.76l3.2,5.49s1.14,2.51,5,2.29,8.46-1.37,9.83,3.89S44,79.59,44,79.59a5.32,5.32,0,0,1-3.2,7.09C35.53,89,32.1,87.13,28.9,97s-4.11,11.2,3.66,9.37,13-3,13-3,2.51-.23,5.94-5,1.37-6.63,12.12-6.17,26.06.69,26.06.69,2.74-.46,4.8,5.26,1.83,6.4,6.86,7.77S116.69,110,116.69,110s4.8,3.66,3.43-3-3.43-16.69-3.43-16.69.91-1.37-3.66-3a78.66,78.66,0,0,1-8.23-3.43s-2.06,0-.91-4.11,4.57-19,4.57-19a3.66,3.66,0,0,1,3.89-3.66h5.49s1.6,1.37,5-3.43L126.52,48s5-2.74-2.29-2.74L112.8,43.7s-1.6-.69-4.11.91-4.57,4.57-9.6,2.74-15.41-6.17-15.41-6.17A4.12,4.12,0,0,1,83,37.38c.58-2.54-4.61-4.84-4.61-4.84L72.6,29s-.46-1.5-3,.46-6.69,6.11-6.69,6.11a3.62,3.62,0,0,0-.46,4.15c1.15,2.65-.12,3.58-.12,3.58L50,49.14s-2.08,1.73-5.42.12S41,47.41,34.2,48.91,23.7,51,23.7,51,21.06,50.9,22.73,53.76Z" fill="none" stroke="#fff" stroke-miterlimit="10" stroke-width="0.75"/>
  </g>
  <g id="Layer_5" data-name="Layer 5">
    <polygon points="67.96 58.7 71.42 59.56 77.64 44.82 74.46 43.96 67.96 58.7" fill="#b45a37"/>
    <polygon points="62.56 56.55 65.38 57.26 70.42 45.28 67.84 44.58 62.56 56.55" fill="#b45a37"/>
    <polygon points="51.62 79.29 54.44 80 59.49 68.02 56.9 67.31 51.62 79.29" fill="#b45a37"/>
    <polygon points="65.31 57.51 65.29 54.63 54.78 51.68 54.75 54.32 65.31 57.51" fill="#b45a37"/>
    <polygon points="56.9 70.23 56.87 67.35 46.37 64.4 46.34 67.04 56.9 70.23" fill="#b45a37"/>
    <polygon points="78.22 61.3 81.69 62.17 87.9 47.42 84.72 46.56 78.22 61.3" fill="#b45a37"/>
    <polygon points="54.75 86.17 59.33 87.32 67.54 67.85 63.34 66.7 54.75 86.17" fill="#b45a37"/>
    <polygon points="66.4 88.38 70.98 89.53 79.19 70.06 74.99 68.92 66.4 88.38" fill="#b45a37"/>
    <polygon points="84.86 62.34 87.66 63.03 92.67 51.15 90.11 50.45 84.86 62.34" fill="#b45a37"/>
    <polygon points="76.19 83.97 78.98 84.67 83.99 72.78 81.43 72.08 76.19 83.97" fill="#b45a37"/>
  </g>
</svg>
