<svg id="Lag_10" data-name="Lag 10" xmlns="http://www.w3.org/2000/svg" width="751.3" height="622" viewBox="0 0 751.3 622">
  <title>10</title>
  <g>
    <g id="Lag_2" data-name="Lag 2">
      <path d="M353.64,540s8.07-2.25,13.39-1.15a3.71,3.71,0,0,1,.41,2.43l.07.6,2.5.73v.78h-2.48l.23,8.07,1.7.28.14,1.28v.46H370v2.61H350.48v-2.7l1.1,0-.09-1.74h2l-.32-8-1.15.14-.14-.92,1.79-.23Z" fill="#af7c66" stroke="#000" stroke-miterlimit="10" stroke-width="0.25"/>
      <rect x="358.23" y="531.57" width="0.2" height="0.91" transform="translate(-241.71 305.3) rotate(-35.34)" fill="none" stroke="#000" stroke-miterlimit="10" stroke-width="0.25"/>
    </g>
    <g id="Lag_3" data-name="Lag 3">
      <path d="M356.95,534.54l-1.79,1.93s-.23.5-.32.78a16.17,16.17,0,0,0-.18,1.74l.45.7-.87.21v-3.15a15.23,15.23,0,0,0,1-2.2,11.07,11.07,0,0,0-1,1v.73s-.44.46-.72.14v-2s.55,0,.37-.23v-1.74s.09-.41,1.35-.87c0,0,.57-1.24,3.09-1.28l-.69,1.19s.46,1.28.69,1.1,1.05.18,1.6-.46,1.15-1.28,1.15-1.28l.83-.09.28-1.47s1.15-1,1.1-1.24a4.89,4.89,0,0,1,2.25-3.07h.41l.37-1.1v.92s0,.55.55.09l.6-.46-.23,1.42.23,2.2s-.14,1.7-1.1.64l-.18-.41-.41.78.14,1.33-.14.51a7.68,7.68,0,0,1,.14,1.56.67.67,0,0,0,.73.46,3,3,0,0,1,.37,1.56,5.94,5.94,0,0,0,0,1.33l-.37.37-.23,1.15-.78-1.05.55-.28-.14-2s-.14-.78-1-.23c0,0,0,1.33-.41,1.42l-.14,1-.28,1-.09.83.23.7h-.83l-.09-.8,0-2.61-.32-.28-.32-1.1s-1.88.87-3,.41a8.4,8.4,0,0,0-.87,1.6l-.37.87v.41l1.05,1,.15.73L359,539l-.13-.37a7.1,7.1,0,0,0-1.38-1.62s.37-1.51.18-1.56l.18,0Z" fill="#301404" stroke="#000" stroke-miterlimit="10" stroke-width="0.25"/>
    </g>
    <g id="Lag_9" data-name="Lag 9">
      <path d="M353.64,540s9.44-2.34,13.39-1.15l.35.87-13.74.83" fill="#121c0d" stroke="#000" stroke-miterlimit="10" stroke-width="0.25"/>
      <polyline points="351.86 542.88 367.51 541.92 370.02 542.65 370.02 543.43 367.54 543.43 353.14 543.66 352 543.8" fill="#121c0d" stroke="#000" stroke-miterlimit="10" stroke-width="0.25"/>
    </g>
    <g id="Lag_4" data-name="Lag 4">
      <path d="M358.32,530.23l-.69,1.19.69,1.1h1.15l1.6-1.74.83-.09.28-1.47.62-.57-.57-.26-.28-.5-.32-1.83-.55-.5.23-.23.41-.37,0-.23-.14-.55h.5l-.41-.65h-1.47a4.54,4.54,0,0,1,0,.83s.07.83-.45.77a.89.89,0,0,1-.33-.12c-.87-.5-.92,3-.92,3l.28,1.19Z" fill="#1e272b" stroke="#000" stroke-miterlimit="10" stroke-width="0.25"/>
      <g id="Lag_5" data-name="Lag 5">
        <path d="M360.25,531.67a16,16,0,0,1,.46,1.81l1,.18c.46-.09.5-.41,0-.69l-.55-.31-.32-1.53" fill="#514b4a" stroke="#000" stroke-miterlimit="10" stroke-width="0.25"/>
        <path d="M358.82,529.22s1.6.5,2,0c0,0,1.1-.37,1.38-.83l.57.26-.62.57-.28,1.47-.83.09-1.6,1.74h-1.15l-.69-1.1,1.15-1.93Z" fill="#1b1b2b" stroke="#000" stroke-miterlimit="10" stroke-width="0.25"/>
      </g>
    </g>
    <g id="Lag_8" data-name="Lag 8">
      <rect x="357.96" y="531.65" width="0.22" height="0.87" transform="translate(-218.07 250.32) rotate(-30)" fill="#232120"/>
    </g>
  </g>
</svg>
