<svg xmlns="http://www.w3.org/2000/svg" width="113.05" height="55.88" viewBox="0 0 113.05 55.88">
  <title>Amalienborg_13</title>
  <g id="Lag_23" data-name="Lag 23">
    <polyline points="65.2 19.5 72.82 19.5 72.82 35.38 72.2 38.13 75.45 38.13 74.45 35.38 74.7 19.5 75.57 16.38" fill="none" stroke="#000" stroke-miterlimit="10" stroke-width="0.25"/>
  </g>
  <g id="Lag_2" data-name="Lag 2">
    <polygon points="0.32 17 1.95 18.5 1.14 54.38 35.82 54.38 34.82 55.38 78.57 55.38 76.57 53.63 111.7 53.75 110.95 18 112.7 16.38 75.57 16.38 75.82 15.38 37.32 16 37.57 17.38 0.32 17" fill="#ce9c76" stroke="#000" stroke-miterlimit="10" stroke-width="0.25"/>
    <line x1="32.53" y1="21.38" x2="36.66" y2="21.38" fill="none" stroke="#000" stroke-miterlimit="10" stroke-width="0.25"/>
    <line x1="32.39" y1="22.88" x2="36.66" y2="22.88" fill="none" stroke="#000" stroke-miterlimit="10" stroke-width="0.25"/>
    <line x1="34.59" y1="20.46" x2="34.59" y2="23.87" fill="none" stroke="#000" stroke-miterlimit="10" stroke-width="0.25"/>
    <line x1="34.24" y1="41.62" x2="34.24" y2="48.54" fill="none" stroke="#000" stroke-miterlimit="10" stroke-width="0.25"/>
    <line x1="31.82" y1="43.42" x2="36.66" y2="43.42" fill="none" stroke="#000" stroke-miterlimit="10" stroke-width="0.25"/>
    <line x1="31.82" y1="45.08" x2="36.66" y2="45.08" fill="none" stroke="#000" stroke-miterlimit="10" stroke-width="0.25"/>
    <line x1="31.82" y1="47.04" x2="36.66" y2="47.04" fill="none" stroke="#000" stroke-miterlimit="10" stroke-width="0.25"/>
    <line x1="7.7" y1="51.46" x2="7.7" y2="53.29" fill="none" stroke="#000" stroke-miterlimit="10" stroke-width="0.25"/>
    <line x1="9.49" y1="52.37" x2="5.91" y2="52.37" fill="none" stroke="#000" stroke-miterlimit="10" stroke-width="0.25"/>
    <line x1="16.16" y1="51.46" x2="16.16" y2="53.29" fill="none" stroke="#000" stroke-miterlimit="10" stroke-width="0.25"/>
    <line x1="18.16" y1="52.37" x2="14.16" y2="52.37" fill="none" stroke="#000" stroke-miterlimit="10" stroke-width="0.25"/>
    <path d="M50.79,87.58" transform="translate(-24.68 -36.13)" fill="none" stroke="#000" stroke-miterlimit="10" stroke-width="0.25"/>
    <line x1="26.11" y1="51.46" x2="26.11" y2="53.29" fill="none" stroke="#000" stroke-miterlimit="10" stroke-width="0.25"/>
    <line x1="24.32" y1="52.37" x2="27.91" y2="52.37" fill="none" stroke="#000" stroke-miterlimit="10" stroke-width="0.25"/>
    <line x1="34.35" y1="51.46" x2="34.35" y2="53.29" fill="none" stroke="#000" stroke-miterlimit="10" stroke-width="0.25"/>
    <line x1="32.39" y1="52.37" x2="36.32" y2="52.37" fill="none" stroke="#000" stroke-miterlimit="10" stroke-width="0.25"/>
    <line x1="42.16" y1="43.79" x2="46.91" y2="43.75" fill="none" stroke="#000" stroke-miterlimit="10" stroke-width="0.25"/>
    <line x1="42.16" y1="43.46" x2="46.91" y2="43.46" fill="none" stroke="#000" stroke-miterlimit="10"/>
  </g>
  <g id="Lag_30" data-name="Lag 30">
    <line x1="7.91" y1="29.12" x2="7.91" y2="36.71" fill="none" stroke="#000" stroke-miterlimit="10" stroke-width="0.25"/>
    <line x1="5.41" y1="30.29" x2="10.41" y2="30.29" fill="none" stroke="#000" stroke-miterlimit="10" stroke-width="0.25"/>
    <line x1="5.41" y1="31.55" x2="10.57" y2="31.55" fill="none" stroke="#000" stroke-miterlimit="10" stroke-width="0.25"/>
    <line x1="5.41" y1="32.92" x2="10.57" y2="32.92" fill="none" stroke="#000" stroke-miterlimit="10" stroke-width="0.25"/>
    <line x1="5.41" y1="34.46" x2="10.41" y2="34.46" fill="none" stroke="#000" stroke-miterlimit="10" stroke-width="0.25"/>
    <line x1="5.41" y1="35.79" x2="10.41" y2="35.79" fill="none" stroke="#000" stroke-miterlimit="10" stroke-width="0.25"/>
    <line x1="16.16" y1="29.12" x2="16.16" y2="36.71" fill="none" stroke="#000" stroke-miterlimit="10" stroke-width="0.25"/>
    <line x1="13.74" y1="30.29" x2="18.57" y2="30.29" fill="none" stroke="#000" stroke-miterlimit="10" stroke-width="0.25"/>
    <line x1="13.74" y1="31.55" x2="18.57" y2="31.55" fill="none" stroke="#000" stroke-miterlimit="10" stroke-width="0.25"/>
    <line x1="13.74" y1="32.92" x2="18.57" y2="32.92" fill="none" stroke="#000" stroke-miterlimit="10" stroke-width="0.25"/>
    <line x1="13.74" y1="34.46" x2="18.74" y2="34.46" fill="none" stroke="#000" stroke-miterlimit="10" stroke-width="0.25"/>
    <line x1="13.74" y1="35.79" x2="18.74" y2="35.79" fill="none" stroke="#000" stroke-miterlimit="10" stroke-width="0.25"/>
    <line x1="26.24" y1="29.12" x2="26.24" y2="36.71" fill="none" stroke="#000" stroke-miterlimit="10" stroke-width="0.25"/>
    <line x1="23.82" y1="30.29" x2="28.32" y2="30.29" fill="none" stroke="#000" stroke-miterlimit="10" stroke-width="0.25"/>
    <line x1="23.82" y1="31.79" x2="28.32" y2="31.79" fill="none" stroke="#000" stroke-miterlimit="10" stroke-width="0.25"/>
    <line x1="23.82" y1="33.54" x2="28.32" y2="33.5" fill="none" stroke="#000" stroke-miterlimit="10" stroke-width="0.25"/>
    <line x1="23.82" y1="35.38" x2="28.32" y2="35.38" fill="none" stroke="#000" stroke-miterlimit="10" stroke-width="0.25"/>
    <line x1="34.24" y1="29.12" x2="34.24" y2="36.71" fill="none" stroke="#000" stroke-miterlimit="10" stroke-width="0.25"/>
    <line x1="31.82" y1="30.29" x2="36.66" y2="30.29" fill="none" stroke="#000" stroke-miterlimit="10" stroke-width="0.25"/>
    <line x1="31.82" y1="31.79" x2="36.66" y2="31.79" fill="none" stroke="#000" stroke-miterlimit="10" stroke-width="0.25"/>
    <line x1="31.82" y1="33.5" x2="36.66" y2="33.5" fill="none" stroke="#000" stroke-miterlimit="10" stroke-width="0.25"/>
    <line x1="31.82" y1="35.38" x2="36.66" y2="35.38" fill="none" stroke="#000" stroke-miterlimit="10" stroke-width="0.25"/>
  </g>
  <g id="Lag_31" data-name="Lag 31">
    <line x1="7.49" y1="41.57" x2="7.49" y2="48.37" fill="none" stroke="#000" stroke-miterlimit="10" stroke-width="0.25"/>
    <line x1="4.99" y1="43.42" x2="9.99" y2="43.42" fill="none" stroke="#000" stroke-miterlimit="10" stroke-width="0.25"/>
    <line x1="4.99" y1="45.42" x2="9.99" y2="45.42" fill="none" stroke="#000" stroke-miterlimit="10" stroke-width="0.25"/>
    <line x1="4.99" y1="47.04" x2="9.99" y2="47.04" fill="none" stroke="#000" stroke-miterlimit="10" stroke-width="0.25"/>
    <line x1="15.95" y1="41.62" x2="15.95" y2="48.37" fill="none" stroke="#000" stroke-miterlimit="10" stroke-width="0.25"/>
    <line x1="13.74" y1="42.88" x2="18.16" y2="42.88" fill="none" stroke="#000" stroke-miterlimit="10" stroke-width="0.25"/>
    <line x1="13.74" y1="44.54" x2="18.16" y2="44.54" fill="none" stroke="#000" stroke-miterlimit="10" stroke-width="0.25"/>
    <line x1="13.74" y1="46.71" x2="18.16" y2="46.71" fill="none" stroke="#000" stroke-miterlimit="10" stroke-width="0.25"/>
    <line x1="26.24" y1="41.57" x2="26.24" y2="48.37" fill="none" stroke="#000" stroke-miterlimit="10" stroke-width="0.25"/>
    <line x1="23.82" y1="42.88" x2="28.82" y2="42.88" fill="none" stroke="#000" stroke-miterlimit="10" stroke-width="0.25"/>
    <line x1="23.82" y1="44.75" x2="28.82" y2="44.75" fill="none" stroke="#000" stroke-miterlimit="10" stroke-width="0.25"/>
    <line x1="23.82" y1="46.71" x2="28.82" y2="46.71" fill="none" stroke="#000" stroke-miterlimit="10" stroke-width="0.25"/>
  </g>
  <g id="Lag_19" data-name="Lag 19">
    <polyline points="52.07 5.38 54.24 4.75 55.57 0.13 57.57 0.13 58.99 4.63 60.32 5.38 64.57 11.88 48.07 11.88 52.07 5.38" fill="#514a44" stroke="#000" stroke-miterlimit="10" stroke-width="0.25"/>
    <polygon points="2.03 19.53 110.93 19.53 111.05 17.56 112.8 15.22 0.43 16.12 2.03 19.53" fill="#845b3c" stroke="#000" stroke-miterlimit="10" stroke-width="0.25"/>
    <rect x="37.99" y="40.04" width="36.67" height="15.33" fill="#b7896a" stroke="#000" stroke-miterlimit="10"/>
    <polygon points="37.99 19.53 39.16 21.96 39.16 40.04 40.82 40.04 40.82 21.96 42.16 19.53 37.99 19.53" fill="#b7896a" stroke="#000" stroke-miterlimit="10" stroke-width="0.25"/>
    <polyline points="47.49 19.53 48.07 21.96 48.07 40.04 50.32 40.04 50.32 21.96 51.32 19.53 52.07 21.96 52.07 40.04 53.49 40.04 53.49 21.96 54.24 19.53" fill="#b7896a" stroke="#000" stroke-miterlimit="10" stroke-width="0.25"/>
    <line x1="42.16" y1="43.46" x2="46.91" y2="43.46" fill="none" stroke="#000" stroke-miterlimit="10" stroke-width="0.25"/>
    <line x1="42.16" y1="51.46" x2="46.91" y2="51.46" fill="none" stroke="#000" stroke-miterlimit="10" stroke-width="0.25"/>
    <line x1="44.53" y1="43.42" x2="44.53" y2="52.96" fill="none" stroke="#000" stroke-miterlimit="10" stroke-width="0.25"/>
  </g>
  <g id="Lag_32" data-name="Lag 32">
    <line x1="54.24" y1="43.62" x2="59.66" y2="43.62" fill="none" stroke="#000" stroke-miterlimit="10" stroke-width="0.25"/>
    <line x1="54.24" y1="51.67" x2="59.66" y2="51.67" fill="none" stroke="#000" stroke-miterlimit="10" stroke-width="0.25"/>
    <line x1="57.16" y1="43.62" x2="57.2" y2="52.96" fill="none" stroke="#000" stroke-miterlimit="10" stroke-width="0.25"/>
    <line x1="70.99" y1="43.62" x2="67.07" y2="43.62" fill="none" stroke="#000" stroke-miterlimit="10" stroke-width="0.25"/>
    <line x1="67.07" y1="51.67" x2="70.99" y2="51.67" fill="none" stroke="#000" stroke-miterlimit="10" stroke-width="0.25"/>
    <line x1="69.03" y1="43.62" x2="69.03" y2="52.96" fill="none" stroke="#000" stroke-miterlimit="10" stroke-width="0.25"/>
    <line x1="42.16" y1="26.71" x2="46.91" y2="26.71" fill="none" stroke="#000" stroke-miterlimit="10" stroke-width="0.25"/>
    <line x1="42.16" y1="36.42" x2="46.91" y2="36.42" fill="none" stroke="#000" stroke-miterlimit="10" stroke-width="0.25"/>
    <line x1="44.53" y1="26.71" x2="44.53" y2="38.12" fill="none" stroke="#000" stroke-miterlimit="10" stroke-width="0.25"/>
    <line x1="54.24" y1="27.12" x2="58.99" y2="27.12" fill="none" stroke="#000" stroke-miterlimit="10" stroke-width="0.25"/>
    <line x1="54.24" y1="36.42" x2="58.99" y2="36.42" fill="none" stroke="#000" stroke-miterlimit="10" stroke-width="0.25"/>
    <line x1="56.61" y1="27.12" x2="56.61" y2="38.12" fill="none" stroke="#000" stroke-miterlimit="10" stroke-width="0.25"/>
    <line x1="66.32" y1="26.79" x2="70.99" y2="26.79" fill="none" stroke="#000" stroke-miterlimit="10" stroke-width="0.25"/>
    <line x1="66.32" y1="36.42" x2="70.99" y2="36.42" fill="none" stroke="#000" stroke-miterlimit="10" stroke-width="0.25"/>
    <line x1="68.66" y1="26.71" x2="68.66" y2="38.12" fill="none" stroke="#000" stroke-miterlimit="10" stroke-width="0.25"/>
    <line x1="76.82" y1="21.58" x2="81.07" y2="21.58" fill="none" stroke="#000" stroke-miterlimit="10" stroke-width="0.25"/>
    <line x1="76.82" y1="22.58" x2="81.07" y2="22.58" fill="none" stroke="#000" stroke-miterlimit="10" stroke-width="0.25"/>
    <line x1="78.95" y1="20.54" x2="78.95" y2="23.37" fill="none" stroke="#000" stroke-miterlimit="10" stroke-width="0.25"/>
    <line x1="84.91" y1="21.58" x2="89.07" y2="21.58" fill="none" stroke="#000" stroke-miterlimit="10" stroke-width="0.25"/>
    <line x1="84.91" y1="22.58" x2="89.07" y2="22.58" fill="none" stroke="#000" stroke-miterlimit="10" stroke-width="0.25"/>
    <line x1="86.99" y1="20.54" x2="86.99" y2="23.37" fill="none" stroke="#000" stroke-miterlimit="10" stroke-width="0.25"/>
    <line x1="94.66" y1="21.58" x2="99.2" y2="21.58" fill="none" stroke="#000" stroke-miterlimit="10" stroke-width="0.25"/>
    <line x1="94.66" y1="22.58" x2="99.2" y2="22.58" fill="none" stroke="#000" stroke-miterlimit="10" stroke-width="0.25"/>
    <line x1="96.93" y1="20.54" x2="96.93" y2="23.37" fill="none" stroke="#000" stroke-miterlimit="10" stroke-width="0.25"/>
    <line x1="103.07" y1="21.58" x2="107.36" y2="21.58" fill="none" stroke="#000" stroke-miterlimit="10" stroke-width="0.25"/>
    <line x1="103.07" y1="22.58" x2="107.16" y2="22.58" fill="none" stroke="#000" stroke-miterlimit="10" stroke-width="0.25"/>
    <line x1="105.11" y1="20.54" x2="105.11" y2="23.62" fill="none" stroke="#000" stroke-miterlimit="10" stroke-width="0.25"/>
    <line x1="78.95" y1="28.71" x2="78.95" y2="36.79" fill="none" stroke="#000" stroke-miterlimit="10" stroke-width="0.25"/>
    <line x1="76.82" y1="29.79" x2="81.07" y2="29.79" fill="none" stroke="#000" stroke-miterlimit="10" stroke-width="0.25"/>
    <line x1="76.82" y1="31.35" x2="81.07" y2="31.35" fill="none" stroke="#000" stroke-miterlimit="10" stroke-width="0.25"/>
    <line x1="76.82" y1="33.12" x2="81.07" y2="33.12" fill="none" stroke="#000" stroke-miterlimit="10" stroke-width="0.25"/>
    <line x1="76.82" y1="34.96" x2="81.07" y2="34.96" fill="none" stroke="#000" stroke-miterlimit="10" stroke-width="0.25"/>
    <line x1="87.2" y1="28.71" x2="87.2" y2="36.62" fill="none" stroke="#000" stroke-miterlimit="10" stroke-width="0.25"/>
    <line x1="84.91" y1="30.21" x2="89.49" y2="30.21" fill="none" stroke="#000" stroke-miterlimit="10" stroke-width="0.25"/>
    <line x1="84.91" y1="31.96" x2="89.49" y2="31.96" fill="none" stroke="#000" stroke-miterlimit="10" stroke-width="0.25"/>
    <line x1="84.91" y1="33.71" x2="89.49" y2="33.67" fill="none" stroke="#000" stroke-miterlimit="10" stroke-width="0.25"/>
    <line x1="84.91" y1="35.38" x2="89.49" y2="35.38" fill="none" stroke="#000" stroke-miterlimit="10" stroke-width="0.25"/>
    <line x1="96.93" y1="28.71" x2="96.93" y2="36.62" fill="none" stroke="#000" stroke-miterlimit="10" stroke-width="0.25"/>
    <line x1="94.66" y1="30.21" x2="99.2" y2="30.21" fill="none" stroke="#000" stroke-miterlimit="10" stroke-width="0.25"/>
    <line x1="94.66" y1="31.96" x2="99.2" y2="31.96" fill="none" stroke="#000" stroke-miterlimit="10" stroke-width="0.25"/>
    <line x1="94.66" y1="33.75" x2="99.2" y2="33.75" fill="none" stroke="#000" stroke-miterlimit="10" stroke-width="0.25"/>
    <line x1="94.66" y1="35.38" x2="99.2" y2="35.38" fill="none" stroke="#000" stroke-miterlimit="10" stroke-width="0.25"/>
    <line x1="105.22" y1="28.71" x2="105.22" y2="36.42" fill="none" stroke="#000" stroke-miterlimit="10" stroke-width="0.25"/>
    <line x1="103.07" y1="30.5" x2="107.16" y2="30.5" fill="none" stroke="#000" stroke-miterlimit="10" stroke-width="0.25"/>
    <line x1="103.07" y1="32.12" x2="107.36" y2="32.12" fill="none" stroke="#000" stroke-miterlimit="10" stroke-width="0.25"/>
    <line x1="103.07" y1="34.42" x2="107.16" y2="34.42" fill="none" stroke="#000" stroke-miterlimit="10" stroke-width="0.25"/>
    <line x1="78.95" y1="41.44" x2="78.95" y2="47.96" fill="none" stroke="#000" stroke-miterlimit="10" stroke-width="0.25"/>
    <line x1="76.82" y1="43.12" x2="81.07" y2="43.12" fill="none" stroke="#000" stroke-miterlimit="10" stroke-width="0.25"/>
    <line x1="76.82" y1="44.96" x2="81.07" y2="44.96" fill="none" stroke="#000" stroke-miterlimit="10" stroke-width="0.25"/>
    <line x1="76.82" y1="46.62" x2="81.07" y2="46.62" fill="none" stroke="#000" stroke-miterlimit="10" stroke-width="0.25"/>
    <line x1="87.32" y1="41.57" x2="87.32" y2="47.96" fill="none" stroke="#000" stroke-miterlimit="10" stroke-width="0.25"/>
    <line x1="84.91" y1="43.12" x2="89.49" y2="43.12" fill="none" stroke="#000" stroke-miterlimit="10" stroke-width="0.25"/>
    <line x1="84.91" y1="44.96" x2="89.49" y2="44.96" fill="none" stroke="#000" stroke-miterlimit="10" stroke-width="0.25"/>
    <line x1="84.91" y1="46.62" x2="89.49" y2="46.62" fill="none" stroke="#000" stroke-miterlimit="10" stroke-width="0.25"/>
    <line x1="97.28" y1="41.44" x2="97.28" y2="47.96" fill="none" stroke="#000" stroke-miterlimit="10" stroke-width="0.25"/>
    <line x1="94.66" y1="43.12" x2="99.91" y2="43.12" fill="none" stroke="#000" stroke-miterlimit="10" stroke-width="0.25"/>
    <line x1="94.66" y1="44.96" x2="99.91" y2="44.96" fill="none" stroke="#000" stroke-miterlimit="10" stroke-width="0.25"/>
    <line x1="94.66" y1="46.62" x2="99.91" y2="46.62" fill="none" stroke="#000" stroke-miterlimit="10" stroke-width="0.25"/>
    <line x1="105.53" y1="41.44" x2="105.53" y2="47.96" fill="none" stroke="#000" stroke-miterlimit="10" stroke-width="0.25"/>
    <line x1="103.07" y1="43.12" x2="107.99" y2="43.12" fill="none" stroke="#000" stroke-miterlimit="10" stroke-width="0.25"/>
    <line x1="103.07" y1="44.7" x2="107.99" y2="44.76" fill="none" stroke="#000" stroke-miterlimit="10" stroke-width="0.25"/>
    <line x1="103.07" y1="46.62" x2="107.99" y2="46.62" fill="none" stroke="#000" stroke-miterlimit="10" stroke-width="0.25"/>
    <line x1="79.16" y1="51.21" x2="79.16" y2="52.96" fill="none" stroke="#000" stroke-miterlimit="10" stroke-width="0.25"/>
    <line x1="77.24" y1="52.08" x2="81.07" y2="52.08" fill="none" stroke="#000" stroke-miterlimit="10" stroke-width="0.25"/>
    <line x1="87.32" y1="51.12" x2="87.32" y2="52.96" fill="none" stroke="#000" stroke-miterlimit="10" stroke-width="0.25"/>
    <line x1="89.28" y1="52.08" x2="85.57" y2="52.08" fill="none" stroke="#000" stroke-miterlimit="10" stroke-width="0.25"/>
    <line x1="97.39" y1="50.71" x2="97.39" y2="52.96" fill="none" stroke="#000" stroke-miterlimit="10" stroke-width="0.25"/>
    <line x1="95.57" y1="52.04" x2="99.41" y2="52.08" fill="none" stroke="#000" stroke-miterlimit="10" stroke-width="0.25"/>
    <line x1="105.53" y1="50.83" x2="105.53" y2="52.96" fill="none" stroke="#000" stroke-miterlimit="10" stroke-width="0.25"/>
    <line x1="103.07" y1="51.9" x2="107.16" y2="51.9" fill="none" stroke="#000" stroke-miterlimit="10" stroke-width="0.25"/>
  </g>
  <g id="Lag_27" data-name="Lag 27">
    <polygon points="60.32 40.04 60.32 21.96 58.99 19.53 63.16 19.53 62.32 21.96 62.32 40.04 60.32 40.04" fill="#b7896a" stroke="#000" stroke-miterlimit="10" stroke-width="0.25"/>
    <polyline points="63.16 19.53 63.82 21.96 63.82 40.04 65.2 40.04 65.2 21.96 66.32 19.53" fill="#b7896a" stroke="#000" stroke-miterlimit="10" stroke-width="0.25"/>
    <polyline points="71.82 19.53 72.82 22.17 72.32 40.04 74.66 40.04 74.66 22.17 75.57 19.53" fill="#b7896a" stroke="#000" stroke-miterlimit="10" stroke-width="0.25"/>
  </g>
  <g id="Lag_28" data-name="Lag 28">
    <polygon points="27.91 0.13 27.57 6.39 29.82 6.27 29.82 0.13 27.91 0.13" fill="#c6b8af" stroke="#000" stroke-miterlimit="10" stroke-width="0.25"/>
    <path d="M64.75,36.25c-.42.58-.5,6-.5,6H66.5l.33-6Z" transform="translate(-24.68 -36.13)" fill="#c6b8af" stroke="#000" stroke-miterlimit="10" stroke-width="0.25"/>
    <polyline points="69.32 6.38 71.45 6.38 71.45 0.13 69.03 0.13 69.32 6.38" fill="#c6b8af" stroke="#000" stroke-miterlimit="10" stroke-width="0.25"/>
    <polygon points="79.76 0.13 82.82 0.13 83.07 6.38 79.76 6.38 79.76 0.13" fill="#c6b8af" stroke="#000" stroke-miterlimit="10" stroke-width="0.25"/>
  </g>
  <g id="Lag_29" data-name="Lag 29">
    <line x1="7.91" y1="20.46" x2="7.91" y2="23.87" fill="none" stroke="#000" stroke-miterlimit="10" stroke-width="0.25"/>
    <line x1="5.41" y1="21.38" x2="10.41" y2="21.38" fill="none" stroke="#000" stroke-miterlimit="10" stroke-width="0.25"/>
    <line x1="10.41" y1="22.67" x2="5.41" y2="22.67" fill="none" stroke="#000" stroke-miterlimit="10" stroke-width="0.25"/>
    <line x1="15.95" y1="20.46" x2="15.95" y2="23.87" fill="none" stroke="#000" stroke-miterlimit="10" stroke-width="0.25"/>
    <line x1="13.41" y1="21.38" x2="18.16" y2="21.38" fill="none" stroke="#000" stroke-miterlimit="10" stroke-width="0.25"/>
    <line x1="18.16" y1="22.67" x2="13.41" y2="22.67" fill="none" stroke="#000" stroke-miterlimit="10" stroke-width="0.25"/>
    <line x1="26.07" y1="20.46" x2="26.07" y2="23.87" fill="none" stroke="#000" stroke-miterlimit="10" stroke-width="0.25"/>
    <line x1="28.32" y1="21.38" x2="23.82" y2="21.38" fill="none" stroke="#000" stroke-miterlimit="10" stroke-width="0.25"/>
    <line x1="23.82" y1="22.67" x2="28.32" y2="22.67" fill="none" stroke="#000" stroke-miterlimit="10" stroke-width="0.25"/>
  </g>
  <g id="Lag_10" data-name="Lag 10">
    <rect x="5.41" y="20.46" width="5" height="3.42" fill="none" stroke="#000" stroke-miterlimit="10" stroke-width="0.25"/>
    <rect x="13.41" y="20.46" width="4.75" height="3.42" fill="none" stroke="#000" stroke-miterlimit="10" stroke-width="0.25"/>
    <rect x="5.41" y="29.12" width="5" height="7.58" fill="none" stroke="#000" stroke-miterlimit="10" stroke-width="0.25"/>
    <rect x="13.74" y="29.12" width="4.83" height="7.58" fill="none" stroke="#000" stroke-miterlimit="10" stroke-width="0.25"/>
    <rect x="4.99" y="41.62" width="5" height="6.75" fill="none" stroke="#000" stroke-miterlimit="10" stroke-width="0.25"/>
    <rect x="13.74" y="41.62" width="4.42" height="6.75" fill="none" stroke="#000" stroke-miterlimit="10" stroke-width="0.25"/>
    <rect x="5.91" y="51.46" width="3.58" height="1.83" fill="none" stroke="#000" stroke-miterlimit="10" stroke-width="0.25"/>
    <rect x="14.16" y="51.46" width="4" height="1.83" fill="none" stroke="#000" stroke-miterlimit="10" stroke-width="0.25"/>
  </g>
  <g id="Lag_11" data-name="Lag 11">
    <rect x="23.82" y="20.46" width="4.5" height="3.42" fill="none" stroke="#000" stroke-miterlimit="10" stroke-width="0.25"/>
    <rect x="32.39" y="20.46" width="4.27" height="3.42" fill="none" stroke="#000" stroke-miterlimit="10" stroke-width="0.25"/>
    <rect x="23.82" y="29.12" width="4.5" height="7.58" fill="none" stroke="#000" stroke-miterlimit="10" stroke-width="0.25"/>
    <rect x="31.82" y="29.12" width="4.83" height="7.58" fill="none" stroke="#000" stroke-miterlimit="10" stroke-width="0.25"/>
    <polyline points="23.82 41.63 23.82 48.38 28.66 48.38 28.66 41.63 24.24 41.63" fill="none" stroke="#000" stroke-miterlimit="10" stroke-width="0.25"/>
    <rect x="31.82" y="41.62" width="4.83" height="6.75" fill="none" stroke="#000" stroke-miterlimit="10" stroke-width="0.25"/>
    <rect x="24.32" y="51.46" width="3.58" height="1.83" fill="none" stroke="#000" stroke-miterlimit="10" stroke-width="0.25"/>
    <rect x="32.39" y="51.46" width="3.94" height="1.83" fill="none" stroke="#000" stroke-miterlimit="10" stroke-width="0.25"/>
  </g>
  <g id="Lag_8" data-name="Lag 8">
    <path d="M66.83,74.25V62.83s2.33-3.92,4.75,0V74.25Z" transform="translate(-24.68 -36.13)" fill="none" stroke="#000" stroke-miterlimit="10" stroke-width="0.25"/>
    <path d="M78.92,74.25v-11s2.08-5.33,4.75,0v11Z" transform="translate(-24.68 -36.13)" fill="none" stroke="#000" stroke-miterlimit="10" stroke-width="0.25"/>
    <path d="M91,74.25V62.92s1.92-5,4.67,0V74.25Z" transform="translate(-24.68 -36.13)" fill="none" stroke="#000" stroke-miterlimit="10" stroke-width="0.25"/>
  </g>
  <g id="Lag_12" data-name="Lag 12">
    <path d="M66.83,89.08v-9.5s2.25-4.25,4.75,0v9.5Z" transform="translate(-24.68 -36.13)" fill="none" stroke="#000" stroke-miterlimit="10" stroke-width="0.25"/>
    <path d="M78.92,89.08V79.75s1.75-5.17,5.42,0v9.33Z" transform="translate(-24.68 -36.13)" fill="none" stroke="#000" stroke-miterlimit="10" stroke-width="0.25"/>
    <path d="M91.75,89.08V79.75s2.5-4.92,3.92,0v9.33Z" transform="translate(-24.68 -36.13)" fill="none" stroke="#000" stroke-miterlimit="10" stroke-width="0.25"/>
  </g>
  <g id="Lag_13" data-name="Lag 13">
    <rect x="76.82" y="20.54" width="4.25" height="2.83" fill="none" stroke="#000" stroke-miterlimit="10" stroke-width="0.25"/>
    <rect x="84.91" y="20.54" width="4.17" height="2.83" fill="none" stroke="#000" stroke-miterlimit="10" stroke-width="0.25"/>
    <polyline points="95.07 23.38 99.2 23.38 99.2 20.54 94.66 20.54 94.66 23.38" fill="none" stroke="#000" stroke-miterlimit="10" stroke-width="0.25"/>
    <rect x="103.07" y="20.54" width="4.08" height="2.83" fill="none" stroke="#000" stroke-miterlimit="10" stroke-width="0.25"/>
  </g>
  <g id="Lag_14" data-name="Lag 14">
    <rect x="76.82" y="28.71" width="4.25" height="7.92" fill="none" stroke="#000" stroke-miterlimit="10" stroke-width="0.25"/>
    <rect x="84.91" y="28.71" width="4.58" height="7.92" fill="none" stroke="#000" stroke-miterlimit="10" stroke-width="0.25"/>
    <rect x="94.66" y="28.71" width="4.54" height="7.92" fill="none" stroke="#000" stroke-miterlimit="10" stroke-width="0.25"/>
    <rect x="103.07" y="28.71" width="4.08" height="7.58" fill="none" stroke="#000" stroke-miterlimit="10" stroke-width="0.25"/>
  </g>
  <g id="Lag_15" data-name="Lag 15">
    <rect x="76.82" y="41.57" width="4.25" height="6.39" fill="none" stroke="#000" stroke-miterlimit="10" stroke-width="0.25"/>
    <rect x="84.91" y="41.57" width="4.58" height="6.39" fill="none" stroke="#000" stroke-miterlimit="10" stroke-width="0.25"/>
    <polygon points="94.66 47.96 94.66 41.33 99.91 41.44 99.91 47.96 94.66 47.96" fill="none" stroke="#000" stroke-miterlimit="10" stroke-width="0.25"/>
    <polygon points="103.07 47.96 103.07 41.44 107.99 41.57 107.99 47.96 103.07 47.96" fill="none" stroke="#000" stroke-miterlimit="10" stroke-width="0.25"/>
  </g>
  <g id="Lag_16" data-name="Lag 16">
    <rect x="77.24" y="51.21" width="3.83" height="1.75" fill="none" stroke="#000" stroke-miterlimit="10" stroke-width="0.25"/>
    <path d="M110.25,89.08V87.25h3.5v1.83Z" transform="translate(-24.68 -36.13)" fill="none" stroke="#000" stroke-miterlimit="10" stroke-width="0.25"/>
    <rect x="95.57" y="50.71" width="3.63" height="2.25" fill="none" stroke="#000" stroke-miterlimit="10" stroke-width="0.25"/>
    <rect x="103.07" y="50.71" width="4.08" height="2.25" fill="none" stroke="#000" stroke-miterlimit="10" stroke-width="0.25"/>
  </g>
  <g id="Lag_4" data-name="Lag 4">
    <polygon points="12.7 13.01 27.57 5.38 27.57 6.39 29.82 6.27 29.82 5.38 39.57 5.38 39.57 6.14 41.82 6.14 41.82 5.38 52.07 5.38 51.32 7.54 50.32 9.19 48.07 11.99 41.07 11.99 38.57 11.99 38.57 13.39 12.7 13.01" fill="#352f2a" stroke="#000" stroke-miterlimit="10" stroke-width="0.25"/>
  </g>
  <g id="Lag_5" data-name="Lag 5">
    <polygon points="60.32 5.38 64.57 11.88 74.57 11.88 74.7 13.5 99.2 13.5 83.32 5.38 83.07 6.38 80.82 6.38 80.45 5.38 71.45 5.38 71.45 6.38 69.32 6.38 68.7 5.38 60.32 5.38" fill="#2d2825" stroke="#000" stroke-miterlimit="10" stroke-width="0.25"/>
  </g>
  <g id="Lag_3" data-name="Lag 3">
    <polygon points="1.82 13.5 1.82 14.5 1.82 17.02 37.57 17.38 37.32 16 75.82 15.38 75.57 16.38 110.82 16.38 110.82 13.5 74.7 13.5 74.57 11.88 38.57 11.88 38.57 13.25 1.82 13.5" fill="#564f4f" stroke="#000" stroke-miterlimit="10" stroke-width="0.25"/>
    <line x1="56.51" y1="12.71" x2="56.55" y2="13.77" fill="none" stroke="#000" stroke-miterlimit="10" stroke-width="0.25"/>
  </g>
  <g id="Lag_25" data-name="Lag 25">
    <g id="Lag_33" data-name="Lag 33">
      <circle cx="81.23" cy="49.89" r="1.89" transform="translate(-37.68 28.18) rotate(-40.25)" fill="#fffefd" stroke="#000" stroke-miterlimit="10" stroke-width="0.25"/>
    </g>
  </g>
</svg>
