<svg id="Lag_1" data-name="Lag 1" xmlns="http://www.w3.org/2000/svg" width="88.4" height="369.9" viewBox="0 0 88.4 369.9">
  <title>anderslassen</title>
  <g id="Lag_2" data-name="Lag 2">
    <rect x="0.1" y="104.8" width="87" height="265" fill="#726565" stroke="#000" stroke-miterlimit="10" stroke-width="0.25"/>
    <rect x="15.6" y="133.3" width="58" height="50.6" fill="#352d2d" stroke="#000" stroke-miterlimit="10" stroke-width="0.25"/>
    <path d="M11.1,104.8l-11-36s7-10,19-10c0,0,7.5-9,12-9,0,0-5.5,3,0,10,3.1,4,6.5,7.8,10,11.5,0,0,11.5-5.5,15-9.5s3-10,0-12,10,6,10,6,12.5-.5,15.5,2,12,6.2,2,19.3l-6,27.7" fill="#005b1d" stroke="#000" stroke-miterlimit="10" stroke-width="0.25"/>
  </g>
  <g id="Lag_4" data-name="Lag 4">
    <line x1="25.1" y1="139.8" x2="64.7" y2="139.8" fill="none" stroke="#000" stroke-miterlimit="10" stroke-width="0.25"/>
    <line x1="27.9" y1="147.3" x2="60.8" y2="147.3" fill="none" stroke="#000" stroke-miterlimit="10" stroke-width="0.25"/>
    <line x1="33.9" y1="158.6" x2="55.3" y2="158.6" fill="none" stroke="#000" stroke-miterlimit="10" stroke-width="0.25"/>
    <line x1="33.9" y1="152.3" x2="53.5" y2="152.3" fill="none" stroke="#000" stroke-miterlimit="10" stroke-width="0.25"/>
  </g>
  <g id="Lag_3" data-name="Lag 3">
    <path d="M60.3,14.4S62.3,3.6,57.5.8s-21.2,4-21.2,4S25.1,11.6,25.5,17.2a70.79,70.79,0,0,0-4.4,14.9c-1.2,7.5,7.6,4.3,7.6,4.3" fill="#005b1d" stroke="#000" stroke-miterlimit="10" stroke-width="0.25"/>
    <path d="M66.1,55.8l2.2,10.6-7.6-3.6v3.6s-15.8,14-17.1,17.2-1.3,21.2-1.3,21.2" fill="none" stroke="#000" stroke-miterlimit="10" stroke-width="0.25"/>
    <polyline points="19.1 58.8 21 68.8 27.9 63.8 43.6 83.6" fill="none" stroke="#000" stroke-miterlimit="10" stroke-width="0.25"/>
    <path d="M11.9,86l22-4V93.2s-10,.8-11,2.4-4.8-.8-7.3,0S11.9,86,11.9,86Z" stroke="#000" stroke-miterlimit="10" stroke-width="0.25"/>
    <path d="M53.5,83.6v7.6s8.1-.8,9.2,1.2,8.6.4,10.9,1.6,2.3-10.4,2.3-10.4Z" stroke="#000" stroke-miterlimit="10" stroke-width="0.25"/>
    <path d="M26.5,55.7l14,15.5,15.9-9.5s8.5-8.5,0-12a24.54,24.54,0,0,0,4.9-7c1.7-4,1.7-14.4,2.1-17.6s-2.5-10.8-2.5-10.8H54c-5.1,0-12.7,5.6-17.4,8.4s-6,4.8-6,4.8c-6.8,2.4-3.3,8.8-3.3,8.8,5.5,3.2,2.5,13.4,2.5,13.4" fill="#001532" stroke="#000" stroke-miterlimit="10" stroke-width="0.25"/>
    <rect x="38.31" y="63.92" width="19.2" height="3.8" transform="translate(-28.77 38.47) rotate(-34.32)" fill="#001532"/>
  </g>
</svg>
