<svg id="Lag_11" data-name="Lag 11" xmlns="http://www.w3.org/2000/svg" width="751.3" height="622" viewBox="0 0 751.3 622">
  <title>anker</title>
  <g>
    <g id="Lag_9" data-name="Lag 9">
      <path d="M354.66,607.49s12.16.22,10.81,5.15c0,0-1,4-13.73,3.85,0,0-9.46.68-12.66,0s-9.86-1.52-8.24-5.3c0,0,.84-.74,1.35-1.23a32.6,32.6,0,0,1,5-1.73c1.4-.31,14.77-1.89,17.47-.74" fill="#878278" stroke="#000" stroke-miterlimit="10" stroke-width="0.25"/>
    </g>
    <g id="Lag_4" data-name="Lag 4">
      <path d="M351.38,595a1.32,1.32,0,0,1,1.37.78,4.22,4.22,0,0,1,.47,1.71s-.75.66-.92.15l-.17-.51s.35-.47.45-.3c0,0-.05-.71-.28-.74,0,0-.83-.84-.85-.89l0,0" fill="#111" stroke="#000" stroke-miterlimit="10"/>
    </g>
    <g id="Lag_5" data-name="Lag 5">
      <path d="M353.22,596.86s.68.61.61.84.17.51.17.51.57.91.44,1-.44.71-.81.44-.41.06-.41.06l-.44-.62.44,0s.34-.57.24-.61-.24-.92-.24-.92" fill="#111" stroke="#000" stroke-miterlimit="10"/>
    </g>
    <g id="Lag_3" data-name="Lag 3">
      <path d="M348.88,597.53l-12,12.7s-1.06.23-1.24,0L335,610l-.81-2.79v-1.08l-.27-.54-.41.23v.5s-1.13-.36-1,.77v.9a3.25,3.25,0,0,0-.26,1.22l.41,1.49a6.08,6.08,0,0,0,6.8,2.66s4.86-.5,4.82-.72.5.68.5.68,2.7-.77,2.52-1c0,0,2.21-1.26,2.16-2.12l2.3-1.76s.36-1.67-.9-.65l-1.58.7a2.2,2.2,0,0,0-1.17-.7l-5.18.65s-.68.81-.23,1.08l.45,1-1.13.31-2.88.27,10.44-12.15-.69-1.37" fill="#111" stroke="#000" stroke-miterlimit="10" stroke-width="0.25"/>
      <path d="M332.52,606.67l-.28,1.88s-.16,1.76.28,1.8" fill="#111" stroke="#000" stroke-miterlimit="10" stroke-width="0.25"/>
      <rect x="332.6" y="609.92" width="0.38" height="1.27" transform="translate(-274.76 272.3) rotate(-32.3)" fill="#111"/>
    </g>
    <g id="Lag_8" data-name="Lag 8">
      <path d="M351.25,603s1.39.14,1.53.11.68-.14.68-.37l.37-.57.16.48h0l0,.48s-.91.77-1,.6c0,0-.89.22-.92,0l-.49.08-.36-.82" fill="none" stroke="#000" stroke-miterlimit="10"/>
    </g>
    <g id="Lag_2" data-name="Lag 2">
      <path d="M344.85,583.42s1.62,7.5,1.89,7.5a16.51,16.51,0,0,0,.95,3c.27.2,1,3.78,1.28,3.72s1.42,3.45,1.42,3.45l1.42,3.24L354,607.8s1.15-.27,1-.81a16.91,16.91,0,0,0-.54-3c-.34-.88-2.63-7.77-2.63-7.77L349.17,589l-2.43-6.28A1.54,1.54,0,0,0,344.85,583.42Z" fill="#160b01" stroke="#000" stroke-miterlimit="10"/>
    </g>
  </g>
</svg>
