<svg xmlns="http://www.w3.org/2000/svg" xmlns:xlink="http://www.w3.org/1999/xlink" width="751.3" height="622" viewBox="0 0 751.3 622">
  <title>birk</title>
  <g id="Lag_1" data-name="Lag 1">
    <image width="1366" height="768" transform="translate(-20.03 -86)" xlink:href="birk1.png"/>
  </g>
  <g id="Lag_2" data-name="Lag 2">
    <g id="Lag_2-2" data-name="Lag 2">
      <rect x="532.45" y="286.42" width="5.01" height="15.27" fill="#726565" stroke="#000" stroke-miterlimit="10" stroke-width="0.25"/>
      <rect x="533.34" y="288.06" width="3.34" height="2.92" fill="#352d2d" stroke="#000" stroke-miterlimit="10" stroke-width="0.25"/>
      <path d="M533.09,286.42l-.63-2.07a1.45,1.45,0,0,1,1.09-.58s.43-.52.69-.52c0,0-.32.17,0,.58.18.23.37.45.58.66a3.85,3.85,0,0,0,.86-.55.49.49,0,0,0,0-.69c-.17-.12.58.35.58.35s.72,0,.89.12.69.36.12,1.11l-.35,1.6" fill="#005b1d" stroke="#000" stroke-miterlimit="10" stroke-width="0.25"/>
    </g>
    <g id="Lag_4" data-name="Lag 4">
      <line x1="533.89" y1="288.43" x2="536.17" y2="288.43" fill="none" stroke="#000" stroke-miterlimit="10" stroke-width="0.25"/>
      <line x1="534.05" y1="288.86" x2="535.95" y2="288.86" fill="none" stroke="#000" stroke-miterlimit="10" stroke-width="0.25"/>
      <line x1="534.4" y1="289.52" x2="535.63" y2="289.52" fill="none" stroke="#000" stroke-miterlimit="10" stroke-width="0.25"/>
      <line x1="534.4" y1="289.15" x2="535.53" y2="289.15" fill="none" stroke="#000" stroke-miterlimit="10" stroke-width="0.25"/>
    </g>
    <g id="Lag_3" data-name="Lag 3">
      <path d="M535.92,281.21s.12-.62-.16-.78-1.22.23-1.22.23-.65.39-.62.71a4.08,4.08,0,0,0-.25.86c-.07.43.44.25.44.25" fill="#005b1d" stroke="#000" stroke-miterlimit="10" stroke-width="0.25"/>
      <path d="M536.25,283.59l.13.61-.44-.21v.21a8.4,8.4,0,0,0-1,1,7.77,7.77,0,0,0-.07,1.22" fill="none" stroke="#000" stroke-miterlimit="10" stroke-width="0.25"/>
      <polyline points="533.55 283.76 533.66 284.34 534.05 284.05 534.96 285.19" fill="none" stroke="#000" stroke-miterlimit="10" stroke-width="0.25"/>
      <path d="M533.13,285.33l1.27-.23v.65s-.58,0-.63.14-.28,0-.42,0S533.13,285.33,533.13,285.33Z" stroke="#000" stroke-miterlimit="10" stroke-width="0.25"/>
      <path d="M535.53,285.19v.44s.47,0,.53.07.5,0,.63.09.13-.6.13-.6Z" stroke="#000" stroke-miterlimit="10" stroke-width="0.25"/>
      <path d="M534,283.59l.81.89.92-.55s.49-.49,0-.69a1.41,1.41,0,0,0,.28-.4,5.05,5.05,0,0,0,.12-1,2,2,0,0,0-.14-.62h-.4a2.69,2.69,0,0,0-1,.48,1.1,1.1,0,0,0-.35.28.34.34,0,0,0-.19.51c.32.18.14.77.14.77" fill="#001532" stroke="#000" stroke-miterlimit="10" stroke-width="0.25"/>
      <rect x="534.65" y="284.06" width="1.11" height="0.22" transform="translate(-67.04 351.22) rotate(-34.32)" fill="#001532"/>
    </g>
  </g>
  <g id="Lag_4-2" data-name="Lag 4">
    <g>
      <g id="Lag_1-2" data-name="Lag 1">
        <g id="Lag_3-2" data-name="Lag 3">
          <path d="M522.84,287a3,3,0,0,0-.07-1.27l-.47-.91s.38-.38.71-.32l1-.41.07-.07s-.63.07-.63,0,.41-.34.41-.34l.3-.31s.15.43.27.42a1.39,1.39,0,0,0,.56,0,2.06,2.06,0,0,0,.55-.25c.1-.1.06-.17.06-.17s.35,0,.47.17a1.91,1.91,0,0,0,.3.32s-.68.06-.65.13l.4.22.4.19.75.1s.25.25.21.32,0,.27-.06.29a6,6,0,0,0-.37,1,3.24,3.24,0,0,0-.1.89C527,287.12,522.84,287,522.84,287Z" fill="#254460" stroke="#070707" stroke-miterlimit="10" stroke-width="0.25"/>
        </g>
        <g id="Lag_4-3" data-name="Lag 4">
          <path d="M524.08,284.07s.75.49.72.59.12.57.08.56,0,1.8,0,1.8l-.06-1.8.55-.86.32-.32" fill="none" stroke="#070707" stroke-miterlimit="10" stroke-width="0.25"/>
        </g>
        <g id="Lag_6" data-name="Lag 6">
          <path d="M524,282.77s-.41-.56-.37-.69a2,2,0,0,1,0-.56,1.38,1.38,0,0,1,.37-.62c.06,0,.3-.31.58-.35s.24-.16.65,0c0,0,.15,0,.66.32,0,0,.58.49.43.75,0,0,.18.21,0,.77,0,0-.29.56-.39.47" fill="#254460" stroke="#070707" stroke-miterlimit="10" stroke-width="0.25"/>
          <g id="Lag_5" data-name="Lag 5">
            <path d="M524.15,283.42a1.2,1.2,0,0,0,0-.47s-.16.06-.18-.18a3.43,3.43,0,0,1,0-.43s.11,0,.1.06a1.5,1.5,0,0,1,.11-.69,1.44,1.44,0,0,1,.48-.4.87.87,0,0,1,.62.09c.31.18.43.83.43.83v.21s.18-.13.22,0,0,.5,0,.44-.3.27-.31.18,0,.38,0,.38l-.06.17s-.71.49-.92.27l-.27,0Z" fill="#00520c" stroke="#070707" stroke-miterlimit="10" stroke-width="0.25"/>
            <line x1="523.96" y1="288.92" x2="526.07" y2="288.92" fill="none" stroke="#070707" stroke-miterlimit="10" stroke-width="0.25"/>
            <line x1="524.22" y1="289.36" x2="525.95" y2="289.36" fill="none" stroke="#070707" stroke-miterlimit="10" stroke-width="0.25"/>
            <line x1="524.4" y1="289.84" x2="525.55" y2="289.84" fill="none" stroke="#070707" stroke-miterlimit="10" stroke-width="0.25"/>
            <line x1="524.4" y1="290.37" x2="525.55" y2="290.37" fill="none" stroke="#070707" stroke-miterlimit="10" stroke-width="0.25"/>
          </g>
        </g>
        <path d="M524,282s.2-.55.4-.53a.78.78,0,0,1,.46-.17,1.43,1.43,0,0,1,.46.18,4.28,4.28,0,0,1,.28.52c0,.07.07.49.07.49l.12-.06v-.3s-.06-.27-.06-.33a2.81,2.81,0,0,0-.24-.5,2.72,2.72,0,0,0-.27-.27c-.09-.14-.75-.11-.75-.11s-.49.17-.54.49a1.62,1.62,0,0,0,.11.72" stroke="#070707" stroke-miterlimit="10" stroke-width="0.25"/>
      </g>
      <g id="Lag_7" data-name="Lag 7">
        <polygon points="522.29 287.02 522.29 302.5 527.46 302.5 527.46 287.08 522.29 287.02" fill="#827e7e" stroke="#070707" stroke-miterlimit="10" stroke-width="0.25"/>
        <rect x="523.35" y="288.54" width="3.25" height="2.99" fill="#474141" stroke="#070707" stroke-miterlimit="10" stroke-width="0.25"/>
        <polygon points="525.55 285.25 526.59 285.22 526.59 285.6 525.55 285.6 525.55 285.25" stroke="#070707" stroke-miterlimit="10" stroke-width="0.25"/>
        <polyline points="525.55 285.6 525.55 286.03 526.59 286.03 526.59 285.6" stroke="#070707" stroke-miterlimit="10" stroke-width="0.25"/>
        <line x1="524.22" y1="289.16" x2="526.07" y2="289.16" fill="none" stroke="#070707" stroke-miterlimit="10" stroke-width="0.25"/>
        <line x1="524.08" y1="289.66" x2="526.07" y2="289.66" fill="none" stroke="#070707" stroke-miterlimit="10" stroke-width="0.25"/>
        <line x1="524.4" y1="290.03" x2="525.7" y2="290.03" fill="none" stroke="#070707" stroke-miterlimit="10" stroke-width="0.25"/>
        <line x1="524.4" y1="290.37" x2="525.7" y2="290.37" fill="none" stroke="#070707" stroke-miterlimit="10" stroke-width="0.25"/>
      </g>
    </g>
  </g>
</svg>
