<svg id="Lag_9" data-name="Lag 9" xmlns="http://www.w3.org/2000/svg" width="751.3" height="622" viewBox="0 0 751.3 622">
  <title>borg1</title>
  <g>
    <g id="Lag_23" data-name="Lag 23">
      <polyline points="444.34 476.03 447.1 476.03 447.1 481.79 446.88 482.79 448.06 482.79 447.69 481.79 447.79 476.03 448.1 474.9" fill="none" stroke="#000" stroke-miterlimit="10" stroke-width="0.25"/>
    </g>
    <g id="Lag_2" data-name="Lag 2">
      <polygon points="420.82 475.13 421.41 475.67 421.12 488.68 433.69 488.68 433.33 489.04 449.19 489.04 448.46 488.41 461.2 488.45 460.93 475.49 461.56 474.9 448.1 474.9 448.19 474.54 434.24 474.77 434.33 475.27 420.82 475.13" fill="#ce9c76" stroke="#000" stroke-miterlimit="10" stroke-width="0.25"/>
      <line x1="432.5" y1="476.72" x2="434" y2="476.72" fill="none" stroke="#000" stroke-miterlimit="10" stroke-width="0.25"/>
      <line x1="432.45" y1="477.26" x2="434" y2="477.26" fill="none" stroke="#000" stroke-miterlimit="10" stroke-width="0.25"/>
      <line x1="433.25" y1="476.38" x2="433.25" y2="477.62" fill="none" stroke="#000" stroke-miterlimit="10" stroke-width="0.25"/>
      <line x1="433.12" y1="484.05" x2="433.12" y2="486.56" fill="none" stroke="#000" stroke-miterlimit="10" stroke-width="0.25"/>
      <line x1="432.24" y1="484.71" x2="434" y2="484.71" fill="none" stroke="#000" stroke-miterlimit="10" stroke-width="0.25"/>
      <line x1="432.24" y1="485.31" x2="434" y2="485.31" fill="none" stroke="#000" stroke-miterlimit="10" stroke-width="0.25"/>
      <line x1="432.24" y1="486.02" x2="434" y2="486.02" fill="none" stroke="#000" stroke-miterlimit="10" stroke-width="0.25"/>
      <line x1="423.5" y1="487.62" x2="423.5" y2="488.28" fill="none" stroke="#000" stroke-miterlimit="10" stroke-width="0.25"/>
      <line x1="424.15" y1="487.95" x2="422.85" y2="487.95" fill="none" stroke="#000" stroke-miterlimit="10" stroke-width="0.25"/>
      <line x1="426.56" y1="487.62" x2="426.56" y2="488.28" fill="none" stroke="#000" stroke-miterlimit="10" stroke-width="0.25"/>
      <line x1="427.29" y1="487.95" x2="425.84" y2="487.95" fill="none" stroke="#000" stroke-miterlimit="10" stroke-width="0.25"/>
      <line x1="430.17" y1="487.62" x2="430.17" y2="488.28" fill="none" stroke="#000" stroke-miterlimit="10" stroke-width="0.25"/>
      <line x1="429.52" y1="487.95" x2="430.82" y2="487.95" fill="none" stroke="#000" stroke-miterlimit="10" stroke-width="0.25"/>
      <line x1="433.16" y1="487.62" x2="433.16" y2="488.28" fill="none" stroke="#000" stroke-miterlimit="10" stroke-width="0.25"/>
      <line x1="432.45" y1="487.95" x2="433.87" y2="487.95" fill="none" stroke="#000" stroke-miterlimit="10" stroke-width="0.25"/>
      <line x1="435.99" y1="484.84" x2="437.71" y2="484.83" fill="none" stroke="#000" stroke-miterlimit="10" stroke-width="0.25"/>
      <line x1="435.99" y1="484.72" x2="437.71" y2="484.72" fill="none" stroke="#000" stroke-miterlimit="10"/>
    </g>
    <g id="Lag_30" data-name="Lag 30">
      <line x1="423.57" y1="479.52" x2="423.57" y2="482.27" fill="none" stroke="#000" stroke-miterlimit="10" stroke-width="0.25"/>
      <line x1="422.67" y1="479.95" x2="424.48" y2="479.95" fill="none" stroke="#000" stroke-miterlimit="10" stroke-width="0.25"/>
      <line x1="422.67" y1="480.4" x2="424.54" y2="480.4" fill="none" stroke="#000" stroke-miterlimit="10" stroke-width="0.25"/>
      <line x1="422.67" y1="480.9" x2="424.54" y2="480.9" fill="none" stroke="#000" stroke-miterlimit="10" stroke-width="0.25"/>
      <line x1="422.67" y1="481.46" x2="424.48" y2="481.46" fill="none" stroke="#000" stroke-miterlimit="10" stroke-width="0.25"/>
      <line x1="422.67" y1="481.94" x2="424.48" y2="481.94" fill="none" stroke="#000" stroke-miterlimit="10" stroke-width="0.25"/>
      <line x1="426.56" y1="479.52" x2="426.56" y2="482.27" fill="none" stroke="#000" stroke-miterlimit="10" stroke-width="0.25"/>
      <line x1="425.69" y1="479.95" x2="427.44" y2="479.95" fill="none" stroke="#000" stroke-miterlimit="10" stroke-width="0.25"/>
      <line x1="425.69" y1="480.4" x2="427.44" y2="480.4" fill="none" stroke="#000" stroke-miterlimit="10" stroke-width="0.25"/>
      <line x1="425.69" y1="480.9" x2="427.44" y2="480.9" fill="none" stroke="#000" stroke-miterlimit="10" stroke-width="0.25"/>
      <line x1="425.69" y1="481.46" x2="427.5" y2="481.46" fill="none" stroke="#000" stroke-miterlimit="10" stroke-width="0.25"/>
      <line x1="425.69" y1="481.94" x2="427.5" y2="481.94" fill="none" stroke="#000" stroke-miterlimit="10" stroke-width="0.25"/>
      <line x1="430.22" y1="479.52" x2="430.22" y2="482.27" fill="none" stroke="#000" stroke-miterlimit="10" stroke-width="0.25"/>
      <line x1="429.34" y1="479.95" x2="430.97" y2="479.95" fill="none" stroke="#000" stroke-miterlimit="10" stroke-width="0.25"/>
      <line x1="429.34" y1="480.49" x2="430.97" y2="480.49" fill="none" stroke="#000" stroke-miterlimit="10" stroke-width="0.25"/>
      <line x1="429.34" y1="481.12" x2="430.97" y2="481.11" fill="none" stroke="#000" stroke-miterlimit="10" stroke-width="0.25"/>
      <line x1="429.34" y1="481.79" x2="430.97" y2="481.79" fill="none" stroke="#000" stroke-miterlimit="10" stroke-width="0.25"/>
      <line x1="433.12" y1="479.52" x2="433.12" y2="482.27" fill="none" stroke="#000" stroke-miterlimit="10" stroke-width="0.25"/>
      <line x1="432.24" y1="479.95" x2="434" y2="479.95" fill="none" stroke="#000" stroke-miterlimit="10" stroke-width="0.25"/>
      <line x1="432.24" y1="480.49" x2="434" y2="480.49" fill="none" stroke="#000" stroke-miterlimit="10" stroke-width="0.25"/>
      <line x1="432.24" y1="481.11" x2="434" y2="481.11" fill="none" stroke="#000" stroke-miterlimit="10" stroke-width="0.25"/>
      <line x1="432.24" y1="481.79" x2="434" y2="481.79" fill="none" stroke="#000" stroke-miterlimit="10" stroke-width="0.25"/>
    </g>
    <g id="Lag_31" data-name="Lag 31">
      <line x1="423.42" y1="484.03" x2="423.42" y2="486.5" fill="none" stroke="#000" stroke-miterlimit="10" stroke-width="0.25"/>
      <line x1="422.52" y1="484.71" x2="424.33" y2="484.71" fill="none" stroke="#000" stroke-miterlimit="10" stroke-width="0.25"/>
      <line x1="422.52" y1="485.43" x2="424.33" y2="485.43" fill="none" stroke="#000" stroke-miterlimit="10" stroke-width="0.25"/>
      <line x1="422.52" y1="486.02" x2="424.33" y2="486.02" fill="none" stroke="#000" stroke-miterlimit="10" stroke-width="0.25"/>
      <line x1="426.49" y1="484.05" x2="426.49" y2="486.5" fill="none" stroke="#000" stroke-miterlimit="10" stroke-width="0.25"/>
      <line x1="425.69" y1="484.51" x2="427.29" y2="484.51" fill="none" stroke="#000" stroke-miterlimit="10" stroke-width="0.25"/>
      <line x1="425.69" y1="485.11" x2="427.29" y2="485.11" fill="none" stroke="#000" stroke-miterlimit="10" stroke-width="0.25"/>
      <line x1="425.69" y1="485.9" x2="427.29" y2="485.9" fill="none" stroke="#000" stroke-miterlimit="10" stroke-width="0.25"/>
      <line x1="430.22" y1="484.03" x2="430.22" y2="486.5" fill="none" stroke="#000" stroke-miterlimit="10" stroke-width="0.25"/>
      <line x1="429.34" y1="484.51" x2="431.15" y2="484.51" fill="none" stroke="#000" stroke-miterlimit="10" stroke-width="0.25"/>
      <line x1="429.34" y1="485.19" x2="431.15" y2="485.19" fill="none" stroke="#000" stroke-miterlimit="10" stroke-width="0.25"/>
      <line x1="429.34" y1="485.9" x2="431.15" y2="485.9" fill="none" stroke="#000" stroke-miterlimit="10" stroke-width="0.25"/>
    </g>
    <g id="Lag_19" data-name="Lag 19">
      <polyline points="439.58 470.92 440.37 470.69 440.85 469.01 441.58 469.01 442.09 470.64 442.57 470.92 444.11 473.27 438.13 473.27 439.58 470.92" fill="#514a44" stroke="#000" stroke-miterlimit="10" stroke-width="0.25"/>
      <polygon points="421.44 476.05 460.92 476.05 460.96 475.33 461.6 474.48 420.86 474.81 421.44 476.05" fill="#845b3c" stroke="#000" stroke-miterlimit="10" stroke-width="0.25"/>
      <rect x="434.48" y="483.48" width="13.29" height="5.56" fill="#b7896a" stroke="#000" stroke-miterlimit="10"/>
      <polygon points="434.48 476.05 434.9 476.93 434.9 483.48 435.5 483.48 435.5 476.93 435.99 476.05 434.48 476.05" fill="#b7896a" stroke="#000" stroke-miterlimit="10" stroke-width="0.25"/>
      <polyline points="437.92 476.05 438.13 476.93 438.13 483.48 438.95 483.48 438.95 476.93 439.31 476.05 439.58 476.93 439.58 483.48 440.1 483.48 440.1 476.93 440.37 476.05" fill="#b7896a" stroke="#000" stroke-miterlimit="10" stroke-width="0.25"/>
      <line x1="435.99" y1="484.72" x2="437.71" y2="484.72" fill="none" stroke="#000" stroke-miterlimit="10" stroke-width="0.25"/>
      <line x1="435.99" y1="487.62" x2="437.71" y2="487.62" fill="none" stroke="#000" stroke-miterlimit="10" stroke-width="0.25"/>
      <line x1="436.85" y1="484.71" x2="436.85" y2="488.16" fill="none" stroke="#000" stroke-miterlimit="10" stroke-width="0.25"/>
    </g>
    <g id="Lag_32" data-name="Lag 32">
      <line x1="440.37" y1="484.78" x2="442.33" y2="484.78" fill="none" stroke="#000" stroke-miterlimit="10" stroke-width="0.25"/>
      <line x1="440.37" y1="487.7" x2="442.33" y2="487.7" fill="none" stroke="#000" stroke-miterlimit="10" stroke-width="0.25"/>
      <line x1="441.43" y1="484.78" x2="441.44" y2="488.16" fill="none" stroke="#000" stroke-miterlimit="10" stroke-width="0.25"/>
      <line x1="446.44" y1="484.78" x2="445.02" y2="484.78" fill="none" stroke="#000" stroke-miterlimit="10" stroke-width="0.25"/>
      <line x1="445.02" y1="487.7" x2="446.44" y2="487.7" fill="none" stroke="#000" stroke-miterlimit="10" stroke-width="0.25"/>
      <line x1="445.73" y1="484.78" x2="445.73" y2="488.16" fill="none" stroke="#000" stroke-miterlimit="10" stroke-width="0.25"/>
      <line x1="435.99" y1="478.65" x2="437.71" y2="478.65" fill="none" stroke="#000" stroke-miterlimit="10" stroke-width="0.25"/>
      <line x1="435.99" y1="482.17" x2="437.71" y2="482.17" fill="none" stroke="#000" stroke-miterlimit="10" stroke-width="0.25"/>
      <line x1="436.85" y1="478.65" x2="436.85" y2="482.78" fill="none" stroke="#000" stroke-miterlimit="10" stroke-width="0.25"/>
      <line x1="440.37" y1="478.8" x2="442.09" y2="478.8" fill="none" stroke="#000" stroke-miterlimit="10" stroke-width="0.25"/>
      <line x1="440.37" y1="482.17" x2="442.09" y2="482.17" fill="none" stroke="#000" stroke-miterlimit="10" stroke-width="0.25"/>
      <line x1="441.23" y1="478.8" x2="441.23" y2="482.78" fill="none" stroke="#000" stroke-miterlimit="10" stroke-width="0.25"/>
      <line x1="444.75" y1="478.68" x2="446.44" y2="478.68" fill="none" stroke="#000" stroke-miterlimit="10" stroke-width="0.25"/>
      <line x1="444.75" y1="482.17" x2="446.44" y2="482.17" fill="none" stroke="#000" stroke-miterlimit="10" stroke-width="0.25"/>
      <line x1="445.6" y1="478.65" x2="445.6" y2="482.78" fill="none" stroke="#000" stroke-miterlimit="10" stroke-width="0.25"/>
      <line x1="448.55" y1="476.79" x2="450.09" y2="476.79" fill="none" stroke="#000" stroke-miterlimit="10" stroke-width="0.25"/>
      <line x1="448.55" y1="477.15" x2="450.09" y2="477.15" fill="none" stroke="#000" stroke-miterlimit="10" stroke-width="0.25"/>
      <line x1="449.33" y1="476.41" x2="449.33" y2="477.44" fill="none" stroke="#000" stroke-miterlimit="10" stroke-width="0.25"/>
      <line x1="451.49" y1="476.79" x2="452.99" y2="476.79" fill="none" stroke="#000" stroke-miterlimit="10" stroke-width="0.25"/>
      <line x1="451.49" y1="477.15" x2="452.99" y2="477.15" fill="none" stroke="#000" stroke-miterlimit="10" stroke-width="0.25"/>
      <line x1="452.24" y1="476.41" x2="452.24" y2="477.44" fill="none" stroke="#000" stroke-miterlimit="10" stroke-width="0.25"/>
      <line x1="455.02" y1="476.79" x2="456.67" y2="476.79" fill="none" stroke="#000" stroke-miterlimit="10" stroke-width="0.25"/>
      <line x1="455.02" y1="477.15" x2="456.67" y2="477.15" fill="none" stroke="#000" stroke-miterlimit="10" stroke-width="0.25"/>
      <line x1="455.84" y1="476.41" x2="455.84" y2="477.44" fill="none" stroke="#000" stroke-miterlimit="10" stroke-width="0.25"/>
      <line x1="458.07" y1="476.79" x2="459.63" y2="476.79" fill="none" stroke="#000" stroke-miterlimit="10" stroke-width="0.25"/>
      <line x1="458.07" y1="477.15" x2="459.55" y2="477.15" fill="none" stroke="#000" stroke-miterlimit="10" stroke-width="0.25"/>
      <line x1="458.81" y1="476.41" x2="458.81" y2="477.53" fill="none" stroke="#000" stroke-miterlimit="10" stroke-width="0.25"/>
      <line x1="449.33" y1="479.37" x2="449.33" y2="482.3" fill="none" stroke="#000" stroke-miterlimit="10" stroke-width="0.25"/>
      <line x1="448.55" y1="479.76" x2="450.09" y2="479.76" fill="none" stroke="#000" stroke-miterlimit="10" stroke-width="0.25"/>
      <line x1="448.55" y1="480.33" x2="450.09" y2="480.33" fill="none" stroke="#000" stroke-miterlimit="10" stroke-width="0.25"/>
      <line x1="448.55" y1="480.97" x2="450.09" y2="480.97" fill="none" stroke="#000" stroke-miterlimit="10" stroke-width="0.25"/>
      <line x1="448.55" y1="481.64" x2="450.09" y2="481.64" fill="none" stroke="#000" stroke-miterlimit="10" stroke-width="0.25"/>
      <line x1="452.32" y1="479.37" x2="452.32" y2="482.24" fill="none" stroke="#000" stroke-miterlimit="10" stroke-width="0.25"/>
      <line x1="451.49" y1="479.92" x2="453.15" y2="479.92" fill="none" stroke="#000" stroke-miterlimit="10" stroke-width="0.25"/>
      <line x1="451.49" y1="480.55" x2="453.15" y2="480.55" fill="none" stroke="#000" stroke-miterlimit="10" stroke-width="0.25"/>
      <line x1="451.49" y1="481.19" x2="453.15" y2="481.17" fill="none" stroke="#000" stroke-miterlimit="10" stroke-width="0.25"/>
      <line x1="451.49" y1="481.79" x2="453.15" y2="481.79" fill="none" stroke="#000" stroke-miterlimit="10" stroke-width="0.25"/>
      <line x1="455.84" y1="479.37" x2="455.84" y2="482.24" fill="none" stroke="#000" stroke-miterlimit="10" stroke-width="0.25"/>
      <line x1="455.02" y1="479.92" x2="456.67" y2="479.92" fill="none" stroke="#000" stroke-miterlimit="10" stroke-width="0.25"/>
      <line x1="455.02" y1="480.55" x2="456.67" y2="480.55" fill="none" stroke="#000" stroke-miterlimit="10" stroke-width="0.25"/>
      <line x1="455.02" y1="481.2" x2="456.67" y2="481.2" fill="none" stroke="#000" stroke-miterlimit="10" stroke-width="0.25"/>
      <line x1="455.02" y1="481.79" x2="456.67" y2="481.79" fill="none" stroke="#000" stroke-miterlimit="10" stroke-width="0.25"/>
      <line x1="458.85" y1="479.37" x2="458.85" y2="482.17" fill="none" stroke="#000" stroke-miterlimit="10" stroke-width="0.25"/>
      <line x1="458.07" y1="480.02" x2="459.55" y2="480.02" fill="none" stroke="#000" stroke-miterlimit="10" stroke-width="0.25"/>
      <line x1="458.07" y1="480.61" x2="459.63" y2="480.61" fill="none" stroke="#000" stroke-miterlimit="10" stroke-width="0.25"/>
      <line x1="458.07" y1="481.44" x2="459.55" y2="481.44" fill="none" stroke="#000" stroke-miterlimit="10" stroke-width="0.25"/>
      <line x1="449.33" y1="483.99" x2="449.33" y2="486.35" fill="none" stroke="#000" stroke-miterlimit="10" stroke-width="0.25"/>
      <line x1="448.55" y1="484.6" x2="450.09" y2="484.6" fill="none" stroke="#000" stroke-miterlimit="10" stroke-width="0.25"/>
      <line x1="448.55" y1="485.26" x2="450.09" y2="485.26" fill="none" stroke="#000" stroke-miterlimit="10" stroke-width="0.25"/>
      <line x1="448.55" y1="485.87" x2="450.09" y2="485.87" fill="none" stroke="#000" stroke-miterlimit="10" stroke-width="0.25"/>
      <line x1="452.36" y1="484.03" x2="452.36" y2="486.35" fill="none" stroke="#000" stroke-miterlimit="10" stroke-width="0.25"/>
      <line x1="451.49" y1="484.6" x2="453.15" y2="484.6" fill="none" stroke="#000" stroke-miterlimit="10" stroke-width="0.25"/>
      <line x1="451.49" y1="485.26" x2="453.15" y2="485.26" fill="none" stroke="#000" stroke-miterlimit="10" stroke-width="0.25"/>
      <line x1="451.49" y1="485.87" x2="453.15" y2="485.87" fill="none" stroke="#000" stroke-miterlimit="10" stroke-width="0.25"/>
      <line x1="455.97" y1="483.99" x2="455.97" y2="486.35" fill="none" stroke="#000" stroke-miterlimit="10" stroke-width="0.25"/>
      <line x1="455.02" y1="484.6" x2="456.92" y2="484.6" fill="none" stroke="#000" stroke-miterlimit="10" stroke-width="0.25"/>
      <line x1="455.02" y1="485.26" x2="456.92" y2="485.26" fill="none" stroke="#000" stroke-miterlimit="10" stroke-width="0.25"/>
      <line x1="455.02" y1="485.87" x2="456.92" y2="485.87" fill="none" stroke="#000" stroke-miterlimit="10" stroke-width="0.25"/>
      <line x1="458.96" y1="483.99" x2="458.96" y2="486.35" fill="none" stroke="#000" stroke-miterlimit="10" stroke-width="0.25"/>
      <line x1="458.07" y1="484.6" x2="459.85" y2="484.6" fill="none" stroke="#000" stroke-miterlimit="10" stroke-width="0.25"/>
      <line x1="458.07" y1="485.17" x2="459.85" y2="485.19" fill="none" stroke="#000" stroke-miterlimit="10" stroke-width="0.25"/>
      <line x1="458.07" y1="485.87" x2="459.85" y2="485.87" fill="none" stroke="#000" stroke-miterlimit="10" stroke-width="0.25"/>
      <line x1="449.4" y1="487.53" x2="449.4" y2="488.16" fill="none" stroke="#000" stroke-miterlimit="10" stroke-width="0.25"/>
      <line x1="448.71" y1="487.84" x2="450.09" y2="487.84" fill="none" stroke="#000" stroke-miterlimit="10" stroke-width="0.25"/>
      <line x1="452.36" y1="487.5" x2="452.36" y2="488.16" fill="none" stroke="#000" stroke-miterlimit="10" stroke-width="0.25"/>
      <line x1="453.07" y1="487.84" x2="451.73" y2="487.84" fill="none" stroke="#000" stroke-miterlimit="10" stroke-width="0.25"/>
      <line x1="456.01" y1="487.35" x2="456.01" y2="488.16" fill="none" stroke="#000" stroke-miterlimit="10" stroke-width="0.25"/>
      <line x1="455.35" y1="487.83" x2="456.74" y2="487.84" fill="none" stroke="#000" stroke-miterlimit="10" stroke-width="0.25"/>
      <line x1="458.96" y1="487.39" x2="458.96" y2="488.16" fill="none" stroke="#000" stroke-miterlimit="10" stroke-width="0.25"/>
      <line x1="458.07" y1="487.78" x2="459.55" y2="487.78" fill="none" stroke="#000" stroke-miterlimit="10" stroke-width="0.25"/>
    </g>
    <g id="Lag_27" data-name="Lag 27">
      <polygon points="442.57 483.48 442.57 476.93 442.09 476.05 443.6 476.05 443.3 476.93 443.3 483.48 442.57 483.48" fill="#b7896a" stroke="#000" stroke-miterlimit="10" stroke-width="0.25"/>
      <polyline points="443.6 476.05 443.84 476.93 443.84 483.48 444.34 483.48 444.34 476.93 444.75 476.05" fill="#b7896a" stroke="#000" stroke-miterlimit="10" stroke-width="0.25"/>
      <polyline points="446.74 476.05 447.1 477 446.92 483.48 447.77 483.48 447.77 477 448.1 476.05" fill="#b7896a" stroke="#000" stroke-miterlimit="10" stroke-width="0.25"/>
    </g>
    <g id="Lag_28" data-name="Lag 28">
      <polygon points="430.82 469.01 430.7 471.28 431.52 471.24 431.52 469.01 430.82 469.01" fill="#c6b8af" stroke="#000" stroke-miterlimit="10" stroke-width="0.25"/>
      <path d="M435.23,469a11.78,11.78,0,0,0-.18,2.18h.82L436,469Z" fill="#c6b8af" stroke="#000" stroke-miterlimit="10" stroke-width="0.25"/>
      <polyline points="445.83 471.28 446.61 471.28 446.61 469.01 445.73 469.01 445.83 471.28" fill="#c6b8af" stroke="#000" stroke-miterlimit="10" stroke-width="0.25"/>
      <polygon points="449.62 469.01 450.73 469.01 450.82 471.28 449.62 471.28 449.62 469.01" fill="#c6b8af" stroke="#000" stroke-miterlimit="10" stroke-width="0.25"/>
    </g>
    <g id="Lag_29" data-name="Lag 29">
      <line x1="423.57" y1="476.38" x2="423.57" y2="477.62" fill="none" stroke="#000" stroke-miterlimit="10" stroke-width="0.25"/>
      <line x1="422.67" y1="476.72" x2="424.48" y2="476.72" fill="none" stroke="#000" stroke-miterlimit="10" stroke-width="0.25"/>
      <line x1="424.48" y1="477.18" x2="422.67" y2="477.18" fill="none" stroke="#000" stroke-miterlimit="10" stroke-width="0.25"/>
      <line x1="426.49" y1="476.38" x2="426.49" y2="477.62" fill="none" stroke="#000" stroke-miterlimit="10" stroke-width="0.25"/>
      <line x1="425.57" y1="476.72" x2="427.29" y2="476.72" fill="none" stroke="#000" stroke-miterlimit="10" stroke-width="0.25"/>
      <line x1="427.29" y1="477.18" x2="425.57" y2="477.18" fill="none" stroke="#000" stroke-miterlimit="10" stroke-width="0.25"/>
      <line x1="430.16" y1="476.38" x2="430.16" y2="477.62" fill="none" stroke="#000" stroke-miterlimit="10" stroke-width="0.25"/>
      <line x1="430.97" y1="476.72" x2="429.34" y2="476.72" fill="none" stroke="#000" stroke-miterlimit="10" stroke-width="0.25"/>
      <line x1="429.34" y1="477.18" x2="430.97" y2="477.18" fill="none" stroke="#000" stroke-miterlimit="10" stroke-width="0.25"/>
    </g>
    <g id="Lag_10" data-name="Lag 10">
      <rect x="422.67" y="476.38" width="1.81" height="1.24" fill="none" stroke="#000" stroke-miterlimit="10" stroke-width="0.25"/>
      <rect x="425.57" y="476.38" width="1.72" height="1.24" fill="none" stroke="#000" stroke-miterlimit="10" stroke-width="0.25"/>
      <rect x="422.67" y="479.52" width="1.81" height="2.75" fill="none" stroke="#000" stroke-miterlimit="10" stroke-width="0.25"/>
      <rect x="425.69" y="479.52" width="1.75" height="2.75" fill="none" stroke="#000" stroke-miterlimit="10" stroke-width="0.25"/>
      <rect x="422.52" y="484.05" width="1.81" height="2.45" fill="none" stroke="#000" stroke-miterlimit="10" stroke-width="0.25"/>
      <rect x="425.69" y="484.05" width="1.6" height="2.45" fill="none" stroke="#000" stroke-miterlimit="10" stroke-width="0.25"/>
      <rect x="422.85" y="487.62" width="1.3" height="0.66" fill="none" stroke="#000" stroke-miterlimit="10" stroke-width="0.25"/>
      <rect x="425.84" y="487.62" width="1.45" height="0.66" fill="none" stroke="#000" stroke-miterlimit="10" stroke-width="0.25"/>
    </g>
    <g id="Lag_11" data-name="Lag 11">
      <rect x="429.34" y="476.38" width="1.63" height="1.24" fill="none" stroke="#000" stroke-miterlimit="10" stroke-width="0.25"/>
      <rect x="432.45" y="476.38" width="1.55" height="1.24" fill="none" stroke="#000" stroke-miterlimit="10" stroke-width="0.25"/>
      <rect x="429.34" y="479.52" width="1.63" height="2.75" fill="none" stroke="#000" stroke-miterlimit="10" stroke-width="0.25"/>
      <rect x="432.24" y="479.52" width="1.75" height="2.75" fill="none" stroke="#000" stroke-miterlimit="10" stroke-width="0.25"/>
      <polyline points="429.34 484.06 429.34 486.5 431.1 486.5 431.1 484.06 429.49 484.06" fill="none" stroke="#000" stroke-miterlimit="10" stroke-width="0.25"/>
      <rect x="432.24" y="484.05" width="1.75" height="2.45" fill="none" stroke="#000" stroke-miterlimit="10" stroke-width="0.25"/>
      <rect x="429.52" y="487.62" width="1.3" height="0.66" fill="none" stroke="#000" stroke-miterlimit="10" stroke-width="0.25"/>
      <rect x="432.45" y="487.62" width="1.43" height="0.66" fill="none" stroke="#000" stroke-miterlimit="10" stroke-width="0.25"/>
    </g>
    <g id="Lag_8" data-name="Lag 8">
      <path d="M436,482.78v-4.14s.84-1.42,1.72,0v4.14Z" fill="none" stroke="#000" stroke-miterlimit="10" stroke-width="0.25"/>
      <path d="M440.37,482.78v-4s.75-1.93,1.72,0v4Z" fill="none" stroke="#000" stroke-miterlimit="10" stroke-width="0.25"/>
      <path d="M444.75,482.78v-4.11s.7-1.81,1.69,0v4.11Z" fill="none" stroke="#000" stroke-miterlimit="10" stroke-width="0.25"/>
    </g>
    <g id="Lag_12" data-name="Lag 12">
      <path d="M436,488.16v-3.44s.82-1.54,1.72,0v3.44Z" fill="none" stroke="#000" stroke-miterlimit="10" stroke-width="0.25"/>
      <path d="M440.37,488.16v-3.38s.63-1.87,2,0v3.38Z" fill="none" stroke="#000" stroke-miterlimit="10" stroke-width="0.25"/>
      <path d="M445,488.16v-3.38s.91-1.78,1.42,0v3.38Z" fill="none" stroke="#000" stroke-miterlimit="10" stroke-width="0.25"/>
    </g>
    <g id="Lag_13" data-name="Lag 13">
      <rect x="448.55" y="476.41" width="1.54" height="1.03" fill="none" stroke="#000" stroke-miterlimit="10" stroke-width="0.25"/>
      <rect x="451.49" y="476.41" width="1.51" height="1.03" fill="none" stroke="#000" stroke-miterlimit="10" stroke-width="0.25"/>
      <polyline points="455.17 477.44 456.67 477.44 456.67 476.41 455.02 476.41 455.02 477.44" fill="none" stroke="#000" stroke-miterlimit="10" stroke-width="0.25"/>
      <rect x="458.07" y="476.41" width="1.48" height="1.03" fill="none" stroke="#000" stroke-miterlimit="10" stroke-width="0.25"/>
    </g>
    <g id="Lag_14" data-name="Lag 14">
      <rect x="448.55" y="479.37" width="1.54" height="2.87" fill="none" stroke="#000" stroke-miterlimit="10" stroke-width="0.25"/>
      <rect x="451.49" y="479.37" width="1.66" height="2.87" fill="none" stroke="#000" stroke-miterlimit="10" stroke-width="0.25"/>
      <rect x="455.02" y="479.37" width="1.65" height="2.87" fill="none" stroke="#000" stroke-miterlimit="10" stroke-width="0.25"/>
      <rect x="458.07" y="479.37" width="1.48" height="2.75" fill="none" stroke="#000" stroke-miterlimit="10" stroke-width="0.25"/>
    </g>
    <g id="Lag_15" data-name="Lag 15">
      <rect x="448.55" y="484.03" width="1.54" height="2.32" fill="none" stroke="#000" stroke-miterlimit="10" stroke-width="0.25"/>
      <rect x="451.49" y="484.03" width="1.66" height="2.32" fill="none" stroke="#000" stroke-miterlimit="10" stroke-width="0.25"/>
      <polygon points="455.02 486.35 455.02 483.95 456.93 483.99 456.93 486.35 455.02 486.35" fill="none" stroke="#000" stroke-miterlimit="10" stroke-width="0.25"/>
      <polygon points="458.07 486.35 458.07 483.99 459.85 484.04 459.85 486.35 458.07 486.35" fill="none" stroke="#000" stroke-miterlimit="10" stroke-width="0.25"/>
    </g>
    <g id="Lag_16" data-name="Lag 16">
      <rect x="448.71" y="487.53" width="1.39" height="0.63" fill="none" stroke="#000" stroke-miterlimit="10" stroke-width="0.25"/>
      <path d="M451.73,488.16v-.66H453v.66Z" fill="none" stroke="#000" stroke-miterlimit="10" stroke-width="0.25"/>
      <rect x="455.35" y="487.35" width="1.32" height="0.82" fill="none" stroke="#000" stroke-miterlimit="10" stroke-width="0.25"/>
      <rect x="458.07" y="487.35" width="1.48" height="0.82" fill="none" stroke="#000" stroke-miterlimit="10" stroke-width="0.25"/>
    </g>
    <g id="Lag_4" data-name="Lag 4">
      <polygon points="425.31 473.68 430.7 470.92 430.7 471.28 431.52 471.24 431.52 470.92 435.05 470.92 435.05 471.19 435.87 471.19 435.87 470.92 439.58 470.92 439.31 471.7 438.95 472.3 438.13 473.31 435.59 473.31 434.69 473.31 434.69 473.82 425.31 473.68" fill="#352f2a" stroke="#000" stroke-miterlimit="10" stroke-width="0.25"/>
    </g>
    <g id="Lag_5" data-name="Lag 5">
      <polygon points="442.57 470.92 444.11 473.27 447.74 473.27 447.79 473.86 456.67 473.86 450.91 470.92 450.82 471.28 450 471.28 449.87 470.92 446.61 470.92 446.61 471.28 445.83 471.28 445.61 470.92 442.57 470.92" fill="#2d2825" stroke="#000" stroke-miterlimit="10" stroke-width="0.25"/>
    </g>
    <g id="Lag_3" data-name="Lag 3">
      <polygon points="421.37 473.86 421.37 474.22 421.37 475.13 434.33 475.27 434.24 474.77 448.19 474.54 448.1 474.9 460.88 474.9 460.88 473.86 447.79 473.86 447.74 473.27 434.69 473.27 434.69 473.77 421.37 473.86" fill="#564f4f" stroke="#000" stroke-miterlimit="10" stroke-width="0.25"/>
      <line x1="441.19" y1="473.57" x2="441.21" y2="473.96" fill="none" stroke="#000" stroke-miterlimit="10" stroke-width="0.25"/>
    </g>
    <g id="Lag_25" data-name="Lag 25">
      <g id="Lag_33" data-name="Lag 33">
        <circle cx="441.21" cy="473.96" r="0.69" transform="translate(-201.77 397.29) rotate(-40.25)" fill="#fffefd" stroke="#000" stroke-miterlimit="10" stroke-width="0.25"/>
      </g>
    </g>
  </g>
</svg>
