<svg id="Lag_9" data-name="Lag 9" xmlns="http://www.w3.org/2000/svg" width="751.3" height="622" viewBox="0 0 751.3 622">
  <title>borg</title>
  <g>
    <g id="Lag_23" data-name="Lag 23">
      <polyline points="422.4 477.36 425.63 477.36 425.63 484.1 425.37 485.27 426.75 485.27 426.32 484.1 426.43 477.36 426.8 476.04" fill="none" stroke="#000" stroke-miterlimit="10" stroke-width="0.25"/>
    </g>
    <g id="Lag_2" data-name="Lag 2">
      <polygon points="394.85 476.3 395.54 476.94 395.2 492.17 409.92 492.17 409.5 492.59 428.07 492.59 427.22 491.85 442.14 491.9 441.82 476.72 442.56 476.04 426.8 476.04 426.91 475.61 410.56 475.87 410.67 476.46 394.85 476.3" fill="#ce9c76" stroke="#000" stroke-miterlimit="10" stroke-width="0.25"/>
      <line x1="408.53" y1="478.16" x2="410.28" y2="478.16" fill="none" stroke="#000" stroke-miterlimit="10" stroke-width="0.25"/>
      <line x1="408.47" y1="478.8" x2="410.28" y2="478.8" fill="none" stroke="#000" stroke-miterlimit="10" stroke-width="0.25"/>
      <line x1="409.4" y1="477.77" x2="409.4" y2="479.22" fill="none" stroke="#000" stroke-miterlimit="10" stroke-width="0.25"/>
      <line x1="409.25" y1="486.75" x2="409.25" y2="489.69" fill="none" stroke="#000" stroke-miterlimit="10" stroke-width="0.25"/>
      <line x1="408.23" y1="487.52" x2="410.28" y2="487.52" fill="none" stroke="#000" stroke-miterlimit="10" stroke-width="0.25"/>
      <line x1="408.23" y1="488.22" x2="410.28" y2="488.22" fill="none" stroke="#000" stroke-miterlimit="10" stroke-width="0.25"/>
      <line x1="408.23" y1="489.05" x2="410.28" y2="489.05" fill="none" stroke="#000" stroke-miterlimit="10" stroke-width="0.25"/>
      <line x1="397.99" y1="490.93" x2="397.99" y2="491.71" fill="none" stroke="#000" stroke-miterlimit="10" stroke-width="0.25"/>
      <line x1="398.75" y1="491.32" x2="397.23" y2="491.32" fill="none" stroke="#000" stroke-miterlimit="10" stroke-width="0.25"/>
      <line x1="401.58" y1="490.93" x2="401.58" y2="491.71" fill="none" stroke="#000" stroke-miterlimit="10" stroke-width="0.25"/>
      <line x1="402.43" y1="491.32" x2="400.73" y2="491.32" fill="none" stroke="#000" stroke-miterlimit="10" stroke-width="0.25"/>
      <line x1="405.8" y1="490.93" x2="405.8" y2="491.71" fill="none" stroke="#000" stroke-miterlimit="10" stroke-width="0.25"/>
      <line x1="405.04" y1="491.32" x2="406.57" y2="491.32" fill="none" stroke="#000" stroke-miterlimit="10" stroke-width="0.25"/>
      <line x1="409.3" y1="490.93" x2="409.3" y2="491.71" fill="none" stroke="#000" stroke-miterlimit="10" stroke-width="0.25"/>
      <line x1="408.47" y1="491.32" x2="410.14" y2="491.32" fill="none" stroke="#000" stroke-miterlimit="10" stroke-width="0.25"/>
      <line x1="412.62" y1="487.67" x2="414.63" y2="487.66" fill="none" stroke="#000" stroke-miterlimit="10" stroke-width="0.25"/>
      <line x1="412.62" y1="487.53" x2="414.63" y2="487.53" fill="none" stroke="#000" stroke-miterlimit="10"/>
    </g>
    <g id="Lag_30" data-name="Lag 30">
      <line x1="398.07" y1="481.44" x2="398.07" y2="484.67" fill="none" stroke="#000" stroke-miterlimit="10" stroke-width="0.25"/>
      <line x1="397.01" y1="481.94" x2="399.14" y2="481.94" fill="none" stroke="#000" stroke-miterlimit="10" stroke-width="0.25"/>
      <line x1="397.01" y1="482.48" x2="399.2" y2="482.48" fill="none" stroke="#000" stroke-miterlimit="10" stroke-width="0.25"/>
      <line x1="397.01" y1="483.06" x2="399.2" y2="483.06" fill="none" stroke="#000" stroke-miterlimit="10" stroke-width="0.25"/>
      <line x1="397.01" y1="483.71" x2="399.14" y2="483.71" fill="none" stroke="#000" stroke-miterlimit="10" stroke-width="0.25"/>
      <line x1="397.01" y1="484.28" x2="399.14" y2="484.28" fill="none" stroke="#000" stroke-miterlimit="10" stroke-width="0.25"/>
      <line x1="401.58" y1="481.44" x2="401.58" y2="484.67" fill="none" stroke="#000" stroke-miterlimit="10" stroke-width="0.25"/>
      <line x1="400.55" y1="481.94" x2="402.6" y2="481.94" fill="none" stroke="#000" stroke-miterlimit="10" stroke-width="0.25"/>
      <line x1="400.55" y1="482.48" x2="402.6" y2="482.48" fill="none" stroke="#000" stroke-miterlimit="10" stroke-width="0.25"/>
      <line x1="400.55" y1="483.06" x2="402.6" y2="483.06" fill="none" stroke="#000" stroke-miterlimit="10" stroke-width="0.25"/>
      <line x1="400.55" y1="483.71" x2="402.67" y2="483.71" fill="none" stroke="#000" stroke-miterlimit="10" stroke-width="0.25"/>
      <line x1="400.55" y1="484.28" x2="402.67" y2="484.28" fill="none" stroke="#000" stroke-miterlimit="10" stroke-width="0.25"/>
      <line x1="405.86" y1="481.44" x2="405.86" y2="484.67" fill="none" stroke="#000" stroke-miterlimit="10" stroke-width="0.25"/>
      <line x1="404.83" y1="481.94" x2="406.74" y2="481.94" fill="none" stroke="#000" stroke-miterlimit="10" stroke-width="0.25"/>
      <line x1="404.83" y1="482.58" x2="406.74" y2="482.58" fill="none" stroke="#000" stroke-miterlimit="10" stroke-width="0.25"/>
      <line x1="404.83" y1="483.32" x2="406.74" y2="483.3" fill="none" stroke="#000" stroke-miterlimit="10" stroke-width="0.25"/>
      <line x1="404.83" y1="484.1" x2="406.74" y2="484.1" fill="none" stroke="#000" stroke-miterlimit="10" stroke-width="0.25"/>
      <line x1="409.25" y1="481.44" x2="409.25" y2="484.67" fill="none" stroke="#000" stroke-miterlimit="10" stroke-width="0.25"/>
      <line x1="408.23" y1="481.94" x2="410.28" y2="481.94" fill="none" stroke="#000" stroke-miterlimit="10" stroke-width="0.25"/>
      <line x1="408.23" y1="482.58" x2="410.28" y2="482.58" fill="none" stroke="#000" stroke-miterlimit="10" stroke-width="0.25"/>
      <line x1="408.23" y1="483.3" x2="410.28" y2="483.3" fill="none" stroke="#000" stroke-miterlimit="10" stroke-width="0.25"/>
      <line x1="408.23" y1="484.1" x2="410.28" y2="484.1" fill="none" stroke="#000" stroke-miterlimit="10" stroke-width="0.25"/>
    </g>
    <g id="Lag_31" data-name="Lag 31">
      <line x1="397.9" y1="486.73" x2="397.9" y2="489.62" fill="none" stroke="#000" stroke-miterlimit="10" stroke-width="0.25"/>
      <line x1="396.83" y1="487.52" x2="398.96" y2="487.52" fill="none" stroke="#000" stroke-miterlimit="10" stroke-width="0.25"/>
      <line x1="396.83" y1="488.36" x2="398.96" y2="488.36" fill="none" stroke="#000" stroke-miterlimit="10" stroke-width="0.25"/>
      <line x1="396.83" y1="489.05" x2="398.96" y2="489.05" fill="none" stroke="#000" stroke-miterlimit="10" stroke-width="0.25"/>
      <line x1="401.49" y1="486.75" x2="401.49" y2="489.62" fill="none" stroke="#000" stroke-miterlimit="10" stroke-width="0.25"/>
      <line x1="400.55" y1="487.29" x2="402.43" y2="487.29" fill="none" stroke="#000" stroke-miterlimit="10" stroke-width="0.25"/>
      <line x1="400.55" y1="487.99" x2="402.43" y2="487.99" fill="none" stroke="#000" stroke-miterlimit="10" stroke-width="0.25"/>
      <line x1="400.55" y1="488.91" x2="402.43" y2="488.91" fill="none" stroke="#000" stroke-miterlimit="10" stroke-width="0.25"/>
      <line x1="405.86" y1="486.73" x2="405.86" y2="489.62" fill="none" stroke="#000" stroke-miterlimit="10" stroke-width="0.25"/>
      <line x1="404.83" y1="487.29" x2="406.95" y2="487.29" fill="none" stroke="#000" stroke-miterlimit="10" stroke-width="0.25"/>
      <line x1="404.83" y1="488.08" x2="406.95" y2="488.08" fill="none" stroke="#000" stroke-miterlimit="10" stroke-width="0.25"/>
      <line x1="404.83" y1="488.91" x2="406.95" y2="488.91" fill="none" stroke="#000" stroke-miterlimit="10" stroke-width="0.25"/>
    </g>
    <g id="Lag_19" data-name="Lag 19">
      <polyline points="416.82 471.37 417.74 471.1 418.31 469.14 419.16 469.14 419.76 471.05 420.32 471.37 422.13 474.13 415.13 474.13 416.82 471.37" fill="#514a44" stroke="#000" stroke-miterlimit="10" stroke-width="0.25"/>
      <polygon points="395.58 477.37 441.81 477.37 441.86 476.54 442.61 475.54 394.9 475.93 395.58 477.37" fill="#845b3c" stroke="#000" stroke-miterlimit="10" stroke-width="0.25"/>
      <rect x="410.84" y="486.08" width="15.57" height="6.51" fill="#b7896a" stroke="#000" stroke-miterlimit="10"/>
      <polygon points="410.85 477.37 411.34 478.4 411.34 486.08 412.05 486.08 412.05 478.4 412.62 477.37 410.85 477.37" fill="#b7896a" stroke="#000" stroke-miterlimit="10" stroke-width="0.25"/>
      <polyline points="414.88 477.37 415.13 478.4 415.13 486.08 416.08 486.08 416.08 478.4 416.5 477.37 416.82 478.4 416.82 486.08 417.43 486.08 417.43 478.4 417.74 477.37" fill="#b7896a" stroke="#000" stroke-miterlimit="10" stroke-width="0.25"/>
      <line x1="412.62" y1="487.53" x2="414.63" y2="487.53" fill="none" stroke="#000" stroke-miterlimit="10" stroke-width="0.25"/>
      <line x1="412.62" y1="490.93" x2="414.63" y2="490.93" fill="none" stroke="#000" stroke-miterlimit="10" stroke-width="0.25"/>
      <line x1="413.62" y1="487.52" x2="413.62" y2="491.57" fill="none" stroke="#000" stroke-miterlimit="10" stroke-width="0.25"/>
    </g>
    <g id="Lag_32" data-name="Lag 32">
      <line x1="417.74" y1="487.6" x2="420.05" y2="487.6" fill="none" stroke="#000" stroke-miterlimit="10" stroke-width="0.25"/>
      <line x1="417.74" y1="491.02" x2="420.05" y2="491.02" fill="none" stroke="#000" stroke-miterlimit="10" stroke-width="0.25"/>
      <line x1="418.98" y1="487.6" x2="419" y2="491.57" fill="none" stroke="#000" stroke-miterlimit="10" stroke-width="0.25"/>
      <line x1="424.86" y1="487.6" x2="423.19" y2="487.6" fill="none" stroke="#000" stroke-miterlimit="10" stroke-width="0.25"/>
      <line x1="423.19" y1="491.02" x2="424.86" y2="491.02" fill="none" stroke="#000" stroke-miterlimit="10" stroke-width="0.25"/>
      <line x1="424.02" y1="487.6" x2="424.02" y2="491.57" fill="none" stroke="#000" stroke-miterlimit="10" stroke-width="0.25"/>
      <line x1="412.62" y1="480.42" x2="414.63" y2="480.42" fill="none" stroke="#000" stroke-miterlimit="10" stroke-width="0.25"/>
      <line x1="412.62" y1="484.54" x2="414.63" y2="484.54" fill="none" stroke="#000" stroke-miterlimit="10" stroke-width="0.25"/>
      <line x1="413.62" y1="480.42" x2="413.62" y2="485.27" fill="none" stroke="#000" stroke-miterlimit="10" stroke-width="0.25"/>
      <line x1="417.74" y1="480.6" x2="419.76" y2="480.6" fill="none" stroke="#000" stroke-miterlimit="10" stroke-width="0.25"/>
      <line x1="417.74" y1="484.54" x2="419.76" y2="484.54" fill="none" stroke="#000" stroke-miterlimit="10" stroke-width="0.25"/>
      <line x1="418.75" y1="480.6" x2="418.75" y2="485.27" fill="none" stroke="#000" stroke-miterlimit="10" stroke-width="0.25"/>
      <line x1="422.87" y1="480.46" x2="424.86" y2="480.46" fill="none" stroke="#000" stroke-miterlimit="10" stroke-width="0.25"/>
      <line x1="422.87" y1="484.54" x2="424.86" y2="484.54" fill="none" stroke="#000" stroke-miterlimit="10" stroke-width="0.25"/>
      <line x1="423.87" y1="480.42" x2="423.87" y2="485.27" fill="none" stroke="#000" stroke-miterlimit="10" stroke-width="0.25"/>
      <line x1="427.33" y1="478.24" x2="429.13" y2="478.24" fill="none" stroke="#000" stroke-miterlimit="10" stroke-width="0.25"/>
      <line x1="427.33" y1="478.67" x2="429.13" y2="478.67" fill="none" stroke="#000" stroke-miterlimit="10" stroke-width="0.25"/>
      <line x1="428.23" y1="477.8" x2="428.23" y2="479" fill="none" stroke="#000" stroke-miterlimit="10" stroke-width="0.25"/>
      <line x1="430.77" y1="478.24" x2="432.53" y2="478.24" fill="none" stroke="#000" stroke-miterlimit="10" stroke-width="0.25"/>
      <line x1="430.77" y1="478.67" x2="432.53" y2="478.67" fill="none" stroke="#000" stroke-miterlimit="10" stroke-width="0.25"/>
      <line x1="431.65" y1="477.8" x2="431.65" y2="479" fill="none" stroke="#000" stroke-miterlimit="10" stroke-width="0.25"/>
      <line x1="434.9" y1="478.24" x2="436.83" y2="478.24" fill="none" stroke="#000" stroke-miterlimit="10" stroke-width="0.25"/>
      <line x1="434.9" y1="478.67" x2="436.83" y2="478.67" fill="none" stroke="#000" stroke-miterlimit="10" stroke-width="0.25"/>
      <line x1="435.87" y1="477.8" x2="435.87" y2="479" fill="none" stroke="#000" stroke-miterlimit="10" stroke-width="0.25"/>
      <line x1="438.48" y1="478.24" x2="440.3" y2="478.24" fill="none" stroke="#000" stroke-miterlimit="10" stroke-width="0.25"/>
      <line x1="438.48" y1="478.67" x2="440.21" y2="478.67" fill="none" stroke="#000" stroke-miterlimit="10" stroke-width="0.25"/>
      <line x1="439.34" y1="477.8" x2="439.34" y2="479.11" fill="none" stroke="#000" stroke-miterlimit="10" stroke-width="0.25"/>
      <line x1="428.23" y1="481.27" x2="428.23" y2="484.7" fill="none" stroke="#000" stroke-miterlimit="10" stroke-width="0.25"/>
      <line x1="427.33" y1="481.73" x2="429.13" y2="481.73" fill="none" stroke="#000" stroke-miterlimit="10" stroke-width="0.25"/>
      <line x1="427.33" y1="482.39" x2="429.13" y2="482.39" fill="none" stroke="#000" stroke-miterlimit="10" stroke-width="0.25"/>
      <line x1="427.33" y1="483.14" x2="429.13" y2="483.14" fill="none" stroke="#000" stroke-miterlimit="10" stroke-width="0.25"/>
      <line x1="427.33" y1="483.92" x2="429.13" y2="483.92" fill="none" stroke="#000" stroke-miterlimit="10" stroke-width="0.25"/>
      <line x1="431.74" y1="481.27" x2="431.74" y2="484.63" fill="none" stroke="#000" stroke-miterlimit="10" stroke-width="0.25"/>
      <line x1="430.77" y1="481.91" x2="432.71" y2="481.91" fill="none" stroke="#000" stroke-miterlimit="10" stroke-width="0.25"/>
      <line x1="430.77" y1="482.65" x2="432.71" y2="482.65" fill="none" stroke="#000" stroke-miterlimit="10" stroke-width="0.25"/>
      <line x1="430.77" y1="483.39" x2="432.71" y2="483.38" fill="none" stroke="#000" stroke-miterlimit="10" stroke-width="0.25"/>
      <line x1="430.77" y1="484.1" x2="432.71" y2="484.1" fill="none" stroke="#000" stroke-miterlimit="10" stroke-width="0.25"/>
      <line x1="435.87" y1="481.27" x2="435.87" y2="484.63" fill="none" stroke="#000" stroke-miterlimit="10" stroke-width="0.25"/>
      <line x1="434.9" y1="481.91" x2="436.83" y2="481.91" fill="none" stroke="#000" stroke-miterlimit="10" stroke-width="0.25"/>
      <line x1="434.9" y1="482.65" x2="436.83" y2="482.65" fill="none" stroke="#000" stroke-miterlimit="10" stroke-width="0.25"/>
      <line x1="434.9" y1="483.41" x2="436.83" y2="483.41" fill="none" stroke="#000" stroke-miterlimit="10" stroke-width="0.25"/>
      <line x1="434.9" y1="484.1" x2="436.83" y2="484.1" fill="none" stroke="#000" stroke-miterlimit="10" stroke-width="0.25"/>
      <line x1="439.39" y1="481.27" x2="439.39" y2="484.54" fill="none" stroke="#000" stroke-miterlimit="10" stroke-width="0.25"/>
      <line x1="438.48" y1="482.03" x2="440.21" y2="482.03" fill="none" stroke="#000" stroke-miterlimit="10" stroke-width="0.25"/>
      <line x1="438.48" y1="482.72" x2="440.3" y2="482.72" fill="none" stroke="#000" stroke-miterlimit="10" stroke-width="0.25"/>
      <line x1="438.48" y1="483.69" x2="440.21" y2="483.69" fill="none" stroke="#000" stroke-miterlimit="10" stroke-width="0.25"/>
      <line x1="428.23" y1="486.67" x2="428.23" y2="489.44" fill="none" stroke="#000" stroke-miterlimit="10" stroke-width="0.25"/>
      <line x1="427.33" y1="487.39" x2="429.13" y2="487.39" fill="none" stroke="#000" stroke-miterlimit="10" stroke-width="0.25"/>
      <line x1="427.33" y1="488.17" x2="429.13" y2="488.17" fill="none" stroke="#000" stroke-miterlimit="10" stroke-width="0.25"/>
      <line x1="427.33" y1="488.87" x2="429.13" y2="488.87" fill="none" stroke="#000" stroke-miterlimit="10" stroke-width="0.25"/>
      <line x1="431.79" y1="486.73" x2="431.79" y2="489.44" fill="none" stroke="#000" stroke-miterlimit="10" stroke-width="0.25"/>
      <line x1="430.77" y1="487.39" x2="432.71" y2="487.39" fill="none" stroke="#000" stroke-miterlimit="10" stroke-width="0.25"/>
      <line x1="430.77" y1="488.17" x2="432.71" y2="488.17" fill="none" stroke="#000" stroke-miterlimit="10" stroke-width="0.25"/>
      <line x1="430.77" y1="488.87" x2="432.71" y2="488.87" fill="none" stroke="#000" stroke-miterlimit="10" stroke-width="0.25"/>
      <line x1="436.02" y1="486.67" x2="436.02" y2="489.44" fill="none" stroke="#000" stroke-miterlimit="10" stroke-width="0.25"/>
      <line x1="434.9" y1="487.39" x2="437.13" y2="487.39" fill="none" stroke="#000" stroke-miterlimit="10" stroke-width="0.25"/>
      <line x1="434.9" y1="488.17" x2="437.13" y2="488.17" fill="none" stroke="#000" stroke-miterlimit="10" stroke-width="0.25"/>
      <line x1="434.9" y1="488.87" x2="437.13" y2="488.87" fill="none" stroke="#000" stroke-miterlimit="10" stroke-width="0.25"/>
      <line x1="439.52" y1="486.67" x2="439.52" y2="489.44" fill="none" stroke="#000" stroke-miterlimit="10" stroke-width="0.25"/>
      <line x1="438.48" y1="487.39" x2="440.56" y2="487.39" fill="none" stroke="#000" stroke-miterlimit="10" stroke-width="0.25"/>
      <line x1="438.48" y1="488.06" x2="440.56" y2="488.08" fill="none" stroke="#000" stroke-miterlimit="10" stroke-width="0.25"/>
      <line x1="438.48" y1="488.87" x2="440.56" y2="488.87" fill="none" stroke="#000" stroke-miterlimit="10" stroke-width="0.25"/>
      <line x1="428.32" y1="490.82" x2="428.32" y2="491.57" fill="none" stroke="#000" stroke-miterlimit="10" stroke-width="0.25"/>
      <line x1="427.51" y1="491.19" x2="429.13" y2="491.19" fill="none" stroke="#000" stroke-miterlimit="10" stroke-width="0.25"/>
      <line x1="431.79" y1="490.78" x2="431.79" y2="491.57" fill="none" stroke="#000" stroke-miterlimit="10" stroke-width="0.25"/>
      <line x1="432.62" y1="491.19" x2="431.05" y2="491.19" fill="none" stroke="#000" stroke-miterlimit="10" stroke-width="0.25"/>
      <line x1="436.06" y1="490.61" x2="436.06" y2="491.57" fill="none" stroke="#000" stroke-miterlimit="10" stroke-width="0.25"/>
      <line x1="435.29" y1="491.18" x2="436.92" y2="491.19" fill="none" stroke="#000" stroke-miterlimit="10" stroke-width="0.25"/>
      <line x1="439.52" y1="490.66" x2="439.52" y2="491.57" fill="none" stroke="#000" stroke-miterlimit="10" stroke-width="0.25"/>
      <line x1="438.48" y1="491.12" x2="440.21" y2="491.12" fill="none" stroke="#000" stroke-miterlimit="10" stroke-width="0.25"/>
    </g>
    <g id="Lag_27" data-name="Lag 27">
      <polygon points="420.32 486.08 420.32 478.4 419.76 477.37 421.53 477.37 421.17 478.4 421.17 486.08 420.32 486.08" fill="#b7896a" stroke="#000" stroke-miterlimit="10" stroke-width="0.25"/>
      <polyline points="421.53 477.37 421.81 478.4 421.81 486.08 422.4 486.08 422.4 478.4 422.87 477.37" fill="#b7896a" stroke="#000" stroke-miterlimit="10" stroke-width="0.25"/>
      <polyline points="425.21 477.37 425.63 478.49 425.42 486.08 426.41 486.08 426.41 478.49 426.8 477.37" fill="#b7896a" stroke="#000" stroke-miterlimit="10" stroke-width="0.25"/>
    </g>
    <g id="Lag_28" data-name="Lag 28">
      <polygon points="406.56 469.14 406.42 471.79 407.38 471.74 407.38 469.14 406.56 469.14" fill="#c6b8af" stroke="#000" stroke-miterlimit="10" stroke-width="0.25"/>
      <path d="M411.73,469.13a13.8,13.8,0,0,0-.21,2.55h1l.14-2.55Z" fill="#c6b8af" stroke="#000" stroke-miterlimit="10" stroke-width="0.25"/>
      <polyline points="424.15 471.79 425.05 471.79 425.05 469.14 424.02 469.14 424.15 471.79" fill="#c6b8af" stroke="#000" stroke-miterlimit="10" stroke-width="0.25"/>
      <polygon points="428.58 469.14 429.88 469.14 429.98 471.79 428.58 471.79 428.58 469.14" fill="#c6b8af" stroke="#000" stroke-miterlimit="10" stroke-width="0.25"/>
    </g>
    <g id="Lag_29" data-name="Lag 29">
      <line x1="398.07" y1="477.77" x2="398.07" y2="479.22" fill="none" stroke="#000" stroke-miterlimit="10" stroke-width="0.25"/>
      <line x1="397.01" y1="478.16" x2="399.14" y2="478.16" fill="none" stroke="#000" stroke-miterlimit="10" stroke-width="0.25"/>
      <line x1="399.14" y1="478.71" x2="397.01" y2="478.71" fill="none" stroke="#000" stroke-miterlimit="10" stroke-width="0.25"/>
      <line x1="401.49" y1="477.77" x2="401.49" y2="479.22" fill="none" stroke="#000" stroke-miterlimit="10" stroke-width="0.25"/>
      <line x1="400.41" y1="478.16" x2="402.43" y2="478.16" fill="none" stroke="#000" stroke-miterlimit="10" stroke-width="0.25"/>
      <line x1="402.43" y1="478.71" x2="400.41" y2="478.71" fill="none" stroke="#000" stroke-miterlimit="10" stroke-width="0.25"/>
      <line x1="405.78" y1="477.77" x2="405.78" y2="479.22" fill="none" stroke="#000" stroke-miterlimit="10" stroke-width="0.25"/>
      <line x1="406.74" y1="478.16" x2="404.83" y2="478.16" fill="none" stroke="#000" stroke-miterlimit="10" stroke-width="0.25"/>
      <line x1="404.83" y1="478.71" x2="406.74" y2="478.71" fill="none" stroke="#000" stroke-miterlimit="10" stroke-width="0.25"/>
    </g>
    <g id="Lag_10" data-name="Lag 10">
      <rect x="397.01" y="477.77" width="2.12" height="1.45" fill="none" stroke="#000" stroke-miterlimit="10" stroke-width="0.25"/>
      <rect x="400.41" y="477.77" width="2.02" height="1.45" fill="none" stroke="#000" stroke-miterlimit="10" stroke-width="0.25"/>
      <rect x="397.01" y="481.44" width="2.12" height="3.22" fill="none" stroke="#000" stroke-miterlimit="10" stroke-width="0.25"/>
      <rect x="400.55" y="481.44" width="2.05" height="3.22" fill="none" stroke="#000" stroke-miterlimit="10" stroke-width="0.25"/>
      <rect x="396.83" y="486.75" width="2.12" height="2.87" fill="none" stroke="#000" stroke-miterlimit="10" stroke-width="0.25"/>
      <rect x="400.55" y="486.75" width="1.88" height="2.87" fill="none" stroke="#000" stroke-miterlimit="10" stroke-width="0.25"/>
      <rect x="397.23" y="490.93" width="1.52" height="0.78" fill="none" stroke="#000" stroke-miterlimit="10" stroke-width="0.25"/>
      <rect x="400.73" y="490.93" width="1.7" height="0.78" fill="none" stroke="#000" stroke-miterlimit="10" stroke-width="0.25"/>
    </g>
    <g id="Lag_11" data-name="Lag 11">
      <rect x="404.83" y="477.77" width="1.91" height="1.45" fill="none" stroke="#000" stroke-miterlimit="10" stroke-width="0.25"/>
      <rect x="408.47" y="477.77" width="1.81" height="1.45" fill="none" stroke="#000" stroke-miterlimit="10" stroke-width="0.25"/>
      <rect x="404.83" y="481.44" width="1.91" height="3.22" fill="none" stroke="#000" stroke-miterlimit="10" stroke-width="0.25"/>
      <rect x="408.23" y="481.44" width="2.05" height="3.22" fill="none" stroke="#000" stroke-miterlimit="10" stroke-width="0.25"/>
      <polyline points="404.83 486.75 404.83 489.62 406.88 489.62 406.88 486.75 405.01 486.75" fill="none" stroke="#000" stroke-miterlimit="10" stroke-width="0.25"/>
      <rect x="408.23" y="486.75" width="2.05" height="2.87" fill="none" stroke="#000" stroke-miterlimit="10" stroke-width="0.25"/>
      <rect x="405.04" y="490.93" width="1.52" height="0.78" fill="none" stroke="#000" stroke-miterlimit="10" stroke-width="0.25"/>
      <rect x="408.47" y="490.93" width="1.67" height="0.78" fill="none" stroke="#000" stroke-miterlimit="10" stroke-width="0.25"/>
    </g>
    <g id="Lag_8" data-name="Lag 8">
      <path d="M412.61,485.27v-4.85s1-1.66,2,0v4.85Z" fill="none" stroke="#000" stroke-miterlimit="10" stroke-width="0.25"/>
      <path d="M417.74,485.27V480.6s.88-2.26,2,0v4.67Z" fill="none" stroke="#000" stroke-miterlimit="10" stroke-width="0.25"/>
      <path d="M422.87,485.27v-4.81s.82-2.12,2,0v4.81Z" fill="none" stroke="#000" stroke-miterlimit="10" stroke-width="0.25"/>
    </g>
    <g id="Lag_12" data-name="Lag 12">
      <path d="M412.61,491.56v-4s1-1.8,2,0v4Z" fill="none" stroke="#000" stroke-miterlimit="10" stroke-width="0.25"/>
      <path d="M417.74,491.56v-4s.74-2.19,2.3,0v4Z" fill="none" stroke="#000" stroke-miterlimit="10" stroke-width="0.25"/>
      <path d="M423.19,491.56v-4s1.06-2.09,1.66,0v4Z" fill="none" stroke="#000" stroke-miterlimit="10" stroke-width="0.25"/>
    </g>
    <g id="Lag_13" data-name="Lag 13">
      <rect x="427.33" y="477.8" width="1.8" height="1.2" fill="none" stroke="#000" stroke-miterlimit="10" stroke-width="0.25"/>
      <rect x="430.77" y="477.8" width="1.77" height="1.2" fill="none" stroke="#000" stroke-miterlimit="10" stroke-width="0.25"/>
      <polyline points="435.08 479.01 436.83 479.01 436.83 477.8 434.9 477.8 434.9 479.01" fill="none" stroke="#000" stroke-miterlimit="10" stroke-width="0.25"/>
      <rect x="438.48" y="477.8" width="1.73" height="1.2" fill="none" stroke="#000" stroke-miterlimit="10" stroke-width="0.25"/>
    </g>
    <g id="Lag_14" data-name="Lag 14">
      <rect x="427.33" y="481.27" width="1.8" height="3.36" fill="none" stroke="#000" stroke-miterlimit="10" stroke-width="0.25"/>
      <rect x="430.77" y="481.27" width="1.94" height="3.36" fill="none" stroke="#000" stroke-miterlimit="10" stroke-width="0.25"/>
      <rect x="434.9" y="481.27" width="1.93" height="3.36" fill="none" stroke="#000" stroke-miterlimit="10" stroke-width="0.25"/>
      <rect x="438.48" y="481.27" width="1.73" height="3.22" fill="none" stroke="#000" stroke-miterlimit="10" stroke-width="0.25"/>
    </g>
    <g id="Lag_15" data-name="Lag 15">
      <rect x="427.33" y="486.73" width="1.8" height="2.71" fill="none" stroke="#000" stroke-miterlimit="10" stroke-width="0.25"/>
      <rect x="430.77" y="486.73" width="1.94" height="2.71" fill="none" stroke="#000" stroke-miterlimit="10" stroke-width="0.25"/>
      <polygon points="434.9 489.44 434.9 486.63 437.13 486.68 437.13 489.44 434.9 489.44" fill="none" stroke="#000" stroke-miterlimit="10" stroke-width="0.25"/>
      <polygon points="438.48 489.44 438.48 486.68 440.56 486.73 440.56 489.44 438.48 489.44" fill="none" stroke="#000" stroke-miterlimit="10" stroke-width="0.25"/>
    </g>
    <g id="Lag_16" data-name="Lag 16">
      <rect x="427.51" y="490.82" width="1.63" height="0.74" fill="none" stroke="#000" stroke-miterlimit="10" stroke-width="0.25"/>
      <path d="M431,491.56v-.78h1.49v.78Z" fill="none" stroke="#000" stroke-miterlimit="10" stroke-width="0.25"/>
      <rect x="435.29" y="490.61" width="1.54" height="0.96" fill="none" stroke="#000" stroke-miterlimit="10" stroke-width="0.25"/>
      <rect x="438.48" y="490.61" width="1.73" height="0.96" fill="none" stroke="#000" stroke-miterlimit="10" stroke-width="0.25"/>
    </g>
    <g id="Lag_4" data-name="Lag 4">
      <polygon points="400.11 474.61 406.42 471.37 406.42 471.79 407.38 471.74 407.38 471.37 411.52 471.37 411.52 471.69 412.47 471.69 412.47 471.37 416.82 471.37 416.5 472.28 416.08 472.98 415.13 474.17 412.15 474.17 411.09 474.17 411.09 474.77 400.11 474.61" fill="#352f2a" stroke="#000" stroke-miterlimit="10" stroke-width="0.25"/>
    </g>
    <g id="Lag_5" data-name="Lag 5">
      <polygon points="420.32 471.37 422.13 474.13 426.38 474.13 426.43 474.81 436.83 474.81 430.09 471.37 429.98 471.79 429.03 471.79 428.87 471.37 425.05 471.37 425.05 471.79 424.15 471.79 423.88 471.37 420.32 471.37" fill="#2d2825" stroke="#000" stroke-miterlimit="10" stroke-width="0.25"/>
    </g>
    <g id="Lag_3" data-name="Lag 3">
      <polygon points="395.49 474.81 395.49 475.24 395.49 476.31 410.67 476.46 410.56 475.87 426.91 475.61 426.8 476.04 441.76 476.04 441.76 474.81 426.43 474.81 426.38 474.13 411.09 474.13 411.09 474.71 395.49 474.81" fill="#564f4f" stroke="#000" stroke-miterlimit="10" stroke-width="0.25"/>
      <line x1="418.71" y1="474.48" x2="418.72" y2="474.93" fill="none" stroke="#000" stroke-miterlimit="10" stroke-width="0.25"/>
    </g>
    <g id="Lag_25" data-name="Lag 25">
      <g id="Lag_33" data-name="Lag 33">
        <circle cx="418.73" cy="474.93" r="0.8" transform="translate(-207.72 383) rotate(-40.25)" fill="#fffefd" stroke="#000" stroke-miterlimit="10" stroke-width="0.25"/>
      </g>
    </g>
  </g>
</svg>
