<svg id="Lag_10" data-name="Lag 10" xmlns="http://www.w3.org/2000/svg" width="751.3" height="622" viewBox="0 0 751.3 622">
  <title>christian</title>
  <g>
    <g id="Lag_2" data-name="Lag 2">
      <path d="M355.5,545.75s12.8-3.57,21.24-1.82a5.89,5.89,0,0,1,.65,3.85l.1.95,4,1.17v1.24h-3.93l.36,12.8,2.69.44.22,2v.73h.65v4.15h-31V567l1.75-.07-.14-2.76h3.13l-.51-12.66-1.82.22-.22-1.45,2.83-.37Z" fill="#af7c66" stroke="#000" stroke-miterlimit="10" stroke-width="0.25"/>
      <rect x="362.77" y="532.32" width="0.31" height="1.44" transform="translate(-241.45 308.15) rotate(-35.34)" fill="none" stroke="#000" stroke-miterlimit="10" stroke-width="0.25"/>
    </g>
    <g id="Lag_3" data-name="Lag 3">
      <path d="M360.74,537l-2.84,3.06s-.36.8-.51,1.24a25.65,25.65,0,0,0-.29,2.76l.71,1.1-1.38.33v-5s1.92-3.64,1.62-3.49a17.56,17.56,0,0,0-1.62,1.53v1.17s-.7.73-1.14.22v-3.2s.87-.07.58-.36v-2.76s.14-.65,2.15-1.38c0,0,.91-2,4.91-2l-1.09,1.89s.73,2,1.09,1.75,1.67.29,2.54-.73,1.82-2,1.82-2l1.31-.14.44-2.33s1.82-1.53,1.75-2a7.75,7.75,0,0,1,3.57-4.88H375l.58-1.75v1.45s-.07.87.87.14l.95-.72-.36,2.26.36,3.49s-.22,2.69-1.75,1l-.29-.65-.65,1.24.22,2.11-.22.8a12.19,12.19,0,0,1,.22,2.47,1.07,1.07,0,0,0,1.17.73,4.8,4.8,0,0,1,.58,2.47,9.42,9.42,0,0,0,.07,2.11l-.58.58-.36,1.82-1.24-1.67.87-.44-.22-3.2s-.22-1.24-1.6-.36c0,0-.07,2.11-.65,2.26l-.22,1.6L372.3,541l-.14,1.31.36,1.11h-1.31l-.14-1.27.07-4.15-.51-.44-.51-1.75s-3,1.38-4.73.65a13.32,13.32,0,0,0-1.38,2.54l-.58,1.38v.65l1.67,1.6.24,1.16-1.41.19-.21-.59a11.26,11.26,0,0,0-2.18-2.58s.58-2.4.29-2.47l.29.07Z" fill="#301404" stroke="#000" stroke-miterlimit="10" stroke-width="0.25"/>
    </g>
    <g id="Lag_9" data-name="Lag 9">
      <path d="M355.5,545.75s15-3.71,21.24-1.82l.55,1.38-21.79,1.31" fill="#121c0d" stroke="#000" stroke-miterlimit="10" stroke-width="0.25"/>
      <polyline points="352.67 550.27 377.5 548.74 381.47 549.9 381.47 551.14 377.55 551.14 354.7 551.5 352.88 551.72" fill="#121c0d" stroke="#000" stroke-miterlimit="10" stroke-width="0.25"/>
    </g>
    <g id="Lag_4" data-name="Lag 4">
      <path d="M362.92,530.19l-1.09,1.89,1.09,1.75h1.82l2.54-2.76,1.31-.14.44-2.33,1-.9-.91-.41-.44-.8-.51-2.91-.87-.8.36-.36.65-.58.07-.36-.22-.87h.8l-.65-1H366a7.21,7.21,0,0,1,0,1.31s.1,1.31-.71,1.22a1.41,1.41,0,0,1-.52-.2c-1.38-.8-1.45,4.8-1.45,4.8l.44,1.89Z" fill="#1e272b" stroke="#000" stroke-miterlimit="10" stroke-width="0.25"/>
      <g id="Lag_5" data-name="Lag 5">
        <path d="M366,532.48a25.34,25.34,0,0,1,.73,2.87l1.6.29c.73-.14.8-.65,0-1.09l-.87-.49-.51-2.42" fill="#514b4a" stroke="#000" stroke-miterlimit="10" stroke-width="0.25"/>
        <path d="M363.72,528.59s2.54.8,3.2,0c0,0,1.75-.58,2.18-1.31l.91.41-1,.9-.44,2.33-1.31.14-2.54,2.76h-1.82l-1.09-1.75,1.82-3.06Z" fill="#1b1b2b" stroke="#000" stroke-miterlimit="10" stroke-width="0.25"/>
      </g>
    </g>
    <g id="Lag_8" data-name="Lag 8">
      <rect x="362.34" y="532.45" width="0.34" height="1.38" transform="translate(-218 252.68) rotate(-30)" fill="#232120"/>
    </g>
  </g>
</svg>
