<svg xmlns="http://www.w3.org/2000/svg" width="71.25" height="118.75" viewBox="0 0 71.25 118.75">
  <title>christiand.10</title>
  <g id="Lag_2" data-name="Lag 2">
    <path d="M48,76s29.33-8.17,48.67-4.17a13.49,13.49,0,0,1,1.5,8.83l.24,2.17,9.1,2.67v2.83h-9l.83,29.33,6.17,1,.5,4.67V125h1.5v9.5h-71v-9.83l4-.17-.33-6.33h7.17l-1.17-29-4.17.5-.5-3.33L48,85.5Z" transform="translate(-36.38 -15.88)" fill="#af7c66" stroke="#000" stroke-miterlimit="10" stroke-width="0.25"/>
    <rect x="64.67" y="45.21" width="0.71" height="3.29" transform="translate(-51.5 30.37) rotate(-35.34)" fill="none" stroke="#000" stroke-miterlimit="10" stroke-width="0.25"/>
  </g>
  <g id="Lag_3" data-name="Lag 3">
    <path d="M60,56l-6.5,7s-.83,1.83-1.17,2.83a58.77,58.77,0,0,0-.67,6.33l1.62,2.53-3.17.76V64s4.39-8.33,3.72-8a40.23,40.23,0,0,0-3.72,3.5v2.67s-1.61,1.67-2.61.5V55.33s2-.17,1.33-.83V48.17s.33-1.5,4.92-3.17c0,0,2.08-4.5,11.25-4.67l-2.5,4.33s1.67,4.67,2.5,4,3.83.67,5.83-1.67S75,42.33,75,42.33L78,42l1-5.33s4.17-3.5,4-4.5S85.67,23.83,91.17,21h1.5L94,17v3.33s-.17,2,2,.33L98.17,19l-.83,5.17.83,8s-.5,6.17-4,2.33L93.5,33,92,35.83l.5,4.83L92,42.5a27.92,27.92,0,0,1,.5,5.67,2.45,2.45,0,0,0,2.67,1.67A11,11,0,0,1,96.5,55.5a21.58,21.58,0,0,0,.17,4.83l-1.33,1.33-.83,4.17L91.67,62l2-1-.5-7.33s-.5-2.83-3.67-.83c0,0-.17,4.83-1.5,5.17l-.5,3.67-1,3.5-.33,3L87,70.73H84l-.33-2.9.17-9.5-1.17-1-1.17-4s-6.83,3.17-10.83,1.5c0,0-3.17,4.83-3.17,5.83l-1.33,3.17v1.5L70,69l.54,2.65-3.22.43-.49-1.35s-3.17-4.9-5-5.9c0,0,1.33-5.5.67-5.67l.67.17Z" transform="translate(-36.38 -15.88)" fill="#301404" stroke="#000" stroke-miterlimit="10" stroke-width="0.25"/>
  </g>
  <g id="Lag_9" data-name="Lag 9">
    <path d="M48,76s34.33-8.5,48.67-4.17L97.93,75,48,78" transform="translate(-36.38 -15.88)" fill="#121c0d" stroke="#000" stroke-miterlimit="10" stroke-width="0.25"/>
    <polyline points="5.13 70.46 62.03 66.96 71.13 69.63 71.13 72.46 62.13 72.46 9.79 73.29 5.63 73.79" fill="#121c0d" stroke="#000" stroke-miterlimit="10" stroke-width="0.25"/>
  </g>
  <g id="Lag_4" data-name="Lag 4">
    <path d="M65,40.33l-2.5,4.33,2.5,4h4.17L75,42.33,78,42l1-5.33,2.26-2.07-2.09-.93-1-1.83L77,25.17l-2-1.83.83-.83,1.5-1.33.17-.83-.5-2h1.83L77.33,16H72a16.51,16.51,0,0,1,0,3s.24,3-1.63,2.79a3.23,3.23,0,0,1-1.2-.45c-3.17-1.83-3.33,11-3.33,11l1,4.33Z" transform="translate(-36.38 -15.88)" fill="#1e272b" stroke="#000" stroke-miterlimit="10" stroke-width="0.25"/>
    <g id="Lag_5" data-name="Lag 5">
      <path d="M72,45.59a58.05,58.05,0,0,1,1.67,6.58l3.67.67c1.67-.33,1.83-1.5,0-2.5l-2-1.12-1.16-5.55" transform="translate(-36.38 -15.88)" fill="#514b4a" stroke="#000" stroke-miterlimit="10" stroke-width="0.25"/>
      <path d="M66.83,36.67s5.83,1.83,7.33,0c0,0,4-1.33,5-3l2.09.93L79,36.67,78,42l-3,.33-5.83,6.33H65l-2.5-4,4.17-7Z" transform="translate(-36.38 -15.88)" fill="#1b1b2b" stroke="#000" stroke-miterlimit="10" stroke-width="0.25"/>
    </g>
  </g>
  <g id="Lag_8" data-name="Lag 8">
    <rect x="63.67" y="45.51" width="0.79" height="3.17" transform="translate(-51.34 22.47) rotate(-30)" fill="#232120"/>
  </g>
</svg>
