<svg xmlns="http://www.w3.org/2000/svg" width="87.87" height="373.62" viewBox="0 0 87.87 373.62">
  <title>kajbirksted</title>
  <g id="Lag_1" data-name="Lag 1">
    <g id="Lag_3" data-name="Lag 3">
      <path d="M140.5,127.75s2-11.5-1.25-21.5l-8-15.38s6.5-6.39,12-5.38l17-7,1.25-1.26s-10.75,1.25-10.75,0,7-5.75,7-5.75l5-5.25s2.5,7.26,4.5,7.13,5.83,1.38,9.42,0,7.58-2.59,9.33-4.23,1-2.9,1-2.9,6,0,8,2.9a32.31,32.31,0,0,0,5,5.35s-11.5,1-11,2.25l6.75,3.75,6.75,3.25,12.75,1.74s4.25,4.24,3.5,5.38c0,0,.25,4.63-1,4.88s-6.25,17-6.25,17-3,13.75-1.75,15S140.5,127.75,140.5,127.75Z" transform="translate(-131.1 -15.97)" fill="#254460" stroke="#070707" stroke-miterlimit="10" stroke-width="0.25"/>
      <path d="M115.25,50.5" transform="translate(-131.1 -15.97)" fill="#070707" stroke="#070707" stroke-miterlimit="10"/>
    </g>
    <g id="Lag_4" data-name="Lag 4">
      <path d="M161.5,77.25s12.75,8.25,12.25,10c0,0,2.09,9.61,1.29,9.56s.18,30.44.18,30.44l-1-30.5,9.25-14.5,5.5-5.5" transform="translate(-131.1 -15.97)" fill="none" stroke="#070707" stroke-miterlimit="10" stroke-width="0.25"/>
    </g>
    <g id="Lag_6" data-name="Lag 6">
      <path d="M159.75,55.25s-7-9.5-6.25-11.75c0,0-.86-5.82-.06-9.53s5.31-10.47,6.31-10.47,5-5.25,9.75-6,4-2.75,11,0c0,0,2.5-.75,11.25,5.5,0,0,9.75,8.34,7.25,12.67,0,0,3.07,3.58.41,13.08,0,0-4.91,9.49-6.66,8" transform="translate(-131.1 -15.97)" fill="#254460" stroke="#070707" stroke-miterlimit="10" stroke-width="0.25"/>
      <g id="Lag_5" data-name="Lag 5">
        <path d="M162.75,66.25s1-5.5,0-8c0,0-2.75,1-3-3a58.15,58.15,0,0,1,0-7.25s1.83-.5,1.67,1-.53-8,1.78-11.75,8.06-6.75,8.06-6.75a14.74,14.74,0,0,1,10.5,1.5C187,35,189,46,189,46v3.5s3-2.25,3.75-.25.5,8.49,0,7.5-5,4.5-5.25,3-.5,6.5-.5,6.5l-1,2.9s-12,8.32-15.5,4.59l-4.5-.36Z" transform="translate(-131.1 -15.97)" fill="#00520c" stroke="#070707" stroke-miterlimit="10" stroke-width="0.25"/>
        <line x1="28.37" y1="143.5" x2="64.15" y2="143.5" fill="none" stroke="#070707" stroke-miterlimit="10" stroke-width="0.25"/>
        <line x1="32.9" y1="151" x2="62.13" y2="151" fill="none" stroke="#070707" stroke-miterlimit="10" stroke-width="0.25"/>
        <line x1="35.9" y1="159.03" x2="55.4" y2="159.03" fill="none" stroke="#070707" stroke-miterlimit="10" stroke-width="0.25"/>
        <line x1="35.9" y1="168.03" x2="55.4" y2="168.03" fill="#070707" stroke="#070707" stroke-miterlimit="10" stroke-width="0.25"/>
      </g>
    </g>
    <path d="M160.72,42.2s3.32-9.36,6.8-9c0,0,4.5-3.41,7.73-2.86a24.16,24.16,0,0,1,7.81,3,72.57,72.57,0,0,1,4.76,8.87c.37,1.26,1.18,8.3,1.18,8.3l2-1v-5s-1-4.63-1-5.65-3.25-7.29-4-8.46a46,46,0,0,0-4.5-4.55C180,23.48,168.75,24,168.75,24s-8.25,2.86-9.11,8.31,1.86,12.16,1.86,12.16" transform="translate(-131.1 -15.97)" stroke="#070707" stroke-miterlimit="10" stroke-width="0.25"/>
  </g>
  <g id="Lag_7" data-name="Lag 7">
    <polygon points="0.15 111.28 0.15 373.5 87.74 373.5 87.74 112.34 0.15 111.28" fill="#827e7e" stroke="#070707" stroke-miterlimit="10" stroke-width="0.25"/>
    <rect x="18.15" y="137" width="55" height="50.6" fill="#474141" stroke="#070707" stroke-miterlimit="10" stroke-width="0.25"/>
    <polygon points="55.4 81.31 72.9 80.84 72.9 87.3 55.4 87.3 55.4 81.31" stroke="#070707" stroke-miterlimit="10" stroke-width="0.25"/>
    <polyline points="55.4 87.3 55.4 94.53 72.9 94.53 72.9 87.3" stroke="#070707" stroke-miterlimit="10" stroke-width="0.25"/>
    <line x1="32.9" y1="147.53" x2="64.15" y2="147.53" fill="#050505" stroke="#070707" stroke-miterlimit="10" stroke-width="0.25"/>
    <line x1="30.4" y1="156" x2="64.15" y2="156" fill="#050505" stroke="#070707" stroke-miterlimit="10" stroke-width="0.25"/>
    <line x1="35.9" y1="162.3" x2="57.9" y2="162.3" fill="#050505" stroke="#070707" stroke-miterlimit="10" stroke-width="0.25"/>
    <line x1="35.9" y1="168.03" x2="57.9" y2="168.03" fill="#050505" stroke="#070707" stroke-miterlimit="10" stroke-width="0.25"/>
  </g>
</svg>
