<svg id="Lag_4" data-name="Lag 4" xmlns="http://www.w3.org/2000/svg" width="751.3" height="622" viewBox="0 0 751.3 622">
  <title>kajj</title>
  <g>
    <g id="Lag_1" data-name="Lag 1">
      <g id="Lag_3" data-name="Lag 3">
        <path d="M522.35,284.91a2.05,2.05,0,0,0,0-.86l-.32-.61s.26-.26.48-.21l.68-.28,0-.05s-.43,0-.43,0,.28-.23.28-.23l.2-.21s.1.29.18.28a.94.94,0,0,0,.38,0,1.39,1.39,0,0,0,.37-.17c.07-.07,0-.12,0-.12s.24,0,.32.12a1.29,1.29,0,0,0,.2.21s-.46,0-.44.09l.27.15.27.13.51.07s.17.17.14.21,0,.18,0,.19a4,4,0,0,0-.25.68,2.19,2.19,0,0,0-.07.6S522.35,284.91,522.35,284.91Z" fill="#254460" stroke="#070707" stroke-miterlimit="10" stroke-width="0.25"/>
      </g>
      <g id="Lag_4-2" data-name="Lag 4">
        <path d="M523.19,282.9s.51.33.49.4.08.38.05.38,0,1.21,0,1.21l0-1.22.37-.58.22-.22" fill="none" stroke="#070707" stroke-miterlimit="10" stroke-width="0.25"/>
      </g>
      <g id="Lag_6" data-name="Lag 6">
        <path d="M523.12,282s-.28-.38-.25-.47a1.35,1.35,0,0,1,0-.38.94.94,0,0,1,.25-.42s.2-.21.39-.24.16-.11.44,0c0,0,.1,0,.45.22,0,0,.39.33.29.51,0,0,.12.14,0,.52,0,0-.2.38-.27.32" fill="#254460" stroke="#070707" stroke-miterlimit="10" stroke-width="0.25"/>
        <g id="Lag_5" data-name="Lag 5">
          <path d="M523.24,282.46a.81.81,0,0,0,0-.32s-.11,0-.12-.12a2.32,2.32,0,0,1,0-.29s.07,0,.07,0a1,1,0,0,1,.07-.47,1,1,0,0,1,.32-.27.59.59,0,0,1,.42.06c.21.12.29.56.29.56v.14s.12-.09.15,0,0,.34,0,.3-.2.18-.21.12,0,.26,0,.26l0,.12s-.48.33-.62.18h-.18Z" fill="#00520c" stroke="#070707" stroke-miterlimit="10" stroke-width="0.25"/>
          <line x1="523.11" y1="286.18" x2="524.54" y2="286.18" fill="none" stroke="#070707" stroke-miterlimit="10" stroke-width="0.25"/>
          <line x1="523.29" y1="286.48" x2="524.46" y2="286.48" fill="none" stroke="#070707" stroke-miterlimit="10" stroke-width="0.25"/>
          <line x1="523.41" y1="286.8" x2="524.19" y2="286.8" fill="none" stroke="#070707" stroke-miterlimit="10" stroke-width="0.25"/>
          <line x1="523.41" y1="287.16" x2="524.19" y2="287.16" fill="none" stroke="#070707" stroke-miterlimit="10" stroke-width="0.25"/>
        </g>
      </g>
      <path d="M523.16,281.5s.13-.37.27-.36a.53.53,0,0,1,.31-.11,1,1,0,0,1,.31.12,2.9,2.9,0,0,1,.19.35c0,.05,0,.33,0,.33l.08,0v-.2s0-.18,0-.23a1.9,1.9,0,0,0-.16-.34l-.18-.18c-.06-.09-.51-.07-.51-.07s-.33.11-.36.33a1.09,1.09,0,0,0,.07.49" stroke="#070707" stroke-miterlimit="10" stroke-width="0.25"/>
    </g>
    <g id="Lag_7" data-name="Lag 7">
      <polygon points="521.98 284.89 521.98 295.36 525.48 295.36 525.48 284.94 521.98 284.89" fill="#827e7e" stroke="#070707" stroke-miterlimit="10" stroke-width="0.25"/>
      <rect x="522.7" y="285.92" width="2.2" height="2.02" fill="#474141" stroke="#070707" stroke-miterlimit="10" stroke-width="0.25"/>
      <polygon points="524.19 283.7 524.89 283.68 524.89 283.94 524.19 283.94 524.19 283.7" stroke="#070707" stroke-miterlimit="10" stroke-width="0.25"/>
      <polyline points="524.19 283.94 524.19 284.23 524.89 284.23 524.89 283.94" stroke="#070707" stroke-miterlimit="10" stroke-width="0.25"/>
      <line x1="523.29" y1="286.34" x2="524.54" y2="286.34" fill="none" stroke="#070707" stroke-miterlimit="10" stroke-width="0.25"/>
      <line x1="523.19" y1="286.68" x2="524.54" y2="286.68" fill="none" stroke="#070707" stroke-miterlimit="10" stroke-width="0.25"/>
      <line x1="523.41" y1="286.93" x2="524.29" y2="286.93" fill="none" stroke="#070707" stroke-miterlimit="10" stroke-width="0.25"/>
      <line x1="523.41" y1="287.16" x2="524.29" y2="287.16" fill="none" stroke="#070707" stroke-miterlimit="10" stroke-width="0.25"/>
    </g>
  </g>
</svg>
