<svg id="Lag_8" data-name="Lag 8" xmlns="http://www.w3.org/2000/svg" width="751.3" height="622" viewBox="0 0 751.3 622">
  <title>kastellet</title>
  <g>
    <g id="Layer_3" data-name="Layer 3">
      <path d="M472,155.45l-6.06,1.42s-2.22.34-.81,2.16a11.73,11.73,0,0,0,1.82,2.09s1,.67-.47,3A24.58,24.58,0,0,0,464,170.2s-1.54,2.52,1.89,1.7,9-2.42,9-2.42,2.5-1.16,9.1,2.59c0,0,3.57,3.08,4.25-2.59a5.54,5.54,0,0,0,.34-5.29s-3.82-2.92.55-3.73l.73-2.9s.67-1.5-2.63-2.1c0,0-5.67-.13-6.62-.88s-2.69-2-2.69-2a3.31,3.31,0,0,0-3.91.88S472.77,155.26,472,155.45Z" fill="#4f8da9"/>
    </g>
    <g id="Layer_2" data-name="Layer 2">
      <path d="M466.52,157.43s-1.17-.08-.32.88a18.71,18.71,0,0,1,1.69,2.41h1.37l.44,2.65-1.41.68-1.61,4.5s-.52,1.29.8,1,6.43-1.57,6.43-1.57l.68-1.21,4.22,0,.48,1.13,6.07,2.08s1.53.68,1.17-.92-1.17-5.31-1.17-5.31l-1.41-.63.57-3.38,1.21-.08,1.89-2.73s.72-.6-.52-.64-4.42-.6-4.42-.6l-.69.32-2.53-.68-.16-.8-2.44-1.44a.94.94,0,0,0-1.26,0,8.14,8.14,0,0,0-1.57,1.65l.32.76-2.53,1.21-1.08-.43Z" fill="#7dac6d"/>
    </g>
    <g id="Layer_4" data-name="Layer 4">
      <path d="M467.21,158.09l.6,1a.92.92,0,0,0,.95.43c.73,0,1.6-.26,1.86.74s.61,2.68.61,2.68a1,1,0,0,1-.54,1.32l-.06,0c-1,.44-1.64.09-2.25,2s-.78,2.12.69,1.77l2.46-.57s.47,0,1.12-.95.26-1.25,2.29-1.17,4.93.13,4.93.13.52-.09.91,1,.35,1.21,1.3,1.47l2.9.77s.91.69.65-.57L485,165s.17-.26-.69-.57a14.87,14.87,0,0,1-1.56-.65s-.39,0-.17-.78.86-3.59.86-3.59a.69.69,0,0,1,.69-.69h1.08s.3.26.95-.65l.7-1.07s.95-.52-.43-.52l-2.16-.29a.88.88,0,0,0-.78.17c-.47.3-.86.86-1.81.52s-2.91-1.17-2.91-1.17a.78.78,0,0,1-.13-.72c.11-.48-.87-.91-.87-.91l-1.09-.67s-.09-.28-.57.09-1.26,1.15-1.26,1.15a.68.68,0,0,0-.09.78c.22.5,0,.68,0,.68l-2.33,1.1a1,1,0,0,1-1,0c-.63-.3-.68-.35-2-.07s-2,.4-2,.4S466.9,157.55,467.21,158.09Z" fill="none" stroke="#fff" stroke-miterlimit="10" stroke-width="0.75"/>
    </g>
    <g id="Layer_5" data-name="Layer 5">
      <polygon points="475.76 159.03 476.42 159.19 477.59 156.4 476.99 156.24 475.76 159.03" fill="#b45a37"/>
      <polygon points="474.74 158.62 475.27 158.75 476.23 156.49 475.74 156.36 474.74 158.62" fill="#b45a37"/>
      <polygon points="472.67 162.92 473.21 163.05 474.16 160.79 473.67 160.65 472.67 162.92" fill="#b45a37"/>
      <polygon points="475.26 158.8 475.26 158.26 473.27 157.7 473.27 158.2 475.26 158.8" fill="#b45a37"/>
      <polygon points="473.67 161.21 473.67 160.66 471.68 160.1 471.68 160.6 473.67 161.21" fill="#b45a37"/>
      <polygon points="477.7 159.52 478.36 159.68 479.53 156.89 478.93 156.73 477.7 159.52" fill="#b45a37"/>
      <polygon points="473.27 164.22 474.13 164.44 475.68 160.76 474.89 160.54 473.27 164.22" fill="#b45a37"/>
      <polygon points="475.47 164.64 476.33 164.85 477.88 161.17 477.09 160.96 475.47 164.64" fill="#b45a37"/>
      <polygon points="478.96 159.71 479.49 159.84 480.43 157.6 479.95 157.47 478.96 159.71" fill="#b45a37"/>
      <polygon points="477.32 163.8 477.85 163.94 478.79 161.69 478.31 161.56 477.32 163.8" fill="#b45a37"/>
    </g>
  </g>
</svg>
