<svg id="Lag_11" data-name="Lag 11" xmlns="http://www.w3.org/2000/svg" width="751.3" height="622" viewBox="0 0 751.3 622">
  <title>minde</title>
  <g>
    <g id="Lag_9" data-name="Lag 9">
      <path d="M350.62,604.09s10.49.19,9.33,4.45c0,0-.88,3.49-11.85,3.33,0,0-8.16.58-10.93,0s-8.51-1.31-7.11-4.58c0,0,.73-.64,1.17-1.06a28.14,28.14,0,0,1,4.32-1.5c1.2-.27,12.74-1.63,15.08-.64" fill="#878278" stroke="#000" stroke-miterlimit="10" stroke-width="0.25"/>
    </g>
    <g id="Lag_4" data-name="Lag 4">
      <path d="M347.78,593.34A1.14,1.14,0,0,1,349,594a3.65,3.65,0,0,1,.41,1.48s-.65.57-.8.13l-.15-.44s.3-.4.39-.26,0-.61-.24-.64c0,0-.72-.73-.73-.77l0,0" fill="#111" stroke="#000" stroke-miterlimit="10"/>
    </g>
    <g id="Lag_5" data-name="Lag 5">
      <path d="M349.38,594.91s.58.52.52.73.15.44.15.44.5.79.38.87-.38.61-.7.38-.35.05-.35.05l-.38-.54.38,0s.29-.5.2-.52-.2-.8-.2-.8" fill="#111" stroke="#000" stroke-miterlimit="10"/>
    </g>
    <g id="Lag_3" data-name="Lag 3">
      <path d="M345.63,595.49l-10.38,11s-.91.19-1.07,0l-.54-.23-.7-2.41v-.93l-.23-.47-.35.19V603s-1-.31-.85.66v.78a2.8,2.8,0,0,0-.22,1l.35,1.28a5.25,5.25,0,0,0,5.87,2.29,30,30,0,0,0,4.16-.62c0-.19.43.58.43.58s2.33-.66,2.18-.85c0,0,1.9-1.09,1.87-1.83l2-1.52s.31-1.44-.78-.56l-1.36.6a1.9,1.9,0,0,0-1-.6l-4.47.56s-.58.7-.19.93l.39.85-1,.27-2.49.23,9-10.48-.59-1.18" fill="#111" stroke="#000" stroke-miterlimit="10" stroke-width="0.25"/>
      <path d="M331.5,603.38l-.24,1.62s-.14,1.52.24,1.55" fill="#111" stroke="#000" stroke-miterlimit="10" stroke-width="0.25"/>
      <rect x="331.57" y="606.18" width="0.33" height="1.1" transform="translate(-272.88 271.15) rotate(-32.3)" fill="#111"/>
    </g>
    <g id="Lag_8" data-name="Lag 8">
      <path d="M347.67,600.24s1.2.12,1.32.1.58-.12.58-.32l.32-.5.14.41h0l0,.41s-.78.67-.85.52-.76.19-.79,0l-.43.07-.31-.71" fill="none" stroke="#000" stroke-miterlimit="10"/>
    </g>
    <g id="Lag_2" data-name="Lag 2">
      <path d="M342.15,583.31s1.4,6.47,1.63,6.47a14.25,14.25,0,0,0,.82,2.57c.23.17.87,3.27,1.11,3.21s1.22,3,1.22,3l1.22,2.8,1.87,3s1-.23.87-.7a14.6,14.6,0,0,0-.47-2.62c-.29-.76-2.27-6.71-2.27-6.71l-2.27-6.18-2.1-5.42A1.33,1.33,0,0,0,342.15,583.31Z" fill="#160b01" stroke="#000" stroke-miterlimit="10"/>
    </g>
  </g>
</svg>
