<svg xmlns="http://www.w3.org/2000/svg" width="259.21" height="253.42" viewBox="0 0 259.21 253.42">
  <title>mindeankeret</title>
  <g id="Lag_9" data-name="Lag 9">
    <path d="M86.25,275.5" transform="translate(-87.3 -54.79)" fill="none" stroke="#000" stroke-miterlimit="10"/>
    <path d="M265.64,239.18s90,1.65,80,38.14c0,0-7.58,29.93-101.62,28.53,0,0-70,5-93.71,0s-73-11.25-61-39.25c0,0,6.22-5.51,10-9.1C100.93,256,126,247,136.33,244.67s109.29-14,129.31-5.49" transform="translate(-87.3 -54.79)" fill="#878278" stroke="#000" stroke-miterlimit="10" stroke-width="0.25"/>
  </g>
  <g id="Lag_4" data-name="Lag 4">
    <path d="M241.36,147s6.64-1.21,10.14,5.79a31.26,31.26,0,0,1,3.5,12.68s-5.55,4.9-6.82,1.08l-1.27-3.81s2.6-3.45,3.35-2.2c0,0-.39-5.25-2.07-5.5,0,0-6.16-6.24-6.29-6.61l-.14-.37" transform="translate(-87.3 -54.79)" fill="#111" stroke="#000" stroke-miterlimit="10"/>
  </g>
  <g id="Lag_5" data-name="Lag 5">
    <path d="M255,160.5s5,4.5,4.5,6.25,1.25,3.75,1.25,3.75S265,177.25,264,178c0,0-3.25,5.25-6,3.25s-3,.45-3,.45l-3.27-4.61,3.27-.34s2.5-4.25,1.75-4.5-1.75-6.82-1.75-6.82" transform="translate(-87.3 -54.79)" fill="#111" stroke="#000" stroke-miterlimit="10"/>
  </g>
  <g id="Lag_3" data-name="Lag 3">
    <path d="M222.86,165.43l-89,94s-7.83,1.67-9.17,0l-4.67-2-6-20.67v-8l-2-4-3,1.67v3.67s-8.33-2.67-7.33,5.67l-.08,6.67s-2.25,5.33-1.92,9l3,11s14.67,27.33,50.33,19.67c0,0,36-3.67,35.67-5.33s3.67,5,3.67,5,20-5.67,18.67-7.33c0,0,16.33-9.33,16-15.67l17-13s2.67-12.33-6.67-4.83l-11.67,5.17s-2.33-3.33-8.67-5.17l-38.33,4.83s-5,6-1.67,8l3.33,7.33L172,263.43l-21.33,2,77.25-89.89-5.08-10.11" transform="translate(-87.3 -54.79)" fill="#111" stroke="#000" stroke-miterlimit="10" stroke-width="0.25"/>
    <path d="M47,148.39" transform="translate(-87.3 -54.79)" fill="#111" stroke="#000" stroke-miterlimit="10"/>
    <path d="M101.73,233.09,99.66,247s-1.2,13,2.07,13.33" transform="translate(-87.3 -54.79)" fill="#111" stroke="#000" stroke-miterlimit="10" stroke-width="0.25"/>
    <rect x="99.05" y="260.43" width="9.42" height="2.83" transform="translate(182.35 -20.55) rotate(57.7)" fill="#111"/>
  </g>
  <g id="Lag_8" data-name="Lag 8">
    <path d="M240.42,206.18s10.28,1.07,11.31.82,5-1,5-2.75l2.71-4.25,1.2,3.52h0l.17,3.52s-6.71,5.71-7.27,4.46c0,0-6.56,1.61-6.81.18l-3.66.59-2.67-6.1" transform="translate(-87.3 -54.79)" fill="none" stroke="#000" stroke-miterlimit="10"/>
  </g>
  <g id="Lag_2" data-name="Lag 2">
    <path d="M193,61s12,55.5,14,55.5c0,0,5,20.5,7,22s7.5,28,9.5,27.5S234,191.5,234,191.5l10.5,24,16,26s8.5-2,7.5-6c0,0-1.5-16-4-22.5s-19.5-57.5-19.5-57.5l-19.5-53L207,56S197.5,52.5,193,61Z" transform="translate(-87.3 -54.79)" fill="#160b01" stroke="#000" stroke-miterlimit="10"/>
  </g>
</svg>
