<svg xmlns="http://www.w3.org/2000/svg" xmlns:xlink="http://www.w3.org/1999/xlink" width="1366" height="768" viewBox="0 0 1366 768">
  <title>overlay</title>
  <g id="Lag_1" data-name="Lag 1">
    <image width="1366" height="768" xlink:href="overlay1.png"/>
  </g>
  <g id="Lag_2" data-name="Lag 2">
    <g id="Lag_2-2" data-name="Lag 2">
      <rect x="564.26" y="374.01" width="10.84" height="33.01" fill="#726565" stroke="#000" stroke-miterlimit="10" stroke-width="0.25"/>
      <rect x="566.19" y="377.56" width="7.23" height="6.3" fill="#352d2d" stroke="#000" stroke-miterlimit="10" stroke-width="0.25"/>
      <path d="M545.6,288l-1.37-4.48a3.12,3.12,0,0,1,2.37-1.25s.93-1.12,1.49-1.12c0,0-.69.37,0,1.25.39.5.81,1,1.25,1.43a8.32,8.32,0,0,0,1.87-1.18,1.06,1.06,0,0,0,0-1.49c-.37-.25,1.25.75,1.25.75s1.56-.06,1.93.25,1.49.77.25,2.4l-.75,3.45" transform="translate(20.03 86)" fill="#005b1d" stroke="#000" stroke-miterlimit="10" stroke-width="0.25"/>
    </g>
    <g id="Lag_4" data-name="Lag 4">
      <line x1="567.37" y1="378.37" x2="572.31" y2="378.37" fill="none" stroke="#000" stroke-miterlimit="10" stroke-width="0.25"/>
      <line x1="567.72" y1="379.31" x2="571.82" y2="379.31" fill="none" stroke="#000" stroke-miterlimit="10" stroke-width="0.25"/>
      <line x1="568.47" y1="380.72" x2="571.13" y2="380.72" fill="none" stroke="#000" stroke-miterlimit="10" stroke-width="0.25"/>
      <line x1="568.47" y1="379.93" x2="570.91" y2="379.93" fill="none" stroke="#000" stroke-miterlimit="10" stroke-width="0.25"/>
    </g>
    <g id="Lag_3" data-name="Lag 3">
      <path d="M551.73,276.75s.25-1.35-.35-1.69-2.64.5-2.64.5-1.4.85-1.35,1.54a8.82,8.82,0,0,0-.55,1.86c-.15.93.95.54.95.54" transform="translate(20.03 86)" fill="#005b1d" stroke="#000" stroke-miterlimit="10" stroke-width="0.25"/>
      <path d="M552.45,281.91l.27,1.32-.95-.45v.45a18.16,18.16,0,0,0-2.13,2.14,16.8,16.8,0,0,0-.16,2.64" transform="translate(20.03 86)" fill="none" stroke="#000" stroke-miterlimit="10" stroke-width="0.25"/>
      <polyline points="566.63 368.28 566.86 369.53 567.72 368.91 569.68 371.37" fill="none" stroke="#000" stroke-miterlimit="10" stroke-width="0.25"/>
      <path d="M545.7,285.67l2.74-.5v1.4s-1.25.1-1.37.3-.6-.1-.91,0S545.7,285.67,545.7,285.67Z" transform="translate(20.03 86)" stroke="#000" stroke-miterlimit="10" stroke-width="0.25"/>
      <path d="M550.88,285.37v.95s1-.1,1.15.15,1.07,0,1.36.2.29-1.3.29-1.3Z" transform="translate(20.03 86)" stroke="#000" stroke-miterlimit="10" stroke-width="0.25"/>
      <path d="M547.52,281.9l1.74,1.93,2-1.18s1.06-1.06,0-1.49a3.06,3.06,0,0,0,.61-.87,10.92,10.92,0,0,0,.26-2.19,4.43,4.43,0,0,0-.31-1.35h-.86a5.81,5.81,0,0,0-2.17,1,2.39,2.39,0,0,0-.75.6.73.73,0,0,0-.41,1.1c.69.4.31,1.67.31,1.67" transform="translate(20.03 86)" fill="#001532" stroke="#000" stroke-miterlimit="10" stroke-width="0.25"/>
      <rect x="548.99" y="282.92" width="2.39" height="0.47" transform="translate(-43.83 445.49) rotate(-34.32)" fill="#001532"/>
    </g>
  </g>
</svg>
