<svg xmlns="http://www.w3.org/2000/svg" xmlns:xlink="http://www.w3.org/1999/xlink" width="751.3" height="622" viewBox="0 0 751.3 622">
  <title>overlay</title>
  <g id="Lag_1" data-name="Lag 1">
    <image width="1366" height="768" transform="translate(-20.03 -86)" xlink:href="overlay1.png"/>
  </g>
  <g id="Lag_2" data-name="Lag 2">
    <g id="Lag_2-2" data-name="Lag 2">
      <rect x="532.45" y="286.42" width="5.01" height="15.27" fill="#726565" stroke="#000" stroke-miterlimit="10" stroke-width="0.25"/>
      <rect x="533.34" y="288.06" width="3.34" height="2.92" fill="#352d2d" stroke="#000" stroke-miterlimit="10" stroke-width="0.25"/>
      <path d="M533.09,286.42l-.63-2.07a1.45,1.45,0,0,1,1.09-.58s.43-.52.69-.52c0,0-.32.17,0,.58.18.23.37.45.58.66a3.85,3.85,0,0,0,.86-.55.49.49,0,0,0,0-.69c-.17-.12.58.35.58.35s.72,0,.89.12.69.36.12,1.11l-.35,1.6" fill="#005b1d" stroke="#000" stroke-miterlimit="10" stroke-width="0.25"/>
    </g>
    <g id="Lag_4" data-name="Lag 4">
      <line x1="533.89" y1="288.43" x2="536.17" y2="288.43" fill="none" stroke="#000" stroke-miterlimit="10" stroke-width="0.25"/>
      <line x1="534.05" y1="288.86" x2="535.95" y2="288.86" fill="none" stroke="#000" stroke-miterlimit="10" stroke-width="0.25"/>
      <line x1="534.4" y1="289.52" x2="535.63" y2="289.52" fill="none" stroke="#000" stroke-miterlimit="10" stroke-width="0.25"/>
      <line x1="534.4" y1="289.15" x2="535.53" y2="289.15" fill="none" stroke="#000" stroke-miterlimit="10" stroke-width="0.25"/>
    </g>
    <g id="Lag_3" data-name="Lag 3">
      <path d="M535.92,281.21s.12-.62-.16-.78-1.22.23-1.22.23-.65.39-.62.71a4.08,4.08,0,0,0-.25.86c-.07.43.44.25.44.25" fill="#005b1d" stroke="#000" stroke-miterlimit="10" stroke-width="0.25"/>
      <path d="M536.25,283.59l.13.61-.44-.21v.21a8.4,8.4,0,0,0-1,1,7.77,7.77,0,0,0-.07,1.22" fill="none" stroke="#000" stroke-miterlimit="10" stroke-width="0.25"/>
      <polyline points="533.55 283.76 533.66 284.34 534.05 284.05 534.96 285.19" fill="none" stroke="#000" stroke-miterlimit="10" stroke-width="0.25"/>
      <path d="M533.13,285.33l1.27-.23v.65s-.58,0-.63.14-.28,0-.42,0S533.13,285.33,533.13,285.33Z" stroke="#000" stroke-miterlimit="10" stroke-width="0.25"/>
      <path d="M535.53,285.19v.44s.47,0,.53.07.5,0,.63.09.13-.6.13-.6Z" stroke="#000" stroke-miterlimit="10" stroke-width="0.25"/>
      <path d="M534,283.59l.81.89.92-.55s.49-.49,0-.69a1.41,1.41,0,0,0,.28-.4,5.05,5.05,0,0,0,.12-1,2,2,0,0,0-.14-.62h-.4a2.69,2.69,0,0,0-1,.48,1.1,1.1,0,0,0-.35.28.34.34,0,0,0-.19.51c.32.18.14.77.14.77" fill="#001532" stroke="#000" stroke-miterlimit="10" stroke-width="0.25"/>
      <rect x="534.65" y="284.06" width="1.11" height="0.22" transform="translate(-67.04 351.22) rotate(-34.32)" fill="#001532"/>
    </g>
  </g>
</svg>
