<svg id="Lag_7" data-name="Lag 7" xmlns="http://www.w3.org/2000/svg" width="751.3" height="622" viewBox="0 0 751.3 622">
  <title>springvand</title>
  <g>
    <g id="Layer_10" data-name="Layer 10">
      <path d="M545.73,257s-3.32,4.49,9.8,4.17c0,0,14.16.6,10.26-3.86Z" fill="#5283c0" stroke="#2a1000" stroke-miterlimit="10" stroke-width="0.1"/>
    </g>
    <g id="Layer_2" data-name="Layer 2">
      <path d="M546.48,256s-1,1-.88,1.85h20.19s.16-1.51-1-1.85Z" fill="#d2c4c4" stroke="#2a1000" stroke-miterlimit="10" stroke-width="0.25"/>
      <path d="M547.32,254.23s-.94,1-.8,1.74h18.31s.14-1.42-.89-1.74Z" fill="#d2c4c4" stroke="#2a1000" stroke-miterlimit="10" stroke-width="0.25"/>
      <polyline points="563.94 254.2 563.94 252 547.33 251.98 547.33 254.23" fill="#cbc1c1" stroke="#2a1000" stroke-miterlimit="10" stroke-width="0.25"/>
    </g>
    <g id="Layer_3" data-name="Layer 3">
      <ellipse cx="557.98" cy="257.64" rx="0.47" ry="0.65" transform="translate(-51.49 178.44) rotate(-17.38)" fill="#5b5b5b" stroke="#2a1000" stroke-miterlimit="10" stroke-width="0.25"/>
      <ellipse cx="553.38" cy="258.1" rx="0.47" ry="0.65" transform="translate(-51.83 177.08) rotate(-17.38)" fill="#5b5b5b" stroke="#2a1000" stroke-miterlimit="10" stroke-width="0.25"/>
      <ellipse cx="558.86" cy="259.24" rx="0.65" ry="0.47" transform="translate(169.7 736.82) rotate(-75.71)" fill="#5b5b5b" stroke="#2a1000" stroke-miterlimit="10" stroke-width="0.25"/>
      <ellipse cx="563.45" cy="258.54" rx="0.47" ry="0.65" transform="translate(-51.5 180.11) rotate(-17.38)" fill="#5b5b5b" stroke="#2a1000" stroke-miterlimit="10" stroke-width="0.25"/>
      <ellipse cx="551.09" cy="258.72" rx="0.47" ry="0.65" transform="translate(-52.12 176.43) rotate(-17.38)" fill="#5b5b5b" stroke="#2a1000" stroke-miterlimit="10" stroke-width="0.25"/>
      <circle cx="547.92" cy="257.95" r="0.59" fill="#686868" stroke="#2a1000" stroke-miterlimit="10" stroke-width="0.25"/>
      <circle cx="558.92" cy="258.25" r="0.59" fill="#686868" stroke="#2a1000" stroke-miterlimit="10" stroke-width="0.25"/>
      <ellipse cx="564.3" cy="257.82" rx="0.6" ry="1.04" transform="translate(227.45 778.81) rotate(-81.67)" fill="#757575" stroke="#2a1000" stroke-miterlimit="10" stroke-width="0.25"/>
      <ellipse cx="549.98" cy="259.38" rx="0.6" ry="1.04" transform="translate(213.66 765.98) rotate(-81.67)" fill="#757575" stroke="#2a1000" stroke-miterlimit="10" stroke-width="0.25"/>
      <ellipse cx="562.21" cy="259.24" rx="0.6" ry="1.04" transform="translate(110.43 682.53) rotate(-67.89)" fill="#757575" stroke="#2a1000" stroke-miterlimit="10" stroke-width="0.25"/>
      <ellipse cx="557.95" cy="258.36" rx="0.48" ry="0.71" transform="translate(221.48 772.99) rotate(-81.67)" fill="#757575" stroke="#2a1000" stroke-miterlimit="10" stroke-width="0.25"/>
      <ellipse cx="546.8" cy="259.08" rx="0.48" ry="0.71" transform="translate(211.23 762.58) rotate(-81.67)" fill="#757575" stroke="#2a1000" stroke-miterlimit="10" stroke-width="0.25"/>
      <circle cx="556.67" cy="258.13" r="0.72" transform="translate(234.26 780.2) rotate(-83.18)" fill="#727272" stroke="#2a1000" stroke-miterlimit="10" stroke-width="0.25"/>
      <circle cx="560.06" cy="259.22" r="0.72" transform="translate(236.16 784.53) rotate(-83.18)" fill="#727272" stroke="#2a1000" stroke-miterlimit="10" stroke-width="0.25"/>
      <circle cx="561.23" cy="258.37" r="0.72" transform="translate(238.04 784.94) rotate(-83.18)" fill="#727272" stroke="#2a1000" stroke-miterlimit="10" stroke-width="0.25"/>
      <ellipse cx="559.84" cy="258.09" rx="0.75" ry="1.01" transform="translate(-55.3 217.66) rotate(-20.99)" fill="#888" stroke="#2a1000" stroke-miterlimit="10" stroke-width="0.25"/>
      <ellipse cx="549.98" cy="258.09" rx="1.22" ry="0.87" transform="translate(-21.42 464.49) rotate(-45)" fill="#686868" stroke="#2a1000" stroke-miterlimit="10" stroke-width="0.25"/>
      <circle cx="552.14" cy="257.95" r="0.91" fill="#595959" stroke="#2a1000" stroke-miterlimit="10" stroke-width="0.25"/>
      <circle cx="555.21" cy="257.95" r="1" fill="#5b5b5b" stroke="#2a1000" stroke-miterlimit="10" stroke-width="0.25"/>
      <ellipse cx="546.51" cy="257.95" rx="0.72" ry="1" transform="translate(5.22 526.68) rotate(-51.67)" fill="#514f4f" stroke="#2a1000" stroke-miterlimit="10" stroke-width="0.25"/>
      <ellipse cx="557.57" cy="259.38" rx="0.72" ry="1" transform="translate(8.3 535.91) rotate(-51.67)" fill="#514f4f" stroke="#2a1000" stroke-miterlimit="10" stroke-width="0.25"/>
      <ellipse cx="548.21" cy="258.72" rx="1" ry="0.72" transform="translate(-22.37 463.42) rotate(-45)" fill="#514f4f" stroke="#2a1000" stroke-miterlimit="10" stroke-width="0.25"/>
      <ellipse cx="565.38" cy="258.54" rx="1" ry="0.72" transform="translate(-17.22 475.51) rotate(-45)" fill="#514f4f" stroke="#2a1000" stroke-miterlimit="10" stroke-width="0.25"/>
      <ellipse cx="564.07" cy="259.21" rx="0.76" ry="0.72" transform="translate(-18.07 474.78) rotate(-45)" fill="#514f4f" stroke="#2a1000" stroke-miterlimit="10" stroke-width="0.25"/>
      <ellipse cx="554.2" cy="258.72" rx="1" ry="0.72" transform="translate(-20.62 467.66) rotate(-45)" fill="#514f4f" stroke="#2a1000" stroke-miterlimit="10" stroke-width="0.25"/>
      <circle cx="562.37" cy="257.82" r="0.9" fill="#707070" stroke="#2a1000" stroke-miterlimit="10" stroke-width="0.25"/>
      <circle cx="555.77" cy="259.35" r="0.9" fill="#707070" stroke="#2a1000" stroke-miterlimit="10" stroke-width="0.25"/>
      <circle cx="552.71" cy="259.24" r="0.9" fill="#707070" stroke="#2a1000" stroke-miterlimit="10" stroke-width="0.25"/>
      <ellipse cx="555.66" cy="251.97" rx="8.32" ry="0.53" fill="#cbc1c1" stroke="#2a1000" stroke-miterlimit="10" stroke-width="0.25"/>
      <path d="M549.55,252a17.31,17.31,0,0,1,11.68,0" fill="#cbc1c1" stroke="#2a1000" stroke-miterlimit="10" stroke-width="0.25"/>
    </g>
    <g id="Layer_4" data-name="Layer 4">
      <path d="M552.07,247.88s-1.27-.63-1.63,2.14c0,0-.75.35,0,1.11s1,.19,1,.19a.75.75,0,0,0,0-1c-.4-.45.73-.54.73-.54a3.18,3.18,0,0,0-.26,1.71s-.42.76,0,.79.21-.78.21-.78.3-1.67.65-1.77a2.88,2.88,0,0,0,.47.63.63.63,0,0,0,.37.2c.4,0-.28.42-.28.42s-.28.26-.07.35a.27.27,0,0,0,.33,0s.05-.11,0-.16.62-.32.62-.32,1.61-.94-.14-2.11S552.07,247.88,552.07,247.88Z" fill="#e1e1e1" stroke="#2a1000" stroke-miterlimit="10" stroke-width="0.1"/>
      <path d="M553,251s-.2.35.16.3a.35.35,0,0,0,.3-.4v0l.19-.32-.24-.16s-.18.56-.29.59Z" fill="#e1e1e1" stroke="#2a1000" stroke-miterlimit="10" stroke-width="0.1"/>
      <path d="M550.2,251.92s-.33.21-.09.39.34-.39.34-.39l.3-.53-.19-.14Z" fill="#e1e1e1" stroke="#2a1000" stroke-miterlimit="10" stroke-width="0.1"/>
      <polyline points="552.24 249.81 552.14 250.04 551.6 250.49 551.42 250.21 551.6 249.97" fill="#e1e1e1" stroke="#2a1000" stroke-miterlimit="10" stroke-width="0.1"/>
      <path d="M550.34,250.26s-.57.08-.76-.07,0,.13,0,.13.16.36.79.34" fill="#e1e1e1" stroke="#2a1000" stroke-miterlimit="10" stroke-width="0.1"/>
      <path d="M551.32,250.49a.89.89,0,0,0,.42.58c.32.13-.31.11-.31.11s-.31-.05-.4-.52" fill="#e1e1e1" stroke="#2a1000" stroke-miterlimit="10" stroke-width="0.1"/>
    </g>
    <g id="Layer_5" data-name="Layer 5">
      <path d="M555.56,249.38s-2.4-3.36-3.22-2.75-.11,2.13-.11,2.13.78,1.63,1.82,2a1.35,1.35,0,0,0,1.62-.51Z" fill="#e1e1e1" stroke="#2a1000" stroke-miterlimit="10" stroke-width="0.1"/>
      <path d="M552.35,248.77s-.63.23-.68.51c0,0-.27.5-.62.6s.38.44.38.44.33-.2.27-.47.51-.37.51-.37.36,0,.42-.22" fill="#e1e1e1" stroke="#2a1000" stroke-miterlimit="10" stroke-width="0.1"/>
      <path d="M554,249.23a1.76,1.76,0,0,1,.57,1c0,.51.41.36.41.36a.39.39,0,0,0,0-.55l0,0a2.06,2.06,0,0,1-.6-1.05" fill="none" stroke="#2a1000" stroke-miterlimit="10" stroke-width="0.1"/>
      <path d="M552.64,248.29s1,1.07,1.4.65-.41-1.4-.41-1.4" fill="none" stroke="#2a1000" stroke-miterlimit="10" stroke-width="0.1"/>
      <path d="M553.25,247.36a.57.57,0,0,1,.72,0c.32.31-.1.13-.1.13a.56.56,0,0,0-.48.06" fill="#e1e1e1" stroke="#2a1000" stroke-miterlimit="10" stroke-width="0.1"/>
      <path d="M552.39,248.1a.6.6,0,0,0-.23.67c.11.46.2-.14.2-.14a.38.38,0,0,1,.21-.3" fill="none" stroke="#2a1000" stroke-miterlimit="10" stroke-width="0.1"/>
      <path d="M552.17,248.48a.5.5,0,0,0,.06.39s.2,0,0-.43Z" fill="#e1e1e1"/>
    </g>
    <g id="Layer_6" data-name="Layer 6">
      <path d="M556.86,247.82s-2.74.9-1.15,4c0,0-.28.94,1.16.87,0,0,1.05-.73.16-1.36s.77-.82.77-.82S559.06,247.34,556.86,247.82Z" fill="#e1e1e1" stroke="#2a1000" stroke-miterlimit="10" stroke-width="0.1"/>
      <path d="M556.93,250.52a3.83,3.83,0,0,1,.5,1.53s-.25.29.12.36.32-.35.19-.4a5.36,5.36,0,0,1-.29-1.67" fill="#e1e1e1" stroke="#2a1000" stroke-miterlimit="10" stroke-width="0.1"/>
      <path d="M555.33,250.49a5.47,5.47,0,0,1-.3,1.62.25.25,0,0,0-.19.39s.46.28.43-.21l.36-.88" fill="#e1e1e1" stroke="#2a1000" stroke-miterlimit="10" stroke-width="0.1"/>
      <path d="M556.79,251.53a.58.58,0,0,1,.69.14c.26.35-.15.06-.15.06a.51.51,0,0,0-.51,0" fill="#e1e1e1" stroke="#2a1000" stroke-miterlimit="10" stroke-width="0.1"/>
      <path d="M556,251.84a.59.59,0,0,0-.46.67c.07.56.23-.16.23-.16a.39.39,0,0,1,.34-.22" fill="#e1e1e1" stroke="#2a1000" stroke-miterlimit="10" stroke-width="0.1"/>
    </g>
    <g id="Layer_7" data-name="Layer 7">
      <path d="M558.85,248.07a1.41,1.41,0,0,0-1.38,1.31,2.31,2.31,0,0,0,1.28,2s.09,1.06.85.86.54-1.19.54-1.19S560.6,247.74,558.85,248.07Z" fill="#e1e1e1" stroke="#2a1000" stroke-miterlimit="10" stroke-width="0.1"/>
      <path d="M558.36,250.93a1.67,1.67,0,0,1,.12,1,.16.16,0,0,0,0,.29s.32.16.25-.22a2.54,2.54,0,0,1,.15-1" fill="#e1e1e1" stroke="#2a1000" stroke-miterlimit="10" stroke-width="0.1"/>
      <path d="M559.89,251s.8-.23,1,.38c0,0,.09.16-.2,0a1.55,1.55,0,0,0-.75-.11" fill="#e1e1e1" stroke="#2a1000" stroke-miterlimit="10" stroke-width="0.1"/>
      <path d="M559.06,251.17a.53.53,0,0,0-.51.54h0s0,.2.08,0,.22-.37.45-.35" fill="#e1e1e1" stroke="#2a1000" stroke-miterlimit="10" stroke-width="0.1"/>
    </g>
    <g id="Layer_9" data-name="Layer 9">
      <path d="M556.31,244.33s-.83.36-.11.84c0,0,.5-.09.63-.32a8.85,8.85,0,0,0,1.44-.17s.69.21.57-.12-.58-.11-.58-.11A11.3,11.3,0,0,1,556.31,244.33Z" fill="#b6b6b6" stroke="#2a1000" stroke-miterlimit="10" stroke-width="0.1"/>
      <path d="M556.31,244.33s-.41-.76.21-.93.54.39.54.39,1.21-.07,1.07.32-1.1.32-1.1.32" fill="#c3c3c3" stroke="#2a1000" stroke-miterlimit="10" stroke-width="0.1"/>
      <path d="M556,244.94s-1,.82-.58.92a1,1,0,0,0,.62,0s.38-.34.39-.44a5,5,0,0,0-.51,3,1.93,1.93,0,0,1,1.71-.63s.19-2.46-.16-3" fill="#c3c3c3" stroke="#2a1000" stroke-miterlimit="10" stroke-width="0.1"/>
    </g>
    <g id="Layer_8" data-name="Layer 8">
      <path d="M554.9,248.52l.78-1.14-.14-1.16.14-.31.15.85h1.28l.37-.65.24,0-.61,1.63a3.34,3.34,0,0,0-.56.18c-.15.08.39-.89.39-.89l-1,0,.31,1.13-.29.23-.09-.63-.74,1Z" fill="#b4b4b4" stroke="#2a1000" stroke-miterlimit="10" stroke-width="0.1"/>
    </g>
  </g>
</svg>
