<svg id="Lag_7" data-name="Lag 7" xmlns="http://www.w3.org/2000/svg" width="751.3" height="622" viewBox="0 0 751.3 622">
  <title>spring</title>
  <g>
    <g id="Layer_10" data-name="Layer 10">
      <path d="M545.51,251.66s-3.32,4.49,9.8,4.17c0,0,14.16.6,10.26-3.86Z" fill="#5283c0" stroke="#2a1000" stroke-miterlimit="10" stroke-width="0.1"/>
    </g>
    <g id="Layer_2" data-name="Layer 2">
      <path d="M546.26,250.59s-1,1-.88,1.85h20.19s.16-1.51-1-1.85Z" fill="#d2c4c4" stroke="#2a1000" stroke-miterlimit="10" stroke-width="0.25"/>
      <path d="M547.09,248.85s-.94,1-.8,1.74H564.6s.14-1.42-.89-1.74Z" fill="#d2c4c4" stroke="#2a1000" stroke-miterlimit="10" stroke-width="0.25"/>
      <polyline points="563.71 248.81 563.71 246.62 547.11 246.59 547.11 248.85" fill="#cbc1c1" stroke="#2a1000" stroke-miterlimit="10" stroke-width="0.25"/>
    </g>
    <g id="Layer_3" data-name="Layer 3">
      <ellipse cx="557.76" cy="252.26" rx="0.47" ry="0.65" transform="translate(-49.89 178.12) rotate(-17.38)" fill="#5b5b5b" stroke="#2a1000" stroke-miterlimit="10" stroke-width="0.25"/>
      <ellipse cx="553.15" cy="252.71" rx="0.47" ry="0.65" transform="translate(-50.23 176.77) rotate(-17.38)" fill="#5b5b5b" stroke="#2a1000" stroke-miterlimit="10" stroke-width="0.25"/>
      <ellipse cx="558.63" cy="253.85" rx="0.65" ry="0.47" transform="translate(174.75 732.54) rotate(-75.71)" fill="#5b5b5b" stroke="#2a1000" stroke-miterlimit="10" stroke-width="0.25"/>
      <ellipse cx="563.23" cy="253.15" rx="0.47" ry="0.65" transform="translate(-49.91 179.8) rotate(-17.38)" fill="#5b5b5b" stroke="#2a1000" stroke-miterlimit="10" stroke-width="0.25"/>
      <ellipse cx="550.87" cy="253.33" rx="0.47" ry="0.65" transform="translate(-50.52 176.11) rotate(-17.38)" fill="#5b5b5b" stroke="#2a1000" stroke-miterlimit="10" stroke-width="0.25"/>
      <circle cx="547.7" cy="252.56" r="0.59" fill="#686868" stroke="#2a1000" stroke-miterlimit="10" stroke-width="0.25"/>
      <circle cx="558.69" cy="252.86" r="0.59" fill="#686868" stroke="#2a1000" stroke-miterlimit="10" stroke-width="0.25"/>
      <ellipse cx="564.07" cy="252.43" rx="0.6" ry="1.04" transform="translate(232.58 773.99) rotate(-81.67)" fill="#757575" stroke="#2a1000" stroke-miterlimit="10" stroke-width="0.25"/>
      <ellipse cx="549.75" cy="254" rx="0.6" ry="1.04" transform="translate(218.79 761.15) rotate(-81.67)" fill="#757575" stroke="#2a1000" stroke-miterlimit="10" stroke-width="0.25"/>
      <ellipse cx="561.99" cy="253.85" rx="0.6" ry="1.04" transform="translate(115.28 678.97) rotate(-67.89)" fill="#757575" stroke="#2a1000" stroke-miterlimit="10" stroke-width="0.25"/>
      <ellipse cx="557.72" cy="252.98" rx="0.48" ry="0.71" transform="translate(226.62 768.16) rotate(-81.67)" fill="#757575" stroke="#2a1000" stroke-miterlimit="10" stroke-width="0.25"/>
      <ellipse cx="546.57" cy="253.7" rx="0.48" ry="0.71" transform="translate(216.37 757.75) rotate(-81.67)" fill="#757575" stroke="#2a1000" stroke-miterlimit="10" stroke-width="0.25"/>
      <circle cx="556.44" cy="252.74" r="0.72" transform="translate(239.41 775.23) rotate(-83.18)" fill="#727272" stroke="#2a1000" stroke-miterlimit="10" stroke-width="0.25"/>
      <circle cx="559.83" cy="253.84" r="0.72" transform="translate(241.31 779.57) rotate(-83.18)" fill="#727272" stroke="#2a1000" stroke-miterlimit="10" stroke-width="0.25"/>
      <circle cx="561" cy="252.98" r="0.72" transform="translate(243.19 779.97) rotate(-83.18)" fill="#727272" stroke="#2a1000" stroke-miterlimit="10" stroke-width="0.25"/>
      <ellipse cx="559.61" cy="252.71" rx="0.75" ry="1.01" transform="translate(-53.39 217.22) rotate(-20.99)" fill="#888" stroke="#2a1000" stroke-miterlimit="10" stroke-width="0.25"/>
      <ellipse cx="549.75" cy="252.71" rx="1.22" ry="0.87" transform="translate(-17.67 462.75) rotate(-45)" fill="#686868" stroke="#2a1000" stroke-miterlimit="10" stroke-width="0.25"/>
      <circle cx="551.92" cy="252.56" r="0.91" fill="#595959" stroke="#2a1000" stroke-miterlimit="10" stroke-width="0.25"/>
      <circle cx="554.98" cy="252.56" r="1" fill="#5b5b5b" stroke="#2a1000" stroke-miterlimit="10" stroke-width="0.25"/>
      <ellipse cx="546.28" cy="252.56" rx="0.72" ry="1" transform="translate(9.36 524.46) rotate(-51.67)" fill="#514f4f" stroke="#2a1000" stroke-miterlimit="10" stroke-width="0.25"/>
      <ellipse cx="557.35" cy="254" rx="0.72" ry="1" transform="translate(12.44 533.68) rotate(-51.67)" fill="#514f4f" stroke="#2a1000" stroke-miterlimit="10" stroke-width="0.25"/>
      <ellipse cx="547.98" cy="253.33" rx="1" ry="0.72" transform="translate(-18.63 461.68) rotate(-45)" fill="#514f4f" stroke="#2a1000" stroke-miterlimit="10" stroke-width="0.25"/>
      <ellipse cx="565.16" cy="253.15" rx="1" ry="0.72" transform="translate(-13.48 473.77) rotate(-45)" fill="#514f4f" stroke="#2a1000" stroke-miterlimit="10" stroke-width="0.25"/>
      <ellipse cx="563.85" cy="253.82" rx="0.76" ry="0.72" transform="translate(-14.33 473.04) rotate(-45)" fill="#514f4f" stroke="#2a1000" stroke-miterlimit="10" stroke-width="0.25"/>
      <ellipse cx="553.98" cy="253.33" rx="1" ry="0.72" transform="translate(-16.88 465.92) rotate(-45)" fill="#514f4f" stroke="#2a1000" stroke-miterlimit="10" stroke-width="0.25"/>
      <circle cx="562.14" cy="252.43" r="0.9" fill="#707070" stroke="#2a1000" stroke-miterlimit="10" stroke-width="0.25"/>
      <circle cx="555.54" cy="253.96" r="0.9" fill="#707070" stroke="#2a1000" stroke-miterlimit="10" stroke-width="0.25"/>
      <circle cx="552.49" cy="253.85" r="0.9" fill="#707070" stroke="#2a1000" stroke-miterlimit="10" stroke-width="0.25"/>
      <ellipse cx="555.43" cy="246.59" rx="8.32" ry="0.53" fill="#cbc1c1" stroke="#2a1000" stroke-miterlimit="10" stroke-width="0.25"/>
      <path d="M549.32,246.59a17.31,17.31,0,0,1,11.68,0" fill="#cbc1c1" stroke="#2a1000" stroke-miterlimit="10" stroke-width="0.25"/>
    </g>
    <g id="Layer_4" data-name="Layer 4">
      <path d="M551.85,242.5s-1.27-.63-1.63,2.14c0,0-.75.35,0,1.11s1,.19,1,.19a.75.75,0,0,0,0-1c-.4-.45.73-.54.73-.54a3.18,3.18,0,0,0-.26,1.71s-.42.76,0,.79.21-.78.21-.78.3-1.67.65-1.77a2.88,2.88,0,0,0,.47.63.63.63,0,0,0,.37.2c.4,0-.28.42-.28.42s-.28.26-.07.35a.27.27,0,0,0,.33,0s.05-.11,0-.16.62-.32.62-.32,1.61-.94-.14-2.11S551.85,242.5,551.85,242.5Z" fill="#e1e1e1" stroke="#2a1000" stroke-miterlimit="10" stroke-width="0.1"/>
      <path d="M552.73,245.62s-.2.35.16.3a.35.35,0,0,0,.3-.4v0l.19-.32-.24-.16s-.18.56-.29.59Z" fill="#e1e1e1" stroke="#2a1000" stroke-miterlimit="10" stroke-width="0.1"/>
      <path d="M550,246.53s-.33.21-.09.39.34-.39.34-.39l.3-.53-.19-.14Z" fill="#e1e1e1" stroke="#2a1000" stroke-miterlimit="10" stroke-width="0.1"/>
      <polyline points="552.01 244.43 551.92 244.66 551.38 245.1 551.2 244.83 551.38 244.58" fill="#e1e1e1" stroke="#2a1000" stroke-miterlimit="10" stroke-width="0.1"/>
      <path d="M550.11,244.87s-.57.08-.76-.07,0,.13,0,.13.16.36.79.34" fill="#e1e1e1" stroke="#2a1000" stroke-miterlimit="10" stroke-width="0.1"/>
      <path d="M551.1,245.1a.89.89,0,0,0,.42.58c.32.13-.31.11-.31.11s-.31-.05-.4-.52" fill="#e1e1e1" stroke="#2a1000" stroke-miterlimit="10" stroke-width="0.1"/>
    </g>
    <g id="Layer_5" data-name="Layer 5">
      <path d="M555.33,244s-2.4-3.36-3.22-2.75-.11,2.13-.11,2.13.78,1.63,1.82,2a1.35,1.35,0,0,0,1.62-.51Z" fill="#e1e1e1" stroke="#2a1000" stroke-miterlimit="10" stroke-width="0.1"/>
      <path d="M552.13,243.38s-.63.23-.68.51c0,0-.27.5-.62.6s.38.44.38.44.33-.2.27-.47.51-.37.51-.37.36,0,.42-.22" fill="#e1e1e1" stroke="#2a1000" stroke-miterlimit="10" stroke-width="0.1"/>
      <path d="M553.75,243.84a1.76,1.76,0,0,1,.57,1c0,.51.41.36.41.36a.39.39,0,0,0,0-.55l0,0a2.06,2.06,0,0,1-.6-1.05" fill="none" stroke="#2a1000" stroke-miterlimit="10" stroke-width="0.1"/>
      <path d="M552.41,242.91s1,1.07,1.4.65-.41-1.4-.41-1.4" fill="none" stroke="#2a1000" stroke-miterlimit="10" stroke-width="0.1"/>
      <path d="M553,242a.57.57,0,0,1,.72,0c.32.31-.1.13-.1.13a.56.56,0,0,0-.48.06" fill="#e1e1e1" stroke="#2a1000" stroke-miterlimit="10" stroke-width="0.1"/>
      <path d="M552.17,242.72a.6.6,0,0,0-.23.67c.11.46.2-.14.2-.14a.38.38,0,0,1,.21-.3" fill="none" stroke="#2a1000" stroke-miterlimit="10" stroke-width="0.1"/>
      <path d="M551.94,243.1a.5.5,0,0,0,.06.39s.2,0,0-.43Z" fill="#e1e1e1"/>
    </g>
    <g id="Layer_6" data-name="Layer 6">
      <path d="M556.64,242.43s-2.74.9-1.15,4c0,0-.28.94,1.16.87,0,0,1.05-.73.16-1.36s.77-.82.77-.82S558.83,242,556.64,242.43Z" fill="#e1e1e1" stroke="#2a1000" stroke-miterlimit="10" stroke-width="0.1"/>
      <path d="M556.7,245.14a3.83,3.83,0,0,1,.5,1.53s-.25.29.12.36.32-.35.19-.4a5.36,5.36,0,0,1-.29-1.67" fill="#e1e1e1" stroke="#2a1000" stroke-miterlimit="10" stroke-width="0.1"/>
      <path d="M555.11,245.1a5.47,5.47,0,0,1-.3,1.62.25.25,0,0,0-.19.39s.46.28.43-.21l.36-.88" fill="#e1e1e1" stroke="#2a1000" stroke-miterlimit="10" stroke-width="0.1"/>
      <path d="M556.57,246.15a.58.58,0,0,1,.69.14c.26.35-.15.06-.15.06a.51.51,0,0,0-.51,0" fill="#e1e1e1" stroke="#2a1000" stroke-miterlimit="10" stroke-width="0.1"/>
      <path d="M555.78,246.46a.59.59,0,0,0-.46.67c.07.56.23-.16.23-.16a.39.39,0,0,1,.34-.22" fill="#e1e1e1" stroke="#2a1000" stroke-miterlimit="10" stroke-width="0.1"/>
    </g>
    <g id="Layer_7" data-name="Layer 7">
      <path d="M558.63,242.69a1.41,1.41,0,0,0-1.38,1.31,2.31,2.31,0,0,0,1.28,2s.09,1.06.85.86.54-1.19.54-1.19S560.38,242.35,558.63,242.69Z" fill="#e1e1e1" stroke="#2a1000" stroke-miterlimit="10" stroke-width="0.1"/>
      <path d="M558.13,245.55a1.67,1.67,0,0,1,.12,1,.16.16,0,0,0,0,.29s.32.16.25-.22a2.54,2.54,0,0,1,.15-1" fill="#e1e1e1" stroke="#2a1000" stroke-miterlimit="10" stroke-width="0.1"/>
      <path d="M559.66,245.62s.8-.23,1,.38c0,0,.09.16-.2,0a1.55,1.55,0,0,0-.75-.11" fill="#e1e1e1" stroke="#2a1000" stroke-miterlimit="10" stroke-width="0.1"/>
      <path d="M558.84,245.79a.53.53,0,0,0-.51.54h0s0,.2.08,0,.22-.37.45-.35" fill="#e1e1e1" stroke="#2a1000" stroke-miterlimit="10" stroke-width="0.1"/>
    </g>
    <g id="Layer_9" data-name="Layer 9">
      <path d="M556.08,239s-.83.36-.11.84c0,0,.5-.09.63-.32a8.85,8.85,0,0,0,1.44-.17s.69.21.57-.12-.58-.11-.58-.11A11.3,11.3,0,0,1,556.08,239Z" fill="#b6b6b6" stroke="#2a1000" stroke-miterlimit="10" stroke-width="0.1"/>
      <path d="M556.08,239s-.41-.76.21-.93.54.39.54.39,1.21-.07,1.07.32-1.1.32-1.1.32" fill="#c3c3c3" stroke="#2a1000" stroke-miterlimit="10" stroke-width="0.1"/>
      <path d="M555.73,239.56s-1,.82-.58.92a1,1,0,0,0,.62,0s.38-.34.39-.44a5,5,0,0,0-.51,3,1.93,1.93,0,0,1,1.71-.63s.19-2.46-.16-3" fill="#c3c3c3" stroke="#2a1000" stroke-miterlimit="10" stroke-width="0.1"/>
    </g>
    <g id="Layer_8" data-name="Layer 8">
      <path d="M554.68,243.14l.78-1.14-.14-1.16.14-.31.15.85h1.28l.37-.65.24,0-.61,1.63a3.34,3.34,0,0,0-.56.18c-.15.08.39-.89.39-.89l-1,0,.31,1.13-.29.23-.09-.63-.74,1Z" fill="#b4b4b4" stroke="#2a1000" stroke-miterlimit="10" stroke-width="0.1"/>
    </g>
  </g>
</svg>
