<svg id="Layer_1" data-name="Layer 1" xmlns="http://www.w3.org/2000/svg" width="24.57" height="39.84" viewBox="0 0 24.57 39.84"><title>testmarker</title><path d="M14.57.46S29.8,1.4,26,16.6a17.39,17.39,0,0,1-2.48,4.73c-2,2.89-8.35,13.71-8.93,18.21,0,0-2.76-10.32-8.86-18S3.49,7.12,3.49,7.12,6.26.88,14.57.46Z" transform="translate(-2.15 -0.34)" fill="#4274c6" stroke="#2a1000" stroke-miterlimit="10" stroke-width="0.25"/><circle cx="12.46" cy="12.68" r="8.02" fill="#fff"/><g id="svg_1" data-name="svg 1"><path id="path4536" d="M15,8.61A1,1,0,1,0,14,7.52,1,1,0,0,0,15,8.61" transform="translate(-2.15 -0.34)"/><path id="path4538" d="M14.11,9a1.08,1.08,0,0,1,.72-.21,1.1,1.1,0,0,1,.81.51l1,2,1.41,1a.46.46,0,0,1-.31.82.57.57,0,0,1-.21-.07L16,12a.54.54,0,0,1-.12-.14l-.38-.77-.46,2,1.81,2.14a.66.66,0,0,1,.09.22l.49,2.58c0,.06,0,.09,0,.14a.69.69,0,0,1-.74.64.71.71,0,0,1-.62-.55l-.46-2.42-1.47-1.61-.34,1.57a1.77,1.77,0,0,1-.14.29l-1.41,2.38a.7.7,0,0,1-.64.33.69.69,0,0,1-.64-.74.84.84,0,0,1,.09-.3l1.31-2.2,1.1-4.85-.72.58-.38,1.73a.48.48,0,0,1-.49.39.46.46,0,0,1-.42-.5.39.39,0,0,1,0-.06l.45-2a.5.5,0,0,1,.14-.22Z" transform="translate(-2.15 -0.34)"/></g></svg>
