<svg id="Lag_6" data-name="Lag 6" xmlns="http://www.w3.org/2000/svg" xmlns:xlink="http://www.w3.org/1999/xlink" width="751.3" height="622" viewBox="0 0 751.3 622">
  <defs>
    <symbol id="Grass_7" data-name="Grass 7" viewBox="0 0 108.82 75.4">
      <g>
        <path d="M22.53,63s6.53-1,6.86-6.21C30.36,58.13,30.36,64.66,22.53,63Z" fill="#389a59"/>
        <path d="M34.06,57.4s6.29-2.42,8.23-5.32C38.9,52.84,35.52,55,34.06,57.4Z" fill="#005100"/>
        <path d="M72.72,21.62s-4.27,4-7,1.85C67.6,22.32,70.58,20.55,72.72,21.62Z" fill="#003d10"/>
        <path d="M19.53,69.12s-.85-4.67-3.59-6.83C16.4,65.73,17.23,67.49,19.53,69.12Z" fill="#005100"/>
        <path d="M14.13,32S8.9,33.17,6.5,36.82C10.29,36.13,12.31,35.05,14.13,32Z" fill="#005100"/>
        <path d="M11.65,17s3.65,4.57,1.3,7.16C11.95,22.12,10.42,19,11.65,17Z" fill="#003d10"/>
        <path d="M37.54,26.62s1.38-6.6,0-9.79C36.3,20.06,36.29,24.09,37.54,26.62Z" fill="#005100"/>
        <path d="M8.37,27.79S4.95,22.14,0,23.85C.83,22.4,6.86,19.92,8.37,27.79Z" fill="#a7cc6f"/>
        <path d="M48.07,6.88s-6.6.23-7.52,5.38C39.72,10.85,40.47,4.4,48.07,6.88Z" fill="#a7cc6f"/>
        <path d="M25.36,38.55S21.94,32.9,17,34.61C17.82,33.21,23.85,30.69,25.36,38.55Z" fill="#a7cc6f"/>
        <path d="M88,53.72S85.5,47.79,86.43,43C88.22,45.34,88.88,49.75,88,53.72Z" fill="#a7cc6f"/>
        <path d="M20,8.33s1.39,5.68-1.82,7C18.12,13.14,18,9.68,20,8.33Z" fill="#a3c360"/>
        <path d="M63.14,22.45s-3.42-5.65-8.37-3.94C55.6,17.11,61.63,14.59,63.14,22.45Z" fill="#a7cc6f"/>
        <path d="M62.82,8.19S61.32.46,57.44,0C57.21,3.85,60.39,6.75,62.82,8.19Z" fill="#a7cc6f"/>
        <path d="M35.14,69.82s-2.42-5.32.48-7.26C36.1,64.74,36.83,68.13,35.14,69.82Z" fill="#a3c360"/>
        <path d="M92.44,25.78s1.39,5.68-1.82,7C90.55,30.6,90.46,27.13,92.44,25.78Z" fill="#a3c360"/>
        <path d="M81.28,21.63s-1.5-7.73-5.38-8.23C75.67,17.28,78.85,20.19,81.28,21.63Z" fill="#a7cc6f"/>
        <path d="M100.19,25.69s4-5.08,8.63-6.63C107.62,21.8,104.09,24.53,100.19,25.69Z" fill="#a7cc6f"/>
        <path d="M78.66,40.93s4-5.08,8.63-6.63C86.09,37,82.56,39.77,78.66,40.93Z" fill="#a7cc6f"/>
        <path d="M67.72,36.52s-6.6.23-7.52,5.38C59.38,40.49,60.12,34,67.72,36.52Z" fill="#389a59"/>
        <path d="M31,31.63a11.3,11.3,0,0,1-1-7.87C31.77,26.15,31.89,27.66,31,31.63Z" fill="#389a59"/>
        <path d="M15.91,29.23s1.71-5.59,5.17-5.12C20,26.06,18.3,29.08,15.91,29.23Z" fill="#389a59"/>
        <path d="M69,58.54S65.83,52.6,62.71,51C63.87,54.3,66.44,57.4,69,58.54Z" fill="#2b682b"/>
        <path d="M53,65.4s1.31-6.61-.12-9.79C51.7,58.84,51.74,62.87,53,65.4Z" fill="#2b682b"/>
        <path d="M48.56,68.81s-5.27-4.2-8.75-4.4C42.15,67,45.74,68.78,48.56,68.81Z" fill="#2b682b"/>
        <path d="M58,62.11l1.67-2.71,3.08-2A6.15,6.15,0,0,1,58,62.11Z" fill="#287449"/>
        <path d="M53,75.4l1.45-3.63,2.66-2.9S57.17,74.4,53,75.4Z" fill="#287449"/>
        <path d="M84.1,33.09s-1.56-4.74-4.68-6.31C80.56,30.05,81.52,31.94,84.1,33.09Z" fill="#2b682b"/>
        <path d="M59.52,10.71S53.3,8.5,50.52,13C50.3,11.4,53.37,5.59,59.52,10.71Z" fill="#c1d5a1"/>
        <path d="M23.58,48S20.41,42,17.29,40.47C18.42,43.75,21,46.84,23.58,48Z" fill="#2b682b"/>
        <path d="M35.94,14.06s-3.41-5.66-8.36-3.94C28.4,8.72,34.43,6.2,35.94,14.06Z" fill="#287449"/>
        <path d="M81.84,7.57s-6.22-2.21-9,2.25C72.62,8.2,75.69,2.4,81.84,7.57Z" fill="#287449"/>
        <path d="M66.38,15.12a12,12,0,0,0,1.7-6.72C65.91,11.15,66,12.33,66.38,15.12Z" fill="#2b682b"/>
        <path d="M55.17,40.82S52,34.87,48.88,33.31C50,36.58,52.59,39.68,55.17,40.82Z" fill="#2b682b"/>
        <path d="M92.69,21.08s-3.17-6-6.29-7.51C87.54,16.84,90.11,19.94,92.69,21.08Z" fill="#2b682b"/>
        <path d="M49.63,20.4l-3.15-2.31-2.15-3.3S49.72,16.21,49.63,20.4Z" fill="#287449"/>
        <path d="M9.94,52.82s-3.42-5.65-8.37-3.94C2.4,47.48,8.43,45,9.94,52.82Z" fill="#287449"/>
        <path d="M50,29.56l1.45-3.63L54.11,23S54.08,28.59,50,29.56Z" fill="#287449"/>
        <path d="M53.44,45.3s-4.85.86-7.67,2.91C49.19,48.71,51.23,47.07,53.44,45.3Z" fill="#2b682b"/>
        <path d="M72.41,73.28S78.7,70.86,80.63,68C77.24,68.69,73.86,70.86,72.41,73.28Z" fill="#c1d5a1"/>
        <path d="M57.67,45.24s1.16,6.54-2,8C55.51,51.06,55.75,46.68,57.67,45.24Z" fill="#c1d5a1"/>
        <path d="M61.7,70.32l1.45-3.63,2.66-2.9S65.81,69.4,61.7,70.32Z" fill="#c1d5a1"/>
        <path d="M28.51,44.4s2.22,6.22,7.41,5.53C34.83,51.15,28.43,52.4,28.51,44.4Z" fill="#c1d5a1"/>
        <path d="M41.26,29.8s6.29-2.42,8.22-5.32C46.1,25.21,42.71,27.4,41.26,29.8Z" fill="#c1d5a1"/>
        <path d="M40.39,45.4l1.45-3.63,2.66-2.9S44.5,44.4,40.39,45.4Z" fill="#c1d5a1"/>
        <path d="M68.53,51.93s.85-6.55-4.08-8.3C66,43.05,72.25,44.84,68.53,51.93Z" fill="#c1d5a1"/>
        <path d="M57.66,27.24S66.92,28.6,67.5,32C65.32,31.59,58.51,29.48,57.66,27.24Z" fill="#c1d5a1"/>
        <path d="M23.72,21.4S30,19,31.95,16.08C28.56,16.8,25.17,19,23.72,21.4Z" fill="#c1d5a1"/>
        <path d="M15.62,52.67S15,46,12.76,43.3C12.53,46.76,13.69,50.61,15.62,52.67Z" fill="#c1d5a1"/>
        <path d="M36.66,42.8s-6.9-1.51-6.83-5C31.9,38.65,36.24,40.4,36.66,42.8Z" fill="#2b682b"/>
        <path d="M78.19,45.91,75.1,43.52,73,40.16S78.39,41.69,78.19,45.91Z" fill="#c1d5a1"/>
        <path d="M74.87,35.93s.3-6.73-1.58-9.67C72.6,29.65,73.24,33.63,74.87,35.93Z" fill="#389a59"/>
        <path d="M96.88,46s-1.49-7.73-5.38-8.19C91.28,41.66,94.45,44.56,96.88,46Z" fill="#389a59"/>
        <path d="M84.21,61.82s6.53-1,6.86-6.2C92,56.92,92,63.4,84.21,61.82Z" fill="#389a59"/>
        <path d="M20.34,56.71s4.25-1.31,6.19-4.21C23.14,53.22,21.79,54.29,20.34,56.71Z" fill="#389a59"/>
        <path d="M42,61.4l1.5-3.6,2.66-2.9S46.16,60.46,42,61.4Z" fill="#389a59"/>
        <path d="M108.61,46.84s-6.52-1-8.41,3.85C99.66,49.15,101.63,42.93,108.61,46.84Z" fill="#003d10"/>
        <path d="M43.19,37.72s-3.42-5.65-8.37-3.94C35.65,32.4,41.68,29.85,43.19,37.72Z" fill="#389a59"/>
        <path d="M79.56,49.53a22.62,22.62,0,0,0-4.79,7.07C78.34,55.18,78.39,52.89,79.56,49.53Z" fill="#005100"/>
        <path d="M78,62.57s-4.28,4-7,1.85C72.85,63.27,75.83,61.51,78,62.57Z" fill="#003d10"/>
      </g>
    </symbol>
  </defs>
  <title>vand</title>
  <g>
    <g id="Layer_9" data-name="Layer 9">
      <polygon points="558.3 290.12 558.3 304.74 603.34 304.74 603.34 291.39 558.3 290.12" fill="#3766bc"/>
      <path d="M575.74,291.28a0,0,0,0,1,0,0,.06.06,0,0,1,.05,0s0,.09,0,.12,0,.2,0,.2h.1" fill="none" stroke="#fff" stroke-miterlimit="10" stroke-width="0.1"/>
    </g>
    <g id="Layer_15" data-name="Layer 15">
      <line x1="558.31" y1="290.93" x2="561.47" y2="290.95" fill="none"/>
    </g>
    <g id="Layer_12" data-name="Layer 12">
      <path d="M558.33,291.33v.93s3.64,0,3.77-.15-.3-.78-.3-.78Z" fill="#3f362f"/>
      <polygon points="602.82 292.26 602.82 291.76 577.18 291.63 577.18 291.94 602.82 292.26" fill="#3f362f"/>
    </g>
    <g id="Layer_2" data-name="Layer 2">
      <rect x="562.51" y="289.17" width="23.46" height="2.6" fill="#bfa58e"/>
      <polygon points="584.92 286.91 585.98 288.19 585.98 289.17 562.51 289.17 562.51 288.75 564.58 286.91 584.92 286.91" fill="#b25550"/>
      <rect x="575.33" y="289.51" width="0.42" height="0.49" fill="#fff"/>
      <rect x="572.35" y="288.24" width="0.42" height="0.53" fill="#fff"/>
      <rect x="565.54" y="288.24" width="0.42" height="0.53" fill="#fff"/>
      <rect x="564.76" y="288.25" width="0.42" height="0.53" fill="#fff"/>
      <rect x="564.76" y="289.66" width="0.42" height="0.53" fill="#fff"/>
      <rect x="563.99" y="288.24" width="0.42" height="0.53" fill="#fff"/>
      <rect x="563.99" y="289.66" width="0.42" height="0.53" fill="#fff"/>
      <rect x="570.01" y="288.24" width="0.42" height="0.53" fill="#fff"/>
      <rect x="574.24" y="289.46" width="0.42" height="0.53" fill="#fff"/>
      <rect x="574.24" y="288.24" width="0.42" height="0.53" fill="#fff"/>
    </g>
    <g id="Layer_3" data-name="Layer 3">
      <rect x="580.19" y="289.44" width="5.8" height="2.33" fill="#c4af8d"/>
      <polygon points="581.67 288.45 580.01 289.51 586.16 289.51 584.35 288.45 581.67 288.45" fill="#9e4020"/>
    </g>
    <g id="Layer_4" data-name="Layer 4">
      <polygon points="585.1 290.71 585.1 291.82 602.82 292.06 602.82 290.71 585.1 290.71" fill="#e5cf73"/>
      <polygon points="586.03 288.61 585.1 289.9 585.1 290.71 602.82 290.71 602.36 288.61 586.03 288.61" fill="#474745"/>
    </g>
    <g id="Layer_5" data-name="Layer 5">
      <path d="M588.31,286v6.08h1.41v-.87s.59-.48,1,0v.87h1.5l.65-.16.09-5.75-.74-.16Z" fill="#c1b999"/>
      <path d="M588.14,286h4.1l.81.18.08-.13a.47.47,0,0,1-.45-.37.72.72,0,0,0-.48-.49,1.18,1.18,0,0,1-.82-.45h-1.71a.89.89,0,0,1-.59.37.59.59,0,0,0-.49.51S588.58,285.85,588.14,286Z" fill="#acc6bd"/>
    </g>
    <g id="Layer_6" data-name="Layer 6">
      <polygon points="591.38 285.76 590.04 280.2 589.4 280.2 589.25 285.76 589.43 285.76 589.55 280.43 589.92 280.43 590.28 281.98 591.17 285.76 591.38 285.76" fill="#2b2624"/>
      <polygon points="589.12 281.96 589.09 282.2 590.45 282.17 590.39 281.96 589.12 281.96" fill="#2b2624"/>
      <polygon points="589.12 283.56 589.12 283.65 589.03 283.65 589.03 283.77 590.73 283.74 590.73 283.56 589.12 283.56" fill="#2b2624"/>
      <polygon points="589.63 280.36 590.22 285.76 590.39 285.76 589.77 280.32 589.63 280.36" fill="#2b2624"/>
      <polygon points="590.19 281.24 589.34 283.99 589.34 284.36 590.24 281.51 590.19 281.24" fill="#2b2624"/>
      <polygon points="589.39 282.28 590.69 283.41 590.69 283.14 589.42 282.12 589.39 282.28" fill="#2b2624"/>
      <rect x="589.4" y="282.35" width="1.05" height="0.12" fill="#2b2624"/>
      <polygon points="589.21 280.4 589.21 280.52 590.24 280.52 590.24 280.43 589.21 280.4" fill="#2b2624"/>
      <polygon points="589.25 280.25 589.25 280.36 590.24 280.38 590.24 280.27 589.25 280.25" fill="#2b2624"/>
      <polygon points="590.5 282.41 589.55 285.04 589.69 285.04 590.55 282.59 590.5 282.41" fill="#2b2624"/>
      <polygon points="589.25 283.73 590.36 284.25 590.36 284.65 590.51 284.65 590.51 284.42 590.58 284.42 590.58 284.65 590.76 284.65 590.76 284.44 590.93 284.42 590.91 284.19 589.21 283.63 589.25 283.73" fill="#2b2624"/>
      <path d="M590.55,282l-1.13-1.68H590l1,1.78s-.2,0-.17.17.66,2.41.66,2.41h-.19l-.14-.56h-.07l.11.55h-.14Z" fill="#2b2624"/>
      <polygon points="590.39 284.14 590.55 281.74 590.69 281.74 590.69 284.2 590.39 284.14" fill="#2b2624"/>
      <polygon points="589.4 280.2 589.4 279.94 589.56 279.94 589.56 280.2 589.61 280.2 589.61 279.94 589.74 279.94 589.74 280.2 589.79 280.2 589.79 279.94 589.98 279.94 589.98 280.2 589.4 280.2" fill="#6d6764"/>
    </g>
    <g id="Layer_13" data-name="Layer 13">
      <polygon points="558.33 290.04 561.4 290.13 561.61 291.33 558.33 291.33 558.33 290.04" fill="#fff"/>
    </g>
    <g id="Layer_16" data-name="Layer 16">
      <line x1="558.31" y1="290.93" x2="561.47" y2="290.95" fill="none" stroke="#000" stroke-miterlimit="10" stroke-width="0.1"/>
      <line x1="558.31" y1="291.19" x2="561.55" y2="291.2" fill="none" stroke="#000" stroke-miterlimit="10" stroke-width="0.1"/>
    </g>
    <g id="Layer_7" data-name="Layer 7">
      <path d="M560.77,289.19a13.43,13.43,0,0,1,.86,2.37,1.7,1.7,0,0,1,0,.63s11.48.16,15.54-.22c0,0,.25-.87.15-1,0,0-8.26,0-13.56-1.22A10.39,10.39,0,0,0,560.77,289.19Z" fill="#999"/>
      <path d="M565.54,290.06v-.76l.55.07c1.86.25,7.91,1,9.69.84v.7A51.94,51.94,0,0,1,565.54,290.06Z" fill="#666"/>
      <path d="M566.09,289.36l.12-2,.44-.15h.95l1.06-1.3v-2.58h.4l.1,2.15a1.29,1.29,0,0,1,.89,1.06,10.1,10.1,0,0,1,.23,1.8V289h.36l.16-.64.5,0,.08-1.93a.39.39,0,0,1-.1-.71s-.33-.77.27-.89.3.85.3.85a.42.42,0,0,1,0,.74l0,1.95.54,0v.95h.21v-.5h.23v-.33h.44v-1.14s.25-.79.48,0v1.16h.79v1.09h.74v.27h.48v.37A71.64,71.64,0,0,1,566.09,289.36Z" fill="#bcbcbc"/>
    </g>
    <g id="Layer_8" data-name="Layer 8">
      <use width="108.82" height="75.4" transform="matrix(0.01, 0, 0, -0.01, 558.35, 288.91)" xlink:href="#Grass_7"/>
      <use width="108.82" height="75.4" transform="matrix(0.01, 0, 0, -0.01, 558.93, 287.3)" xlink:href="#Grass_7"/>
      <use width="108.82" height="75.4" transform="matrix(0.01, 0, 0, -0.01, 559.77, 286.82)" xlink:href="#Grass_7"/>
      <use width="108.82" height="75.4" transform="matrix(0.01, 0, 0, -0.01, 561.67, 287.57)" xlink:href="#Grass_7"/>
      <use width="108.82" height="75.4" transform="matrix(0.01, 0, 0, -0.01, 560.03, 287.58)" xlink:href="#Grass_7"/>
      <use width="108.82" height="75.4" transform="matrix(0.01, 0, 0, -0.01, 558.29, 286.82)" xlink:href="#Grass_7"/>
      <use width="108.82" height="75.4" transform="matrix(0.01, 0, 0, -0.01, 559.21, 286.77)" xlink:href="#Grass_7"/>
      <use width="108.82" height="75.4" transform="matrix(0.01, 0, 0, -0.01, 560.04, 286.63)" xlink:href="#Grass_7"/>
      <use width="108.82" height="75.4" transform="matrix(0.01, 0, 0, -0.01, 560.57, 286.66)" xlink:href="#Grass_7"/>
      <use width="108.82" height="75.4" transform="matrix(0.01, 0, 0, -0.01, 561.15, 286.91)" xlink:href="#Grass_7"/>
      <use width="108.82" height="75.4" transform="matrix(0.01, 0, 0, -0.01, 561.63, 287.24)" xlink:href="#Grass_7"/>
      <use width="108.82" height="75.4" transform="matrix(0.01, 0, 0, -0.01, 562.02, 287.52)" xlink:href="#Grass_7"/>
      <use width="108.82" height="75.4" transform="matrix(0.01, 0, 0, -0.01, 560.82, 287.46)" xlink:href="#Grass_7"/>
      <use width="108.82" height="75.4" transform="matrix(0.01, 0, 0, -0.01, 560.31, 287.22)" xlink:href="#Grass_7"/>
      <use width="108.82" height="75.4" transform="matrix(0.01, 0, 0, -0.01, 559.65, 287.28)" xlink:href="#Grass_7"/>
      <use width="108.82" height="75.4" transform="matrix(0.01, 0, 0, -0.01, 558.17, 287.29)" xlink:href="#Grass_7"/>
      <use width="108.82" height="75.4" transform="matrix(0.01, 0, 0, -0.01, 558.21, 287.82)" xlink:href="#Grass_7"/>
      <use width="108.82" height="75.4" transform="matrix(0.01, 0, 0, -0.01, 558.18, 288.36)" xlink:href="#Grass_7"/>
      <use width="108.82" height="75.4" transform="matrix(0.01, 0, 0, -0.01, 558.98, 288.06)" xlink:href="#Grass_7"/>
      <use width="108.82" height="75.4" transform="matrix(0.01, 0, 0, -0.01, 558.9, 287.84)" xlink:href="#Grass_7"/>
      <use width="108.82" height="75.4" transform="matrix(0.01, 0, 0, -0.01, 559.68, 287.87)" xlink:href="#Grass_7"/>
      <use width="108.82" height="75.4" transform="matrix(0.01, 0, 0, -0.01, 560.51, 288.04)" xlink:href="#Grass_7"/>
      <use width="108.82" height="75.4" transform="matrix(0.01, 0, 0, -0.01, 561.31, 287.94)" xlink:href="#Grass_7"/>
      <use width="108.82" height="75.4" transform="matrix(0.01, 0, 0, -0.01, 561.9, 288.18)" xlink:href="#Grass_7"/>
      <use width="108.82" height="75.4" transform="matrix(0.01, 0, 0, -0.01, 561.97, 288.61)" xlink:href="#Grass_7"/>
      <use width="108.82" height="75.4" transform="matrix(0.01, 0, 0, -0.01, 561.7, 289.03)" xlink:href="#Grass_7"/>
      <use width="108.82" height="75.4" transform="matrix(0.01, 0, 0, -0.01, 561.16, 289.17)" xlink:href="#Grass_7"/>
      <use width="108.82" height="75.4" transform="matrix(0.01, 0, 0, -0.01, 560.51, 289.16)" xlink:href="#Grass_7"/>
      <use width="108.82" height="75.4" transform="matrix(0.01, 0, 0, -0.01, 561.18, 288.95)" xlink:href="#Grass_7"/>
      <use width="108.82" height="75.4" transform="matrix(0.01, 0, 0, -0.01, 561.2, 288.44)" xlink:href="#Grass_7"/>
      <use width="108.82" height="75.4" transform="matrix(0.01, 0, 0, -0.01, 559.69, 288.55)" xlink:href="#Grass_7"/>
      <use width="108.82" height="75.4" transform="matrix(0.01, 0, 0, -0.01, 558.95, 288.65)" xlink:href="#Grass_7"/>
      <use width="108.82" height="75.4" transform="matrix(0.01, 0, 0, -0.01, 560.37, 288.63)" xlink:href="#Grass_7"/>
      <use width="108.82" height="75.4" transform="matrix(0.01, 0, 0, -0.01, 559.59, 289.07)" xlink:href="#Grass_7"/>
      <use width="108.82" height="75.4" transform="matrix(0.01, 0, 0, -0.01, 558.88, 289.09)" xlink:href="#Grass_7"/>
      <use width="108.82" height="75.4" transform="matrix(0.01, 0, 0, -0.01, 558.25, 289.28)" xlink:href="#Grass_7"/>
      <use width="108.82" height="75.4" transform="matrix(0.01, 0, 0, -0.01, 558.29, 289.83)" xlink:href="#Grass_7"/>
      <use width="108.82" height="75.4" transform="matrix(0.01, 0, 0, -0.01, 559.44, 289.58)" xlink:href="#Grass_7"/>
      <use width="108.82" height="75.4" transform="matrix(0.01, 0, 0, -0.01, 560.03, 289.67)" xlink:href="#Grass_7"/>
      <use width="108.82" height="75.4" transform="matrix(0.01, 0, 0, -0.01, 560.32, 290.15)" xlink:href="#Grass_7"/>
      <use width="108.82" height="75.4" transform="matrix(0.01, 0, 0, -0.01, 559.73, 290.32)" xlink:href="#Grass_7"/>
      <use width="108.82" height="75.4" transform="matrix(0.01, 0, 0, -0.01, 559.2, 290.3)" xlink:href="#Grass_7"/>
      <use width="108.82" height="75.4" transform="matrix(0.01, 0, 0, -0.01, 558.47, 290.34)" xlink:href="#Grass_7"/>
      <use width="108.82" height="75.4" transform="matrix(0.01, 0, 0, -0.01, 558.09, 290.35)" xlink:href="#Grass_7"/>
      <use width="108.82" height="75.4" transform="matrix(0.01, 0, 0, -0.01, 558.87, 289.75)" xlink:href="#Grass_7"/>
      <use width="108.82" height="75.4" transform="matrix(0.01, 0, 0, -0.01, 559.59, 288.24)" xlink:href="#Grass_7"/>
      <use width="108.82" height="75.4" transform="matrix(0.01, 0, 0, -0.01, 559.23, 288.32)" xlink:href="#Grass_7"/>
      <use width="108.82" height="75.4" transform="matrix(0.01, 0, 0, -0.01, 558.28, 288.59)" xlink:href="#Grass_7"/>
      <use width="108.82" height="75.4" transform="matrix(0.01, 0, 0, -0.01, 558.2, 289.48)" xlink:href="#Grass_7"/>
      <use width="108.82" height="75.4" transform="matrix(0.01, 0, 0, -0.01, 558.2, 289.76)" xlink:href="#Grass_7"/>
      <use width="108.82" height="75.4" transform="matrix(0.01, 0, 0, -0.01, 560.65, 288.07)" xlink:href="#Grass_7"/>
      <use width="108.82" height="75.4" transform="matrix(0.01, 0, 0, -0.01, 559.15, 287.3)" xlink:href="#Grass_7"/>
      <use width="108.82" height="75.4" transform="matrix(0, 0.01, 0.01, 0, 561.05, 286.9)" xlink:href="#Grass_7"/>
      <use width="108.82" height="75.4" transform="matrix(0, 0.01, 0.01, 0, 559.68, 286.17)" xlink:href="#Grass_7"/>
      <use width="108.82" height="75.4" transform="matrix(0, 0.01, 0.01, 0, 560.27, 286.12)" xlink:href="#Grass_7"/>
      <use width="108.82" height="75.4" transform="matrix(0, 0.01, 0.01, 0, 560.87, 286.09)" xlink:href="#Grass_7"/>
      <use width="108.82" height="75.4" transform="matrix(0, 0.01, 0.01, 0, 558.4, 286.27)" xlink:href="#Grass_7"/>
      <use width="108.82" height="75.4" transform="matrix(0, 0.01, 0.01, 0, 561.34, 286.18)" xlink:href="#Grass_7"/>
      <use width="108.82" height="75.4" transform="matrix(0, 0.01, 0.01, 0, 561.85, 286.54)" xlink:href="#Grass_7"/>
      <use width="108.82" height="75.4" transform="matrix(0, 0.01, 0.01, 0, 559.11, 286.21)" xlink:href="#Grass_7"/>
      <use width="108.82" height="75.4" transform="matrix(0, 0.01, 0.01, 0, 558.91, 286.16)" xlink:href="#Grass_7"/>
      <use width="108.82" height="75.4" transform="matrix(0, 0.01, 0.01, 0, 562.15, 287)" xlink:href="#Grass_7"/>
      <use width="108.82" height="75.4" transform="matrix(0, 0.01, 0.01, 0, 561.22, 287.18)" xlink:href="#Grass_7"/>
      <use width="108.82" height="75.4" transform="matrix(0, 0.01, 0.01, 0, 560.48, 287.4)" xlink:href="#Grass_7"/>
      <use width="108.82" height="75.4" transform="matrix(0, 0.01, 0.01, 0, 560.22, 287.15)" xlink:href="#Grass_7"/>
      <use width="108.82" height="75.4" transform="matrix(0, 0.01, 0.01, 0, 559.49, 287.04)" xlink:href="#Grass_7"/>
      <use width="108.82" height="75.4" transform="matrix(0, 0.01, 0.01, 0, 558.71, 287.06)" xlink:href="#Grass_7"/>
      <use width="108.82" height="75.4" transform="matrix(0, 0.01, 0.01, 0, 558.23, 287.06)" xlink:href="#Grass_7"/>
      <use width="108.82" height="75.4" transform="matrix(0, 0.01, 0.01, 0, 558.25, 286.61)" xlink:href="#Grass_7"/>
      <use width="108.82" height="75.4" transform="matrix(0, 0.01, 0.01, 0, 558.25, 287.64)" xlink:href="#Grass_7"/>
      <use width="108.82" height="75.4" transform="matrix(0, 0.01, 0.01, 0, 558.27, 288.06)" xlink:href="#Grass_7"/>
      <use width="108.82" height="75.4" transform="matrix(0, 0.01, 0.01, 0, 559.79, 287.91)" xlink:href="#Grass_7"/>
      <use width="108.82" height="75.4" transform="matrix(0, 0.01, 0.01, 0, 560.4, 287.05)" xlink:href="#Grass_7"/>
      <use width="108.82" height="75.4" transform="matrix(0, 0.01, 0.01, 0, 560.65, 286.88)" xlink:href="#Grass_7"/>
      <use width="108.82" height="75.4" transform="matrix(0, 0.01, 0.01, 0, 560.78, 288.58)" xlink:href="#Grass_7"/>
      <use width="108.82" height="75.4" transform="matrix(0, 0.01, 0.01, 0, 559.63, 287.11)" xlink:href="#Grass_7"/>
      <use width="108.82" height="75.4" transform="matrix(0, 0.01, 0.01, 0, 558.79, 287.57)" xlink:href="#Grass_7"/>
      <use width="108.82" height="75.4" transform="matrix(0, 0.01, 0.01, 0, 558.24, 286.87)" xlink:href="#Grass_7"/>
      <use width="108.82" height="75.4" transform="matrix(0, 0.01, 0.01, 0, 558.95, 287.7)" xlink:href="#Grass_7"/>
      <use width="108.82" height="75.4" transform="matrix(0, 0.01, 0.01, 0, 559.89, 286.21)" xlink:href="#Grass_7"/>
      <use width="108.82" height="75.4" transform="matrix(0, 0.01, 0.01, 0, 559.19, 287.95)" xlink:href="#Grass_7"/>
      <use width="108.82" height="75.4" transform="matrix(0, 0.01, 0.01, 0, 560.27, 287.71)" xlink:href="#Grass_7"/>
      <use width="108.82" height="75.4" transform="matrix(0, 0.01, 0.01, 0, 559.66, 288.37)" xlink:href="#Grass_7"/>
      <use width="108.82" height="75.4" transform="matrix(0, 0.01, 0.01, 0, 558.63, 288.48)" xlink:href="#Grass_7"/>
      <use width="108.82" height="75.4" transform="matrix(0, 0.01, 0.01, 0, 558.41, 288.5)" xlink:href="#Grass_7"/>
      <use width="108.82" height="75.4" transform="matrix(0, 0.01, 0.01, 0, 559.05, 288.53)" xlink:href="#Grass_7"/>
      <use width="108.82" height="75.4" transform="matrix(0, 0.01, 0.01, 0, 559.45, 288.48)" xlink:href="#Grass_7"/>
      <use width="108.82" height="75.4" transform="matrix(0, 0.01, 0.01, 0, 560.12, 288.49)" xlink:href="#Grass_7"/>
      <use width="108.82" height="75.4" transform="matrix(0, 0.01, 0.01, 0, 560.34, 288.33)" xlink:href="#Grass_7"/>
      <use width="108.82" height="75.4" transform="matrix(0, 0.01, 0.01, 0, 561.25, 286.83)" xlink:href="#Grass_7"/>
      <use width="108.82" height="75.4" transform="matrix(0, 0.01, 0.01, 0, 561.59, 287.45)" xlink:href="#Grass_7"/>
      <use width="108.82" height="75.4" transform="matrix(0, 0.01, 0.01, 0, 562.16, 287.13)" xlink:href="#Grass_7"/>
      <use width="108.82" height="75.4" transform="matrix(0, 0.01, 0.01, 0, 562.31, 287.54)" xlink:href="#Grass_7"/>
      <use width="108.82" height="75.4" transform="matrix(0, 0.01, 0.01, 0, 562.31, 286.88)" xlink:href="#Grass_7"/>
      <use width="108.82" height="75.4" transform="matrix(0, 0.01, 0.01, 0, 562.01, 288.76)" xlink:href="#Grass_7"/>
      <use width="108.82" height="75.4" transform="matrix(0, 0.01, 0.01, 0, 562.05, 286.57)" xlink:href="#Grass_7"/>
      <use width="108.82" height="75.4" transform="matrix(0, 0.01, 0.01, 0, 561.6, 286.89)" xlink:href="#Grass_7"/>
      <use width="108.82" height="75.4" transform="matrix(0, 0.01, 0.01, 0, 560.74, 288.64)" xlink:href="#Grass_7"/>
      <use width="108.82" height="75.4" transform="matrix(0, 0.01, 0.01, 0, 561.39, 288.62)" xlink:href="#Grass_7"/>
      <use width="108.82" height="75.4" transform="matrix(0, 0.01, 0.01, 0, 561.34, 287.27)" xlink:href="#Grass_7"/>
      <use width="108.82" height="75.4" transform="matrix(0, 0.01, 0.01, 0, 560.76, 286.03)" xlink:href="#Grass_7"/>
      <use width="108.82" height="75.4" transform="matrix(0, 0.01, 0.01, 0, 560.46, 285.98)" xlink:href="#Grass_7"/>
      <use width="108.82" height="75.4" transform="matrix(0, 0.01, 0.01, 0, 559.84, 285.93)" xlink:href="#Grass_7"/>
      <use width="108.82" height="75.4" transform="matrix(0, 0.01, 0.01, 0, 559.37, 285.93)" xlink:href="#Grass_7"/>
      <use width="108.82" height="75.4" transform="matrix(0, 0.01, 0.01, 0, 558.76, 286)" xlink:href="#Grass_7"/>
      <use width="108.82" height="75.4" transform="matrix(0, 0.01, 0.01, 0, 558.36, 286.16)" xlink:href="#Grass_7"/>
      <use width="108.82" height="75.4" transform="matrix(0, 0.01, 0.01, 0, 559.27, 285.94)" xlink:href="#Grass_7"/>
      <use width="108.82" height="75.4" transform="matrix(0, 0.01, 0.01, 0, 559.81, 285.93)" xlink:href="#Grass_7"/>
      <use width="108.82" height="75.4" transform="matrix(0, 0.01, 0.01, 0, 560.37, 285.92)" xlink:href="#Grass_7"/>
      <use width="108.82" height="75.4" transform="matrix(0, 0.01, 0.01, 0, 561.38, 287.73)" xlink:href="#Grass_7"/>
      <use width="108.82" height="75.4" transform="matrix(0, 0.01, 0.01, 0, 561.38, 288.09)" xlink:href="#Grass_7"/>
      <use width="108.82" height="75.4" transform="matrix(0, 0.01, 0.01, 0, 560.79, 288.06)" xlink:href="#Grass_7"/>
      <use width="108.82" height="75.4" transform="matrix(0, 0.01, 0.01, 0, 560.79, 287.74)" xlink:href="#Grass_7"/>
      <use width="108.82" height="75.4" transform="matrix(0, 0.01, 0.01, 0, 561.06, 287.73)" xlink:href="#Grass_7"/>
      <use width="108.82" height="75.4" transform="matrix(0, 0.01, 0.01, 0, 561.96, 287.72)" xlink:href="#Grass_7"/>
      <use width="108.82" height="75.4" transform="matrix(0, 0.01, 0.01, 0, 561.97, 287.97)" xlink:href="#Grass_7"/>
      <use width="108.82" height="75.4" transform="matrix(0, 0.01, 0.01, 0, 560.85, 286.64)" xlink:href="#Grass_7"/>
      <use width="108.82" height="75.4" transform="matrix(0, 0.01, 0.01, 0, 562.38, 287.79)" xlink:href="#Grass_7"/>
      <use width="108.82" height="75.4" transform="matrix(0, 0.01, 0.01, 0, 561.9, 288.78)" xlink:href="#Grass_7"/>
      <use width="108.82" height="75.4" transform="matrix(0, 0.01, 0.01, 0, 562.41, 287.7)" xlink:href="#Grass_7"/>
      <use width="108.82" height="75.4" transform="matrix(0, 0.01, 0.01, 0, 562.37, 287.97)" xlink:href="#Grass_7"/>
      <use width="108.82" height="75.4" transform="matrix(0, 0.01, 0.01, 0, 562.07, 288.38)" xlink:href="#Grass_7"/>
      <use width="108.82" height="75.4" transform="matrix(0, 0.01, 0.01, 0, 561.57, 288.66)" xlink:href="#Grass_7"/>
      <use width="108.82" height="75.4" transform="matrix(0, 0.01, 0.01, 0, 561.34, 288.63)" xlink:href="#Grass_7"/>
      <use width="108.82" height="75.4" transform="matrix(0, 0.01, 0.01, 0, 561.18, 288.62)" xlink:href="#Grass_7"/>
      <use width="108.82" height="75.4" transform="matrix(0, 0.01, 0.01, 0, 560.93, 288.35)" xlink:href="#Grass_7"/>
      <use width="108.82" height="75.4" transform="matrix(0, 0.01, 0.01, 0, 560.93, 287.96)" xlink:href="#Grass_7"/>
      <use width="108.82" height="75.4" transform="matrix(0, 0.01, 0.01, 0, 560.9, 287.43)" xlink:href="#Grass_7"/>
      <use width="108.82" height="75.4" transform="matrix(0, 0.01, 0.01, 0, 560.27, 286.52)" xlink:href="#Grass_7"/>
      <use width="108.82" height="75.4" transform="matrix(0, 0.01, 0.01, 0, 559.96, 286.58)" xlink:href="#Grass_7"/>
      <use width="108.82" height="75.4" transform="matrix(0, 0.01, 0.01, 0, 559.73, 286.65)" xlink:href="#Grass_7"/>
      <use width="108.82" height="75.4" transform="matrix(0, 0.01, 0.01, 0, 559.49, 286.48)" xlink:href="#Grass_7"/>
      <use width="108.82" height="75.4" transform="matrix(0, 0.01, 0.01, 0, 558.76, 286.43)" xlink:href="#Grass_7"/>
      <use width="108.82" height="75.4" transform="matrix(0, 0.01, 0.01, 0, 559.07, 287)" xlink:href="#Grass_7"/>
      <use width="108.82" height="75.4" transform="matrix(0, 0.01, 0.01, 0, 558.81, 287.07)" xlink:href="#Grass_7"/>
      <use width="108.82" height="75.4" transform="matrix(0, 0.01, 0.01, 0, 558.79, 286.64)" xlink:href="#Grass_7"/>
      <use width="108.82" height="75.4" transform="matrix(0, 0.01, 0.01, 0, 559.26, 287.17)" xlink:href="#Grass_7"/>
      <use width="108.82" height="75.4" transform="matrix(0, 0.01, 0.01, 0, 559.19, 287.37)" xlink:href="#Grass_7"/>
      <use width="108.82" height="75.4" transform="matrix(0, 0.01, 0.01, 0, 558.54, 287.3)" xlink:href="#Grass_7"/>
      <use width="108.82" height="75.4" transform="matrix(0, 0.01, 0.01, 0, 558.58, 286.99)" xlink:href="#Grass_7"/>
      <use width="108.82" height="75.4" transform="matrix(0, 0.01, 0.01, 0, 558.47, 287.3)" xlink:href="#Grass_7"/>
      <use width="108.82" height="75.4" transform="matrix(0, 0.01, 0.01, 0, 558.54, 286.82)" xlink:href="#Grass_7"/>
      <use width="108.82" height="75.4" transform="matrix(0, 0.01, 0.01, 0, 558.57, 286.41)" xlink:href="#Grass_7"/>
      <use width="108.82" height="75.4" transform="matrix(0, 0.01, 0.01, 0, 562, 288.5)" xlink:href="#Grass_7"/>
      <use width="108.82" height="75.4" transform="matrix(0, 0.01, 0.01, 0, 558.46, 288.14)" xlink:href="#Grass_7"/>
      <use width="108.82" height="75.4" transform="matrix(0, 0.01, 0.01, 0, 559.01, 288.11)" xlink:href="#Grass_7"/>
      <use width="108.82" height="75.4" transform="matrix(0, 0.01, 0.01, 0, 559.33, 288.08)" xlink:href="#Grass_7"/>
      <use width="108.82" height="75.4" transform="matrix(0, 0.01, 0.01, 0, 559.58, 287.57)" xlink:href="#Grass_7"/>
      <use width="108.82" height="75.4" transform="matrix(0, 0.01, 0.01, 0, 559.89, 287.43)" xlink:href="#Grass_7"/>
      <use width="108.82" height="75.4" transform="matrix(0, 0.01, 0.01, 0, 560.09, 287.43)" xlink:href="#Grass_7"/>
      <use width="108.82" height="75.4" transform="matrix(0, 0.01, 0.01, 0, 560.24, 287.97)" xlink:href="#Grass_7"/>
      <use width="108.82" height="75.4" transform="matrix(0, 0.01, 0.01, 0, 560.41, 287.73)" xlink:href="#Grass_7"/>
      <use width="108.82" height="75.4" transform="matrix(0, 0.01, 0.01, 0, 560.54, 288.3)" xlink:href="#Grass_7"/>
      <use width="108.82" height="75.4" transform="matrix(0, 0.01, 0.01, 0, 561, 286.86)" xlink:href="#Grass_7"/>
      <use width="108.82" height="75.4" transform="matrix(0, 0.01, 0.01, 0, 560.17, 288.43)" xlink:href="#Grass_7"/>
      <use width="108.82" height="75.4" transform="matrix(0, 0.01, 0.01, 0, 559.91, 288.15)" xlink:href="#Grass_7"/>
      <use width="108.82" height="75.4" transform="matrix(0, 0.01, 0.01, 0, 559.69, 288.95)" xlink:href="#Grass_7"/>
      <use width="108.82" height="75.4" transform="matrix(0, 0.01, 0.01, 0, 559.28, 288.97)" xlink:href="#Grass_7"/>
      <use width="108.82" height="75.4" transform="matrix(0, 0.01, 0.01, 0, 558.94, 288.92)" xlink:href="#Grass_7"/>
      <use width="108.82" height="75.4" transform="matrix(0, 0.01, 0.01, 0, 558.79, 288.93)" xlink:href="#Grass_7"/>
      <use width="108.82" height="75.4" transform="matrix(0, 0.01, 0.01, 0, 558.54, 288.93)" xlink:href="#Grass_7"/>
      <use width="108.82" height="75.4" transform="matrix(0, 0.01, 0.01, 0, 558.55, 289.38)" xlink:href="#Grass_7"/>
      <use width="108.82" height="75.4" transform="matrix(0, 0.01, 0.01, 0, 558.78, 289.37)" xlink:href="#Grass_7"/>
      <use width="108.82" height="75.4" transform="matrix(0, 0.01, 0.01, 0, 559.4, 289.05)" xlink:href="#Grass_7"/>
      <use width="108.82" height="75.4" transform="matrix(0, 0.01, 0.01, 0, 559.76, 288.87)" xlink:href="#Grass_7"/>
      <use width="108.82" height="75.4" transform="matrix(0, 0.01, 0.01, 0, 559.32, 288.83)" xlink:href="#Grass_7"/>
      <use width="108.82" height="75.4" transform="matrix(0, 0.01, 0.01, 0, 560.27, 288.88)" xlink:href="#Grass_7"/>
      <use width="108.82" height="75.4" transform="matrix(0, 0.01, 0.01, 0, 560.88, 288.7)" xlink:href="#Grass_7"/>
      <use width="108.82" height="75.4" transform="matrix(0, 0.01, 0.01, 0, 560.45, 288.87)" xlink:href="#Grass_7"/>
      <use width="108.82" height="75.4" transform="matrix(0, 0.01, 0.01, 0, 560.05, 289.28)" xlink:href="#Grass_7"/>
      <use width="108.82" height="75.4" transform="matrix(0, 0.01, 0.01, 0, 559.73, 289.32)" xlink:href="#Grass_7"/>
      <use width="108.82" height="75.4" transform="matrix(0, 0.01, 0.01, 0, 559.45, 289.35)" xlink:href="#Grass_7"/>
      <use width="108.82" height="75.4" transform="matrix(0, 0.01, 0.01, 0, 559.24, 289.35)" xlink:href="#Grass_7"/>
      <use width="108.82" height="75.4" transform="matrix(0, 0.01, 0.01, 0, 558.92, 289.38)" xlink:href="#Grass_7"/>
      <use width="108.82" height="75.4" transform="matrix(0, 0.01, 0.01, 0, 558.51, 289.3)" xlink:href="#Grass_7"/>
      <use width="108.82" height="75.4" transform="matrix(0, 0.01, 0.01, 0, 558.4, 289.32)" xlink:href="#Grass_7"/>
      <use width="108.82" height="75.4" transform="matrix(0, 0.01, 0.01, 0, 558.24, 289.64)" xlink:href="#Grass_7"/>
      <use width="108.82" height="75.4" transform="matrix(0, 0.01, 0.01, 0, 558.09, 288.63)" xlink:href="#Grass_7"/>
      <use width="108.82" height="75.4" transform="matrix(0, 0.01, 0.01, 0, 558.11, 288.35)" xlink:href="#Grass_7"/>
      <use width="108.82" height="75.4" transform="matrix(0, 0.01, 0.01, 0, 558.09, 288.11)" xlink:href="#Grass_7"/>
      <use width="108.82" height="75.4" transform="matrix(0, 0.01, 0.01, 0, 558.11, 287.81)" xlink:href="#Grass_7"/>
      <use width="108.82" height="75.4" transform="matrix(0, 0.01, 0.01, 0, 558.12, 287.55)" xlink:href="#Grass_7"/>
      <use width="108.82" height="75.4" transform="matrix(0, 0.01, 0.01, 0, 558.09, 287.33)" xlink:href="#Grass_7"/>
      <use width="108.82" height="75.4" transform="matrix(0, 0.01, 0.01, 0, 558.1, 287.23)" xlink:href="#Grass_7"/>
      <use width="108.82" height="75.4" transform="matrix(0, 0.01, 0.01, 0, 558.07, 288.77)" xlink:href="#Grass_7"/>
      <use width="108.82" height="75.4" transform="matrix(0, 0.01, 0.01, 0, 558.06, 288.93)" xlink:href="#Grass_7"/>
      <use width="108.82" height="75.4" transform="matrix(0, 0.01, 0.01, 0, 558.14, 288.98)" xlink:href="#Grass_7"/>
      <use width="108.82" height="75.4" transform="matrix(0, 0.01, 0.01, 0, 558.17, 289.24)" xlink:href="#Grass_7"/>
      <use width="108.82" height="75.4" transform="matrix(0, 0.01, 0.01, 0, 558.18, 289.52)" xlink:href="#Grass_7"/>
      <use width="108.82" height="75.4" transform="matrix(0, 0.01, 0.01, 0, 558.25, 289.52)" xlink:href="#Grass_7"/>
      <use width="108.82" height="75.4" transform="matrix(0, 0.01, 0.01, 0, 558.47, 289.64)" xlink:href="#Grass_7"/>
      <use width="108.82" height="75.4" transform="matrix(0, 0.01, 0.01, 0, 558.63, 289.7)" xlink:href="#Grass_7"/>
      <use width="108.82" height="75.4" transform="matrix(0, 0.01, 0.01, 0, 558.94, 289.75)" xlink:href="#Grass_7"/>
      <use width="108.82" height="75.4" transform="matrix(0, 0.01, 0.01, 0, 559.32, 289.72)" xlink:href="#Grass_7"/>
      <use width="108.82" height="75.4" transform="matrix(0, 0.01, 0.01, 0, 559.59, 289.67)" xlink:href="#Grass_7"/>
      <use width="108.82" height="75.4" transform="matrix(0, 0.01, 0.01, 0, 559.9, 289.47)" xlink:href="#Grass_7"/>
      <use width="108.82" height="75.4" transform="matrix(0, 0.01, 0.01, 0, 560.36, 289.4)" xlink:href="#Grass_7"/>
      <use width="108.82" height="75.4" transform="matrix(0, 0.01, 0.01, 0, 560.49, 289.56)" xlink:href="#Grass_7"/>
      <use width="108.82" height="75.4" transform="matrix(0, 0.01, 0.01, 0, 560.52, 289.28)" xlink:href="#Grass_7"/>
      <use width="108.82" height="75.4" transform="matrix(0, 0.01, 0.01, 0, 560.47, 289.61)" xlink:href="#Grass_7"/>
      <use width="108.82" height="75.4" transform="matrix(0, 0.01, 0.01, 0, 560.57, 289.8)" xlink:href="#Grass_7"/>
      <use width="108.82" height="75.4" transform="matrix(0, 0.01, 0.01, 0, 560.81, 289.85)" xlink:href="#Grass_7"/>
      <use width="108.82" height="75.4" transform="matrix(0, 0.01, 0.01, 0, 560.24, 289.89)" xlink:href="#Grass_7"/>
      <use width="108.82" height="75.4" transform="matrix(0, 0.01, 0.01, 0, 559.99, 289.92)" xlink:href="#Grass_7"/>
      <use width="108.82" height="75.4" transform="matrix(0, 0.01, 0.01, 0, 559.51, 290.03)" xlink:href="#Grass_7"/>
      <use width="108.82" height="75.4" transform="matrix(0, 0.01, 0.01, 0, 559.1, 290)" xlink:href="#Grass_7"/>
      <use width="108.82" height="75.4" transform="matrix(0, 0.01, 0.01, 0, 558.85, 289.83)" xlink:href="#Grass_7"/>
      <use width="108.82" height="75.4" transform="matrix(0, 0.01, 0.01, 0, 558.2, 289.95)" xlink:href="#Grass_7"/>
      <use width="108.82" height="75.4" transform="matrix(0, 0.01, 0.01, 0, 559.04, 289.13)" xlink:href="#Grass_7"/>
      <use width="108.82" height="75.4" transform="matrix(0, 0.01, 0.01, 0, 559.49, 287.83)" xlink:href="#Grass_7"/>
      <use width="108.82" height="75.4" transform="matrix(0, 0.01, 0.01, 0, 561.23, 286.3)" xlink:href="#Grass_7"/>
      <use width="108.82" height="75.4" transform="matrix(0, 0.01, 0.01, 0, 561.01, 286.73)" xlink:href="#Grass_7"/>
      <use width="108.82" height="75.4" transform="matrix(0, 0.01, 0.01, 0, 561.01, 286.72)" xlink:href="#Grass_7"/>
      <use width="108.82" height="75.4" transform="matrix(0, 0.01, 0.01, 0, 560.59, 288.55)" xlink:href="#Grass_7"/>
      <use width="108.82" height="75.4" transform="matrix(0, 0.01, 0.01, 0, 560.57, 286.55)" xlink:href="#Grass_7"/>
      <use width="108.82" height="75.4" transform="matrix(0, 0.01, 0.01, 0, 560.75, 286.03)" xlink:href="#Grass_7"/>
      <use width="108.82" height="75.4" transform="matrix(0, 0.01, 0.01, 0, 561.54, 286.37)" xlink:href="#Grass_7"/>
      <use width="108.82" height="75.4" transform="matrix(0, 0.01, 0.01, 0, 559.91, 287.7)" xlink:href="#Grass_7"/>
      <use width="108.82" height="75.4" transform="matrix(0, 0.01, 0.01, 0, 561.87, 288.76)" xlink:href="#Grass_7"/>
      <use width="108.82" height="75.4" transform="matrix(0, 0.01, 0.01, 0, 561.76, 288.91)" xlink:href="#Grass_7"/>
      <use width="108.82" height="75.4" transform="matrix(0.01, 0, 0, -0.01, 558.33, 288.88)" xlink:href="#Grass_7"/>
      <use width="108.82" height="75.4" transform="matrix(0.01, 0, 0, -0.01, 558.91, 287.27)" xlink:href="#Grass_7"/>
      <use width="108.82" height="75.4" transform="matrix(0.01, 0, 0, -0.01, 559.75, 286.78)" xlink:href="#Grass_7"/>
      <use width="108.82" height="75.4" transform="matrix(0.01, 0, 0, -0.01, 561.66, 287.54)" xlink:href="#Grass_7"/>
      <use width="108.82" height="75.4" transform="matrix(0.01, 0, 0, -0.01, 560.01, 287.55)" xlink:href="#Grass_7"/>
      <use width="108.82" height="75.4" transform="matrix(0.01, 0, 0, -0.01, 558.27, 286.79)" xlink:href="#Grass_7"/>
      <use width="108.82" height="75.4" transform="matrix(0.01, 0, 0, -0.01, 559.2, 286.74)" xlink:href="#Grass_7"/>
      <use width="108.82" height="75.4" transform="matrix(0.01, 0, 0, -0.01, 560.03, 286.6)" xlink:href="#Grass_7"/>
      <use width="108.82" height="75.4" transform="matrix(0.01, 0, 0, -0.01, 560.55, 286.63)" xlink:href="#Grass_7"/>
      <use width="108.82" height="75.4" transform="matrix(0.01, 0, 0, -0.01, 561.13, 286.87)" xlink:href="#Grass_7"/>
      <use width="108.82" height="75.4" transform="matrix(0.01, 0, 0, -0.01, 561.62, 287.21)" xlink:href="#Grass_7"/>
      <use width="108.82" height="75.4" transform="matrix(0.01, 0, 0, -0.01, 562, 287.49)" xlink:href="#Grass_7"/>
      <use width="108.82" height="75.4" transform="matrix(0.01, 0, 0, -0.01, 560.8, 287.43)" xlink:href="#Grass_7"/>
      <use width="108.82" height="75.4" transform="matrix(0.01, 0, 0, -0.01, 560.29, 287.18)" xlink:href="#Grass_7"/>
      <use width="108.82" height="75.4" transform="matrix(0.01, 0, 0, -0.01, 559.63, 287.25)" xlink:href="#Grass_7"/>
      <use width="108.82" height="75.4" transform="matrix(0.01, 0, 0, -0.01, 558.15, 287.25)" xlink:href="#Grass_7"/>
      <use width="108.82" height="75.4" transform="matrix(0.01, 0, 0, -0.01, 558.19, 287.79)" xlink:href="#Grass_7"/>
      <use width="108.82" height="75.4" transform="matrix(0.01, 0, 0, -0.01, 558.17, 288.32)" xlink:href="#Grass_7"/>
      <use width="108.82" height="75.4" transform="matrix(0.01, 0, 0, -0.01, 558.96, 288.02)" xlink:href="#Grass_7"/>
      <use width="108.82" height="75.4" transform="matrix(0.01, 0, 0, -0.01, 558.88, 287.81)" xlink:href="#Grass_7"/>
      <use width="108.82" height="75.4" transform="matrix(0.01, 0, 0, -0.01, 559.67, 287.84)" xlink:href="#Grass_7"/>
      <use width="108.82" height="75.4" transform="matrix(0.01, 0, 0, -0.01, 560.49, 288)" xlink:href="#Grass_7"/>
      <use width="108.82" height="75.4" transform="matrix(0.01, 0, 0, -0.01, 561.29, 287.9)" xlink:href="#Grass_7"/>
      <use width="108.82" height="75.4" transform="matrix(0.01, 0, 0, -0.01, 561.88, 288.15)" xlink:href="#Grass_7"/>
      <use width="108.82" height="75.4" transform="matrix(0.01, 0, 0, -0.01, 561.95, 288.58)" xlink:href="#Grass_7"/>
      <use width="108.82" height="75.4" transform="matrix(0.01, 0, 0, -0.01, 561.68, 289)" xlink:href="#Grass_7"/>
      <use width="108.82" height="75.4" transform="matrix(0.01, 0, 0, -0.01, 561.14, 289.13)" xlink:href="#Grass_7"/>
      <use width="108.82" height="75.4" transform="matrix(0.01, 0, 0, -0.01, 560.49, 289.13)" xlink:href="#Grass_7"/>
      <use width="108.82" height="75.4" transform="matrix(0.01, 0, 0, -0.01, 561.16, 288.92)" xlink:href="#Grass_7"/>
      <use width="108.82" height="75.4" transform="matrix(0.01, 0, 0, -0.01, 561.18, 288.4)" xlink:href="#Grass_7"/>
      <use width="108.82" height="75.4" transform="matrix(0.01, 0, 0, -0.01, 559.67, 288.52)" xlink:href="#Grass_7"/>
      <use width="108.82" height="75.4" transform="matrix(0.01, 0, 0, -0.01, 558.93, 288.61)" xlink:href="#Grass_7"/>
      <use width="108.82" height="75.4" transform="matrix(0.01, 0, 0, -0.01, 560.35, 288.59)" xlink:href="#Grass_7"/>
      <use width="108.82" height="75.4" transform="matrix(0.01, 0, 0, -0.01, 559.57, 289.04)" xlink:href="#Grass_7"/>
      <use width="108.82" height="75.4" transform="matrix(0.01, 0, 0, -0.01, 558.86, 289.06)" xlink:href="#Grass_7"/>
      <use width="108.82" height="75.4" transform="matrix(0.01, 0, 0, -0.01, 558.24, 289.25)" xlink:href="#Grass_7"/>
      <use width="108.82" height="75.4" transform="matrix(0.01, 0, 0, -0.01, 558.27, 289.8)" xlink:href="#Grass_7"/>
      <use width="108.82" height="75.4" transform="matrix(0.01, 0, 0, -0.01, 559.42, 289.55)" xlink:href="#Grass_7"/>
      <use width="108.82" height="75.4" transform="matrix(0.01, 0, 0, -0.01, 560.01, 289.64)" xlink:href="#Grass_7"/>
      <use width="108.82" height="75.4" transform="matrix(0.01, 0, 0, -0.01, 560.3, 290.12)" xlink:href="#Grass_7"/>
      <use width="108.82" height="75.4" transform="matrix(0.01, 0, 0, -0.01, 559.71, 290.28)" xlink:href="#Grass_7"/>
      <use width="108.82" height="75.4" transform="matrix(0.01, 0, 0, -0.01, 559.18, 290.27)" xlink:href="#Grass_7"/>
      <use width="108.82" height="75.4" transform="matrix(0.01, 0, 0, -0.01, 558.46, 290.31)" xlink:href="#Grass_7"/>
      <use width="108.82" height="75.4" transform="matrix(0.01, 0, 0, -0.01, 558.07, 290.31)" xlink:href="#Grass_7"/>
      <use width="108.82" height="75.4" transform="matrix(0.01, 0, 0, -0.01, 558.86, 289.72)" xlink:href="#Grass_7"/>
      <use width="108.82" height="75.4" transform="matrix(0.01, 0, 0, -0.01, 559.57, 288.21)" xlink:href="#Grass_7"/>
      <use width="108.82" height="75.4" transform="matrix(0.01, 0, 0, -0.01, 559.21, 288.28)" xlink:href="#Grass_7"/>
      <use width="108.82" height="75.4" transform="matrix(0.01, 0, 0, -0.01, 558.26, 288.55)" xlink:href="#Grass_7"/>
      <use width="108.82" height="75.4" transform="matrix(0.01, 0, 0, -0.01, 558.19, 289.44)" xlink:href="#Grass_7"/>
      <use width="108.82" height="75.4" transform="matrix(0.01, 0, 0, -0.01, 558.18, 289.73)" xlink:href="#Grass_7"/>
      <use width="108.82" height="75.4" transform="matrix(0.01, 0, 0, -0.01, 560.63, 288.04)" xlink:href="#Grass_7"/>
      <use width="108.82" height="75.4" transform="matrix(0.01, 0, 0, -0.01, 559.13, 287.27)" xlink:href="#Grass_7"/>
      <use width="108.82" height="75.4" transform="matrix(0, 0.01, 0.01, 0, 561.04, 286.87)" xlink:href="#Grass_7"/>
      <use width="108.82" height="75.4" transform="matrix(0, 0.01, 0.01, 0, 559.66, 286.14)" xlink:href="#Grass_7"/>
      <use width="108.82" height="75.4" transform="matrix(0, 0.01, 0.01, 0, 560.26, 286.09)" xlink:href="#Grass_7"/>
      <use width="108.82" height="75.4" transform="matrix(0, 0.01, 0.01, 0, 560.85, 286.05)" xlink:href="#Grass_7"/>
      <use width="108.82" height="75.4" transform="matrix(0, 0.01, 0.01, 0, 558.38, 286.24)" xlink:href="#Grass_7"/>
      <use width="108.82" height="75.4" transform="matrix(0, 0.01, 0.01, 0, 561.32, 286.15)" xlink:href="#Grass_7"/>
      <use width="108.82" height="75.4" transform="matrix(0, 0.01, 0.01, 0, 561.83, 286.5)" xlink:href="#Grass_7"/>
      <use width="108.82" height="75.4" transform="matrix(0, 0.01, 0.01, 0, 559.1, 286.18)" xlink:href="#Grass_7"/>
      <use width="108.82" height="75.4" transform="matrix(0, 0.01, 0.01, 0, 558.89, 286.13)" xlink:href="#Grass_7"/>
      <use width="108.82" height="75.4" transform="matrix(0, 0.01, 0.01, 0, 562.13, 286.96)" xlink:href="#Grass_7"/>
      <use width="108.82" height="75.4" transform="matrix(0, 0.01, 0.01, 0, 561.2, 287.15)" xlink:href="#Grass_7"/>
      <use width="108.82" height="75.4" transform="matrix(0, 0.01, 0.01, 0, 560.47, 287.37)" xlink:href="#Grass_7"/>
      <use width="108.82" height="75.4" transform="matrix(0, 0.01, 0.01, 0, 560.21, 287.12)" xlink:href="#Grass_7"/>
      <use width="108.82" height="75.4" transform="matrix(0, 0.01, 0.01, 0, 559.48, 287)" xlink:href="#Grass_7"/>
      <use width="108.82" height="75.4" transform="matrix(0, 0.01, 0.01, 0, 558.7, 287.03)" xlink:href="#Grass_7"/>
      <use width="108.82" height="75.4" transform="matrix(0, 0.01, 0.01, 0, 558.22, 287.03)" xlink:href="#Grass_7"/>
      <use width="108.82" height="75.4" transform="matrix(0, 0.01, 0.01, 0, 558.23, 286.57)" xlink:href="#Grass_7"/>
      <use width="108.82" height="75.4" transform="matrix(0, 0.01, 0.01, 0, 558.24, 287.6)" xlink:href="#Grass_7"/>
      <use width="108.82" height="75.4" transform="matrix(0, 0.01, 0.01, 0, 558.25, 288.03)" xlink:href="#Grass_7"/>
      <use width="108.82" height="75.4" transform="matrix(0, 0.01, 0.01, 0, 559.77, 287.88)" xlink:href="#Grass_7"/>
      <use width="108.82" height="75.4" transform="matrix(0, 0.01, 0.01, 0, 560.38, 287.01)" xlink:href="#Grass_7"/>
      <use width="108.82" height="75.4" transform="matrix(0, 0.01, 0.01, 0, 560.63, 286.84)" xlink:href="#Grass_7"/>
      <use width="108.82" height="75.4" transform="matrix(0, 0.01, 0.01, 0, 560.77, 288.55)" xlink:href="#Grass_7"/>
      <use width="108.82" height="75.4" transform="matrix(0, 0.01, 0.01, 0, 559.61, 287.08)" xlink:href="#Grass_7"/>
      <use width="108.82" height="75.4" transform="matrix(0, 0.01, 0.01, 0, 558.77, 287.54)" xlink:href="#Grass_7"/>
      <use width="108.82" height="75.4" transform="matrix(0, 0.01, 0.01, 0, 558.22, 286.83)" xlink:href="#Grass_7"/>
      <use width="108.82" height="75.4" transform="matrix(0, 0.01, 0.01, 0, 558.93, 287.67)" xlink:href="#Grass_7"/>
      <use width="108.82" height="75.4" transform="matrix(0, 0.01, 0.01, 0, 559.87, 286.18)" xlink:href="#Grass_7"/>
      <use width="108.82" height="75.4" transform="matrix(0, 0.01, 0.01, 0, 559.17, 287.91)" xlink:href="#Grass_7"/>
      <use width="108.82" height="75.4" transform="matrix(0, 0.01, 0.01, 0, 560.25, 287.67)" xlink:href="#Grass_7"/>
      <use width="108.82" height="75.4" transform="matrix(0, 0.01, 0.01, 0, 559.64, 288.33)" xlink:href="#Grass_7"/>
      <use width="108.82" height="75.4" transform="matrix(0, 0.01, 0.01, 0, 558.62, 288.45)" xlink:href="#Grass_7"/>
      <use width="108.82" height="75.4" transform="matrix(0, 0.01, 0.01, 0, 558.39, 288.46)" xlink:href="#Grass_7"/>
      <use width="108.82" height="75.4" transform="matrix(0, 0.01, 0.01, 0, 559.03, 288.5)" xlink:href="#Grass_7"/>
      <use width="108.82" height="75.4" transform="matrix(0, 0.01, 0.01, 0, 559.43, 288.45)" xlink:href="#Grass_7"/>
      <use width="108.82" height="75.4" transform="matrix(0, 0.01, 0.01, 0, 560.1, 288.45)" xlink:href="#Grass_7"/>
      <use width="108.82" height="75.4" transform="matrix(0, 0.01, 0.01, 0, 560.32, 288.3)" xlink:href="#Grass_7"/>
      <use width="108.82" height="75.4" transform="matrix(0, 0.01, 0.01, 0, 561.23, 286.79)" xlink:href="#Grass_7"/>
      <use width="108.82" height="75.4" transform="matrix(0, 0.01, 0.01, 0, 561.57, 287.42)" xlink:href="#Grass_7"/>
      <use width="108.82" height="75.4" transform="matrix(0, 0.01, 0.01, 0, 562.14, 287.09)" xlink:href="#Grass_7"/>
      <use width="108.82" height="75.4" transform="matrix(0, 0.01, 0.01, 0, 562.29, 287.51)" xlink:href="#Grass_7"/>
      <use width="108.82" height="75.4" transform="matrix(0, 0.01, 0.01, 0, 562.29, 286.85)" xlink:href="#Grass_7"/>
      <use width="108.82" height="75.4" transform="matrix(0, 0.01, 0.01, 0, 562, 288.73)" xlink:href="#Grass_7"/>
      <use width="108.82" height="75.4" transform="matrix(0, 0.01, 0.01, 0, 562.04, 286.54)" xlink:href="#Grass_7"/>
      <use width="108.82" height="75.4" transform="matrix(0, 0.01, 0.01, 0, 561.59, 286.86)" xlink:href="#Grass_7"/>
      <use width="108.82" height="75.4" transform="matrix(0, 0.01, 0.01, 0, 560.72, 288.6)" xlink:href="#Grass_7"/>
      <use width="108.82" height="75.4" transform="matrix(0, 0.01, 0.01, 0, 561.37, 288.59)" xlink:href="#Grass_7"/>
      <use width="108.82" height="75.4" transform="matrix(0, 0.01, 0.01, 0, 561.33, 287.24)" xlink:href="#Grass_7"/>
      <use width="108.82" height="75.4" transform="matrix(0, 0.01, 0.01, 0, 560.75, 285.99)" xlink:href="#Grass_7"/>
      <use width="108.82" height="75.4" transform="matrix(0, 0.01, 0.01, 0, 560.45, 285.95)" xlink:href="#Grass_7"/>
      <use width="108.82" height="75.4" transform="matrix(0, 0.01, 0.01, 0, 559.82, 285.9)" xlink:href="#Grass_7"/>
      <use width="108.82" height="75.4" transform="matrix(0, 0.01, 0.01, 0, 559.35, 285.9)" xlink:href="#Grass_7"/>
      <use width="108.82" height="75.4" transform="matrix(0, 0.01, 0.01, 0, 558.75, 285.96)" xlink:href="#Grass_7"/>
      <use width="108.82" height="75.4" transform="matrix(0, 0.01, 0.01, 0, 558.34, 286.13)" xlink:href="#Grass_7"/>
      <use width="108.82" height="75.4" transform="matrix(0, 0.01, 0.01, 0, 559.26, 285.91)" xlink:href="#Grass_7"/>
      <use width="108.82" height="75.4" transform="matrix(0, 0.01, 0.01, 0, 559.79, 285.89)" xlink:href="#Grass_7"/>
      <use width="108.82" height="75.4" transform="matrix(0, 0.01, 0.01, 0, 560.35, 285.89)" xlink:href="#Grass_7"/>
      <use width="108.82" height="75.4" transform="matrix(0, 0.01, 0.01, 0, 561.36, 287.7)" xlink:href="#Grass_7"/>
      <use width="108.82" height="75.4" transform="matrix(0, 0.01, 0.01, 0, 561.36, 288.05)" xlink:href="#Grass_7"/>
      <use width="108.82" height="75.4" transform="matrix(0, 0.01, 0.01, 0, 560.78, 288.02)" xlink:href="#Grass_7"/>
      <use width="108.82" height="75.4" transform="matrix(0, 0.01, 0.01, 0, 560.77, 287.7)" xlink:href="#Grass_7"/>
      <use width="108.82" height="75.4" transform="matrix(0, 0.01, 0.01, 0, 561.04, 287.7)" xlink:href="#Grass_7"/>
      <use width="108.82" height="75.4" transform="matrix(0, 0.01, 0.01, 0, 561.94, 287.69)" xlink:href="#Grass_7"/>
      <use width="108.82" height="75.4" transform="matrix(0, 0.01, 0.01, 0, 561.95, 287.94)" xlink:href="#Grass_7"/>
      <use width="108.82" height="75.4" transform="matrix(0, 0.01, 0.01, 0, 560.83, 286.61)" xlink:href="#Grass_7"/>
      <use width="108.82" height="75.4" transform="matrix(0, 0.01, 0.01, 0, 562.37, 287.76)" xlink:href="#Grass_7"/>
      <use width="108.82" height="75.4" transform="matrix(0, 0.01, 0.01, 0, 561.89, 288.74)" xlink:href="#Grass_7"/>
      <use width="108.82" height="75.4" transform="matrix(0, 0.01, 0.01, 0, 562.39, 287.66)" xlink:href="#Grass_7"/>
      <use width="108.82" height="75.4" transform="matrix(0, 0.01, 0.01, 0, 562.36, 287.94)" xlink:href="#Grass_7"/>
      <use width="108.82" height="75.4" transform="matrix(0, 0.01, 0.01, 0, 562.05, 288.35)" xlink:href="#Grass_7"/>
      <use width="108.82" height="75.4" transform="matrix(0, 0.01, 0.01, 0, 561.55, 288.62)" xlink:href="#Grass_7"/>
      <use width="108.82" height="75.4" transform="matrix(0, 0.01, 0.01, 0, 561.32, 288.6)" xlink:href="#Grass_7"/>
      <use width="108.82" height="75.4" transform="matrix(0, 0.01, 0.01, 0, 561.17, 288.59)" xlink:href="#Grass_7"/>
      <use width="108.82" height="75.4" transform="matrix(0, 0.01, 0.01, 0, 560.91, 288.31)" xlink:href="#Grass_7"/>
      <use width="108.82" height="75.4" transform="matrix(0, 0.01, 0.01, 0, 560.91, 287.93)" xlink:href="#Grass_7"/>
      <use width="108.82" height="75.4" transform="matrix(0, 0.01, 0.01, 0, 560.88, 287.39)" xlink:href="#Grass_7"/>
      <use width="108.82" height="75.4" transform="matrix(0, 0.01, 0.01, 0, 560.26, 286.48)" xlink:href="#Grass_7"/>
      <use width="108.82" height="75.4" transform="matrix(0, 0.01, 0.01, 0, 559.95, 286.54)" xlink:href="#Grass_7"/>
      <use width="108.82" height="75.4" transform="matrix(0, 0.01, 0.01, 0, 559.71, 286.62)" xlink:href="#Grass_7"/>
      <use width="108.82" height="75.4" transform="matrix(0, 0.01, 0.01, 0, 559.48, 286.44)" xlink:href="#Grass_7"/>
      <use width="108.82" height="75.4" transform="matrix(0, 0.01, 0.01, 0, 558.74, 286.4)" xlink:href="#Grass_7"/>
      <use width="108.82" height="75.4" transform="matrix(0, 0.01, 0.01, 0, 559.05, 286.97)" xlink:href="#Grass_7"/>
      <use width="108.82" height="75.4" transform="matrix(0, 0.01, 0.01, 0, 558.8, 287.04)" xlink:href="#Grass_7"/>
      <use width="108.82" height="75.4" transform="matrix(0, 0.01, 0.01, 0, 558.77, 286.61)" xlink:href="#Grass_7"/>
      <use width="108.82" height="75.4" transform="matrix(0, 0.01, 0.01, 0, 559.24, 287.14)" xlink:href="#Grass_7"/>
      <use width="108.82" height="75.4" transform="matrix(0, 0.01, 0.01, 0, 559.18, 287.33)" xlink:href="#Grass_7"/>
      <use width="108.82" height="75.4" transform="matrix(0, 0.01, 0.01, 0, 558.53, 287.27)" xlink:href="#Grass_7"/>
      <use width="108.82" height="75.4" transform="matrix(0, 0.01, 0.01, 0, 558.56, 286.96)" xlink:href="#Grass_7"/>
      <use width="108.82" height="75.4" transform="matrix(0, 0.01, 0.01, 0, 558.45, 287.27)" xlink:href="#Grass_7"/>
      <use width="108.82" height="75.4" transform="matrix(0, 0.01, 0.01, 0, 558.53, 286.79)" xlink:href="#Grass_7"/>
      <use width="108.82" height="75.4" transform="matrix(0, 0.01, 0.01, 0, 558.55, 286.37)" xlink:href="#Grass_7"/>
      <use width="108.82" height="75.4" transform="matrix(0, 0.01, 0.01, 0, 561.98, 288.47)" xlink:href="#Grass_7"/>
      <use width="108.82" height="75.4" transform="matrix(0, 0.01, 0.01, 0, 558.44, 288.1)" xlink:href="#Grass_7"/>
      <use width="108.82" height="75.4" transform="matrix(0, 0.01, 0.01, 0, 559, 288.08)" xlink:href="#Grass_7"/>
      <use width="108.82" height="75.4" transform="matrix(0, 0.01, 0.01, 0, 559.31, 288.05)" xlink:href="#Grass_7"/>
      <use width="108.82" height="75.4" transform="matrix(0, 0.01, 0.01, 0, 559.57, 287.54)" xlink:href="#Grass_7"/>
      <use width="108.82" height="75.4" transform="matrix(0, 0.01, 0.01, 0, 559.87, 287.4)" xlink:href="#Grass_7"/>
      <use width="108.82" height="75.4" transform="matrix(0, 0.01, 0.01, 0, 560.08, 287.4)" xlink:href="#Grass_7"/>
      <use width="108.82" height="75.4" transform="matrix(0, 0.01, 0.01, 0, 560.23, 287.93)" xlink:href="#Grass_7"/>
      <use width="108.82" height="75.4" transform="matrix(0, 0.01, 0.01, 0, 560.39, 287.7)" xlink:href="#Grass_7"/>
      <use width="108.82" height="75.4" transform="matrix(0, 0.01, 0.01, 0, 560.52, 288.26)" xlink:href="#Grass_7"/>
      <use width="108.82" height="75.4" transform="matrix(0, 0.01, 0.01, 0, 560.99, 286.82)" xlink:href="#Grass_7"/>
      <use width="108.82" height="75.4" transform="matrix(0, 0.01, 0.01, 0, 560.15, 288.4)" xlink:href="#Grass_7"/>
      <use width="108.82" height="75.4" transform="matrix(0, 0.01, 0.01, 0, 559.89, 288.11)" xlink:href="#Grass_7"/>
      <use width="108.82" height="75.4" transform="matrix(0, 0.01, 0.01, 0, 559.67, 288.92)" xlink:href="#Grass_7"/>
      <use width="108.82" height="75.4" transform="matrix(0, 0.01, 0.01, 0, 559.27, 288.94)" xlink:href="#Grass_7"/>
      <use width="108.82" height="75.4" transform="matrix(0, 0.01, 0.01, 0, 558.92, 288.89)" xlink:href="#Grass_7"/>
      <use width="108.82" height="75.4" transform="matrix(0, 0.01, 0.01, 0, 558.77, 288.89)" xlink:href="#Grass_7"/>
      <use width="108.82" height="75.4" transform="matrix(0, 0.01, 0.01, 0, 558.53, 288.9)" xlink:href="#Grass_7"/>
      <use width="108.82" height="75.4" transform="matrix(0, 0.01, 0.01, 0, 558.54, 289.34)" xlink:href="#Grass_7"/>
      <use width="108.82" height="75.4" transform="matrix(0, 0.01, 0.01, 0, 558.76, 289.34)" xlink:href="#Grass_7"/>
      <use width="108.82" height="75.4" transform="matrix(0, 0.01, 0.01, 0, 559.39, 289.02)" xlink:href="#Grass_7"/>
      <use width="108.82" height="75.4" transform="matrix(0, 0.01, 0.01, 0, 559.75, 288.84)" xlink:href="#Grass_7"/>
      <use width="108.82" height="75.4" transform="matrix(0, 0.01, 0.01, 0, 559.3, 288.79)" xlink:href="#Grass_7"/>
      <use width="108.82" height="75.4" transform="matrix(0, 0.01, 0.01, 0, 560.25, 288.85)" xlink:href="#Grass_7"/>
      <use width="108.82" height="75.4" transform="matrix(0, 0.01, 0.01, 0, 560.87, 288.67)" xlink:href="#Grass_7"/>
      <use width="108.82" height="75.4" transform="matrix(0, 0.01, 0.01, 0, 560.43, 288.84)" xlink:href="#Grass_7"/>
      <use width="108.82" height="75.4" transform="matrix(0, 0.01, 0.01, 0, 560.03, 289.25)" xlink:href="#Grass_7"/>
      <use width="108.82" height="75.4" transform="matrix(0, 0.01, 0.01, 0, 559.72, 289.29)" xlink:href="#Grass_7"/>
      <use width="108.82" height="75.4" transform="matrix(0, 0.01, 0.01, 0, 559.43, 289.32)" xlink:href="#Grass_7"/>
      <use width="108.82" height="75.4" transform="matrix(0, 0.01, 0.01, 0, 559.23, 289.31)" xlink:href="#Grass_7"/>
      <use width="108.82" height="75.4" transform="matrix(0, 0.01, 0.01, 0, 558.9, 289.35)" xlink:href="#Grass_7"/>
      <use width="108.82" height="75.4" transform="matrix(0, 0.01, 0.01, 0, 558.49, 289.27)" xlink:href="#Grass_7"/>
      <use width="108.82" height="75.4" transform="matrix(0, 0.01, 0.01, 0, 558.39, 289.29)" xlink:href="#Grass_7"/>
      <use width="108.82" height="75.4" transform="matrix(0, 0.01, 0.01, 0, 558.22, 289.61)" xlink:href="#Grass_7"/>
      <use width="108.82" height="75.4" transform="matrix(0, 0.01, 0.01, 0, 558.07, 288.6)" xlink:href="#Grass_7"/>
      <use width="108.82" height="75.4" transform="matrix(0, 0.01, 0.01, 0, 558.09, 288.32)" xlink:href="#Grass_7"/>
      <use width="108.82" height="75.4" transform="matrix(0, 0.01, 0.01, 0, 558.07, 288.08)" xlink:href="#Grass_7"/>
      <use width="108.82" height="75.4" transform="matrix(0, 0.01, 0.01, 0, 558.09, 287.78)" xlink:href="#Grass_7"/>
      <use width="108.82" height="75.4" transform="matrix(0, 0.01, 0.01, 0, 558.1, 287.51)" xlink:href="#Grass_7"/>
      <use width="108.82" height="75.4" transform="matrix(0, 0.01, 0.01, 0, 558.08, 287.3)" xlink:href="#Grass_7"/>
      <use width="108.82" height="75.4" transform="matrix(0, 0.01, 0.01, 0, 558.08, 287.19)" xlink:href="#Grass_7"/>
      <use width="108.82" height="75.4" transform="matrix(0, 0.01, 0.01, 0, 558.06, 288.74)" xlink:href="#Grass_7"/>
      <use width="108.82" height="75.4" transform="matrix(0, 0.01, 0.01, 0, 558.05, 288.9)" xlink:href="#Grass_7"/>
      <use width="108.82" height="75.4" transform="matrix(0, 0.01, 0.01, 0, 558.13, 288.94)" xlink:href="#Grass_7"/>
      <use width="108.82" height="75.4" transform="matrix(0, 0.01, 0.01, 0, 558.16, 289.21)" xlink:href="#Grass_7"/>
      <use width="108.82" height="75.4" transform="matrix(0, 0.01, 0.01, 0, 558.16, 289.48)" xlink:href="#Grass_7"/>
      <use width="108.82" height="75.4" transform="matrix(0, 0.01, 0.01, 0, 558.23, 289.49)" xlink:href="#Grass_7"/>
      <use width="108.82" height="75.4" transform="matrix(0, 0.01, 0.01, 0, 558.46, 289.61)" xlink:href="#Grass_7"/>
      <use width="108.82" height="75.4" transform="matrix(0, 0.01, 0.01, 0, 558.62, 289.67)" xlink:href="#Grass_7"/>
      <use width="108.82" height="75.4" transform="matrix(0, 0.01, 0.01, 0, 558.92, 289.72)" xlink:href="#Grass_7"/>
      <use width="108.82" height="75.4" transform="matrix(0, 0.01, 0.01, 0, 559.3, 289.68)" xlink:href="#Grass_7"/>
      <use width="108.82" height="75.4" transform="matrix(0, 0.01, 0.01, 0, 559.57, 289.63)" xlink:href="#Grass_7"/>
      <use width="108.82" height="75.4" transform="matrix(0, 0.01, 0.01, 0, 559.88, 289.43)" xlink:href="#Grass_7"/>
      <use width="108.82" height="75.4" transform="matrix(0, 0.01, 0.01, 0, 560.34, 289.36)" xlink:href="#Grass_7"/>
      <use width="108.82" height="75.4" transform="matrix(0, 0.01, 0.01, 0, 560.47, 289.53)" xlink:href="#Grass_7"/>
      <use width="108.82" height="75.4" transform="matrix(0, 0.01, 0.01, 0, 560.5, 289.25)" xlink:href="#Grass_7"/>
      <use width="108.82" height="75.4" transform="matrix(0, 0.01, 0.01, 0, 560.45, 289.57)" xlink:href="#Grass_7"/>
      <use width="108.82" height="75.4" transform="matrix(0, 0.01, 0.01, 0, 560.55, 289.76)" xlink:href="#Grass_7"/>
      <use width="108.82" height="75.4" transform="matrix(0, 0.01, 0.01, 0, 560.79, 289.82)" xlink:href="#Grass_7"/>
      <use width="108.82" height="75.4" transform="matrix(0, 0.01, 0.01, 0, 560.23, 289.86)" xlink:href="#Grass_7"/>
      <use width="108.82" height="75.4" transform="matrix(0, 0.01, 0.01, 0, 559.97, 289.89)" xlink:href="#Grass_7"/>
      <use width="108.82" height="75.4" transform="matrix(0, 0.01, 0.01, 0, 559.5, 289.99)" xlink:href="#Grass_7"/>
      <use width="108.82" height="75.4" transform="matrix(0, 0.01, 0.01, 0, 559.08, 289.96)" xlink:href="#Grass_7"/>
      <use width="108.82" height="75.4" transform="matrix(0, 0.01, 0.01, 0, 558.83, 289.8)" xlink:href="#Grass_7"/>
      <use width="108.82" height="75.4" transform="matrix(0, 0.01, 0.01, 0, 558.18, 289.92)" xlink:href="#Grass_7"/>
      <use width="108.82" height="75.4" transform="matrix(0, 0.01, 0.01, 0, 559.02, 289.1)" xlink:href="#Grass_7"/>
      <use width="108.82" height="75.4" transform="matrix(0, 0.01, 0.01, 0, 559.47, 287.79)" xlink:href="#Grass_7"/>
      <use width="108.82" height="75.4" transform="matrix(0, 0.01, 0.01, 0, 561.22, 286.26)" xlink:href="#Grass_7"/>
      <use width="108.82" height="75.4" transform="matrix(0, 0.01, 0.01, 0, 560.99, 286.69)" xlink:href="#Grass_7"/>
      <use width="108.82" height="75.4" transform="matrix(0, 0.01, 0.01, 0, 561, 286.69)" xlink:href="#Grass_7"/>
      <use width="108.82" height="75.4" transform="matrix(0, 0.01, 0.01, 0, 560.57, 288.51)" xlink:href="#Grass_7"/>
      <use width="108.82" height="75.4" transform="matrix(0, 0.01, 0.01, 0, 560.56, 286.52)" xlink:href="#Grass_7"/>
      <use width="108.82" height="75.4" transform="matrix(0, 0.01, 0.01, 0, 560.74, 286)" xlink:href="#Grass_7"/>
      <use width="108.82" height="75.4" transform="matrix(0, 0.01, 0.01, 0, 561.53, 286.34)" xlink:href="#Grass_7"/>
      <use width="108.82" height="75.4" transform="matrix(0, 0.01, 0.01, 0, 559.89, 287.67)" xlink:href="#Grass_7"/>
      <use width="108.82" height="75.4" transform="matrix(0, 0.01, 0.01, 0, 561.85, 288.72)" xlink:href="#Grass_7"/>
      <use width="108.82" height="75.4" transform="matrix(0, 0.01, 0.01, 0, 561.74, 288.87)" xlink:href="#Grass_7"/>
    </g>
    <g id="Layer_10" data-name="Layer 10">
      <path d="M561.56,291.54a2.35,2.35,0,0,1,.13.84s15.32-.21,15.52-.3l.09-.3S561.72,291.64,561.56,291.54Z" fill="#494949"/>
      <polygon points="558.33 291.92 559.13 291.93 559.13 293.67 558.31 293.67 558.33 291.92" fill="#4f4438"/>
      <polygon points="570 291.92 570 293.5 571.35 293.5 571.32 291.92 570 291.92" fill="#4f4438"/>
      <polygon points="559.16 292.6 559.55 292.63 559.51 293.55 559.16 293.55 559.16 292.6" fill="#ede95a"/>
      <rect x="565.05" y="292.94" width="0.38" height="0.96" fill="#ede95a"/>
      <polygon points="570.87 292.85 570.89 293.82 571.28 293.82 571.28 292.82 570.87 292.85" fill="#ede95a"/>
      <polygon points="582.67 292.87 582.62 293.87 583.04 293.91 583.1 292.9 582.67 292.87" fill="#ede95a"/>
      <polygon points="589.44 293.16 589.44 294.18 589.9 294.18 589.92 293.16 589.44 293.16" fill="#ede95a"/>
      <rect x="596.49" y="293.01" width="0.5" height="1.07" fill="#ede95a"/>
      <polygon points="576.73 291.8 576.67 293.99 577.14 294.02 577.22 291.77 576.73 291.8"/>
      <polygon points="559.16 292.76 559.54 292.79 559.54 292.92 559.16 292.89 559.16 292.76"/>
      <polygon points="559.16 293 559.53 293.03 559.53 293.15 559.16 293.11 559.16 293"/>
      <polygon points="559.16 293.21 559.52 293.25 559.52 293.36 559.16 293.33 559.16 293.21"/>
      <rect x="565.05" y="293.09" width="0.38" height="0.14"/>
      <rect x="565.05" y="293.35" width="0.38" height="0.15"/>
      <rect x="565.05" y="293.62" width="0.38" height="0.14"/>
      <polygon points="570.87 293.03 571.28 293 571.28 293.16 570.87 293.18 570.87 293.03"/>
      <polygon points="571.28 293.3 571.28 293.43 570.88 293.45 570.88 293.32 571.28 293.3"/>
      <polygon points="570.89 293.58 571.28 293.56 571.28 293.69 570.89 293.71 570.89 293.58"/>
      <polygon points="582.67 293.01 583.09 293.05 583.08 293.2 582.66 293.16 582.67 293.01"/>
      <polygon points="582.65 293.28 583.08 293.32 583.07 293.47 582.64 293.44 582.65 293.28"/>
      <polygon points="582.64 293.59 583.06 293.62 583.04 293.79 582.63 293.75 582.64 293.59"/>
      <polygon points="589.91 293.29 589.91 293.46 589.44 293.48 589.44 293.29 589.91 293.29"/>
      <polygon points="589.91 293.6 589.9 293.75 589.44 293.75 589.44 293.6 589.91 293.6"/>
      <polygon points="589.9 293.89 589.9 294.05 589.44 294.05 589.44 293.89 589.9 293.89"/>
      <rect x="596.49" y="293.15" width="0.5" height="0.17"/>
      <rect x="596.49" y="293.47" width="0.5" height="0.18"/>
      <rect x="596.49" y="293.78" width="0.5" height="0.18"/>
    </g>
    <g id="Layer_11" data-name="Layer 11">
      <path d="M559.55,292.67s4.34.3,5.5.32"/>
      <path d="M565.43,293s4.35.08,5.5,0"/>
      <path d="M571.35,292.89s4.34-.37,5.48-.52"/>
      <path d="M571.28,293.32s4.34-.37,5.48-.52"/>
      <path d="M577.2,292.4s4.33.49,5.47.57"/>
      <path d="M583.1,293s5,.28,6.33.3"/>
      <path d="M589.91,293.25s5.22-.1,6.6-.17"/>
      <path d="M597,293.07s5.2-.4,6.58-.55"/>
      <path d="M597,293.56s5.2-.4,6.58-.55"/>
      <path d="M597,294s5.22-.41,6.58-.55"/>
      <path d="M589.91,293.71s5.22-.1,6.6-.17"/>
      <path d="M589.91,294.17s5.22-.1,6.6-.17"/>
      <path d="M583.09,293.41s5,.28,6.33.3"/>
      <path d="M583.06,293.82s5,.28,6.33.3"/>
      <path d="M577.2,292.82s4.33.5,5.48.57"/>
      <path d="M577.15,293.28s4.32.49,5.47.57"/>
      <path d="M571.28,293.69s4.34-.37,5.48-.52"/>
      <path d="M565.43,293.39s4.35.08,5.5,0"/>
      <path d="M565.38,293.75s4.35.08,5.5,0"/>
      <path d="M559.52,293.06s4.34.3,5.5.32"/>
      <path d="M559.55,293.52s4.34.3,5.5.32"/>
      <path d="M589.73,292.06v-.89a.71.71,0,0,1,1,0v.89h-1" fill="#3a3937"/>
    </g>
    <g id="Layer_14" data-name="Layer 14">
      <rect x="558.45" y="290.44" width="0.12" height="0.27" fill="#252628"/>
      <rect x="558.95" y="290.44" width="0.1" height="0.27" fill="#252628"/>
      <rect x="559.15" y="290.44" width="0.09" height="0.27" fill="#252628"/>
      <rect x="559.5" y="290.44" width="0.08" height="0.27" fill="#252628"/>
      <rect x="559.67" y="290.44" width="0.1" height="0.27" fill="#252628"/>
      <rect x="560.32" y="290.49" width="0.09" height="0.23" fill="#252628"/>
      <rect x="560.51" y="290.49" width="0.08" height="0.23" fill="#252628"/>
      <rect x="560.67" y="290.49" width="0.07" height="0.23" fill="#252628"/>
      <rect x="560.84" y="290.49" width="0.08" height="0.23" fill="#252628"/>
      <rect x="561" y="290.49" width="0.08" height="0.23" fill="#252628"/>
      <path d="M583,291.78v-.72a.22.22,0,0,1,.41,0v.72Z" fill="#252628"/>
      <polygon points="575.29 286.26 575.29 286.93 575.76 286.93 575.76 286.26 575.61 286.04 575.43 286.04 575.29 286.26" fill="#252628"/>
      <polygon points="577.53 287.48 577.53 286.69 577.44 286.69 577.59 286.48 577.73 286.48 577.88 286.67 577.81 286.68 577.79 287.48 577.53 287.48" fill="#252628"/>
      <polygon points="581.65 286.73 581.65 287.57 581.92 287.57 581.92 286.73 582 286.73 581.86 286.54 581.73 286.54 581.58 286.73 581.65 286.73" fill="#252628"/>
      <polygon points="583.15 286.72 583.15 287.29 583.4 287.29 583.4 286.72 583.46 286.72 583.3 286.54 583.21 286.54 583.08 286.73 583.15 286.72" fill="#252628"/>
      <polygon points="584.59 286.5 584.59 287.44 585.48 287.44 585.48 286.46 585.31 286.46 585.3 286.33 584.59 286.33 584.59 286.5" fill="#30241a"/>
      <rect x="590.05" y="286.92" width="0.43" height="0.44" fill="#fff"/>
      <rect x="590.05" y="288.08" width="0.43" height="0.54" fill="#fff"/>
      <rect x="590.05" y="289.34" width="0.43" height="0.57" fill="#fff"/>
      <rect x="577.81" y="288.24" width="0.42" height="0.53" fill="#fff"/>
      <rect x="576.59" y="288.24" width="0.42" height="0.53" fill="#fff"/>
      <rect x="576.55" y="289.52" width="0.42" height="0.45" fill="#fff"/>
      <rect x="576.55" y="290.44" width="0.42" height="0.48" fill="#fff"/>
      <rect x="575.33" y="288.24" width="0.42" height="0.53" fill="#fff"/>
      <rect x="578.6" y="288.24" width="0.42" height="0.53" fill="#fff"/>
      <rect x="579.43" y="288.24" width="0.4" height="0.53" fill="#fff"/>
      <rect x="580.22" y="288.24" width="0.36" height="0.53" fill="#fff"/>
      <rect x="577.81" y="289.52" width="0.38" height="0.45" fill="#fff"/>
      <rect x="578.6" y="289.52" width="0.36" height="0.45" fill="#fff"/>
      <rect x="579.43" y="289.52" width="0.4" height="0.45" fill="#fff"/>
      <rect x="577.81" y="290.44" width="0.38" height="0.55" fill="#fff"/>
      <rect x="578.6" y="290.44" width="0.36" height="0.55" fill="#fff"/>
      <rect x="579.43" y="290.44" width="0.4" height="0.55" fill="#fff"/>
      <rect x="580.64" y="289.63" width="0.32" height="0.19" fill="#fff"/>
      <rect x="580.66" y="291.29" width="0.32" height="0.19" fill="#fff"/>
      <rect x="581.64" y="289.63" width="0.33" height="0.19" fill="#fff"/>
      <rect x="580.64" y="290.43" width="0.32" height="0.36" fill="#fff"/>
      <rect x="581.64" y="290.52" width="0.33" height="0.17" fill="#fff"/>
      <rect x="581.64" y="291.26" width="0.33" height="0.17" fill="#fff"/>
      <rect x="582.34" y="289.63" width="0.31" height="0.19" fill="#fff"/>
      <rect x="582.34" y="290.52" width="0.31" height="0.17" fill="#fff"/>
      <rect x="582.31" y="291.26" width="0.31" height="0.17" fill="#fff"/>
      <rect x="583.02" y="289.63" width="0.32" height="0.19" fill="#fff"/>
      <rect x="583.7" y="289.63" width="0.34" height="0.19" fill="#fff"/>
      <rect x="584.38" y="289.63" width="0.36" height="0.19" fill="#fff"/>
      <rect x="583.7" y="290.51" width="0.34" height="0.17" fill="#fff"/>
      <rect x="583.7" y="291.26" width="0.34" height="0.17" fill="#fff"/>
      <rect x="584.38" y="290.51" width="0.36" height="0.17" fill="#fff"/>
      <rect x="584.38" y="291.26" width="0.36" height="0.17" fill="#fff"/>
      <rect x="585.59" y="290.99" width="0.45" height="0.48" fill="#fff"/>
      <rect x="586.38" y="290.99" width="0.43" height="0.48" fill="#fff"/>
      <rect x="587.15" y="290.99" width="0.44" height="0.48" fill="#fff"/>
      <rect x="593.43" y="290.99" width="0.44" height="0.48" fill="#fff"/>
      <rect x="594.21" y="290.99" width="0.5" height="0.48" fill="#fff"/>
      <rect x="594.98" y="290.99" width="0.47" height="0.48" fill="#fff"/>
      <rect x="595.79" y="290.99" width="0.48" height="0.48" fill="#fff"/>
      <rect x="596.6" y="290.99" width="0.44" height="0.48" fill="#fff"/>
      <rect x="597.37" y="290.99" width="0.51" height="0.48" fill="#fff"/>
      <rect x="598.21" y="290.99" width="0.48" height="0.48" fill="#fff"/>
      <rect x="599" y="290.99" width="0.47" height="0.48" fill="#fff"/>
      <rect x="599.78" y="290.99" width="0.5" height="0.48" fill="#fff"/>
      <rect x="600.62" y="290.99" width="0.45" height="0.48" fill="#fff"/>
      <rect x="601.44" y="290.99" width="0.48" height="0.48" fill="#fff"/>
      <polyline points="567.62 290.61 567.46 290.58 567.35 291.19" fill="none" stroke="#fff" stroke-miterlimit="10" stroke-width="0.1"/>
      <line x1="567.41" y1="290.89" x2="567.55" y2="290.91" fill="none" stroke="#fff" stroke-miterlimit="10" stroke-width="0.1"/>
      <path d="M567.72,290.7a.09.09,0,0,1,.11-.07h0c.09,0,.07.09.07.09s0,.16-.11.15.11,0,.06.21-.18.14-.18.14,0,0,0-.13" fill="none" stroke="#fff" stroke-miterlimit="10" stroke-width="0.1"/>
      <path d="M568.17,290.69l-.15,0,0,.25h.1s.06,0,0,.2-.09.16-.09.16-.11,0-.09-.17" fill="none" stroke="#fff" stroke-miterlimit="10" stroke-width="0.1"/>
      <path d="M568.26,290.76a.08.08,0,0,1,.09-.06.1.1,0,0,1,.08.07s0,.16-.1.2-.12.34-.12.34l.17,0" fill="none" stroke="#fff" stroke-miterlimit="10" stroke-width="0.1"/>
      <polyline points="575.37 291.24 575.27 291.24 575.27 291.6" fill="none" stroke="#fff" stroke-miterlimit="10" stroke-width="0.1"/>
      <line x1="575.27" y1="291.42" x2="575.36" y2="291.42" fill="none" stroke="#fff" stroke-miterlimit="10" stroke-width="0.1"/>
      <path d="M575.43,291.28a.05.05,0,0,1,.06-.05c.06,0,0,0,0,0s0,.09-.05.09.06,0,.05.12-.09.09-.09.09,0,0,0-.07" fill="none" stroke="#fff" stroke-miterlimit="10" stroke-width="0.1"/>
      <path d="M575.68,291.24h-.09v.15h.06s0,0,0,.11,0,.1,0,.1-.06,0-.06-.09" fill="none" stroke="#fff" stroke-miterlimit="10" stroke-width="0.1"/>
    </g>
  </g>
</svg>
