<svg id="Lag_6" data-name="Lag 6" xmlns="http://www.w3.org/2000/svg" xmlns:xlink="http://www.w3.org/1999/xlink" width="751.3" height="622" viewBox="0 0 751.3 622">
  <defs>
    <symbol id="Grass_7" data-name="Grass 7" viewBox="0 0 108.82 75.4">
      <g>
        <path d="M22.53,63s6.53-1,6.86-6.21C30.36,58.13,30.36,64.66,22.53,63Z" fill="#389a59"/>
        <path d="M34.06,57.4s6.29-2.42,8.23-5.32C38.9,52.84,35.52,55,34.06,57.4Z" fill="#005100"/>
        <path d="M72.72,21.62s-4.27,4-7,1.85C67.6,22.32,70.58,20.55,72.72,21.62Z" fill="#003d10"/>
        <path d="M19.53,69.12s-.85-4.67-3.59-6.83C16.4,65.73,17.23,67.49,19.53,69.12Z" fill="#005100"/>
        <path d="M14.13,32S8.9,33.17,6.5,36.82C10.29,36.13,12.31,35.05,14.13,32Z" fill="#005100"/>
        <path d="M11.65,17s3.65,4.57,1.3,7.16C11.95,22.12,10.42,19,11.65,17Z" fill="#003d10"/>
        <path d="M37.54,26.62s1.38-6.6,0-9.79C36.3,20.06,36.29,24.09,37.54,26.62Z" fill="#005100"/>
        <path d="M8.37,27.79S4.95,22.14,0,23.85C.83,22.4,6.86,19.92,8.37,27.79Z" fill="#a7cc6f"/>
        <path d="M48.07,6.88s-6.6.23-7.52,5.38C39.72,10.85,40.47,4.4,48.07,6.88Z" fill="#a7cc6f"/>
        <path d="M25.36,38.55S21.94,32.9,17,34.61C17.82,33.21,23.85,30.69,25.36,38.55Z" fill="#a7cc6f"/>
        <path d="M88,53.72S85.5,47.79,86.43,43C88.22,45.34,88.88,49.75,88,53.72Z" fill="#a7cc6f"/>
        <path d="M20,8.33s1.39,5.68-1.82,7C18.12,13.14,18,9.68,20,8.33Z" fill="#a3c360"/>
        <path d="M63.14,22.45s-3.42-5.65-8.37-3.94C55.6,17.11,61.63,14.59,63.14,22.45Z" fill="#a7cc6f"/>
        <path d="M62.82,8.19S61.32.46,57.44,0C57.21,3.85,60.39,6.75,62.82,8.19Z" fill="#a7cc6f"/>
        <path d="M35.14,69.82s-2.42-5.32.48-7.26C36.1,64.74,36.83,68.13,35.14,69.82Z" fill="#a3c360"/>
        <path d="M92.44,25.78s1.39,5.68-1.82,7C90.55,30.6,90.46,27.13,92.44,25.78Z" fill="#a3c360"/>
        <path d="M81.28,21.63s-1.5-7.73-5.38-8.23C75.67,17.28,78.85,20.19,81.28,21.63Z" fill="#a7cc6f"/>
        <path d="M100.19,25.69s4-5.08,8.63-6.63C107.62,21.8,104.09,24.53,100.19,25.69Z" fill="#a7cc6f"/>
        <path d="M78.66,40.93s4-5.08,8.63-6.63C86.09,37,82.56,39.77,78.66,40.93Z" fill="#a7cc6f"/>
        <path d="M67.72,36.52s-6.6.23-7.52,5.38C59.38,40.49,60.12,34,67.72,36.52Z" fill="#389a59"/>
        <path d="M31,31.63a11.3,11.3,0,0,1-1-7.87C31.77,26.15,31.89,27.66,31,31.63Z" fill="#389a59"/>
        <path d="M15.91,29.23s1.71-5.59,5.17-5.12C20,26.06,18.3,29.08,15.91,29.23Z" fill="#389a59"/>
        <path d="M69,58.54S65.83,52.6,62.71,51C63.87,54.3,66.44,57.4,69,58.54Z" fill="#2b682b"/>
        <path d="M53,65.4s1.31-6.61-.12-9.79C51.7,58.84,51.74,62.87,53,65.4Z" fill="#2b682b"/>
        <path d="M48.56,68.81s-5.27-4.2-8.75-4.4C42.15,67,45.74,68.78,48.56,68.81Z" fill="#2b682b"/>
        <path d="M58,62.11l1.67-2.71,3.08-2A6.15,6.15,0,0,1,58,62.11Z" fill="#287449"/>
        <path d="M53,75.4l1.45-3.63,2.66-2.9S57.17,74.4,53,75.4Z" fill="#287449"/>
        <path d="M84.1,33.09s-1.56-4.74-4.68-6.31C80.56,30.05,81.52,31.94,84.1,33.09Z" fill="#2b682b"/>
        <path d="M59.52,10.71S53.3,8.5,50.52,13C50.3,11.4,53.37,5.59,59.52,10.71Z" fill="#c1d5a1"/>
        <path d="M23.58,48S20.41,42,17.29,40.47C18.42,43.75,21,46.84,23.58,48Z" fill="#2b682b"/>
        <path d="M35.94,14.06s-3.41-5.66-8.36-3.94C28.4,8.72,34.43,6.2,35.94,14.06Z" fill="#287449"/>
        <path d="M81.84,7.57s-6.22-2.21-9,2.25C72.62,8.2,75.69,2.4,81.84,7.57Z" fill="#287449"/>
        <path d="M66.38,15.12a12,12,0,0,0,1.7-6.72C65.91,11.15,66,12.33,66.38,15.12Z" fill="#2b682b"/>
        <path d="M55.17,40.82S52,34.87,48.88,33.31C50,36.58,52.59,39.68,55.17,40.82Z" fill="#2b682b"/>
        <path d="M92.69,21.08s-3.17-6-6.29-7.51C87.54,16.84,90.11,19.94,92.69,21.08Z" fill="#2b682b"/>
        <path d="M49.63,20.4l-3.15-2.31-2.15-3.3S49.72,16.21,49.63,20.4Z" fill="#287449"/>
        <path d="M9.94,52.82s-3.42-5.65-8.37-3.94C2.4,47.48,8.43,45,9.94,52.82Z" fill="#287449"/>
        <path d="M50,29.56l1.45-3.63L54.11,23S54.08,28.59,50,29.56Z" fill="#287449"/>
        <path d="M53.44,45.3s-4.85.86-7.67,2.91C49.19,48.71,51.23,47.07,53.44,45.3Z" fill="#2b682b"/>
        <path d="M72.41,73.28S78.7,70.86,80.63,68C77.24,68.69,73.86,70.86,72.41,73.28Z" fill="#c1d5a1"/>
        <path d="M57.67,45.24s1.16,6.54-2,8C55.51,51.06,55.75,46.68,57.67,45.24Z" fill="#c1d5a1"/>
        <path d="M61.7,70.32l1.45-3.63,2.66-2.9S65.81,69.4,61.7,70.32Z" fill="#c1d5a1"/>
        <path d="M28.51,44.4s2.22,6.22,7.41,5.53C34.83,51.15,28.43,52.4,28.51,44.4Z" fill="#c1d5a1"/>
        <path d="M41.26,29.8s6.29-2.42,8.22-5.32C46.1,25.21,42.71,27.4,41.26,29.8Z" fill="#c1d5a1"/>
        <path d="M40.39,45.4l1.45-3.63,2.66-2.9S44.5,44.4,40.39,45.4Z" fill="#c1d5a1"/>
        <path d="M68.53,51.93s.85-6.55-4.08-8.3C66,43.05,72.25,44.84,68.53,51.93Z" fill="#c1d5a1"/>
        <path d="M57.66,27.24S66.92,28.6,67.5,32C65.32,31.59,58.51,29.48,57.66,27.24Z" fill="#c1d5a1"/>
        <path d="M23.72,21.4S30,19,31.95,16.08C28.56,16.8,25.17,19,23.72,21.4Z" fill="#c1d5a1"/>
        <path d="M15.62,52.67S15,46,12.76,43.3C12.53,46.76,13.69,50.61,15.62,52.67Z" fill="#c1d5a1"/>
        <path d="M36.66,42.8s-6.9-1.51-6.83-5C31.9,38.65,36.24,40.4,36.66,42.8Z" fill="#2b682b"/>
        <path d="M78.19,45.91,75.1,43.52,73,40.16S78.39,41.69,78.19,45.91Z" fill="#c1d5a1"/>
        <path d="M74.87,35.93s.3-6.73-1.58-9.67C72.6,29.65,73.24,33.63,74.87,35.93Z" fill="#389a59"/>
        <path d="M96.88,46s-1.49-7.73-5.38-8.19C91.28,41.66,94.45,44.56,96.88,46Z" fill="#389a59"/>
        <path d="M84.21,61.82s6.53-1,6.86-6.2C92,56.92,92,63.4,84.21,61.82Z" fill="#389a59"/>
        <path d="M20.34,56.71s4.25-1.31,6.19-4.21C23.14,53.22,21.79,54.29,20.34,56.71Z" fill="#389a59"/>
        <path d="M42,61.4l1.5-3.6,2.66-2.9S46.16,60.46,42,61.4Z" fill="#389a59"/>
        <path d="M108.61,46.84s-6.52-1-8.41,3.85C99.66,49.15,101.63,42.93,108.61,46.84Z" fill="#003d10"/>
        <path d="M43.19,37.72s-3.42-5.65-8.37-3.94C35.65,32.4,41.68,29.85,43.19,37.72Z" fill="#389a59"/>
        <path d="M79.56,49.53a22.62,22.62,0,0,0-4.79,7.07C78.34,55.18,78.39,52.89,79.56,49.53Z" fill="#005100"/>
        <path d="M78,62.57s-4.28,4-7,1.85C72.85,63.27,75.83,61.51,78,62.57Z" fill="#003d10"/>
      </g>
    </symbol>
  </defs>
  <title>water</title>
  <g>
    <g id="Layer_9" data-name="Layer 9">
      <polygon points="562.32 294.27 562.32 307.53 603.19 307.53 603.19 295.42 562.32 294.27" fill="#3766bc"/>
      <path d="M578.14,295.32a0,0,0,0,1,0,0,.05.05,0,0,1,0,0s0,.08,0,.11,0,.18,0,.18h.09" fill="none" stroke="#fff" stroke-miterlimit="10" stroke-width="0.1"/>
    </g>
    <g id="Layer_15" data-name="Layer 15">
      <line x1="562.33" y1="295" x2="565.2" y2="295.02" fill="none"/>
    </g>
    <g id="Layer_12" data-name="Layer 12">
      <path d="M562.35,295.37v.85s3.3,0,3.42-.14-.27-.71-.27-.71Z" fill="#3f362f"/>
      <polygon points="602.72 296.21 602.72 295.75 579.45 295.63 579.45 295.92 602.72 296.21" fill="#3f362f"/>
    </g>
    <g id="Layer_2" data-name="Layer 2">
      <rect x="566.14" y="293.4" width="21.29" height="2.35" fill="#bfa58e"/>
      <polygon points="586.47 291.36 587.43 292.52 587.43 293.4 566.14 293.4 566.14 293.02 568.01 291.36 586.47 291.36" fill="#b25550"/>
      <rect x="577.78" y="293.71" width="0.38" height="0.44" fill="#fff"/>
      <rect x="575.06" y="292.56" width="0.38" height="0.48" fill="#fff"/>
      <rect x="568.89" y="292.56" width="0.38" height="0.48" fill="#fff"/>
      <rect x="568.18" y="292.57" width="0.38" height="0.48" fill="#fff"/>
      <rect x="568.18" y="293.86" width="0.38" height="0.48" fill="#fff"/>
      <rect x="567.48" y="292.56" width="0.38" height="0.48" fill="#fff"/>
      <rect x="567.48" y="293.86" width="0.38" height="0.48" fill="#fff"/>
      <rect x="572.94" y="292.56" width="0.38" height="0.48" fill="#fff"/>
      <rect x="576.78" y="293.67" width="0.38" height="0.48" fill="#fff"/>
      <rect x="576.78" y="292.56" width="0.38" height="0.48" fill="#fff"/>
    </g>
    <g id="Layer_3" data-name="Layer 3">
      <rect x="582.18" y="293.65" width="5.27" height="2.11" fill="#c4af8d"/>
      <polygon points="583.52 292.75 582.02 293.71 587.6 293.71 585.96 292.75 583.52 292.75" fill="#9e4020"/>
    </g>
    <g id="Layer_4" data-name="Layer 4">
      <polygon points="586.64 294.8 586.64 295.81 602.72 296.03 602.72 294.8 586.64 294.8" fill="#e5cf73"/>
      <polygon points="587.49 292.89 586.64 294.07 586.64 294.8 602.72 294.8 602.3 292.89 587.49 292.89" fill="#474745"/>
    </g>
    <g id="Layer_5" data-name="Layer 5">
      <path d="M589.55,290.52V296h1.28v-.79s.54-.44.93,0V296h1.36l.59-.15.08-5.22-.67-.15Z" fill="#c1b999"/>
      <path d="M589.39,290.52h3.72l.73.16.07-.12a.42.42,0,0,1-.41-.34.66.66,0,0,0-.43-.44,1.07,1.07,0,0,1-.75-.41h-1.56a.81.81,0,0,1-.54.34.54.54,0,0,0-.45.46S589.8,290.39,589.39,290.52Z" fill="#acc6bd"/>
    </g>
    <g id="Layer_6" data-name="Layer 6">
      <polygon points="592.34 290.31 591.12 285.27 590.54 285.27 590.4 290.31 590.57 290.31 590.67 285.48 591.01 285.48 591.34 286.88 592.14 290.31 592.34 290.31" fill="#2b2624"/>
      <polygon points="590.28 286.86 590.26 287.08 591.49 287.06 591.44 286.86 590.28 286.86" fill="#2b2624"/>
      <polygon points="590.28 288.31 590.28 288.39 590.21 288.39 590.21 288.5 591.74 288.48 591.74 288.31 590.28 288.31" fill="#2b2624"/>
      <polygon points="590.75 285.41 591.28 290.31 591.44 290.31 590.87 285.38 590.75 285.41" fill="#2b2624"/>
      <polygon points="591.26 286.21 590.49 288.7 590.49 289.04 591.3 286.45 591.26 286.21" fill="#2b2624"/>
      <polygon points="590.53 287.15 591.71 288.18 591.71 287.94 590.56 287.01 590.53 287.15" fill="#2b2624"/>
      <rect x="590.54" y="287.22" width="0.96" height="0.1" fill="#2b2624"/>
      <polygon points="590.36 285.45 590.36 285.55 591.3 285.55 591.3 285.48 590.36 285.45" fill="#2b2624"/>
      <polygon points="590.4 285.31 590.4 285.41 591.3 285.43 591.3 285.33 590.4 285.31" fill="#2b2624"/>
      <polygon points="591.54 287.27 590.68 289.66 590.8 289.66 591.59 287.43 591.54 287.27" fill="#2b2624"/>
      <polygon points="590.4 288.46 591.41 288.94 591.41 289.31 591.55 289.31 591.55 289.1 591.62 289.1 591.62 289.31 591.78 289.31 591.78 289.11 591.93 289.1 591.91 288.88 590.37 288.38 590.4 288.46" fill="#2b2624"/>
      <path d="M591.59,286.89l-1-1.52h.51L592,287s-.19,0-.15.15.6,2.19.6,2.19h-.17l-.12-.51h-.06l.1.5h-.13Z" fill="#2b2624"/>
      <polygon points="591.44 288.85 591.59 286.67 591.71 286.67 591.71 288.9 591.44 288.85" fill="#2b2624"/>
      <polygon points="590.54 285.27 590.54 285.03 590.69 285.03 590.69 285.27 590.73 285.27 590.73 285.03 590.85 285.03 590.85 285.27 590.9 285.27 590.9 285.03 591.06 285.03 591.06 285.27 590.54 285.27" fill="#6d6764"/>
    </g>
    <g id="Layer_13" data-name="Layer 13">
      <polygon points="562.35 294.19 565.13 294.27 565.32 295.37 562.35 295.37 562.35 294.19" fill="#fff"/>
    </g>
    <g id="Layer_16" data-name="Layer 16">
      <line x1="562.33" y1="295" x2="565.2" y2="295.02" fill="none" stroke="#000" stroke-miterlimit="10" stroke-width="0.1"/>
      <line x1="562.33" y1="295.24" x2="565.26" y2="295.25" fill="none" stroke="#000" stroke-miterlimit="10" stroke-width="0.1"/>
    </g>
    <g id="Layer_7" data-name="Layer 7">
      <path d="M564.56,293.42a12.19,12.19,0,0,1,.78,2.15,1.54,1.54,0,0,1,0,.57s10.42.15,14.1-.2c0,0,.23-.79.13-1a67.11,67.11,0,0,1-12.3-1.11A9.43,9.43,0,0,0,564.56,293.42Z" fill="#999"/>
      <path d="M568.89,294.21v-.69l.5.07a68.45,68.45,0,0,0,8.79.76V295A47.14,47.14,0,0,1,568.89,294.21Z" fill="#666"/>
      <path d="M569.39,293.58l.11-1.77.4-.14h.86l1-1.18v-2.34h.37l.09,2a1.17,1.17,0,0,1,.81,1,9.17,9.17,0,0,1,.21,1.64v.51h.33l.15-.58.46,0,.07-1.75a.35.35,0,0,1-.09-.64s-.3-.7.24-.81.27.77.27.77a.38.38,0,0,1,0,.68l0,1.77.49,0v.86h.19v-.46h.21v-.3h.4v-1s.23-.72.44,0v1.06H577v1h.67V294h.44v.33A65,65,0,0,1,569.39,293.58Z" fill="#bcbcbc"/>
    </g>
    <g id="Layer_8" data-name="Layer 8">
      <use width="108.82" height="75.4" transform="matrix(0.01, 0, 0, -0.01, 562.36, 293.17)" xlink:href="#Grass_7"/>
      <use width="108.82" height="75.4" transform="matrix(0.01, 0, 0, -0.01, 562.89, 291.71)" xlink:href="#Grass_7"/>
      <use width="108.82" height="75.4" transform="matrix(0.01, 0, 0, -0.01, 563.65, 291.27)" xlink:href="#Grass_7"/>
      <use width="108.82" height="75.4" transform="matrix(0.01, 0, 0, -0.01, 565.38, 291.96)" xlink:href="#Grass_7"/>
      <use width="108.82" height="75.4" transform="matrix(0.01, 0, 0, -0.01, 563.89, 291.96)" xlink:href="#Grass_7"/>
      <use width="108.82" height="75.4" transform="matrix(0.01, 0, 0, -0.01, 562.31, 291.28)" xlink:href="#Grass_7"/>
      <use width="108.82" height="75.4" transform="matrix(0.01, 0, 0, -0.01, 563.14, 291.23)" xlink:href="#Grass_7"/>
      <use width="108.82" height="75.4" transform="matrix(0.01, 0, 0, -0.01, 563.9, 291.11)" xlink:href="#Grass_7"/>
      <use width="108.82" height="75.4" transform="matrix(0.01, 0, 0, -0.01, 564.37, 291.13)" xlink:href="#Grass_7"/>
      <use width="108.82" height="75.4" transform="matrix(0.01, 0, 0, -0.01, 564.9, 291.36)" xlink:href="#Grass_7"/>
      <use width="108.82" height="75.4" transform="matrix(0.01, 0, 0, -0.01, 565.34, 291.66)" xlink:href="#Grass_7"/>
      <use width="108.82" height="75.4" transform="matrix(0.01, 0, 0, -0.01, 565.69, 291.91)" xlink:href="#Grass_7"/>
      <use width="108.82" height="75.4" transform="matrix(0.01, 0, 0, -0.01, 564.6, 291.86)" xlink:href="#Grass_7"/>
      <use width="108.82" height="75.4" transform="matrix(0.01, 0, 0, -0.01, 564.14, 291.63)" xlink:href="#Grass_7"/>
      <use width="108.82" height="75.4" transform="matrix(0.01, 0, 0, -0.01, 563.54, 291.69)" xlink:href="#Grass_7"/>
      <use width="108.82" height="75.4" transform="matrix(0.01, 0, 0, -0.01, 562.2, 291.7)" xlink:href="#Grass_7"/>
      <use width="108.82" height="75.4" transform="matrix(0.01, 0, 0, -0.01, 562.23, 292.18)" xlink:href="#Grass_7"/>
      <use width="108.82" height="75.4" transform="matrix(0.01, 0, 0, -0.01, 562.21, 292.67)" xlink:href="#Grass_7"/>
      <use width="108.82" height="75.4" transform="matrix(0.01, 0, 0, -0.01, 562.93, 292.4)" xlink:href="#Grass_7"/>
      <use width="108.82" height="75.4" transform="matrix(0.01, 0, 0, -0.01, 562.86, 292.2)" xlink:href="#Grass_7"/>
      <use width="108.82" height="75.4" transform="matrix(0.01, 0, 0, -0.01, 563.57, 292.23)" xlink:href="#Grass_7"/>
      <use width="108.82" height="75.4" transform="matrix(0.01, 0, 0, -0.01, 564.32, 292.38)" xlink:href="#Grass_7"/>
      <use width="108.82" height="75.4" transform="matrix(0.01, 0, 0, -0.01, 565.05, 292.29)" xlink:href="#Grass_7"/>
      <use width="108.82" height="75.4" transform="matrix(0.01, 0, 0, -0.01, 565.58, 292.51)" xlink:href="#Grass_7"/>
      <use width="108.82" height="75.4" transform="matrix(0.01, 0, 0, -0.01, 565.65, 292.9)" xlink:href="#Grass_7"/>
      <use width="108.82" height="75.4" transform="matrix(0.01, 0, 0, -0.01, 565.4, 293.28)" xlink:href="#Grass_7"/>
      <use width="108.82" height="75.4" transform="matrix(0.01, 0, 0, -0.01, 564.91, 293.4)" xlink:href="#Grass_7"/>
      <use width="108.82" height="75.4" transform="matrix(0.01, 0, 0, -0.01, 564.32, 293.4)" xlink:href="#Grass_7"/>
      <use width="108.82" height="75.4" transform="matrix(0.01, 0, 0, -0.01, 564.93, 293.21)" xlink:href="#Grass_7"/>
      <use width="108.82" height="75.4" transform="matrix(0.01, 0, 0, -0.01, 564.95, 292.74)" xlink:href="#Grass_7"/>
      <use width="108.82" height="75.4" transform="matrix(0.01, 0, 0, -0.01, 563.58, 292.85)" xlink:href="#Grass_7"/>
      <use width="108.82" height="75.4" transform="matrix(0.01, 0, 0, -0.01, 562.91, 292.93)" xlink:href="#Grass_7"/>
      <use width="108.82" height="75.4" transform="matrix(0.01, 0, 0, -0.01, 564.19, 292.92)" xlink:href="#Grass_7"/>
      <use width="108.82" height="75.4" transform="matrix(0.01, 0, 0, -0.01, 563.49, 293.32)" xlink:href="#Grass_7"/>
      <use width="108.82" height="75.4" transform="matrix(0.01, 0, 0, -0.01, 562.84, 293.34)" xlink:href="#Grass_7"/>
      <use width="108.82" height="75.4" transform="matrix(0.01, 0, 0, -0.01, 562.28, 293.51)" xlink:href="#Grass_7"/>
      <use width="108.82" height="75.4" transform="matrix(0.01, 0, 0, -0.01, 562.31, 294.01)" xlink:href="#Grass_7"/>
      <use width="108.82" height="75.4" transform="matrix(0.01, 0, 0, -0.01, 563.35, 293.78)" xlink:href="#Grass_7"/>
      <use width="108.82" height="75.4" transform="matrix(0.01, 0, 0, -0.01, 563.89, 293.86)" xlink:href="#Grass_7"/>
      <use width="108.82" height="75.4" transform="matrix(0.01, 0, 0, -0.01, 564.15, 294.3)" xlink:href="#Grass_7"/>
      <use width="108.82" height="75.4" transform="matrix(0.01, 0, 0, -0.01, 563.61, 294.45)" xlink:href="#Grass_7"/>
      <use width="108.82" height="75.4" transform="matrix(0.01, 0, 0, -0.01, 563.13, 294.44)" xlink:href="#Grass_7"/>
      <use width="108.82" height="75.4" transform="matrix(0.01, 0, 0, -0.01, 562.47, 294.47)" xlink:href="#Grass_7"/>
      <use width="108.82" height="75.4" transform="matrix(0.01, 0, 0, -0.01, 562.12, 294.48)" xlink:href="#Grass_7"/>
      <use width="108.82" height="75.4" transform="matrix(0.01, 0, 0, -0.01, 562.84, 293.93)" xlink:href="#Grass_7"/>
      <use width="108.82" height="75.4" transform="matrix(0.01, 0, 0, -0.01, 563.49, 292.57)" xlink:href="#Grass_7"/>
      <use width="108.82" height="75.4" transform="matrix(0.01, 0, 0, -0.01, 563.16, 292.63)" xlink:href="#Grass_7"/>
      <use width="108.82" height="75.4" transform="matrix(0.01, 0, 0, -0.01, 562.3, 292.88)" xlink:href="#Grass_7"/>
      <use width="108.82" height="75.4" transform="matrix(0.01, 0, 0, -0.01, 562.23, 293.69)" xlink:href="#Grass_7"/>
      <use width="108.82" height="75.4" transform="matrix(0.01, 0, 0, -0.01, 562.22, 293.94)" xlink:href="#Grass_7"/>
      <use width="108.82" height="75.4" transform="matrix(0.01, 0, 0, -0.01, 564.45, 292.41)" xlink:href="#Grass_7"/>
      <use width="108.82" height="75.4" transform="matrix(0.01, 0, 0, -0.01, 563.09, 291.71)" xlink:href="#Grass_7"/>
      <use width="108.82" height="75.4" transform="matrix(0, 0.01, 0.01, 0, 564.82, 291.35)" xlink:href="#Grass_7"/>
      <use width="108.82" height="75.4" transform="matrix(0, 0.01, 0.01, 0, 563.57, 290.69)" xlink:href="#Grass_7"/>
      <use width="108.82" height="75.4" transform="matrix(0, 0.01, 0.01, 0, 564.11, 290.64)" xlink:href="#Grass_7"/>
      <use width="108.82" height="75.4" transform="matrix(0, 0.01, 0.01, 0, 564.65, 290.61)" xlink:href="#Grass_7"/>
      <use width="108.82" height="75.4" transform="matrix(0, 0.01, 0.01, 0, 562.41, 290.78)" xlink:href="#Grass_7"/>
      <use width="108.82" height="75.4" transform="matrix(0, 0.01, 0.01, 0, 565.08, 290.69)" xlink:href="#Grass_7"/>
      <use width="108.82" height="75.4" transform="matrix(0, 0.01, 0.01, 0, 565.54, 291.02)" xlink:href="#Grass_7"/>
      <use width="108.82" height="75.4" transform="matrix(0, 0.01, 0.01, 0, 563.06, 290.72)" xlink:href="#Grass_7"/>
      <use width="108.82" height="75.4" transform="matrix(0, 0.01, 0.01, 0, 562.87, 290.68)" xlink:href="#Grass_7"/>
      <use width="108.82" height="75.4" transform="matrix(0, 0.01, 0.01, 0, 565.81, 291.43)" xlink:href="#Grass_7"/>
      <use width="108.82" height="75.4" transform="matrix(0, 0.01, 0.01, 0, 564.96, 291.6)" xlink:href="#Grass_7"/>
      <use width="108.82" height="75.4" transform="matrix(0, 0.01, 0.01, 0, 564.3, 291.8)" xlink:href="#Grass_7"/>
      <use width="108.82" height="75.4" transform="matrix(0, 0.01, 0.01, 0, 564.06, 291.57)" xlink:href="#Grass_7"/>
      <use width="108.82" height="75.4" transform="matrix(0, 0.01, 0.01, 0, 563.4, 291.47)" xlink:href="#Grass_7"/>
      <use width="108.82" height="75.4" transform="matrix(0, 0.01, 0.01, 0, 562.69, 291.49)" xlink:href="#Grass_7"/>
      <use width="108.82" height="75.4" transform="matrix(0, 0.01, 0.01, 0, 562.26, 291.5)" xlink:href="#Grass_7"/>
      <use width="108.82" height="75.4" transform="matrix(0, 0.01, 0.01, 0, 562.27, 291.08)" xlink:href="#Grass_7"/>
      <use width="108.82" height="75.4" transform="matrix(0, 0.01, 0.01, 0, 562.27, 292.02)" xlink:href="#Grass_7"/>
      <use width="108.82" height="75.4" transform="matrix(0, 0.01, 0.01, 0, 562.29, 292.4)" xlink:href="#Grass_7"/>
      <use width="108.82" height="75.4" transform="matrix(0, 0.01, 0.01, 0, 563.67, 292.27)" xlink:href="#Grass_7"/>
      <use width="108.82" height="75.4" transform="matrix(0, 0.01, 0.01, 0, 564.22, 291.48)" xlink:href="#Grass_7"/>
      <use width="108.82" height="75.4" transform="matrix(0, 0.01, 0.01, 0, 564.45, 291.33)" xlink:href="#Grass_7"/>
      <use width="108.82" height="75.4" transform="matrix(0, 0.01, 0.01, 0, 564.57, 292.87)" xlink:href="#Grass_7"/>
      <use width="108.82" height="75.4" transform="matrix(0, 0.01, 0.01, 0, 563.52, 291.54)" xlink:href="#Grass_7"/>
      <use width="108.82" height="75.4" transform="matrix(0, 0.01, 0.01, 0, 562.76, 291.96)" xlink:href="#Grass_7"/>
      <use width="108.82" height="75.4" transform="matrix(0, 0.01, 0.01, 0, 562.26, 291.32)" xlink:href="#Grass_7"/>
      <use width="108.82" height="75.4" transform="matrix(0, 0.01, 0.01, 0, 562.9, 292.08)" xlink:href="#Grass_7"/>
      <use width="108.82" height="75.4" transform="matrix(0, 0.01, 0.01, 0, 563.76, 290.72)" xlink:href="#Grass_7"/>
      <use width="108.82" height="75.4" transform="matrix(0, 0.01, 0.01, 0, 563.12, 292.3)" xlink:href="#Grass_7"/>
      <use width="108.82" height="75.4" transform="matrix(0, 0.01, 0.01, 0, 564.1, 292.08)" xlink:href="#Grass_7"/>
      <use width="108.82" height="75.4" transform="matrix(0, 0.01, 0.01, 0, 563.55, 292.68)" xlink:href="#Grass_7"/>
      <use width="108.82" height="75.4" transform="matrix(0, 0.01, 0.01, 0, 562.62, 292.78)" xlink:href="#Grass_7"/>
      <use width="108.82" height="75.4" transform="matrix(0, 0.01, 0.01, 0, 562.42, 292.8)" xlink:href="#Grass_7"/>
      <use width="108.82" height="75.4" transform="matrix(0, 0.01, 0.01, 0, 562.99, 292.83)" xlink:href="#Grass_7"/>
      <use width="108.82" height="75.4" transform="matrix(0, 0.01, 0.01, 0, 563.36, 292.78)" xlink:href="#Grass_7"/>
      <use width="108.82" height="75.4" transform="matrix(0, 0.01, 0.01, 0, 563.97, 292.79)" xlink:href="#Grass_7"/>
      <use width="108.82" height="75.4" transform="matrix(0, 0.01, 0.01, 0, 564.17, 292.65)" xlink:href="#Grass_7"/>
      <use width="108.82" height="75.4" transform="matrix(0, 0.01, 0.01, 0, 564.99, 291.28)" xlink:href="#Grass_7"/>
      <use width="108.82" height="75.4" transform="matrix(0, 0.01, 0.01, 0, 565.3, 291.85)" xlink:href="#Grass_7"/>
      <use width="108.82" height="75.4" transform="matrix(0, 0.01, 0.01, 0, 565.82, 291.55)" xlink:href="#Grass_7"/>
      <use width="108.82" height="75.4" transform="matrix(0, 0.01, 0.01, 0, 565.95, 291.93)" xlink:href="#Grass_7"/>
      <use width="108.82" height="75.4" transform="matrix(0, 0.01, 0.01, 0, 565.95, 291.33)" xlink:href="#Grass_7"/>
      <use width="108.82" height="75.4" transform="matrix(0, 0.01, 0.01, 0, 565.69, 293.04)" xlink:href="#Grass_7"/>
      <use width="108.82" height="75.4" transform="matrix(0, 0.01, 0.01, 0, 565.72, 291.05)" xlink:href="#Grass_7"/>
      <use width="108.82" height="75.4" transform="matrix(0, 0.01, 0.01, 0, 565.31, 291.34)" xlink:href="#Grass_7"/>
      <use width="108.82" height="75.4" transform="matrix(0, 0.01, 0.01, 0, 564.53, 292.92)" xlink:href="#Grass_7"/>
      <use width="108.82" height="75.4" transform="matrix(0, 0.01, 0.01, 0, 565.12, 292.91)" xlink:href="#Grass_7"/>
      <use width="108.82" height="75.4" transform="matrix(0, 0.01, 0.01, 0, 565.08, 291.68)" xlink:href="#Grass_7"/>
      <use width="108.82" height="75.4" transform="matrix(0, 0.01, 0.01, 0, 564.55, 290.55)" xlink:href="#Grass_7"/>
      <use width="108.82" height="75.4" transform="matrix(0, 0.01, 0.01, 0, 564.28, 290.52)" xlink:href="#Grass_7"/>
      <use width="108.82" height="75.4" transform="matrix(0, 0.01, 0.01, 0, 563.71, 290.47)" xlink:href="#Grass_7"/>
      <use width="108.82" height="75.4" transform="matrix(0, 0.01, 0.01, 0, 563.29, 290.47)" xlink:href="#Grass_7"/>
      <use width="108.82" height="75.4" transform="matrix(0, 0.01, 0.01, 0, 562.74, 290.53)" xlink:href="#Grass_7"/>
      <use width="108.82" height="75.4" transform="matrix(0, 0.01, 0.01, 0, 562.37, 290.67)" xlink:href="#Grass_7"/>
      <use width="108.82" height="75.4" transform="matrix(0, 0.01, 0.01, 0, 563.2, 290.48)" xlink:href="#Grass_7"/>
      <use width="108.82" height="75.4" transform="matrix(0, 0.01, 0.01, 0, 563.69, 290.46)" xlink:href="#Grass_7"/>
      <use width="108.82" height="75.4" transform="matrix(0, 0.01, 0.01, 0, 564.19, 290.46)" xlink:href="#Grass_7"/>
      <use width="108.82" height="75.4" transform="matrix(0, 0.01, 0.01, 0, 565.11, 292.1)" xlink:href="#Grass_7"/>
      <use width="108.82" height="75.4" transform="matrix(0, 0.01, 0.01, 0, 565.11, 292.43)" xlink:href="#Grass_7"/>
      <use width="108.82" height="75.4" transform="matrix(0, 0.01, 0.01, 0, 564.58, 292.4)" xlink:href="#Grass_7"/>
      <use width="108.82" height="75.4" transform="matrix(0, 0.01, 0.01, 0, 564.58, 292.11)" xlink:href="#Grass_7"/>
      <use width="108.82" height="75.4" transform="matrix(0, 0.01, 0.01, 0, 564.82, 292.1)" xlink:href="#Grass_7"/>
      <use width="108.82" height="75.4" transform="matrix(0, 0.01, 0.01, 0, 565.64, 292.09)" xlink:href="#Grass_7"/>
      <use width="108.82" height="75.4" transform="matrix(0, 0.01, 0.01, 0, 565.64, 292.32)" xlink:href="#Grass_7"/>
      <use width="108.82" height="75.4" transform="matrix(0, 0.01, 0.01, 0, 564.63, 291.11)" xlink:href="#Grass_7"/>
      <use width="108.82" height="75.4" transform="matrix(0, 0.01, 0.01, 0, 566.02, 292.16)" xlink:href="#Grass_7"/>
      <use width="108.82" height="75.4" transform="matrix(0, 0.01, 0.01, 0, 565.59, 293.05)" xlink:href="#Grass_7"/>
      <use width="108.82" height="75.4" transform="matrix(0, 0.01, 0.01, 0, 566.05, 292.07)" xlink:href="#Grass_7"/>
      <use width="108.82" height="75.4" transform="matrix(0, 0.01, 0.01, 0, 566.01, 292.32)" xlink:href="#Grass_7"/>
      <use width="108.82" height="75.4" transform="matrix(0, 0.01, 0.01, 0, 565.74, 292.69)" xlink:href="#Grass_7"/>
      <use width="108.82" height="75.4" transform="matrix(0, 0.01, 0.01, 0, 565.28, 292.94)" xlink:href="#Grass_7"/>
      <use width="108.82" height="75.4" transform="matrix(0, 0.01, 0.01, 0, 565.07, 292.92)" xlink:href="#Grass_7"/>
      <use width="108.82" height="75.4" transform="matrix(0, 0.01, 0.01, 0, 564.93, 292.91)" xlink:href="#Grass_7"/>
      <use width="108.82" height="75.4" transform="matrix(0, 0.01, 0.01, 0, 564.7, 292.66)" xlink:href="#Grass_7"/>
      <use width="108.82" height="75.4" transform="matrix(0, 0.01, 0.01, 0, 564.7, 292.31)" xlink:href="#Grass_7"/>
      <use width="108.82" height="75.4" transform="matrix(0, 0.01, 0.01, 0, 564.68, 291.82)" xlink:href="#Grass_7"/>
      <use width="108.82" height="75.4" transform="matrix(0, 0.01, 0.01, 0, 564.11, 291)" xlink:href="#Grass_7"/>
      <use width="108.82" height="75.4" transform="matrix(0, 0.01, 0.01, 0, 563.83, 291.05)" xlink:href="#Grass_7"/>
      <use width="108.82" height="75.4" transform="matrix(0, 0.01, 0.01, 0, 563.62, 291.12)" xlink:href="#Grass_7"/>
      <use width="108.82" height="75.4" transform="matrix(0, 0.01, 0.01, 0, 563.4, 290.96)" xlink:href="#Grass_7"/>
      <use width="108.82" height="75.4" transform="matrix(0, 0.01, 0.01, 0, 562.74, 290.92)" xlink:href="#Grass_7"/>
      <use width="108.82" height="75.4" transform="matrix(0, 0.01, 0.01, 0, 563.02, 291.44)" xlink:href="#Grass_7"/>
      <use width="108.82" height="75.4" transform="matrix(0, 0.01, 0.01, 0, 562.78, 291.5)" xlink:href="#Grass_7"/>
      <use width="108.82" height="75.4" transform="matrix(0, 0.01, 0.01, 0, 562.76, 291.11)" xlink:href="#Grass_7"/>
      <use width="108.82" height="75.4" transform="matrix(0, 0.01, 0.01, 0, 563.18, 291.6)" xlink:href="#Grass_7"/>
      <use width="108.82" height="75.4" transform="matrix(0, 0.01, 0.01, 0, 563.13, 291.77)" xlink:href="#Grass_7"/>
      <use width="108.82" height="75.4" transform="matrix(0, 0.01, 0.01, 0, 562.54, 291.71)" xlink:href="#Grass_7"/>
      <use width="108.82" height="75.4" transform="matrix(0, 0.01, 0.01, 0, 562.57, 291.43)" xlink:href="#Grass_7"/>
      <use width="108.82" height="75.4" transform="matrix(0, 0.01, 0.01, 0, 562.47, 291.71)" xlink:href="#Grass_7"/>
      <use width="108.82" height="75.4" transform="matrix(0, 0.01, 0.01, 0, 562.54, 291.28)" xlink:href="#Grass_7"/>
      <use width="108.82" height="75.4" transform="matrix(0, 0.01, 0.01, 0, 562.56, 290.9)" xlink:href="#Grass_7"/>
      <use width="108.82" height="75.4" transform="matrix(0, 0.01, 0.01, 0, 565.67, 292.8)" xlink:href="#Grass_7"/>
      <use width="108.82" height="75.4" transform="matrix(0, 0.01, 0.01, 0, 562.46, 292.47)" xlink:href="#Grass_7"/>
      <use width="108.82" height="75.4" transform="matrix(0, 0.01, 0.01, 0, 562.96, 292.44)" xlink:href="#Grass_7"/>
      <use width="108.82" height="75.4" transform="matrix(0, 0.01, 0.01, 0, 563.25, 292.42)" xlink:href="#Grass_7"/>
      <use width="108.82" height="75.4" transform="matrix(0, 0.01, 0.01, 0, 563.48, 291.95)" xlink:href="#Grass_7"/>
      <use width="108.82" height="75.4" transform="matrix(0, 0.01, 0.01, 0, 563.76, 291.83)" xlink:href="#Grass_7"/>
      <use width="108.82" height="75.4" transform="matrix(0, 0.01, 0.01, 0, 563.94, 291.83)" xlink:href="#Grass_7"/>
      <use width="108.82" height="75.4" transform="matrix(0, 0.01, 0.01, 0, 564.08, 292.31)" xlink:href="#Grass_7"/>
      <use width="108.82" height="75.4" transform="matrix(0, 0.01, 0.01, 0, 564.23, 292.1)" xlink:href="#Grass_7"/>
      <use width="108.82" height="75.4" transform="matrix(0, 0.01, 0.01, 0, 564.35, 292.62)" xlink:href="#Grass_7"/>
      <use width="108.82" height="75.4" transform="matrix(0, 0.01, 0.01, 0, 564.77, 291.31)" xlink:href="#Grass_7"/>
      <use width="108.82" height="75.4" transform="matrix(0, 0.01, 0.01, 0, 564.01, 292.73)" xlink:href="#Grass_7"/>
      <use width="108.82" height="75.4" transform="matrix(0, 0.01, 0.01, 0, 563.78, 292.48)" xlink:href="#Grass_7"/>
      <use width="108.82" height="75.4" transform="matrix(0, 0.01, 0.01, 0, 563.57, 293.21)" xlink:href="#Grass_7"/>
      <use width="108.82" height="75.4" transform="matrix(0, 0.01, 0.01, 0, 563.21, 293.23)" xlink:href="#Grass_7"/>
      <use width="108.82" height="75.4" transform="matrix(0, 0.01, 0.01, 0, 562.89, 293.18)" xlink:href="#Grass_7"/>
      <use width="108.82" height="75.4" transform="matrix(0, 0.01, 0.01, 0, 562.76, 293.19)" xlink:href="#Grass_7"/>
      <use width="108.82" height="75.4" transform="matrix(0, 0.01, 0.01, 0, 562.54, 293.19)" xlink:href="#Grass_7"/>
      <use width="108.82" height="75.4" transform="matrix(0, 0.01, 0.01, 0, 562.55, 293.6)" xlink:href="#Grass_7"/>
      <use width="108.82" height="75.4" transform="matrix(0, 0.01, 0.01, 0, 562.75, 293.59)" xlink:href="#Grass_7"/>
      <use width="108.82" height="75.4" transform="matrix(0, 0.01, 0.01, 0, 563.32, 293.3)" xlink:href="#Grass_7"/>
      <use width="108.82" height="75.4" transform="matrix(0, 0.01, 0.01, 0, 563.64, 293.14)" xlink:href="#Grass_7"/>
      <use width="108.82" height="75.4" transform="matrix(0, 0.01, 0.01, 0, 563.24, 293.09)" xlink:href="#Grass_7"/>
      <use width="108.82" height="75.4" transform="matrix(0, 0.01, 0.01, 0, 564.1, 293.15)" xlink:href="#Grass_7"/>
      <use width="108.82" height="75.4" transform="matrix(0, 0.01, 0.01, 0, 564.66, 292.98)" xlink:href="#Grass_7"/>
      <use width="108.82" height="75.4" transform="matrix(0, 0.01, 0.01, 0, 564.26, 293.14)" xlink:href="#Grass_7"/>
      <use width="108.82" height="75.4" transform="matrix(0, 0.01, 0.01, 0, 563.9, 293.51)" xlink:href="#Grass_7"/>
      <use width="108.82" height="75.4" transform="matrix(0, 0.01, 0.01, 0, 563.62, 293.54)" xlink:href="#Grass_7"/>
      <use width="108.82" height="75.4" transform="matrix(0, 0.01, 0.01, 0, 563.36, 293.57)" xlink:href="#Grass_7"/>
      <use width="108.82" height="75.4" transform="matrix(0, 0.01, 0.01, 0, 563.17, 293.57)" xlink:href="#Grass_7"/>
      <use width="108.82" height="75.4" transform="matrix(0, 0.01, 0.01, 0, 562.88, 293.6)" xlink:href="#Grass_7"/>
      <use width="108.82" height="75.4" transform="matrix(0, 0.01, 0.01, 0, 562.51, 293.53)" xlink:href="#Grass_7"/>
      <use width="108.82" height="75.4" transform="matrix(0, 0.01, 0.01, 0, 562.41, 293.54)" xlink:href="#Grass_7"/>
      <use width="108.82" height="75.4" transform="matrix(0, 0.01, 0.01, 0, 562.26, 293.83)" xlink:href="#Grass_7"/>
      <use width="108.82" height="75.4" transform="matrix(0, 0.01, 0.01, 0, 562.13, 292.92)" xlink:href="#Grass_7"/>
      <use width="108.82" height="75.4" transform="matrix(0, 0.01, 0.01, 0, 562.15, 292.67)" xlink:href="#Grass_7"/>
      <use width="108.82" height="75.4" transform="matrix(0, 0.01, 0.01, 0, 562.12, 292.45)" xlink:href="#Grass_7"/>
      <use width="108.82" height="75.4" transform="matrix(0, 0.01, 0.01, 0, 562.14, 292.18)" xlink:href="#Grass_7"/>
      <use width="108.82" height="75.4" transform="matrix(0, 0.01, 0.01, 0, 562.15, 291.93)" xlink:href="#Grass_7"/>
      <use width="108.82" height="75.4" transform="matrix(0, 0.01, 0.01, 0, 562.13, 291.74)" xlink:href="#Grass_7"/>
      <use width="108.82" height="75.4" transform="matrix(0, 0.01, 0.01, 0, 562.13, 291.65)" xlink:href="#Grass_7"/>
      <use width="108.82" height="75.4" transform="matrix(0, 0.01, 0.01, 0, 562.11, 293.05)" xlink:href="#Grass_7"/>
      <use width="108.82" height="75.4" transform="matrix(0, 0.01, 0.01, 0, 562.1, 293.19)" xlink:href="#Grass_7"/>
      <use width="108.82" height="75.4" transform="matrix(0, 0.01, 0.01, 0, 562.17, 293.23)" xlink:href="#Grass_7"/>
      <use width="108.82" height="75.4" transform="matrix(0, 0.01, 0.01, 0, 562.2, 293.47)" xlink:href="#Grass_7"/>
      <use width="108.82" height="75.4" transform="matrix(0, 0.01, 0.01, 0, 562.2, 293.72)" xlink:href="#Grass_7"/>
      <use width="108.82" height="75.4" transform="matrix(0, 0.01, 0.01, 0, 562.27, 293.73)" xlink:href="#Grass_7"/>
      <use width="108.82" height="75.4" transform="matrix(0, 0.01, 0.01, 0, 562.47, 293.83)" xlink:href="#Grass_7"/>
      <use width="108.82" height="75.4" transform="matrix(0, 0.01, 0.01, 0, 562.62, 293.89)" xlink:href="#Grass_7"/>
      <use width="108.82" height="75.4" transform="matrix(0, 0.01, 0.01, 0, 562.89, 293.93)" xlink:href="#Grass_7"/>
      <use width="108.82" height="75.4" transform="matrix(0, 0.01, 0.01, 0, 563.24, 293.9)" xlink:href="#Grass_7"/>
      <use width="108.82" height="75.4" transform="matrix(0, 0.01, 0.01, 0, 563.49, 293.86)" xlink:href="#Grass_7"/>
      <use width="108.82" height="75.4" transform="matrix(0, 0.01, 0.01, 0, 563.77, 293.68)" xlink:href="#Grass_7"/>
      <use width="108.82" height="75.4" transform="matrix(0, 0.01, 0.01, 0, 564.19, 293.61)" xlink:href="#Grass_7"/>
      <use width="108.82" height="75.4" transform="matrix(0, 0.01, 0.01, 0, 564.3, 293.76)" xlink:href="#Grass_7"/>
      <use width="108.82" height="75.4" transform="matrix(0, 0.01, 0.01, 0, 564.33, 293.51)" xlink:href="#Grass_7"/>
      <use width="108.82" height="75.4" transform="matrix(0, 0.01, 0.01, 0, 564.28, 293.8)" xlink:href="#Grass_7"/>
      <use width="108.82" height="75.4" transform="matrix(0, 0.01, 0.01, 0, 564.38, 293.97)" xlink:href="#Grass_7"/>
      <use width="108.82" height="75.4" transform="matrix(0, 0.01, 0.01, 0, 564.59, 294.03)" xlink:href="#Grass_7"/>
      <use width="108.82" height="75.4" transform="matrix(0, 0.01, 0.01, 0, 564.08, 294.06)" xlink:href="#Grass_7"/>
      <use width="108.82" height="75.4" transform="matrix(0, 0.01, 0.01, 0, 563.85, 294.09)" xlink:href="#Grass_7"/>
      <use width="108.82" height="75.4" transform="matrix(0, 0.01, 0.01, 0, 563.42, 294.19)" xlink:href="#Grass_7"/>
      <use width="108.82" height="75.4" transform="matrix(0, 0.01, 0.01, 0, 563.04, 294.16)" xlink:href="#Grass_7"/>
      <use width="108.82" height="75.4" transform="matrix(0, 0.01, 0.01, 0, 562.82, 294.01)" xlink:href="#Grass_7"/>
      <use width="108.82" height="75.4" transform="matrix(0, 0.01, 0.01, 0, 562.22, 294.12)" xlink:href="#Grass_7"/>
      <use width="108.82" height="75.4" transform="matrix(0, 0.01, 0.01, 0, 562.99, 293.37)" xlink:href="#Grass_7"/>
      <use width="108.82" height="75.4" transform="matrix(0, 0.01, 0.01, 0, 563.39, 292.19)" xlink:href="#Grass_7"/>
      <use width="108.82" height="75.4" transform="matrix(0, 0.01, 0.01, 0, 564.98, 290.8)" xlink:href="#Grass_7"/>
      <use width="108.82" height="75.4" transform="matrix(0, 0.01, 0.01, 0, 564.78, 291.19)" xlink:href="#Grass_7"/>
      <use width="108.82" height="75.4" transform="matrix(0, 0.01, 0.01, 0, 564.78, 291.19)" xlink:href="#Grass_7"/>
      <use width="108.82" height="75.4" transform="matrix(0, 0.01, 0.01, 0, 564.4, 292.84)" xlink:href="#Grass_7"/>
      <use width="108.82" height="75.4" transform="matrix(0, 0.01, 0.01, 0, 564.38, 291.03)" xlink:href="#Grass_7"/>
      <use width="108.82" height="75.4" transform="matrix(0, 0.01, 0.01, 0, 564.54, 290.56)" xlink:href="#Grass_7"/>
      <use width="108.82" height="75.4" transform="matrix(0, 0.01, 0.01, 0, 565.26, 290.87)" xlink:href="#Grass_7"/>
      <use width="108.82" height="75.4" transform="matrix(0, 0.01, 0.01, 0, 563.78, 292.07)" xlink:href="#Grass_7"/>
      <use width="108.82" height="75.4" transform="matrix(0, 0.01, 0.01, 0, 565.55, 293.04)" xlink:href="#Grass_7"/>
      <use width="108.82" height="75.4" transform="matrix(0, 0.01, 0.01, 0, 565.45, 293.17)" xlink:href="#Grass_7"/>
      <use width="108.82" height="75.4" transform="matrix(0.01, 0, 0, -0.01, 562.35, 293.14)" xlink:href="#Grass_7"/>
      <use width="108.82" height="75.4" transform="matrix(0.01, 0, 0, -0.01, 562.87, 291.68)" xlink:href="#Grass_7"/>
      <use width="108.82" height="75.4" transform="matrix(0.01, 0, 0, -0.01, 563.63, 291.24)" xlink:href="#Grass_7"/>
      <use width="108.82" height="75.4" transform="matrix(0.01, 0, 0, -0.01, 565.36, 291.93)" xlink:href="#Grass_7"/>
      <use width="108.82" height="75.4" transform="matrix(0.01, 0, 0, -0.01, 563.87, 291.93)" xlink:href="#Grass_7"/>
      <use width="108.82" height="75.4" transform="matrix(0.01, 0, 0, -0.01, 562.29, 291.25)" xlink:href="#Grass_7"/>
      <use width="108.82" height="75.4" transform="matrix(0.01, 0, 0, -0.01, 563.13, 291.2)" xlink:href="#Grass_7"/>
      <use width="108.82" height="75.4" transform="matrix(0.01, 0, 0, -0.01, 563.88, 291.07)" xlink:href="#Grass_7"/>
      <use width="108.82" height="75.4" transform="matrix(0.01, 0, 0, -0.01, 564.36, 291.1)" xlink:href="#Grass_7"/>
      <use width="108.82" height="75.4" transform="matrix(0.01, 0, 0, -0.01, 564.89, 291.32)" xlink:href="#Grass_7"/>
      <use width="108.82" height="75.4" transform="matrix(0.01, 0, 0, -0.01, 565.33, 291.63)" xlink:href="#Grass_7"/>
      <use width="108.82" height="75.4" transform="matrix(0.01, 0, 0, -0.01, 565.68, 291.88)" xlink:href="#Grass_7"/>
      <use width="108.82" height="75.4" transform="matrix(0.01, 0, 0, -0.01, 564.58, 291.83)" xlink:href="#Grass_7"/>
      <use width="108.82" height="75.4" transform="matrix(0.01, 0, 0, -0.01, 564.12, 291.6)" xlink:href="#Grass_7"/>
      <use width="108.82" height="75.4" transform="matrix(0.01, 0, 0, -0.01, 563.53, 291.66)" xlink:href="#Grass_7"/>
      <use width="108.82" height="75.4" transform="matrix(0.01, 0, 0, -0.01, 562.18, 291.67)" xlink:href="#Grass_7"/>
      <use width="108.82" height="75.4" transform="matrix(0.01, 0, 0, -0.01, 562.22, 292.15)" xlink:href="#Grass_7"/>
      <use width="108.82" height="75.4" transform="matrix(0.01, 0, 0, -0.01, 562.19, 292.64)" xlink:href="#Grass_7"/>
      <use width="108.82" height="75.4" transform="matrix(0.01, 0, 0, -0.01, 562.92, 292.37)" xlink:href="#Grass_7"/>
      <use width="108.82" height="75.4" transform="matrix(0.01, 0, 0, -0.01, 562.85, 292.17)" xlink:href="#Grass_7"/>
      <use width="108.82" height="75.4" transform="matrix(0.01, 0, 0, -0.01, 563.56, 292.2)" xlink:href="#Grass_7"/>
      <use width="108.82" height="75.4" transform="matrix(0.01, 0, 0, -0.01, 564.3, 292.35)" xlink:href="#Grass_7"/>
      <use width="108.82" height="75.4" transform="matrix(0.01, 0, 0, -0.01, 565.03, 292.26)" xlink:href="#Grass_7"/>
      <use width="108.82" height="75.4" transform="matrix(0.01, 0, 0, -0.01, 565.57, 292.48)" xlink:href="#Grass_7"/>
      <use width="108.82" height="75.4" transform="matrix(0.01, 0, 0, -0.01, 565.63, 292.87)" xlink:href="#Grass_7"/>
      <use width="108.82" height="75.4" transform="matrix(0.01, 0, 0, -0.01, 565.39, 293.25)" xlink:href="#Grass_7"/>
      <use width="108.82" height="75.4" transform="matrix(0.01, 0, 0, -0.01, 564.89, 293.37)" xlink:href="#Grass_7"/>
      <use width="108.82" height="75.4" transform="matrix(0.01, 0, 0, -0.01, 564.31, 293.37)" xlink:href="#Grass_7"/>
      <use width="108.82" height="75.4" transform="matrix(0.01, 0, 0, -0.01, 564.92, 293.18)" xlink:href="#Grass_7"/>
      <use width="108.82" height="75.4" transform="matrix(0.01, 0, 0, -0.01, 564.93, 292.71)" xlink:href="#Grass_7"/>
      <use width="108.82" height="75.4" transform="matrix(0.01, 0, 0, -0.01, 563.56, 292.82)" xlink:href="#Grass_7"/>
      <use width="108.82" height="75.4" transform="matrix(0.01, 0, 0, -0.01, 562.89, 292.9)" xlink:href="#Grass_7"/>
      <use width="108.82" height="75.4" transform="matrix(0.01, 0, 0, -0.01, 564.18, 292.89)" xlink:href="#Grass_7"/>
      <use width="108.82" height="75.4" transform="matrix(0.01, 0, 0, -0.01, 563.47, 293.29)" xlink:href="#Grass_7"/>
      <use width="108.82" height="75.4" transform="matrix(0.01, 0, 0, -0.01, 562.82, 293.31)" xlink:href="#Grass_7"/>
      <use width="108.82" height="75.4" transform="matrix(0.01, 0, 0, -0.01, 562.26, 293.48)" xlink:href="#Grass_7"/>
      <use width="108.82" height="75.4" transform="matrix(0.01, 0, 0, -0.01, 562.29, 293.98)" xlink:href="#Grass_7"/>
      <use width="108.82" height="75.4" transform="matrix(0.01, 0, 0, -0.01, 563.33, 293.75)" xlink:href="#Grass_7"/>
      <use width="108.82" height="75.4" transform="matrix(0.01, 0, 0, -0.01, 563.87, 293.83)" xlink:href="#Grass_7"/>
      <use width="108.82" height="75.4" transform="matrix(0.01, 0, 0, -0.01, 564.14, 294.27)" xlink:href="#Grass_7"/>
      <use width="108.82" height="75.4" transform="matrix(0.01, 0, 0, -0.01, 563.6, 294.41)" xlink:href="#Grass_7"/>
      <use width="108.82" height="75.4" transform="matrix(0.01, 0, 0, -0.01, 563.12, 294.41)" xlink:href="#Grass_7"/>
      <use width="108.82" height="75.4" transform="matrix(0.01, 0, 0, -0.01, 562.46, 294.44)" xlink:href="#Grass_7"/>
      <use width="108.82" height="75.4" transform="matrix(0.01, 0, 0, -0.01, 562.11, 294.44)" xlink:href="#Grass_7"/>
      <use width="108.82" height="75.4" transform="matrix(0.01, 0, 0, -0.01, 562.82, 293.9)" xlink:href="#Grass_7"/>
      <use width="108.82" height="75.4" transform="matrix(0.01, 0, 0, -0.01, 563.47, 292.54)" xlink:href="#Grass_7"/>
      <use width="108.82" height="75.4" transform="matrix(0.01, 0, 0, -0.01, 563.14, 292.6)" xlink:href="#Grass_7"/>
      <use width="108.82" height="75.4" transform="matrix(0.01, 0, 0, -0.01, 562.28, 292.85)" xlink:href="#Grass_7"/>
      <use width="108.82" height="75.4" transform="matrix(0.01, 0, 0, -0.01, 562.21, 293.65)" xlink:href="#Grass_7"/>
      <use width="108.82" height="75.4" transform="matrix(0.01, 0, 0, -0.01, 562.21, 293.91)" xlink:href="#Grass_7"/>
      <use width="108.82" height="75.4" transform="matrix(0.01, 0, 0, -0.01, 564.43, 292.38)" xlink:href="#Grass_7"/>
      <use width="108.82" height="75.4" transform="matrix(0.01, 0, 0, -0.01, 563.07, 291.68)" xlink:href="#Grass_7"/>
      <use width="108.82" height="75.4" transform="matrix(0, 0.01, 0.01, 0, 564.8, 291.32)" xlink:href="#Grass_7"/>
      <use width="108.82" height="75.4" transform="matrix(0, 0.01, 0.01, 0, 563.55, 290.65)" xlink:href="#Grass_7"/>
      <use width="108.82" height="75.4" transform="matrix(0, 0.01, 0.01, 0, 564.09, 290.61)" xlink:href="#Grass_7"/>
      <use width="108.82" height="75.4" transform="matrix(0, 0.01, 0.01, 0, 564.63, 290.58)" xlink:href="#Grass_7"/>
      <use width="108.82" height="75.4" transform="matrix(0, 0.01, 0.01, 0, 562.39, 290.75)" xlink:href="#Grass_7"/>
      <use width="108.82" height="75.4" transform="matrix(0, 0.01, 0.01, 0, 565.06, 290.66)" xlink:href="#Grass_7"/>
      <use width="108.82" height="75.4" transform="matrix(0, 0.01, 0.01, 0, 565.52, 290.98)" xlink:href="#Grass_7"/>
      <use width="108.82" height="75.4" transform="matrix(0, 0.01, 0.01, 0, 563.04, 290.69)" xlink:href="#Grass_7"/>
      <use width="108.82" height="75.4" transform="matrix(0, 0.01, 0.01, 0, 562.85, 290.65)" xlink:href="#Grass_7"/>
      <use width="108.82" height="75.4" transform="matrix(0, 0.01, 0.01, 0, 565.8, 291.4)" xlink:href="#Grass_7"/>
      <use width="108.82" height="75.4" transform="matrix(0, 0.01, 0.01, 0, 564.95, 291.57)" xlink:href="#Grass_7"/>
      <use width="108.82" height="75.4" transform="matrix(0, 0.01, 0.01, 0, 564.29, 291.77)" xlink:href="#Grass_7"/>
      <use width="108.82" height="75.4" transform="matrix(0, 0.01, 0.01, 0, 564.05, 291.54)" xlink:href="#Grass_7"/>
      <use width="108.82" height="75.4" transform="matrix(0, 0.01, 0.01, 0, 563.38, 291.44)" xlink:href="#Grass_7"/>
      <use width="108.82" height="75.4" transform="matrix(0, 0.01, 0.01, 0, 562.68, 291.46)" xlink:href="#Grass_7"/>
      <use width="108.82" height="75.4" transform="matrix(0, 0.01, 0.01, 0, 562.24, 291.47)" xlink:href="#Grass_7"/>
      <use width="108.82" height="75.4" transform="matrix(0, 0.01, 0.01, 0, 562.25, 291.05)" xlink:href="#Grass_7"/>
      <use width="108.82" height="75.4" transform="matrix(0, 0.01, 0.01, 0, 562.26, 291.98)" xlink:href="#Grass_7"/>
      <use width="108.82" height="75.4" transform="matrix(0, 0.01, 0.01, 0, 562.27, 292.37)" xlink:href="#Grass_7"/>
      <use width="108.82" height="75.4" transform="matrix(0, 0.01, 0.01, 0, 563.65, 292.23)" xlink:href="#Grass_7"/>
      <use width="108.82" height="75.4" transform="matrix(0, 0.01, 0.01, 0, 564.2, 291.45)" xlink:href="#Grass_7"/>
      <use width="108.82" height="75.4" transform="matrix(0, 0.01, 0.01, 0, 564.43, 291.3)" xlink:href="#Grass_7"/>
      <use width="108.82" height="75.4" transform="matrix(0, 0.01, 0.01, 0, 564.55, 292.84)" xlink:href="#Grass_7"/>
      <use width="108.82" height="75.4" transform="matrix(0, 0.01, 0.01, 0, 563.51, 291.51)" xlink:href="#Grass_7"/>
      <use width="108.82" height="75.4" transform="matrix(0, 0.01, 0.01, 0, 562.75, 291.93)" xlink:href="#Grass_7"/>
      <use width="108.82" height="75.4" transform="matrix(0, 0.01, 0.01, 0, 562.24, 291.28)" xlink:href="#Grass_7"/>
      <use width="108.82" height="75.4" transform="matrix(0, 0.01, 0.01, 0, 562.89, 292.04)" xlink:href="#Grass_7"/>
      <use width="108.82" height="75.4" transform="matrix(0, 0.01, 0.01, 0, 563.74, 290.69)" xlink:href="#Grass_7"/>
      <use width="108.82" height="75.4" transform="matrix(0, 0.01, 0.01, 0, 563.11, 292.27)" xlink:href="#Grass_7"/>
      <use width="108.82" height="75.4" transform="matrix(0, 0.01, 0.01, 0, 564.09, 292.05)" xlink:href="#Grass_7"/>
      <use width="108.82" height="75.4" transform="matrix(0, 0.01, 0.01, 0, 563.53, 292.64)" xlink:href="#Grass_7"/>
      <use width="108.82" height="75.4" transform="matrix(0, 0.01, 0.01, 0, 562.6, 292.75)" xlink:href="#Grass_7"/>
      <use width="108.82" height="75.4" transform="matrix(0, 0.01, 0.01, 0, 562.4, 292.76)" xlink:href="#Grass_7"/>
      <use width="108.82" height="75.4" transform="matrix(0, 0.01, 0.01, 0, 562.98, 292.8)" xlink:href="#Grass_7"/>
      <use width="108.82" height="75.4" transform="matrix(0, 0.01, 0.01, 0, 563.34, 292.75)" xlink:href="#Grass_7"/>
      <use width="108.82" height="75.4" transform="matrix(0, 0.01, 0.01, 0, 563.95, 292.76)" xlink:href="#Grass_7"/>
      <use width="108.82" height="75.4" transform="matrix(0, 0.01, 0.01, 0, 564.15, 292.62)" xlink:href="#Grass_7"/>
      <use width="108.82" height="75.4" transform="matrix(0, 0.01, 0.01, 0, 564.97, 291.25)" xlink:href="#Grass_7"/>
      <use width="108.82" height="75.4" transform="matrix(0, 0.01, 0.01, 0, 565.29, 291.82)" xlink:href="#Grass_7"/>
      <use width="108.82" height="75.4" transform="matrix(0, 0.01, 0.01, 0, 565.8, 291.52)" xlink:href="#Grass_7"/>
      <use width="108.82" height="75.4" transform="matrix(0, 0.01, 0.01, 0, 565.94, 291.9)" xlink:href="#Grass_7"/>
      <use width="108.82" height="75.4" transform="matrix(0, 0.01, 0.01, 0, 565.94, 291.3)" xlink:href="#Grass_7"/>
      <use width="108.82" height="75.4" transform="matrix(0, 0.01, 0.01, 0, 565.67, 293.01)" xlink:href="#Grass_7"/>
      <use width="108.82" height="75.4" transform="matrix(0, 0.01, 0.01, 0, 565.71, 291.02)" xlink:href="#Grass_7"/>
      <use width="108.82" height="75.4" transform="matrix(0, 0.01, 0.01, 0, 565.3, 291.31)" xlink:href="#Grass_7"/>
      <use width="108.82" height="75.4" transform="matrix(0, 0.01, 0.01, 0, 564.52, 292.89)" xlink:href="#Grass_7"/>
      <use width="108.82" height="75.4" transform="matrix(0, 0.01, 0.01, 0, 565.11, 292.88)" xlink:href="#Grass_7"/>
      <use width="108.82" height="75.4" transform="matrix(0, 0.01, 0.01, 0, 565.06, 291.65)" xlink:href="#Grass_7"/>
      <use width="108.82" height="75.4" transform="matrix(0, 0.01, 0.01, 0, 564.54, 290.52)" xlink:href="#Grass_7"/>
      <use width="108.82" height="75.4" transform="matrix(0, 0.01, 0.01, 0, 564.27, 290.48)" xlink:href="#Grass_7"/>
      <use width="108.82" height="75.4" transform="matrix(0, 0.01, 0.01, 0, 563.7, 290.44)" xlink:href="#Grass_7"/>
      <use width="108.82" height="75.4" transform="matrix(0, 0.01, 0.01, 0, 563.27, 290.44)" xlink:href="#Grass_7"/>
      <use width="108.82" height="75.4" transform="matrix(0, 0.01, 0.01, 0, 562.72, 290.5)" xlink:href="#Grass_7"/>
      <use width="108.82" height="75.4" transform="matrix(0, 0.01, 0.01, 0, 562.36, 290.65)" xlink:href="#Grass_7"/>
      <use width="108.82" height="75.4" transform="matrix(0, 0.01, 0.01, 0, 563.18, 290.45)" xlink:href="#Grass_7"/>
      <use width="108.82" height="75.4" transform="matrix(0, 0.01, 0.01, 0, 563.67, 290.43)" xlink:href="#Grass_7"/>
      <use width="108.82" height="75.4" transform="matrix(0, 0.01, 0.01, 0, 564.18, 290.43)" xlink:href="#Grass_7"/>
      <use width="108.82" height="75.4" transform="matrix(0, 0.01, 0.01, 0, 565.09, 292.07)" xlink:href="#Grass_7"/>
      <use width="108.82" height="75.4" transform="matrix(0, 0.01, 0.01, 0, 565.1, 292.39)" xlink:href="#Grass_7"/>
      <use width="108.82" height="75.4" transform="matrix(0, 0.01, 0.01, 0, 564.57, 292.37)" xlink:href="#Grass_7"/>
      <use width="108.82" height="75.4" transform="matrix(0, 0.01, 0.01, 0, 564.56, 292.07)" xlink:href="#Grass_7"/>
      <use width="108.82" height="75.4" transform="matrix(0, 0.01, 0.01, 0, 564.81, 292.07)" xlink:href="#Grass_7"/>
      <use width="108.82" height="75.4" transform="matrix(0, 0.01, 0.01, 0, 565.62, 292.06)" xlink:href="#Grass_7"/>
      <use width="108.82" height="75.4" transform="matrix(0, 0.01, 0.01, 0, 565.63, 292.29)" xlink:href="#Grass_7"/>
      <use width="108.82" height="75.4" transform="matrix(0, 0.01, 0.01, 0, 564.62, 291.08)" xlink:href="#Grass_7"/>
      <use width="108.82" height="75.4" transform="matrix(0, 0.01, 0.01, 0, 566.01, 292.13)" xlink:href="#Grass_7"/>
      <use width="108.82" height="75.4" transform="matrix(0, 0.01, 0.01, 0, 565.57, 293.02)" xlink:href="#Grass_7"/>
      <use width="108.82" height="75.4" transform="matrix(0, 0.01, 0.01, 0, 566.03, 292.04)" xlink:href="#Grass_7"/>
      <use width="108.82" height="75.4" transform="matrix(0, 0.01, 0.01, 0, 566, 292.29)" xlink:href="#Grass_7"/>
      <use width="108.82" height="75.4" transform="matrix(0, 0.01, 0.01, 0, 565.72, 292.66)" xlink:href="#Grass_7"/>
      <use width="108.82" height="75.4" transform="matrix(0, 0.01, 0.01, 0, 565.27, 292.91)" xlink:href="#Grass_7"/>
      <use width="108.82" height="75.4" transform="matrix(0, 0.01, 0.01, 0, 565.06, 292.89)" xlink:href="#Grass_7"/>
      <use width="108.82" height="75.4" transform="matrix(0, 0.01, 0.01, 0, 564.92, 292.88)" xlink:href="#Grass_7"/>
      <use width="108.82" height="75.4" transform="matrix(0, 0.01, 0.01, 0, 564.68, 292.63)" xlink:href="#Grass_7"/>
      <use width="108.82" height="75.4" transform="matrix(0, 0.01, 0.01, 0, 564.68, 292.28)" xlink:href="#Grass_7"/>
      <use width="108.82" height="75.4" transform="matrix(0, 0.01, 0.01, 0, 564.66, 291.79)" xlink:href="#Grass_7"/>
      <use width="108.82" height="75.4" transform="matrix(0, 0.01, 0.01, 0, 564.09, 290.97)" xlink:href="#Grass_7"/>
      <use width="108.82" height="75.4" transform="matrix(0, 0.01, 0.01, 0, 563.81, 291.02)" xlink:href="#Grass_7"/>
      <use width="108.82" height="75.4" transform="matrix(0, 0.01, 0.01, 0, 563.6, 291.09)" xlink:href="#Grass_7"/>
      <use width="108.82" height="75.4" transform="matrix(0, 0.01, 0.01, 0, 563.38, 290.93)" xlink:href="#Grass_7"/>
      <use width="108.82" height="75.4" transform="matrix(0, 0.01, 0.01, 0, 562.72, 290.89)" xlink:href="#Grass_7"/>
      <use width="108.82" height="75.4" transform="matrix(0, 0.01, 0.01, 0, 563, 291.41)" xlink:href="#Grass_7"/>
      <use width="108.82" height="75.4" transform="matrix(0, 0.01, 0.01, 0, 562.77, 291.47)" xlink:href="#Grass_7"/>
      <use width="108.82" height="75.4" transform="matrix(0, 0.01, 0.01, 0, 562.75, 291.08)" xlink:href="#Grass_7"/>
      <use width="108.82" height="75.4" transform="matrix(0, 0.01, 0.01, 0, 563.17, 291.56)" xlink:href="#Grass_7"/>
      <use width="108.82" height="75.4" transform="matrix(0, 0.01, 0.01, 0, 563.11, 291.74)" xlink:href="#Grass_7"/>
      <use width="108.82" height="75.4" transform="matrix(0, 0.01, 0.01, 0, 562.52, 291.68)" xlink:href="#Grass_7"/>
      <use width="108.82" height="75.4" transform="matrix(0, 0.01, 0.01, 0, 562.55, 291.4)" xlink:href="#Grass_7"/>
      <use width="108.82" height="75.4" transform="matrix(0, 0.01, 0.01, 0, 562.46, 291.68)" xlink:href="#Grass_7"/>
      <use width="108.82" height="75.4" transform="matrix(0, 0.01, 0.01, 0, 562.53, 291.25)" xlink:href="#Grass_7"/>
      <use width="108.82" height="75.4" transform="matrix(0, 0.01, 0.01, 0, 562.54, 290.87)" xlink:href="#Grass_7"/>
      <use width="108.82" height="75.4" transform="matrix(0, 0.01, 0.01, 0, 565.66, 292.77)" xlink:href="#Grass_7"/>
      <use width="108.82" height="75.4" transform="matrix(0, 0.01, 0.01, 0, 562.44, 292.44)" xlink:href="#Grass_7"/>
      <use width="108.82" height="75.4" transform="matrix(0, 0.01, 0.01, 0, 562.95, 292.41)" xlink:href="#Grass_7"/>
      <use width="108.82" height="75.4" transform="matrix(0, 0.01, 0.01, 0, 563.24, 292.39)" xlink:href="#Grass_7"/>
      <use width="108.82" height="75.4" transform="matrix(0, 0.01, 0.01, 0, 563.47, 291.92)" xlink:href="#Grass_7"/>
      <use width="108.82" height="75.4" transform="matrix(0, 0.01, 0.01, 0, 563.74, 291.8)" xlink:href="#Grass_7"/>
      <use width="108.82" height="75.4" transform="matrix(0, 0.01, 0.01, 0, 563.93, 291.8)" xlink:href="#Grass_7"/>
      <use width="108.82" height="75.4" transform="matrix(0, 0.01, 0.01, 0, 564.07, 292.28)" xlink:href="#Grass_7"/>
      <use width="108.82" height="75.4" transform="matrix(0, 0.01, 0.01, 0, 564.22, 292.07)" xlink:href="#Grass_7"/>
      <use width="108.82" height="75.4" transform="matrix(0, 0.01, 0.01, 0, 564.33, 292.58)" xlink:href="#Grass_7"/>
      <use width="108.82" height="75.4" transform="matrix(0, 0.01, 0.01, 0, 564.75, 291.28)" xlink:href="#Grass_7"/>
      <use width="108.82" height="75.4" transform="matrix(0, 0.01, 0.01, 0, 563.99, 292.7)" xlink:href="#Grass_7"/>
      <use width="108.82" height="75.4" transform="matrix(0, 0.01, 0.01, 0, 563.76, 292.45)" xlink:href="#Grass_7"/>
      <use width="108.82" height="75.4" transform="matrix(0, 0.01, 0.01, 0, 563.56, 293.18)" xlink:href="#Grass_7"/>
      <use width="108.82" height="75.4" transform="matrix(0, 0.01, 0.01, 0, 563.19, 293.2)" xlink:href="#Grass_7"/>
      <use width="108.82" height="75.4" transform="matrix(0, 0.01, 0.01, 0, 562.88, 293.15)" xlink:href="#Grass_7"/>
      <use width="108.82" height="75.4" transform="matrix(0, 0.01, 0.01, 0, 562.74, 293.16)" xlink:href="#Grass_7"/>
      <use width="108.82" height="75.4" transform="matrix(0, 0.01, 0.01, 0, 562.52, 293.16)" xlink:href="#Grass_7"/>
      <use width="108.82" height="75.4" transform="matrix(0, 0.01, 0.01, 0, 562.53, 293.56)" xlink:href="#Grass_7"/>
      <use width="108.82" height="75.4" transform="matrix(0, 0.01, 0.01, 0, 562.74, 293.56)" xlink:href="#Grass_7"/>
      <use width="108.82" height="75.4" transform="matrix(0, 0.01, 0.01, 0, 563.31, 293.27)" xlink:href="#Grass_7"/>
      <use width="108.82" height="75.4" transform="matrix(0, 0.01, 0.01, 0, 563.63, 293.11)" xlink:href="#Grass_7"/>
      <use width="108.82" height="75.4" transform="matrix(0, 0.01, 0.01, 0, 563.22, 293.06)" xlink:href="#Grass_7"/>
      <use width="108.82" height="75.4" transform="matrix(0, 0.01, 0.01, 0, 564.09, 293.12)" xlink:href="#Grass_7"/>
      <use width="108.82" height="75.4" transform="matrix(0, 0.01, 0.01, 0, 564.65, 292.95)" xlink:href="#Grass_7"/>
      <use width="108.82" height="75.4" transform="matrix(0, 0.01, 0.01, 0, 564.25, 293.11)" xlink:href="#Grass_7"/>
      <use width="108.82" height="75.4" transform="matrix(0, 0.01, 0.01, 0, 563.88, 293.48)" xlink:href="#Grass_7"/>
      <use width="108.82" height="75.4" transform="matrix(0, 0.01, 0.01, 0, 563.6, 293.51)" xlink:href="#Grass_7"/>
      <use width="108.82" height="75.4" transform="matrix(0, 0.01, 0.01, 0, 563.35, 293.54)" xlink:href="#Grass_7"/>
      <use width="108.82" height="75.4" transform="matrix(0, 0.01, 0.01, 0, 563.16, 293.54)" xlink:href="#Grass_7"/>
      <use width="108.82" height="75.4" transform="matrix(0, 0.01, 0.01, 0, 562.86, 293.57)" xlink:href="#Grass_7"/>
      <use width="108.82" height="75.4" transform="matrix(0, 0.01, 0.01, 0, 562.49, 293.5)" xlink:href="#Grass_7"/>
      <use width="108.82" height="75.4" transform="matrix(0, 0.01, 0.01, 0, 562.4, 293.51)" xlink:href="#Grass_7"/>
      <use width="108.82" height="75.4" transform="matrix(0, 0.01, 0.01, 0, 562.25, 293.8)" xlink:href="#Grass_7"/>
      <use width="108.82" height="75.4" transform="matrix(0, 0.01, 0.01, 0, 562.11, 292.89)" xlink:href="#Grass_7"/>
      <use width="108.82" height="75.4" transform="matrix(0, 0.01, 0.01, 0, 562.13, 292.63)" xlink:href="#Grass_7"/>
      <use width="108.82" height="75.4" transform="matrix(0, 0.01, 0.01, 0, 562.11, 292.42)" xlink:href="#Grass_7"/>
      <use width="108.82" height="75.4" transform="matrix(0, 0.01, 0.01, 0, 562.13, 292.15)" xlink:href="#Grass_7"/>
      <use width="108.82" height="75.4" transform="matrix(0, 0.01, 0.01, 0, 562.13, 291.9)" xlink:href="#Grass_7"/>
      <use width="108.82" height="75.4" transform="matrix(0, 0.01, 0.01, 0, 562.12, 291.71)" xlink:href="#Grass_7"/>
      <use width="108.82" height="75.4" transform="matrix(0, 0.01, 0.01, 0, 562.12, 291.61)" xlink:href="#Grass_7"/>
      <use width="108.82" height="75.4" transform="matrix(0, 0.01, 0.01, 0, 562.1, 293.01)" xlink:href="#Grass_7"/>
      <use width="108.82" height="75.4" transform="matrix(0, 0.01, 0.01, 0, 562.09, 293.16)" xlink:href="#Grass_7"/>
      <use width="108.82" height="75.4" transform="matrix(0, 0.01, 0.01, 0, 562.16, 293.2)" xlink:href="#Grass_7"/>
      <use width="108.82" height="75.4" transform="matrix(0, 0.01, 0.01, 0, 562.19, 293.44)" xlink:href="#Grass_7"/>
      <use width="108.82" height="75.4" transform="matrix(0, 0.01, 0.01, 0, 562.19, 293.69)" xlink:href="#Grass_7"/>
      <use width="108.82" height="75.4" transform="matrix(0, 0.01, 0.01, 0, 562.25, 293.7)" xlink:href="#Grass_7"/>
      <use width="108.82" height="75.4" transform="matrix(0, 0.01, 0.01, 0, 562.46, 293.8)" xlink:href="#Grass_7"/>
      <use width="108.82" height="75.4" transform="matrix(0, 0.01, 0.01, 0, 562.6, 293.86)" xlink:href="#Grass_7"/>
      <use width="108.82" height="75.4" transform="matrix(0, 0.01, 0.01, 0, 562.88, 293.9)" xlink:href="#Grass_7"/>
      <use width="108.82" height="75.4" transform="matrix(0, 0.01, 0.01, 0, 563.23, 293.87)" xlink:href="#Grass_7"/>
      <use width="108.82" height="75.4" transform="matrix(0, 0.01, 0.01, 0, 563.47, 293.83)" xlink:href="#Grass_7"/>
      <use width="108.82" height="75.4" transform="matrix(0, 0.01, 0.01, 0, 563.75, 293.65)" xlink:href="#Grass_7"/>
      <use width="108.82" height="75.4" transform="matrix(0, 0.01, 0.01, 0, 564.17, 293.58)" xlink:href="#Grass_7"/>
      <use width="108.82" height="75.4" transform="matrix(0, 0.01, 0.01, 0, 564.29, 293.74)" xlink:href="#Grass_7"/>
      <use width="108.82" height="75.4" transform="matrix(0, 0.01, 0.01, 0, 564.31, 293.48)" xlink:href="#Grass_7"/>
      <use width="108.82" height="75.4" transform="matrix(0, 0.01, 0.01, 0, 564.27, 293.77)" xlink:href="#Grass_7"/>
      <use width="108.82" height="75.4" transform="matrix(0, 0.01, 0.01, 0, 564.36, 293.94)" xlink:href="#Grass_7"/>
      <use width="108.82" height="75.4" transform="matrix(0, 0.01, 0.01, 0, 564.58, 294)" xlink:href="#Grass_7"/>
      <use width="108.82" height="75.4" transform="matrix(0, 0.01, 0.01, 0, 564.06, 294.03)" xlink:href="#Grass_7"/>
      <use width="108.82" height="75.4" transform="matrix(0, 0.01, 0.01, 0, 563.83, 294.06)" xlink:href="#Grass_7"/>
      <use width="108.82" height="75.4" transform="matrix(0, 0.01, 0.01, 0, 563.4, 294.15)" xlink:href="#Grass_7"/>
      <use width="108.82" height="75.4" transform="matrix(0, 0.01, 0.01, 0, 563.03, 294.13)" xlink:href="#Grass_7"/>
      <use width="108.82" height="75.4" transform="matrix(0, 0.01, 0.01, 0, 562.8, 293.98)" xlink:href="#Grass_7"/>
      <use width="108.82" height="75.4" transform="matrix(0, 0.01, 0.01, 0, 562.21, 294.09)" xlink:href="#Grass_7"/>
      <use width="108.82" height="75.4" transform="matrix(0, 0.01, 0.01, 0, 562.97, 293.34)" xlink:href="#Grass_7"/>
      <use width="108.82" height="75.4" transform="matrix(0, 0.01, 0.01, 0, 563.38, 292.16)" xlink:href="#Grass_7"/>
      <use width="108.82" height="75.4" transform="matrix(0, 0.01, 0.01, 0, 564.96, 290.77)" xlink:href="#Grass_7"/>
      <use width="108.82" height="75.4" transform="matrix(0, 0.01, 0.01, 0, 564.76, 291.16)" xlink:href="#Grass_7"/>
      <use width="108.82" height="75.4" transform="matrix(0, 0.01, 0.01, 0, 564.76, 291.15)" xlink:href="#Grass_7"/>
      <use width="108.82" height="75.4" transform="matrix(0, 0.01, 0.01, 0, 564.38, 292.81)" xlink:href="#Grass_7"/>
      <use width="108.82" height="75.4" transform="matrix(0, 0.01, 0.01, 0, 564.36, 291)" xlink:href="#Grass_7"/>
      <use width="108.82" height="75.4" transform="matrix(0, 0.01, 0.01, 0, 564.53, 290.53)" xlink:href="#Grass_7"/>
      <use width="108.82" height="75.4" transform="matrix(0, 0.01, 0.01, 0, 565.24, 290.84)" xlink:href="#Grass_7"/>
      <use width="108.82" height="75.4" transform="matrix(0, 0.01, 0.01, 0, 563.76, 292.04)" xlink:href="#Grass_7"/>
      <use width="108.82" height="75.4" transform="matrix(0, 0.01, 0.01, 0, 565.54, 293)" xlink:href="#Grass_7"/>
      <use width="108.82" height="75.4" transform="matrix(0, 0.01, 0.01, 0, 565.44, 293.14)" xlink:href="#Grass_7"/>
    </g>
    <g id="Layer_10" data-name="Layer 10">
      <path d="M565.27,295.56a2.13,2.13,0,0,1,.12.76s13.9-.19,14.09-.27l.08-.27S565.42,295.65,565.27,295.56Z" fill="#494949"/>
      <polygon points="562.34 295.9 563.07 295.92 563.07 297.49 562.33 297.49 562.34 295.9" fill="#4f4438"/>
      <polygon points="572.94 295.9 572.94 297.34 574.16 297.34 574.13 295.9 572.94 295.9" fill="#4f4438"/>
      <polygon points="563.1 296.52 563.45 296.55 563.41 297.38 563.1 297.38 563.1 296.52" fill="#ede95a"/>
      <rect x="568.44" y="296.83" width="0.34" height="0.87" fill="#ede95a"/>
      <polygon points="573.72 296.75 573.74 297.62 574.09 297.62 574.09 296.72 573.72 296.75" fill="#ede95a"/>
      <polygon points="584.43 296.76 584.39 297.68 584.77 297.7 584.82 296.8 584.43 296.76" fill="#ede95a"/>
      <polygon points="590.58 297.03 590.58 297.95 590.99 297.95 591.01 297.03 590.58 297.03" fill="#ede95a"/>
      <rect x="596.98" y="296.89" width="0.46" height="0.97" fill="#ede95a"/>
      <polygon points="579.04 295.79 578.99 297.78 579.41 297.81 579.48 295.77 579.04 295.79"/>
      <polygon points="563.1 296.66 563.45 296.7 563.44 296.81 563.1 296.78 563.1 296.66"/>
      <polygon points="563.1 296.88 563.43 296.91 563.43 297.02 563.1 296.98 563.1 296.88"/>
      <polygon points="563.1 297.07 563.43 297.11 563.42 297.21 563.1 297.18 563.1 297.07"/>
      <rect x="568.44" y="296.96" width="0.34" height="0.12"/>
      <rect x="568.44" y="297.2" width="0.34" height="0.13"/>
      <rect x="568.44" y="297.44" width="0.34" height="0.12"/>
      <polygon points="573.73 296.91 574.09 296.89 574.09 297.03 573.73 297.04 573.73 296.91"/>
      <polygon points="574.09 297.15 574.09 297.27 573.74 297.29 573.73 297.17 574.09 297.15"/>
      <polygon points="573.74 297.41 574.09 297.39 574.09 297.51 573.74 297.53 573.74 297.41"/>
      <polygon points="584.43 296.89 584.82 296.92 584.81 297.06 584.42 297.02 584.43 296.89"/>
      <polygon points="584.41 297.14 584.8 297.18 584.79 297.31 584.41 297.28 584.41 297.14"/>
      <polygon points="584.4 297.42 584.78 297.45 584.77 297.6 584.39 297.56 584.4 297.42"/>
      <polygon points="591.01 297.15 591 297.3 590.58 297.31 590.58 297.15 591.01 297.15"/>
      <polygon points="591 297.42 591 297.56 590.58 297.56 590.58 297.42 591 297.42"/>
      <polygon points="591 297.69 590.99 297.84 590.58 297.84 590.58 297.69 591 297.69"/>
      <rect x="596.98" y="297.02" width="0.46" height="0.16"/>
      <rect x="596.98" y="297.31" width="0.46" height="0.17"/>
      <rect x="596.98" y="297.59" width="0.46" height="0.16"/>
    </g>
    <g id="Layer_11" data-name="Layer 11">
      <path d="M563.45,296.59s3.94.27,5,.29"/>
      <path d="M568.78,296.9s4,.07,5,0"/>
      <path d="M574.16,296.79s3.94-.33,5-.47"/>
      <path d="M574.09,297.17s3.94-.33,5-.47"/>
      <path d="M579.47,296.34s3.93.44,5,.51"/>
      <path d="M584.83,296.84s4.55.26,5.75.27"/>
      <path d="M591,297.11s4.73-.09,6-.16"/>
      <path d="M597.44,296.95s4.72-.36,6-.5"/>
      <path d="M597.41,297.4s4.72-.36,6-.5"/>
      <path d="M597.44,297.81s4.74-.37,6-.5"/>
      <path d="M591,297.53s4.73-.09,6-.16"/>
      <path d="M591,297.95s4.73-.09,6-.16"/>
      <path d="M584.81,297.26s4.55.26,5.75.27"/>
      <path d="M584.78,297.63s4.55.26,5.75.27"/>
      <path d="M579.47,296.72s3.93.45,5,.51"/>
      <path d="M579.42,297.14s3.92.44,5,.51"/>
      <path d="M574.09,297.51s3.94-.33,5-.47"/>
      <path d="M568.78,297.24s4,.07,5,0"/>
      <path d="M568.74,297.56s4,.07,5,0"/>
      <path d="M563.42,296.94s3.94.27,5,.29"/>
      <path d="M563.45,297.36s3.94.27,5,.29"/>
      <path d="M590.84,296v-.81a.65.65,0,0,1,.93,0V296h-.92" fill="#3a3937"/>
    </g>
    <g id="Layer_14" data-name="Layer 14">
      <rect x="562.45" y="294.56" width="0.1" height="0.25" fill="#252628"/>
      <rect x="562.9" y="294.56" width="0.09" height="0.25" fill="#252628"/>
      <rect x="563.09" y="294.56" width="0.08" height="0.25" fill="#252628"/>
      <rect x="563.4" y="294.56" width="0.08" height="0.25" fill="#252628"/>
      <rect x="563.56" y="294.56" width="0.09" height="0.25" fill="#252628"/>
      <rect x="564.15" y="294.6" width="0.08" height="0.21" fill="#252628"/>
      <rect x="564.32" y="294.6" width="0.08" height="0.21" fill="#252628"/>
      <rect x="564.47" y="294.6" width="0.06" height="0.21" fill="#252628"/>
      <rect x="564.62" y="294.6" width="0.08" height="0.21" fill="#252628"/>
      <rect x="564.76" y="294.6" width="0.08" height="0.21" fill="#252628"/>
      <path d="M584.7,295.77v-.65a.2.2,0,0,1,.37,0v.65Z" fill="#252628"/>
      <polygon points="577.74 290.77 577.74 291.38 578.16 291.38 578.16 290.77 578.02 290.56 577.86 290.56 577.74 290.77" fill="#252628"/>
      <polygon points="579.77 291.87 579.77 291.15 579.68 291.15 579.83 290.97 579.95 290.97 580.09 291.14 580.02 291.15 580.01 291.87 579.77 291.87" fill="#252628"/>
      <polygon points="583.5 291.19 583.5 291.95 583.76 291.95 583.76 291.19 583.82 291.19 583.69 291.02 583.58 291.02 583.44 291.19 583.5 291.19" fill="#252628"/>
      <polygon points="584.87 291.18 584.87 291.7 585.1 291.7 585.1 291.18 585.15 291.18 585.01 291.02 584.92 291.02 584.8 291.19 584.87 291.18" fill="#252628"/>
      <polygon points="586.18 290.98 586.18 291.84 586.98 291.84 586.98 290.95 586.83 290.95 586.82 290.83 586.18 290.83 586.18 290.98" fill="#30241a"/>
      <rect x="591.13" y="291.37" width="0.39" height="0.4" fill="#fff"/>
      <rect x="591.13" y="292.42" width="0.39" height="0.49" fill="#fff"/>
      <rect x="591.13" y="293.57" width="0.39" height="0.51" fill="#fff"/>
      <rect x="580.02" y="292.56" width="0.38" height="0.48" fill="#fff"/>
      <rect x="578.91" y="292.56" width="0.38" height="0.48" fill="#fff"/>
      <rect x="578.88" y="293.72" width="0.38" height="0.41" fill="#fff"/>
      <rect x="578.88" y="294.56" width="0.38" height="0.44" fill="#fff"/>
      <rect x="577.78" y="292.56" width="0.38" height="0.48" fill="#fff"/>
      <rect x="580.74" y="292.56" width="0.38" height="0.48" fill="#fff"/>
      <rect x="581.49" y="292.56" width="0.36" height="0.48" fill="#fff"/>
      <rect x="582.21" y="292.56" width="0.32" height="0.48" fill="#fff"/>
      <rect x="580.02" y="293.72" width="0.34" height="0.41" fill="#fff"/>
      <rect x="580.74" y="293.72" width="0.33" height="0.41" fill="#fff"/>
      <rect x="581.49" y="293.72" width="0.36" height="0.41" fill="#fff"/>
      <rect x="580.02" y="294.56" width="0.34" height="0.5" fill="#fff"/>
      <rect x="580.74" y="294.56" width="0.33" height="0.5" fill="#fff"/>
      <rect x="581.49" y="294.56" width="0.36" height="0.5" fill="#fff"/>
      <rect x="582.59" y="293.83" width="0.29" height="0.17" fill="#fff"/>
      <rect x="582.61" y="295.33" width="0.29" height="0.17" fill="#fff"/>
      <rect x="583.5" y="293.83" width="0.3" height="0.17" fill="#fff"/>
      <rect x="582.59" y="294.55" width="0.29" height="0.32" fill="#fff"/>
      <rect x="583.5" y="294.63" width="0.3" height="0.16" fill="#fff"/>
      <rect x="583.5" y="295.3" width="0.3" height="0.16" fill="#fff"/>
      <rect x="584.13" y="293.83" width="0.28" height="0.17" fill="#fff"/>
      <rect x="584.13" y="294.63" width="0.28" height="0.16" fill="#fff"/>
      <rect x="584.11" y="295.3" width="0.28" height="0.16" fill="#fff"/>
      <rect x="584.75" y="293.83" width="0.29" height="0.17" fill="#fff"/>
      <rect x="585.37" y="293.83" width="0.31" height="0.17" fill="#fff"/>
      <rect x="585.99" y="293.83" width="0.32" height="0.17" fill="#fff"/>
      <rect x="585.37" y="294.62" width="0.31" height="0.16" fill="#fff"/>
      <rect x="585.37" y="295.3" width="0.31" height="0.16" fill="#fff"/>
      <rect x="585.99" y="294.62" width="0.32" height="0.16" fill="#fff"/>
      <rect x="585.99" y="295.3" width="0.32" height="0.16" fill="#fff"/>
      <rect x="587.08" y="295.06" width="0.41" height="0.43" fill="#fff"/>
      <rect x="587.8" y="295.06" width="0.39" height="0.43" fill="#fff"/>
      <rect x="588.5" y="295.06" width="0.4" height="0.43" fill="#fff"/>
      <rect x="594.2" y="295.06" width="0.4" height="0.43" fill="#fff"/>
      <rect x="594.9" y="295.06" width="0.45" height="0.43" fill="#fff"/>
      <rect x="595.6" y="295.06" width="0.43" height="0.43" fill="#fff"/>
      <rect x="596.34" y="295.06" width="0.44" height="0.43" fill="#fff"/>
      <rect x="597.07" y="295.06" width="0.4" height="0.43" fill="#fff"/>
      <rect x="597.77" y="295.06" width="0.46" height="0.43" fill="#fff"/>
      <rect x="598.53" y="295.06" width="0.44" height="0.43" fill="#fff"/>
      <rect x="599.25" y="295.06" width="0.43" height="0.43" fill="#fff"/>
      <rect x="599.96" y="295.06" width="0.45" height="0.43" fill="#fff"/>
      <rect x="600.72" y="295.06" width="0.41" height="0.43" fill="#fff"/>
      <rect x="601.47" y="295.06" width="0.44" height="0.43" fill="#fff"/>
      <polyline points="570.77 294.71 570.63 294.69 570.53 295.24" fill="none" stroke="#fff" stroke-miterlimit="10" stroke-width="0.1"/>
      <line x1="570.58" y1="294.96" x2="570.71" y2="294.99" fill="none" stroke="#fff" stroke-miterlimit="10" stroke-width="0.1"/>
      <path d="M570.87,294.79a.09.09,0,0,1,.1-.07h0c.08,0,.06.09.06.09s0,.15-.1.13.1,0,.05.19-.16.13-.16.13,0,0,0-.12" fill="none" stroke="#fff" stroke-miterlimit="10" stroke-width="0.1"/>
      <path d="M571.27,294.78l-.13,0,0,.23h.09s.06,0,0,.19-.08.15-.08.15-.1,0-.08-.16" fill="none" stroke="#fff" stroke-miterlimit="10" stroke-width="0.1"/>
      <path d="M571.35,294.85a.08.08,0,0,1,.09-.05.09.09,0,0,1,.07.06s0,.15-.09.18-.11.31-.11.31l.16,0" fill="none" stroke="#fff" stroke-miterlimit="10" stroke-width="0.1"/>
      <polyline points="577.8 295.29 577.72 295.29 577.71 295.61" fill="none" stroke="#fff" stroke-miterlimit="10" stroke-width="0.1"/>
      <line x1="577.72" y1="295.45" x2="577.79" y2="295.45" fill="none" stroke="#fff" stroke-miterlimit="10" stroke-width="0.1"/>
      <path d="M577.86,295.33a0,0,0,0,1,.05,0c.05,0,0,0,0,0s0,.08,0,.08.05,0,0,.1-.08.09-.08.09,0,0,0-.06" fill="none" stroke="#fff" stroke-miterlimit="10" stroke-width="0.1"/>
      <path d="M578.09,295.29H578v.13h.05s0,0,0,.1,0,.09,0,.09-.05,0-.06-.08" fill="none" stroke="#fff" stroke-miterlimit="10" stroke-width="0.1"/>
    </g>
  </g>
</svg>
