<svg id="Lag_5" data-name="Lag 5" xmlns="http://www.w3.org/2000/svg" width="751.3" height="622" viewBox="0 0 751.3 622">
  <title>winstonchurch-01</title>
  <g>
    <g id="Lag_8" data-name="Lag 8">
      <rect x="511.26" y="283.6" width="5.66" height="14.57" fill="#918e88" stroke="#000" stroke-miterlimit="10" stroke-width="0.25"/>
      <rect x="512.12" y="285.19" width="3.68" height="2.84" fill="#3a3834" stroke="#000" stroke-miterlimit="10" stroke-width="0.25"/>
    </g>
    <g id="Lag_3" data-name="Lag 3">
      <path d="M511.26,281.23l.67,2.36h4.52l.47-2.27a3.57,3.57,0,0,0-1.63-.75,6.27,6.27,0,0,1-1.21.64,5.47,5.47,0,0,1-.78-.72l-.11-.27.06-.11a.68.68,0,0,0-.58.38l-.24.16Z" fill="#262011" stroke="#000" stroke-miterlimit="10" stroke-width="0.25"/>
    </g>
    <g id="Lag_7" data-name="Lag 7">
      <path d="M511.93,282.54V282a7.06,7.06,0,0,1,1.2,0c.19.07.07.5.07.5Z" stroke="#000" stroke-miterlimit="10" stroke-width="0.25"/>
    </g>
    <g id="Lag_5-2" data-name="Lag 5">
      <path d="M515.52,280.61l.28.8s-.47-.4-.64-.31c0,0-.47-.06-.67.17a5,5,0,0,1-.65.53" fill="none" stroke="#000" stroke-miterlimit="10" stroke-width="0.25"/>
    </g>
    <g id="Lag_6" data-name="Lag 6">
      <path d="M514.47,281.06l-.38.15s-1.07-1-.89-1,1.12.91,1.35.79a7.34,7.34,0,0,0,.74-.52c.11-.15,0-.7,0-.7v-.4a2.06,2.06,0,0,0-.13-.64c-.13-.36-.35-.41-.35-.41a1.07,1.07,0,0,0-.73-.21,1,1,0,0,0-.83.37c-.28.41,0,.56-.15.62s0,.66,0,.66c.17,0,.15.32.15.32" fill="#7c6859" stroke="#000" stroke-miterlimit="10" stroke-width="0.25"/>
      <rect x="513.7" y="279.76" width="0.28" height="1.39" transform="translate(14.04 585.22) rotate(-60)" fill="#7c6859"/>
      <rect x="513.82" y="280.23" width="0.28" height="1.01" transform="translate(-4.2 553.65) rotate(-56.42)" fill="#7c6859"/>
      <line x1="513.06" y1="285.87" x2="514.82" y2="285.87" fill="none" stroke="#000" stroke-miterlimit="10" stroke-width="0.25"/>
      <line x1="514.82" y1="286.61" x2="513.06" y2="286.61" fill="none" stroke="#000" stroke-miterlimit="10" stroke-width="0.25"/>
      <line x1="514.64" y1="287.1" x2="513.46" y2="287.14" fill="none" stroke="#000" stroke-miterlimit="10" stroke-width="0.25"/>
      <line x1="514.64" y1="287.55" x2="513.83" y2="287.55" fill="none" stroke="#000" stroke-miterlimit="10" stroke-width="0.25"/>
    </g>
    <g id="Lag_4" data-name="Lag 4">
      <path d="M512.43,280.65v.76s.24-.61.34-.56.22-.14.26,0a3.41,3.41,0,0,0,.34.56l.47.39.11,1.79" fill="none" stroke="#000" stroke-miterlimit="10" stroke-width="0.25"/>
    </g>
    <g id="Lag_2" data-name="Lag 2">
      <path d="M514.66,282H516v.53s-1,.19-1.19,0A.57.57,0,0,1,514.66,282Z" fill="#050505" stroke="#000" stroke-miterlimit="10" stroke-width="0.25"/>
    </g>
  </g>
</svg>
