<svg id="Lag_5" data-name="Lag 5" xmlns="http://www.w3.org/2000/svg" width="751.3" height="622" viewBox="0 0 751.3 622">
  <title>winstonchurch</title>
  <g>
    <g id="Lag_8" data-name="Lag 8">
      <rect x="510.4" y="279.95" width="5.66" height="14.57" fill="#918e88" stroke="#000" stroke-miterlimit="10" stroke-width="0.25"/>
      <rect x="511.26" y="281.54" width="3.68" height="2.84" fill="#3a3834" stroke="#000" stroke-miterlimit="10" stroke-width="0.25"/>
    </g>
    <g id="Lag_3" data-name="Lag 3">
      <path d="M510.4,277.58l.67,2.36h4.52l.47-2.27a3.57,3.57,0,0,0-1.63-.75,6.27,6.27,0,0,1-1.21.64,5.47,5.47,0,0,1-.78-.72l-.11-.27.06-.11a.68.68,0,0,0-.58.38l-.24.16Z" fill="#262011" stroke="#000" stroke-miterlimit="10" stroke-width="0.25"/>
    </g>
    <g id="Lag_7" data-name="Lag 7">
      <path d="M511.07,278.89v-.5a7.06,7.06,0,0,1,1.2,0c.19.07.07.5.07.5Z" stroke="#000" stroke-miterlimit="10" stroke-width="0.25"/>
    </g>
    <g id="Lag_5-2" data-name="Lag 5">
      <path d="M514.66,277l.28.8s-.47-.4-.64-.31c0,0-.47-.06-.67.17a5,5,0,0,1-.65.53" fill="none" stroke="#000" stroke-miterlimit="10" stroke-width="0.25"/>
    </g>
    <g id="Lag_6" data-name="Lag 6">
      <path d="M513.61,277.41l-.38.15s-1.07-1-.89-1,1.12.91,1.35.79a7.34,7.34,0,0,0,.74-.52c.11-.15,0-.7,0-.7v-.4a2.06,2.06,0,0,0-.13-.64c-.13-.36-.35-.41-.35-.41a1.07,1.07,0,0,0-.73-.21,1,1,0,0,0-.83.37c-.28.41,0,.56-.15.62s0,.66,0,.66c.17,0,.15.32.15.32" fill="#7c6859" stroke="#000" stroke-miterlimit="10" stroke-width="0.25"/>
      <rect x="512.84" y="276.11" width="0.28" height="1.39" transform="translate(16.77 582.65) rotate(-60)" fill="#7c6859"/>
      <rect x="512.96" y="276.58" width="0.28" height="1.01" transform="translate(-1.54 551.3) rotate(-56.42)" fill="#7c6859"/>
      <line x1="512.2" y1="282.22" x2="513.96" y2="282.22" fill="none" stroke="#000" stroke-miterlimit="10" stroke-width="0.25"/>
      <line x1="513.96" y1="282.96" x2="512.2" y2="282.96" fill="none" stroke="#000" stroke-miterlimit="10" stroke-width="0.25"/>
      <line x1="513.79" y1="283.45" x2="512.6" y2="283.49" fill="none" stroke="#000" stroke-miterlimit="10" stroke-width="0.25"/>
      <line x1="513.79" y1="283.9" x2="512.98" y2="283.9" fill="none" stroke="#000" stroke-miterlimit="10" stroke-width="0.25"/>
    </g>
    <g id="Lag_4" data-name="Lag 4">
      <path d="M511.57,277v.76s.24-.61.34-.56.22-.14.26,0a3.41,3.41,0,0,0,.34.56l.47.39.11,1.79" fill="none" stroke="#000" stroke-miterlimit="10" stroke-width="0.25"/>
    </g>
    <g id="Lag_2" data-name="Lag 2">
      <path d="M513.8,278.37h1.35v.53s-1,.19-1.19,0A.57.57,0,0,1,513.8,278.37Z" fill="#050505" stroke="#000" stroke-miterlimit="10" stroke-width="0.25"/>
    </g>
  </g>
</svg>
