<svg xmlns="http://www.w3.org/2000/svg" width="101.29" height="357.29" viewBox="0 0 101.29 357.29">
  <title>winston</title>
  <g id="Lag_8" data-name="Lag 8">
    <rect x="0.15" y="97.3" width="101" height="259.87" fill="#918e88" stroke="#000" stroke-miterlimit="10" stroke-width="0.25"/>
    <rect x="15.48" y="125.8" width="65.67" height="50.6" fill="#3a3834" stroke="#000" stroke-miterlimit="10" stroke-width="0.25"/>
  </g>
  <g id="Lag_3" data-name="Lag 3">
    <path d="M188,74.67l12,42.13h80.67L289,76.33S273.33,63.67,260,63c0,0-19,12-21.5,11.33s-13.83-12.85-13.83-12.85l-2-4.81,1-1.92a12.19,12.19,0,0,0-10.33,6.73L209,64.33Z" transform="translate(-187.85 -19.5)" fill="#262011" stroke="#000" stroke-miterlimit="10" stroke-width="0.25"/>
  </g>
  <g id="Lag_7" data-name="Lag 7">
    <path d="M200,98V89.14s18-1.19,21.33,0S222.5,98,222.5,98Z" transform="translate(-187.85 -19.5)" stroke="#000" stroke-miterlimit="10" stroke-width="0.25"/>
  </g>
  <g id="Lag_5" data-name="Lag 5">
    <path d="M264,63.52l5,14.3s-8.33-7.16-11.33-5.49c0,0-8.33-1-12,3S234,84.8,234,84.8" transform="translate(-187.85 -19.5)" fill="none" stroke="#000" stroke-miterlimit="10" stroke-width="0.25"/>
  </g>
  <g id="Lag_6" data-name="Lag 6">
    <path d="M245.31,71.62l-6.81,2.71S219.33,57,222.67,56.67c2-.2,20,16.31,24.17,14.13S260,61.48,260,61.48c1.89-2.7,0-12.4,0-12.4V42a36.79,36.79,0,0,0-2.33-11.4c-2.33-6.4-6.17-7.27-6.17-7.27-4.17-4.33-13-3.67-13-3.67s-9.83-.67-14.82,6.63-.68,10-2.68,11,0,11.75,0,11.75c3,.41,2.67,5.67,2.67,5.67" transform="translate(-187.85 -19.5)" fill="#7c6859" stroke="#000" stroke-miterlimit="10" stroke-width="0.25"/>
    <rect x="221.6" y="58.33" width="24.8" height="4.92" transform="translate(-126.11 -128.36) rotate(30)" fill="#7c6859"/>
    <rect x="227.17" y="63.33" width="18" height="5" transform="translate(-112.01 -139.15) rotate(33.58)" fill="#7c6859"/>
    <line x1="32.26" y1="137.83" x2="63.65" y2="137.83" stroke="#000" stroke-miterlimit="10" stroke-width="0.25"/>
    <line x1="63.65" y1="151.1" x2="32.26" y2="151.1" fill="none" stroke="#000" stroke-miterlimit="10" stroke-width="0.25"/>
    <line x1="60.61" y1="159.83" x2="39.48" y2="160.5" fill="none" stroke="#000" stroke-miterlimit="10" stroke-width="0.25"/>
    <line x1="60.61" y1="167.83" x2="46.15" y2="167.83" fill="none" stroke="#000" stroke-miterlimit="10" stroke-width="0.25"/>
  </g>
  <g id="Lag_4" data-name="Lag 4">
    <path d="M209,64.33V77.82s4.33-10.89,6-10c0,0,4-2.53,4.67,0s6,10,6,10l8.33,7,2,32" transform="translate(-187.85 -19.5)" fill="none" stroke="#000" stroke-miterlimit="10" stroke-width="0.25"/>
  </g>
  <g id="Lag_2" data-name="Lag 2">
    <path d="M248.67,88.61h24V98s-17,3.33-21.17,0S248.67,88.61,248.67,88.61Z" transform="translate(-187.85 -19.5)" fill="#050505" stroke="#000" stroke-miterlimit="10" stroke-width="0.25"/>
  </g>
</svg>
